<?xml version="1.0" encoding="UTF-8"?>
<svg id="Capa_2" data-name="Capa 2" xmlns="http://www.w3.org/2000/svg" viewBox="0 0 132.81 132.81">
  <defs>
    <style>
      .cls-1 {
        fill: #fff;
      }

      .cls-2 {
        fill: #fde53c;
      }
    </style>
  </defs>
  <g id="LOGOTIPOS">
    <g>
      <circle class="cls-2" cx="66.4" cy="66.4" r="66.4"/>
      <g>
        <path d="M30.02,89.43c-.21-.13-.4-.23-.58-.34-2.96-1.77-5.6-3.9-7.71-6.6-2.52-3.22-4.06-6.86-4.7-10.87-.48-2.98-.24-5.88,1.04-8.65,1.18-2.55,2.38-5.08,3.57-7.63,.48-1.04,1.03-2.05,1.36-3.17,.32-1.1,1.02-1.99,1.96-2.67,1.1-.8,2.37-1.25,3.68-1.55,2.03-.48,4.12-.65,6.2-.83,2.18-.2,4.37-.37,6.55-.52,2.53-.18,5.07-.28,7.61-.11,2.74,.19,5.29,.92,7.57,2.44,1.38,.92,2.74,1.85,4.11,2.78,.18,.13,.31,.14,.52,.02,1.58-.94,3.14-1.89,4.75-2.77,4.2-2.32,8.54-4.33,13.12-5.86,3.21-1.07,6.51-1.7,9.91-1.61,1.39,.04,2.78,.16,4.16,.32,2.07,.25,4.1,.67,6.04,1.45,3.51,1.43,6.64,3.45,9.45,5.94,2.21,1.95,3.97,4.25,5.24,6.89,2.02,4.18,2.33,8.56,1.38,13.03-1.19,5.62-3.94,10.42-8.04,14.51-.17,.17-.23,.3-.16,.55,.62,2.17,1.14,4.37,1.36,6.62,.04,.4,.07,.79,.11,1.24,.06-.08,.09-.11,.11-.15,1.89-3,3.79-6,5.67-9.01,1.37-2.2,2.65-4.45,3.63-6.86,1.21-2.97,1.81-6.08,2.01-9.25,.19-2.98,.27-5.96,.34-8.94,.04-1.41-.03-2.82-.09-4.23-.11-2.65-.42-5.27-1.02-7.85-.75-3.21-2.22-6.04-4.7-8.3-1.38-1.26-2.86-2.42-4.3-3.62-.85-.72-1.77-1.34-2.79-1.81-.74-.34-1.44-.76-2.17-1.12-.2-.1-.47-.17-.69-.13-3.3,.48-6.6,.96-9.9,1.48-4.01,.63-7.96,1.56-11.83,2.8-3.32,1.06-6.54,2.35-9.7,3.82-1.84,.86-3.69,1.69-5.37,2.85-1.57,1.09-3.18,2.14-4.77,3.21-.46,.31-1.02,.27-1.39-.1-1-1.04-2.16-1.89-3.39-2.64-2.97-1.79-6.15-3.17-9.4-4.4-4.02-1.52-8.15-2.63-12.43-3.23-1.82-.26-3.64-.54-5.45-.88-1.28-.24-2.43-.15-3.42,.76-1.32,1.21-2.72,2.37-3.98,3.64-4.07,4.08-7.1,8.82-9.18,14.15-1.55,3.96-2.36,8.1-2.93,12.28-.35,2.56-.58,5.13-.62,7.71-.03,1.79,.05,3.57,.29,5.35,.33,2.38,.89,4.71,1.6,7,1.07,3.42,2.18,6.83,3.28,10.24,.16,.5,.32,1,.51,1.57,.04-.12,.06-.17,.08-.22,.45-1.41,.84-2.85,1.37-4.23,.73-1.87,1.56-3.71,2.37-5.55,.18-.42,.59-.61,1.03-.57,.52,.06,.85,.33,.95,.8,.06,.29,.12,.58,.17,.87,.61,3.09,1.23,6.18,1.84,9.27,.16,.78,.31,1.56,.47,2.34,1.49-3.35,3.22-6.55,5.27-9.62Zm2.55-39.97s0,.04,0,.05c.08,.04,.16,.08,.24,.11,8.85,3.79,17.71,7.57,26.56,11.36,1.07,.46,2.19,.84,3.17,1.5,.06,.04,.16,.05,.24,.06,2.04,.23,4.07,.23,6.11,.04,.75-.07,1.5-.1,2.14-.57,.11-.08,.25-.13,.38-.18,9.82-4.2,19.63-8.4,29.45-12.59,.7-.3,1.41-.54,2.14-.77,.32-.1,.68-.1,1.1-.16-.46-.3-.86-.56-1.27-.82-2.63-1.7-5.44-2.94-8.58-3.41-1.72-.26-3.45-.46-5.19-.48-1.52-.02-3.05,.01-4.56,.28-2.82,.5-5.52,1.37-8.16,2.42-5.04,2.01-9.79,4.56-14.38,7.41-.06,.03-.11,.07-.16,.11-.53,.45-.94,.5-1.53,.12-1.09-.71-2.15-1.45-3.25-2.15-1.13-.72-2.25-1.49-3.45-2.1-1.78-.9-3.75-1.12-5.72-1.19-2.63-.1-5.25,.12-7.86,.3-2.04,.14-4.07,.34-6.1,.52-.45,.04-.89,.09-1.33,.14Zm-8.22,5.72s-.03,.05-.03,.07c0,.07,0,.15,0,.22-.08,1.01,.12,1.97,.38,2.94,1.94,7.18,5.56,13.43,10.81,18.78,.1,.1,.24,.18,.37,.24,4.49,1.93,8.99,3.85,13.49,5.77,1.16,.49,2.37,.79,3.63,.84,2.99,.12,5.59-.84,7.76-2.85,1.92-1.77,2.99-3.97,3.18-6.55,.08-1.12,.03-2.25,.06-3.37,0-.23-.07-.34-.28-.42-4.79-1.9-9.58-3.81-14.37-5.72-7.93-3.16-15.86-6.32-23.79-9.48-.4-.16-.8-.32-1.19-.47Zm84.01,.03c-.12,.04-.21,.07-.31,.11-6.62,2.64-13.25,5.28-19.87,7.92-6.4,2.55-12.79,5.1-19.19,7.64-.23,.09-.29,.2-.28,.43,.01,.61-.01,1.22,0,1.82,.03,.82,0,1.65,.14,2.45,1.11,6.45,8.2,10.33,14.46,7.66,4.4-1.88,8.8-3.76,13.21-5.64,.34-.15,.63-.34,.89-.6,5.29-5.48,8.87-11.87,10.74-19.18,.22-.85,.25-1.7,.21-2.6Zm-12.96-25.23c-.14-.06-.23-.1-.31-.13-2.19-.78-4.38-1.56-6.57-2.35-.21-.08-.38-.07-.59,.01-3.59,1.51-7.17,3.05-10.78,4.52-4.1,1.66-8.22,3.26-12.33,4.89-.33,.13-.63,.11-.95-.04-.56-.28-1.13-.54-1.7-.81-3.1-1.51-6.2-3.05-9.32-4.54-2.78-1.33-5.64-2.48-8.61-3.34-.33-.1-.58-.06-.86,.14-1.91,1.36-3.83,2.71-5.75,4.06-.07,.05-.14,.11-.25,.19,.09,.02,.13,.03,.18,.03,1.33,.25,2.67,.45,3.99,.75,4.93,1.13,9.6,2.96,14.16,5.08,2.43,1.13,4.71,2.49,6.77,4.23,.08-.05,.17-.11,.25-.16,1.59-1.05,3.16-2.14,4.78-3.15,2.12-1.32,4.43-2.3,6.71-3.33,5.91-2.66,12.07-4.52,18.47-5.6,.88-.15,1.75-.3,2.7-.47Zm-26.65,39.25c.13-.05,.25-.09,.37-.14,5.2-2.07,10.39-4.14,15.59-6.21,7.8-3.11,15.59-6.21,23.39-9.31,.18-.07,.24-.14,.2-.34-.52-2.53-3.35-3.96-5.81-2.92-3.11,1.32-6.22,2.66-9.33,3.99-7.06,3.02-14.13,6.03-21.18,9.07-2.18,.94-3.54,3.15-3.23,5.87Zm-43.91-15.61c13.05,5.2,26.07,10.39,39.1,15.58,.03-.06,.04-.08,.04-.09,0-.22,0-.44,0-.66-.05-2.47-1.24-4.25-3.53-5.23-9.33-4.02-18.68-8-28.03-11.99-.93-.4-1.87-.78-2.81-1.15-.18-.07-.4-.12-.58-.08-.89,.2-1.71,.55-2.4,1.16-.78,.68-1.3,1.55-1.8,2.47Zm43.68-20.36c-1.38-.57-2.7-1.11-4.02-1.67-4.46-1.88-8.92-3.77-13.37-5.66-.2-.08-.33-.07-.49,.08-.51,.46-1.04,.9-1.57,1.35-.06,.05-.15,.07-.22,.11,.14,.11,.2,.13,.26,.16,2.41,1.07,4.84,2.1,7.23,3.22,2.63,1.24,5.23,2.55,7.84,3.84,.2,.1,.36,.12,.58,.03,.63-.26,1.28-.49,1.92-.73,.61-.23,1.22-.47,1.86-.72Zm-4.41-4.18s.01,.05,.02,.08c.04,.02,.08,.04,.13,.06,2.3,.92,4.61,1.84,6.91,2.78,.23,.09,.4,.07,.61-.02,1.99-.82,3.98-1.64,5.98-2.46,.73-.3,1.47-.61,2.28-.95-.16-.03-.24-.06-.32-.06-1.91-.19-3.81-.44-5.72-.56-2.64-.16-5.27-.04-7.85,.57-.68,.16-1.35,.37-2.02,.56Zm44.27,33.73c-1.83,4.71-4.35,9.01-7.6,12.91,.09,0,.16-.03,.22-.06,1.83-.78,3.67-1.57,5.5-2.35,1.26-.54,1.87-1.48,1.87-2.82,0-2.47,0-4.94,0-7.41v-.27Zm-76.52,12.88c-3.21-3.91-5.72-8.2-7.55-12.88v.3c0,2.47,0,4.94,0,7.41,0,1.3,.61,2.21,1.82,2.73,1.79,.77,3.58,1.53,5.37,2.3,.12,.05,.24,.09,.36,.14Zm3.38,16.17c-1.08-.46-2.13-.91-3.18-1.35-.22,1.27,.8,6.42,1.47,7.37,.36-2.07,.93-4.07,1.71-6.02Zm29.1-27.59c1.06,1.53,1.38,3.18,1.26,4.93h1.48c-.13-1.79,.22-3.45,1.27-4.93h-4.01Zm37.84,27.28c.55-1.69,1.09-3.34,1.64-5.02-1.04,.66-2.03,1.29-3.04,1.94,.46,1,.92,2.02,1.4,3.08Zm-5.17,3.12c.37-1.59,.69-3.2,.98-4.87-.75,.3-1.42,.57-2.06,.83,.36,1.36,.72,2.7,1.07,4.04Zm25.19-42.74c-.17-2.71-.52-5.39-1.3-8-.98-3.3-2.77-6.12-5.39-8.4-1.67-1.45-3.41-2.85-5.15-4.23-.52-.42-1.16-.71-1.76-1.03-.7-.39-1.45-.71-2.13-1.14-.72-.45-1.49-.56-2.3-.45-1.35,.18-2.7,.38-4.05,.56-.2,.03-.44,0-.63-.06-3.54-1.27-7.08-2.53-10.61-3.81-.49-.18-.94-.18-1.42,.03-1.18,.52-2.38,1.02-3.57,1.51-.13,.06-.29,.07-.43,.05-3.09-.48-6.17-.96-9.29-1.12-2.47-.13-4.92-.04-7.37,.38-1.79,.31-3.49,.87-5.14,1.61-.2,.09-.37,.09-.58,0-3.34-1.4-6.69-2.8-10.03-4.19-.1-.04-.2-.09-.3-.13h-.23c-.66,.19-1.07,.73-1.57,1.13-.76,.62-1.5,1.26-2.24,1.9-.12,.11-.22,.12-.38,.07-.52-.17-1.04-.32-1.56-.48-.97-.3-1.84-.14-2.65,.47-1.14,.85-2.31,1.65-3.47,2.47-1.37,.97-2.73,1.93-4.1,2.88-.11,.08-.28,.11-.41,.09-1.3-.19-2.6-.39-3.9-.59-1.34-.2-2.53,.14-3.6,.94-1.62,1.22-3.14,2.56-4.56,4-2.98,3.03-5.49,6.39-7.5,10.12-1.99,3.69-3.39,7.59-4.29,11.67-.89,4.07-1.41,8.18-1.61,12.34-.02,.4-.02,.81-.04,1.21,0,.09-.03,.18-.04,.26v1.22c.02,.08,.04,.16,.04,.24,.05,3.05,.42,6.07,1.24,9.01,.88,3.18,1.89,6.32,2.88,9.47,.89,2.81,1.83,5.61,2.73,8.41,.17,.52,.43,.89,1.01,.99,.59,.1,1.03-.18,1.14-.75,.41-2.08,.91-4.14,1.59-6.15,.45-1.34,.97-2.65,1.45-3.98,.02-.06,.05-.12,.11-.26,.11,.53,.2,.98,.29,1.43,.76,3.82,1.52,7.64,2.28,11.46,.11,.54,.38,.8,.86,.84,.54,.05,1.03-.26,1.22-.75,.52-1.32,1.02-2.65,1.57-3.96,.83-1.97,1.82-3.86,2.9-5.71,.04-.07,.09-.14,.17-.26,.05,.3,.1,.55,.14,.79,.48,2.83,1.45,5.5,2.89,8,.05,.08,.09,.16,.14,.24,.27,.43,.68,.61,1.15,.49,.51-.13,.81-.5,.86-1,.12-1.28,.21-2.57,.4-3.84,.27-1.83,.81-3.59,1.51-5.31,.01-.03,.04-.06,.06-.09,.81,.23,1.61,.46,2.41,.67,2.68,.71,5.41,1.17,8.17,1.49,3.05,.35,6.11,.52,9.17,.63,.8,.03,1.6,.05,2.4,.07,.05,0,.11,.01,.24,.03,0,.58,.01,1.15,0,1.73-.04,1.47-.37,2.89-.96,4.24-.56,1.3-1.36,2.48-2.36,3.51-.9,.93-1.92,1.71-3.08,2.31-.44,.24-.68,.57-.66,1.06,.03,.48,.32,.77,.77,.92,.02,0,.03,.02,.04,.03h.51c3.52-1.79,5.92-4.53,7.17-8.22,.03-.08,.05-.16,.07-.21,3.3,1.89,6.63,2.01,10.04,.26,.21,.5,.43,1.08,.7,1.63,1.36,2.71,3.41,4.79,6.11,6.24,.46,.25,1.01,.18,1.34-.14,.31-.3,.4-.87,.16-1.26-.12-.18-.31-.35-.51-.45-2.45-1.33-4.25-3.23-5.38-5.73-.63-1.38-.95-2.85-1-4.37-.02-.64,0-1.29,0-1.95,7.24-.6,14.34-1.57,21.29-3.7,.21,.71,.44,1.4,.62,2.1,.61,2.31,.78,4.66,.59,7.04-.07,.85,.56,1.44,1.34,1.24,.39-.1,.61-.38,.75-.73,.78-1.94,1.46-3.91,1.91-5.95,.24-1.09,.46-2.2,.68-3.3,0-.04,.02-.09,.06-.2,.07,.14,.11,.22,.15,.3,.63,1.47,1.14,2.96,1.33,4.55,.07,.59,.52,1.01,1.03,1,.6-.01,1.08-.43,1.09-1.02,.05-1.84,.55-3.58,1.11-5.31,.36-1.13,.75-2.25,1.19-3.39,.08,.41,.17,.81,.25,1.22,.32,1.74,.41,3.49,.47,5.25,.01,.5,.03,.99,.04,1.49,.01,.52,.32,.92,.8,1.05,.5,.13,.93-.04,1.22-.51,1.55-2.55,3.09-5.1,4.66-7.64,1.26-2.05,2.59-4.06,3.83-6.12,1.54-2.55,2.85-5.2,3.74-8.04,.6-1.91,.94-3.87,1.11-5.86,.18-2.09,.35-4.18,.44-6.28,.16-3.43,.1-6.87-.12-10.3Zm-9.52,18.59c-1.28,4.34-3.55,8.12-6.73,11.39-2.76,2.84-6.07,4.87-9.73,6.37-.66,.27-1.34,.47-2.01,.73-2.65,1.01-5.41,1.67-8.2,2.17-2.68,.48-5.38,.89-8.08,1.25-1.82,.25-3.65,.37-5.47,.54-.11,.01-.25,.01-.39,.02-.34,.03-.34,.03-.82,.06-.21,.01-.39,.02-.57,.03-.03,0-.05,0-.08,0-1.95,.07-3.89,.15-5.84,.2-1.27,.03-2.54,.03-3.81,.02-1.73-.02-3.46-.05-5.19-.11-4.86-.18-9.69-.58-14.43-1.7-4.63-1.09-8.98-2.81-12.87-5.55-3.89-2.75-6.75-6.26-8.34-10.73-.74-2.09-1.15-4.23-1.2-6.44-.03-1.56,.28-3.04,.91-4.46,.89-2.02,1.81-4.02,2.71-6.04,.02-.04,.04-.08,.12-.11v.29c0,3.99,0,7.98,0,11.97,0,2.07,.97,3.52,2.91,4.35,7.67,3.28,15.35,6.56,23.02,9.85,6.8,2.92,14.6-.69,16.59-7.68,.29-1.01,.43-2.04,.43-3.08,0-1,0-1.99,0-3.01h1.44c0,.13,.02,.24,.02,.35,0,1.08-.04,2.16,.03,3.23,.28,4.38,2.41,7.69,6.31,9.8,3.44,1.86,7.04,1.97,10.65,.43,7.7-3.27,15.39-6.57,23.08-9.86,1.92-.82,2.88-2.27,2.88-4.31,0-5.42,0-10.84,0-16.26v-.32s.08,.03,.09,.05c1.8,2.45,2.99,5.14,3.36,8.16,.35,2.86,.04,5.66-.77,8.42Z"/>
        <path class="cls-1" d="M30.02,89.43c-2.06,3.07-3.78,6.28-5.27,9.62-.16-.78-.31-1.56-.47-2.34-.61-3.09-1.23-6.18-1.84-9.27-.06-.29-.11-.58-.17-.87-.1-.47-.43-.74-.95-.8-.44-.05-.85,.15-1.03,.57-.8,1.84-1.64,3.68-2.37,5.55-.54,1.38-.92,2.82-1.37,4.23-.02,.05-.04,.1-.08,.22-.18-.57-.35-1.07-.51-1.57-1.09-3.41-2.2-6.82-3.28-10.24-.72-2.29-1.27-4.62-1.6-7-.25-1.77-.32-3.56-.29-5.35,.04-2.58,.27-5.15,.62-7.71,.57-4.19,1.39-8.32,2.93-12.28,2.08-5.32,5.11-10.07,9.18-14.15,1.27-1.27,2.66-2.42,3.98-3.64,.99-.91,2.14-1,3.42-.76,1.81,.34,3.63,.63,5.45,.88,4.27,.6,8.4,1.71,12.43,3.23,3.25,1.23,6.43,2.61,9.4,4.4,1.24,.75,2.39,1.6,3.39,2.64,.36,.38,.93,.41,1.39,.1,1.59-1.07,3.19-2.12,4.77-3.21,1.68-1.16,3.53-2,5.37-2.85,3.15-1.46,6.38-2.76,9.7-3.82,3.87-1.23,7.81-2.16,11.83-2.8,3.3-.52,6.6-1,9.9-1.48,.22-.03,.49,.03,.69,.13,.73,.36,1.43,.78,2.17,1.12,1.02,.47,1.94,1.09,2.79,1.81,1.44,1.21,2.92,2.36,4.3,3.62,2.48,2.26,3.95,5.09,4.7,8.3,.6,2.59,.91,5.21,1.02,7.85,.06,1.41,.12,2.82,.09,4.23-.07,2.98-.15,5.97-.34,8.94-.2,3.17-.8,6.28-2.01,9.25-.98,2.4-2.26,4.66-3.63,6.86-1.88,3.01-3.78,6.01-5.67,9.01-.02,.04-.05,.07-.11,.15-.04-.45-.08-.84-.11-1.24-.22-2.25-.74-4.45-1.36-6.62-.07-.24-.01-.38,.16-.55,4.09-4.08,6.85-8.89,8.04-14.51,.95-4.47,.64-8.85-1.38-13.03-1.27-2.64-3.04-4.94-5.24-6.89-2.81-2.49-5.94-4.51-9.45-5.94-1.93-.79-3.97-1.2-6.04-1.45-1.38-.17-2.77-.29-4.16-.32-3.4-.09-6.7,.54-9.91,1.61-4.57,1.52-8.92,3.54-13.12,5.86-1.61,.89-3.17,1.84-4.75,2.77-.2,.12-.33,.11-.52-.02-1.37-.93-2.73-1.86-4.11-2.78-2.28-1.52-4.83-2.25-7.57-2.44-2.54-.18-5.08-.07-7.61,.11-2.19,.15-4.37,.33-6.55,.52-2.08,.19-4.17,.36-6.2,.83-1.31,.31-2.58,.76-3.68,1.55-.94,.68-1.64,1.57-1.96,2.67-.33,1.11-.88,2.13-1.36,3.17-1.18,2.55-2.39,5.08-3.57,7.63-1.28,2.77-1.52,5.67-1.04,8.65,.64,4.01,2.18,7.64,4.7,10.87,2.11,2.71,4.75,4.84,7.71,6.6,.18,.11,.37,.22,.58,.34Z"/>
        <path class="cls-1" d="M67.65,89.7c.35-.06,1.01-.14,1.64-.29,.61-.14,.94-.73,.78-1.27-.17-.57-.74-.88-1.35-.73-.31,.07-.62,.15-.94,.17-1.68,.11-3.12-.41-4.3-1.61-.3-.3-.68-.38-1.09-.26-.38,.11-.6,.38-.69,.74-.11,.43,.05,.79,.36,1.1,1.46,1.42,3.24,2.09,5.59,2.15Z"/>
        <path class="cls-1" d="M112.7,70.54c-1.28,4.34-3.55,8.12-6.73,11.39-2.76,2.84-6.07,4.87-9.73,6.37-.66,.27-1.34,.47-2.01,.73-2.65,1.01-5.41,1.67-8.2,2.17-2.68,.48-5.38,.89-8.08,1.25-1.82,.25-3.65,.37-5.47,.54-.11,.01-.25,.01-.39,.02-.34,.03-.34,.03-.82,.06-.21,.01-.39,.02-.57,.03-.03,0-.05,0-.08,0-1.95,.07-3.89,.15-5.84,.2-1.27,.03-2.54,.03-3.81,.02-1.73-.02-3.46-.05-5.19-.11-4.86-.18-9.69-.58-14.43-1.7-4.63-1.09-8.98-2.81-12.87-5.55-3.89-2.75-6.75-6.26-8.34-10.73-.74-2.09-1.15-4.23-1.2-6.44-.03-1.56,.28-3.04,.91-4.46,.89-2.02,1.81-4.02,2.71-6.04,.02-.04,.04-.08,.12-.11v.29c0,3.99,0,7.98,0,11.97,0,2.07,.97,3.52,2.91,4.35,7.67,3.28,15.35,6.56,23.02,9.85,6.8,2.92,14.6-.69,16.59-7.68,.29-1.01,.43-2.04,.43-3.08,0-1,0-1.99,0-3.01h1.44c0,.13,.02,.24,.02,.35,0,1.08-.04,2.16,.03,3.23,.28,4.38,2.41,7.69,6.31,9.8,3.44,1.86,7.04,1.97,10.65,.43,7.7-3.27,15.39-6.57,23.08-9.86,1.92-.82,2.88-2.27,2.88-4.31,0-5.42,0-10.84,0-16.26v-.32s.08,.03,.09,.05c1.8,2.45,2.99,5.14,3.36,8.16,.35,2.86,.04,5.66-.77,8.42Z"/>
        <path class="cls-1" d="M32.58,49.46c.44-.05,.89-.1,1.33-.14,2.03-.18,4.06-.38,6.1-.52,2.62-.18,5.24-.4,7.86-.3,1.97,.07,3.94,.29,5.72,1.19,1.2,.61,2.31,1.37,3.45,2.1,1.09,.7,2.16,1.44,3.25,2.15,.58,.38,1,.33,1.53-.12,.05-.04,.1-.08,.16-.11,4.59-2.85,9.34-5.4,14.38-7.41,2.64-1.06,5.34-1.92,8.16-2.42,1.51-.27,3.03-.3,4.56-.28,1.74,.03,3.47,.23,5.19,.48,3.14,.47,5.95,1.71,8.58,3.41,.4,.26,.81,.53,1.27,.82-.42,.06-.77,.06-1.1,.16-.72,.23-1.44,.48-2.14,.77-9.82,4.19-19.64,8.39-29.45,12.59-.13,.06-.27,.1-.38,.18-.64,.47-1.4,.5-2.14,.57-2.04,.19-4.08,.19-6.11-.04-.08,0-.18-.02-.24-.06-.98-.66-2.09-1.04-3.17-1.5-8.85-3.79-17.7-7.58-26.56-11.36-.08-.04-.16-.08-.24-.11,0-.02,0-.04,0-.05Z"/>
        <path class="cls-1" d="M24.36,55.18c.4,.16,.8,.31,1.19,.47,7.93,3.16,15.86,6.32,23.79,9.48,4.79,1.91,9.58,3.81,14.37,5.72,.22,.09,.29,.2,.28,.42-.03,1.12,.02,2.25-.06,3.37-.19,2.58-1.26,4.78-3.18,6.55-2.17,2.01-4.77,2.97-7.76,2.85-1.26-.05-2.47-.35-3.63-.84-4.5-1.92-8.99-3.84-13.49-5.77-.13-.06-.27-.14-.37-.24-5.25-5.35-8.86-11.6-10.81-18.78-.26-.97-.46-1.93-.38-2.94,0-.07,0-.15,0-.22,0-.02,.01-.03,.03-.07Zm32.07,14.07c-.06,.28-.11,.53-.17,.77-.27,1.12-.84,2.05-1.86,2.66-1.32,.81-2.88,.46-3.68-.83-.45-.72-.64-1.5-.53-2.33,.08-.61,.27-1.22,.41-1.85-6.63-1.79-13.3-3.59-19.98-5.4-.01,.07-.02,.09-.02,.12-.1,2.39,.3,4.7,1.28,6.9,2.02,4.54,5.42,7.79,9.97,9.87,3.7,1.7,7.58,2.24,11.6,1.34,3.47-.78,6.27-2.57,8.24-5.52,.79-1.18,1.32-2.47,1.69-3.86-2.31-.62-4.61-1.25-6.95-1.88Z"/>
        <path class="cls-1" d="M108.37,55.2c.04,.9,.01,1.75-.21,2.6-1.87,7.31-5.45,13.7-10.74,19.18-.26,.27-.55,.46-.89,.6-4.4,1.88-8.8,3.76-13.21,5.64-6.26,2.68-13.35-1.21-14.46-7.66-.14-.8-.12-1.63-.14-2.45-.02-.61,0-1.22,0-1.82,0-.22,.05-.33,.28-.43,6.4-2.54,12.8-5.09,19.19-7.64,6.62-2.64,13.25-5.28,19.87-7.92,.09-.04,.19-.07,.31-.11Zm-32.1,14.05c-2.33,.63-4.63,1.25-6.93,1.87,0,.05,0,.08,.01,.11,.04,.14,.08,.28,.12,.42,1.11,3.62,3.41,6.25,6.89,7.87,2.99,1.39,6.14,1.67,9.37,1.18,3.09-.47,5.92-1.62,8.44-3.43,4.63-3.33,7.52-7.67,7.92-13.4,.04-.52,0-1.04,0-1.6-6.7,1.81-13.37,3.61-20.05,5.42,.1,.31,.2,.57,.28,.83,.35,1.15,.31,2.26-.33,3.31-.75,1.24-2.19,1.64-3.5,.96-1.02-.53-1.63-1.39-1.97-2.45-.11-.34-.17-.69-.27-1.08Z"/>
        <path class="cls-1" d="M95.4,29.98c-.95,.16-1.82,.32-2.7,.47-6.41,1.08-12.57,2.93-18.47,5.6-2.28,1.03-4.59,2.01-6.71,3.33-1.62,1.01-3.19,2.09-4.78,3.15-.08,.06-.17,.11-.25,.16-2.05-1.74-4.34-3.1-6.77-4.23-4.56-2.12-9.23-3.95-14.16-5.08-1.32-.3-2.66-.51-3.99-.75-.04,0-.08-.02-.18-.03,.11-.09,.18-.14,.25-.19,1.92-1.35,3.84-2.7,5.75-4.06,.28-.2,.53-.24,.86-.14,2.97,.86,5.83,2.01,8.61,3.34,3.12,1.49,6.21,3.02,9.32,4.54,.56,.27,1.14,.53,1.7,.81,.32,.16,.62,.18,.95,.04,4.11-1.63,8.23-3.23,12.33-4.89,3.61-1.47,7.19-3,10.78-4.52,.21-.09,.38-.09,.59-.01,2.19,.79,4.38,1.57,6.57,2.35,.08,.03,.16,.07,.31,.13Z"/>
        <path class="cls-1" d="M68.75,69.23c-.31-2.72,1.05-4.93,3.23-5.87,7.05-3.04,14.12-6.05,21.18-9.07,3.11-1.33,6.22-2.66,9.33-3.99,2.46-1.05,5.29,.39,5.81,2.92,.04,.2-.02,.27-.2,.34-7.8,3.1-15.6,6.21-23.39,9.31-5.2,2.07-10.39,4.14-15.59,6.21-.12,.05-.24,.09-.37,.14Z"/>
        <path class="cls-1" d="M24.84,53.62c.51-.93,1.03-1.79,1.8-2.47,.69-.61,1.51-.96,2.4-1.16,.18-.04,.4,.01,.58,.08,.94,.37,1.88,.75,2.81,1.15,9.34,3.99,18.69,7.98,28.03,11.99,2.29,.98,3.47,2.76,3.53,5.23,0,.22,0,.44,0,.66,0,.02-.01,.03-.04,.09-13.02-5.19-26.05-10.38-39.1-15.58Z"/>
        <path class="cls-1" d="M68.53,33.27c-.65,.25-1.25,.49-1.86,.72-.64,.24-1.28,.47-1.92,.73-.21,.09-.38,.07-.58-.03-2.61-1.29-5.2-2.6-7.84-3.84-2.39-1.12-4.82-2.15-7.23-3.22-.06-.03-.12-.05-.26-.16,.08-.04,.16-.06,.22-.11,.53-.44,1.06-.88,1.57-1.35,.17-.15,.29-.16,.49-.08,4.45,1.89,8.91,3.78,13.37,5.66,1.32,.56,2.65,1.1,4.02,1.67Z"/>
        <path class="cls-1" d="M64.11,29.09c.67-.19,1.34-.4,2.02-.56,2.58-.61,5.21-.73,7.85-.57,1.91,.12,3.82,.37,5.72,.56,.08,0,.16,.03,.32,.06-.81,.34-1.54,.65-2.28,.95-1.99,.82-3.98,1.64-5.98,2.46-.2,.08-.38,.11-.61,.02-2.3-.94-4.6-1.86-6.91-2.78-.04-.02-.08-.04-.13-.06,0-.03-.01-.05-.02-.08Z"/>
        <path class="cls-1" d="M108.38,62.82v.27c0,2.47,0,4.94,0,7.41,0,1.33-.61,2.28-1.87,2.82-1.84,.78-3.67,1.57-5.5,2.35-.07,.03-.14,.05-.22,.06,3.24-3.9,5.76-8.2,7.6-12.91Z"/>
        <path class="cls-1" d="M31.87,75.71c-.12-.05-.24-.09-.36-.14-1.79-.77-3.58-1.53-5.37-2.3-1.21-.52-1.82-1.43-1.82-2.73,0-2.47,0-4.94,0-7.41v-.3c1.83,4.68,4.34,8.97,7.55,12.88Z"/>
        <path class="cls-1" d="M35.25,91.88c-.78,1.95-1.35,3.95-1.71,6.02-.67-.95-1.69-6.1-1.47-7.37,1.05,.45,2.1,.89,3.18,1.35Z"/>
        <path class="cls-1" d="M64.35,64.28h4.01c-1.05,1.48-1.4,3.14-1.27,4.93h-1.48c.12-1.75-.2-3.4-1.26-4.93Z"/>
        <path class="cls-1" d="M102.19,91.57c-.48-1.07-.94-2.08-1.4-3.08,1.01-.65,2.01-1.28,3.04-1.94-.55,1.68-1.09,3.33-1.64,5.02Z"/>
        <path class="cls-1" d="M97.03,94.69c-.36-1.34-.71-2.68-1.07-4.04,.64-.26,1.31-.53,2.06-.83-.29,1.67-.61,3.28-.98,4.87Z"/>
        <path d="M67.65,89.7c-2.35-.06-4.12-.74-5.59-2.15-.32-.31-.47-.67-.36-1.1,.09-.36,.31-.63,.69-.74,.41-.12,.79-.05,1.09,.26,1.18,1.2,2.62,1.72,4.3,1.61,.32-.02,.63-.1,.94-.17,.61-.14,1.18,.16,1.35,.73,.16,.54-.18,1.13-.78,1.27-.64,.15-1.29,.23-1.64,.29Z"/>
        <path d="M56.42,69.25c2.34,.63,4.63,1.25,6.95,1.88-.36,1.39-.9,2.68-1.69,3.86-1.97,2.95-4.77,4.73-8.24,5.52-4.02,.91-7.9,.36-11.6-1.34-4.55-2.09-7.94-5.33-9.97-9.87-.98-2.2-1.38-4.5-1.28-6.9,0-.03,0-.05,.02-.12,6.68,1.8,13.35,3.61,19.98,5.4-.15,.63-.33,1.23-.41,1.85-.11,.83,.08,1.61,.53,2.33,.8,1.29,2.36,1.64,3.68,.83,1.01-.62,1.58-1.55,1.86-2.66,.06-.24,.11-.48,.17-.77Zm1.12,1.89c-.05,.11-.09,.2-.13,.29-.46,1.03-1.14,1.88-2.11,2.5-1.96,1.24-4.34,.85-5.71-.95-.75-.99-1.04-2.13-1-3.35,.01-.29,.05-.58,.07-.88-5.5-1.49-10.98-2.97-16.48-4.45,0,.09,0,.12,0,.16,.19,1.93,.77,3.75,1.7,5.46,1.91,3.49,4.73,6.05,8.35,7.76,3.27,1.55,6.71,2.14,10.32,1.46,3.16-.6,5.76-2.1,7.62-4.71,.49-.69,.89-1.42,1.19-2.23-1.29-.35-2.55-.69-3.84-1.04Z"/>
        <path d="M76.26,69.25c.09,.39,.16,.74,.27,1.08,.33,1.06,.94,1.92,1.97,2.45,1.3,.67,2.75,.28,3.5-.96,.63-1.05,.68-2.16,.33-3.31-.08-.26-.18-.52-.28-.83,6.68-1.81,13.35-3.61,20.05-5.42,0,.56,.03,1.08,0,1.6-.4,5.73-3.29,10.07-7.92,13.4-2.52,1.81-5.34,2.96-8.44,3.43-3.23,.49-6.39,.21-9.37-1.18-3.48-1.62-5.78-4.25-6.89-7.87-.04-.14-.08-.28-.12-.42,0-.03,0-.05-.01-.11,2.3-.62,4.59-1.24,6.93-1.87Zm-4.96,2.93c.05,.12,.08,.21,.12,.3,1.12,2.57,2.98,4.45,5.55,5.63,3.09,1.43,6.32,1.6,9.62,.86,3.65-.81,6.76-2.58,9.34-5.22,2.27-2.32,3.8-5.04,4.4-8.22,.08-.4,.11-.81,.17-1.25-5.55,1.5-11.03,2.98-16.52,4.47,.21,1.2,.1,2.33-.4,3.41-.87,1.87-2.81,2.84-4.8,2.36-1.42-.34-2.44-1.22-3.18-2.43-.18-.3-.32-.62-.49-.94-1.27,.34-2.53,.68-3.82,1.03Z"/>
        <path class="cls-1" d="M57.55,71.14c1.29,.35,2.55,.69,3.84,1.04-.3,.81-.7,1.55-1.19,2.23-1.87,2.61-4.47,4.11-7.62,4.71-3.6,.68-7.04,.09-10.32-1.46-3.62-1.71-6.45-4.27-8.35-7.76-.93-1.71-1.51-3.53-1.7-5.46,0-.04,0-.07,0-.16,5.5,1.49,10.98,2.97,16.48,4.45-.03,.3-.06,.59-.07,.88-.05,1.23,.24,2.36,1,3.35,1.36,1.8,3.75,2.19,5.71,.95,.97-.61,1.65-1.47,2.11-2.5,.04-.09,.08-.18,.13-.29Z"/>
        <path class="cls-1" d="M71.3,72.18c1.29-.35,2.55-.69,3.82-1.03,.17,.32,.31,.64,.49,.94,.73,1.22,1.75,2.09,3.18,2.43,1.99,.48,3.92-.49,4.8-2.36,.5-1.08,.61-2.21,.4-3.41,5.49-1.48,10.97-2.97,16.52-4.47-.06,.45-.1,.85-.17,1.25-.6,3.18-2.13,5.9-4.4,8.22-2.59,2.64-5.7,4.41-9.34,5.22-3.29,.73-6.53,.56-9.62-.86-2.57-1.19-4.43-3.07-5.55-5.63-.04-.09-.07-.18-.12-.3Z"/>
      </g>
    </g>
  </g>
</svg>