<?xml version="1.0" encoding="UTF-8"?>
<svg id="Capa_2" data-name="Capa 2" xmlns="http://www.w3.org/2000/svg" viewBox="0 0 138.75 143.3">
  <defs>
    <style>
      .cls-1 {
        fill: #fde53c;
      }

      .cls-2 {
        fill: #3ab4fd;
      }

      .cls-3 {
        fill: #fff;
      }

      .cls-4 {
        fill: #843bfd;
      }
    </style>
  </defs>
  <g id="ASSETS">
    <g>
      <g>
        <path class="cls-3" d="M58.16,133.46c-.11,1.88-.2,3.77-.3,5.66.1-1.89.2-3.77.31-5.65h-.01ZM64.37,107.54c.13-.37.29-.74.47-1.08-.19.34-.34.71-.47,1.08ZM65.26,131.49c-.28-.47-.52-.97-.83-1.43-.95-1.41-.78-3.4.64-4.85h-.01c-1.42,1.45-1.59,3.44-.64,4.85.31.46.55.96.83,1.43.04.07.08.14.12.21-.03-.07-.07-.14-.11-.21ZM65.47,105.47c-.12.15-.23.32-.33.48.11-.16.22-.33.34-.48.18-.24.37-.47.57-.7-.2.23-.4.46-.58.7ZM68.08,122.16c.22-.31.4-.63.54-.96-.15.33-.33.65-.54.96ZM69.08,101.74c.38-.35.75-.7,1.12-1.05h0c-.37.35-.75.7-1.12,1.05ZM77.19,121.66h-.01s-.01-.01-.01-.01c.1.22.2.44.3.65-.09-.21-.18-.42-.28-.64ZM78.35,124.16c-.2-.4-.39-.81-.58-1.22.18.41.37.82.57,1.22.11.21.22.42.32.63-.1-.21-.2-.42-.31-.63ZM90.47,133.59c-.14.17-.28.32-.43.47.16-.15.3-.3.44-.47.02-.03.04-.05.06-.08-.03.03-.05.06-.07.08ZM90.95,130.36c-.07-.24-.16-.48-.11-.9h0s0-.01,0-.01c-.05.43.04.67.11.91.12.45.21.89.21,1.32,0-.44-.08-.88-.2-1.32ZM102.2,104.35c-.06.59-.13,1.16-.16,1.73.04-.57.11-1.14.17-1.73h-.01ZM103.39,125.97c-.07-.49-.19-.98-.34-1.46.14.48.25.97.33,1.46.14.94.26,1.98.03,2.89-.11.44-.25.86-.42,1.25.18-.39.32-.81.43-1.25.23-.91.11-1.95-.03-2.89ZM103.54,110.91c-.25-.54-.53-1.08-.78-1.62.24.54.52,1.08.77,1.62.12.25.23.51.34.78-.1-.27-.21-.53-.33-.78ZM104.59,114.11c-.05-.27-.11-.55-.19-.82.07.27.13.55.18.82.29,1.54-.5,2.82-1.35,4.02-.13.18-.24.36-.34.55.11-.19.22-.37.35-.55.85-1.2,1.64-2.48,1.35-4.02ZM108.29,110.69c-.16-.44-.37-.84-.62-1.22.24.38.45.78.61,1.22.99,2.75.94,5.38-.52,7.91-.24.4-.42.81-.56,1.22.14-.41.33-.82.57-1.22,1.46-2.53,1.51-5.16.52-7.91ZM105.16,106.38c-.5-.69-.88-1.4-1.09-2.13.2.73.57,1.44,1.08,2.13.66.89,1.46,1.66,2.14,2.55-.67-.89-1.47-1.66-2.13-2.55ZM104.94,98.84c-.02.24-.01.49-.03.72.03-.23.03-.48.04-.72h-.01ZM104.06,101.62c.09-.3.2-.59.34-.89-.15.3-.26.6-.34.89ZM103.9,103.37c.03.29.08.58.17.87-.08-.29-.14-.58-.17-.87ZM99.41,100.07c.07-.07.13-.14.19-.21-.06.07-.13.14-.2.21h0ZM93.46,129.44c.12.13.24.27.36.42.13.17.27.33.42.46-.14-.14-.28-.29-.41-.46-.12-.15-.24-.29-.37-.42ZM93.52,24.41c-.07-.96-.38-1.91-.51-2.87-.43-3.15-.83-6.31-1.24-9.46-.05-.41-.08-.82-.14-1.48h-.01c.06.66.09,1.07.14,1.48.41,3.15.81,6.31,1.24,9.46.13.96.44,1.91.51,2.87.03.35-.02.65-.11.9.11-.25.15-.55.12-.9ZM92.85,66.44c.06.11.11.22.16.34-.05-.12-.1-.24-.16-.36v.02ZM83.55,126.36c.01.06.02.12.03.17.28,1.49.14,2.9-.27,4.32-.03.09-.05.19-.06.29.02-.1.04-.19.07-.29.41-1.42.55-2.83.27-4.32,0-.05-.03-.11-.04-.17ZM82.96,23.73c-.08-.1-.17-.19-.25-.28.03-.09.06-.18.1-.26h-.01c-.03.08-.07.17-.1.26.08.09.17.18.25.28.23.28.42.52.57.75-.14-.23-.33-.47-.56-.75ZM83.33,132.08c-.06-.19-.1-.41-.1-.61,0,.21.03.41.1.61ZM79.22,116.51c-.02.26.01.5-.07.7-.03.09-.07.19-.1.28.03-.09.07-.19.11-.28.08-.2.05-.45.07-.71h-.01ZM79.19,120.98c-.15-.25-.27-.53-.35-.82.08.29.19.57.35.82ZM74.48,114.68c-.08-.34-.2-.66-.36-.98.15.32.27.64.36.98ZM74.01,119.3c-.74,1.66-1.52,3.3-2.2,4.98-.57,1.41-.13,2.8.6,3.97.05.09.11.17.18.23-.06-.07-.12-.15-.17-.23-.73-1.17-1.18-2.56-.6-3.97.68-1.68,1.46-3.32,2.19-4.98ZM72.12,98.95v-.23c-.01-.25-.04-.5-.09-.74.04.24.07.49.08.74,0,.08.01.15.01.23ZM71.47,91.8s.04-.17,0-.32c.03.15,0,.32,0,.32ZM71.42,91.34c-.07-.09-.13-.18-.19-.27.05.09.11.18.18.27.03.04.04.08.06.13,0-.05-.03-.09-.05-.13ZM70.14,104.4c-.14.24-.28.48-.42.73-.47.85-.91,1.72-.8,2.64-.1-.92.34-1.79.81-2.64.14-.24.27-.48.41-.73ZM70.1,109.93h.01c-.5-.53-.99-1.2-1.14-1.89-.02-.09-.03-.18-.05-.27,0,.09.02.18.04.27.15.69.64,1.36,1.14,1.89ZM68.74,54.3s-.1.02-.15.02c-.13.01-.25.01-.38-.02.31.07.6.04.91-.11-.13.06-.25.09-.38.11ZM67.62,59.06c.06.12.12.25.17.39.2.49.2,1.1.03,1.65.17-.55.17-1.16-.02-1.65-.06-.14-.12-.27-.18-.39ZM66.62,44.13c-.15.02-.3.04-.45.03-.05,0-.1,0-.15-.01.05.02.1.02.15.02.15,0,.31-.01.45-.04ZM63.96,132.72l1.09,1.88c-.06-.1-.08-.2-.08-.29-.34-.53-.68-1.06-1.01-1.59ZM65.31,44.01c-.25-.1-.47-.24-.64-.41.17.18.39.32.64.41ZM62.65,40.29c-.25,4.56-.5,9.12-.71,13.68.22-4.56.47-9.12.72-13.68.02-.3.2-.62.37-.9.11-.19.21-.34.29-.48-.09.14-.19.29-.3.48-.17.28-.35.6-.37.9ZM61.01,75.65c-.1,1.18-.13,2.36-.17,3.55.05-1.19.08-2.37.18-3.55.15-1.67.1-3.34.2-5.01.11-1.77.18-3.55.25-5.33-.08,1.78-.15,3.56-.26,5.33-.1,1.67-.05,3.34-.2,5.01ZM59.88,99.66c.23-4.59.48-9.18.71-13.77.02-.36.03-.73.04-1.1-.01.37-.03.73-.05,1.1-.22,4.59-.47,9.18-.7,13.77ZM59.43,110.23c0,.47-.02.93-.08,1.39.07-.46.08-.93.08-1.39ZM59.24,115.84c-.02.43-.04.85-.06,1.28.03-.43.05-.85.07-1.28.03-.77.01-1.55,0-2.32,0,.78.02,1.55-.01,2.32ZM58.35,129.96c-.04.64-.07,1.27-.1,1.91h.01c.03-.64.06-1.27.1-1.91.18-2.97.39-5.93.58-8.89.03-.44.06-.87.08-1.31-.03.44-.06.87-.09,1.31-.19,2.96-.4,5.92-.58,8.89Z"/>
        <g>
          <path class="cls-3" d="M105.47,47.81c-.19-4.8.09-9.63,1.16-14.4.1-.44.2-.87.3-1.31-.1.44-.19.87-.29,1.31-1.07,4.77-1.36,9.61-1.17,14.4Z"/>
          <path class="cls-3" d="M106.93,53.78c.9-2.01,1.61-4.12,2.41-6.18-.79,2.06-1.5,4.17-2.4,6.18-.52,1.18-.66,2.3-.46,3.53.26,1.59.57,3.19.6,4.79-.04-1.6-.35-3.2-.61-4.79-.2-1.23-.06-2.35.46-3.53Z"/>
          <path class="cls-3" d="M109.56,67.51c.17.26.33.53.5.8h0s-.01.01-.01.01c-.17-.28-.33-.54-.49-.81Z"/>
          <path class="cls-3" d="M112.79,21.01c-.08.03-.18.09-.29.19.1-.11.2-.17.29-.19Z"/>
          <path class="cls-3" d="M113.49,35.65c-.09.75-.13,1.53-.39,2.23-1.22,3.25-2.5,6.48-3.76,9.72,1.25-3.24,2.54-6.47,3.75-9.72.26-.7.3-1.48.4-2.23Z"/>
          <path class="cls-3" d="M113.41,35.3c-.05-.09-.1-.19-.13-.29h.01c.03.09.08.19.12.29Z"/>
        </g>
        <path class="cls-3" d="M27.7,39.83c-.08-.41-.16-.81-.23-1.22.07.41.13.81.22,1.22.43,2,.82,4.02,1.23,6.03-.4-2.01-.79-4.03-1.22-6.03ZM27.47,38.61c-.08-.51-.18-1.02-.32-1.51.13.49.23,1,.32,1.51ZM26.25,35.12c-.3-.42-.63-.8-.96-1.2.32.4.65.79.96,1.2ZM25.2,33.94s.06,0,.09-.02h0s-.07.01-.09.02Z"/>
        <g>
          <path class="cls-3" d="M71.85,27.66c1.12-1.32,2.21-2.66,3.27-4.02-1.05,1.36-2.14,2.7-3.26,4.02-.41.48-.82.95-1.25,1.42.42-.47.83-.94,1.24-1.42Z"/>
          <path class="cls-3" d="M78.86,18.39c.88-1.35,1.71-2.73,2.49-4.14-.77,1.41-1.61,2.79-2.49,4.14Z"/>
          <path class="cls-3" d="M84.71,4.83c-.02.09-.03.14-.03.19,0,.04,0,.08-.01.12v-.12c0-.05.02-.1.04-.19Z"/>
        </g>
        <g>
          <path class="cls-3" d="M48.92,11.07c.38-.86.95-1.65,1.56-2.42-.6.77-1.17,1.56-1.55,2.42-.79,1.79-1.4,3.67-2.04,5.53.63-1.86,1.23-3.74,2.03-5.53Z"/>
          <path class="cls-3" d="M53.58,4.94h0c-.69.77-1.4,1.52-2.02,2.33-.35.46-.73.92-1.09,1.38.36-.46.73-.92,1.08-1.38.62-.81,1.33-1.56,2.02-2.33Z"/>
          <path class="cls-3" d="M55.91,21.68c.07-.11.13-.23.18-.35-.05.12-.11.24-.17.35-.4.72-.81,1.42-1.24,2.11-.12.19-.21.37-.28.52.06-.15.15-.33.27-.52.43-.69.84-1.39,1.24-2.11Z"/>
          <path class="cls-3" d="M64.24,31.51c.06.04.09.12.11.21-.03-.09-.06-.17-.12-.21h.01Z"/>
          <path class="cls-3" d="M64.42,31.98h0s-.01.01-.01.01c0-.04-.02-.09-.03-.13.01.04.02.08.04.12Z"/>
        </g>
        <g>
          <path class="cls-3" d="M111.25,70.39c-.08.13-.1.26-.06.42-.05-.16-.03-.29.06-.42Z"/>
          <path class="cls-3" d="M112.63,73.8h-.01c-.46-.96-.89-1.89-1.35-2.8.47.91.9,1.84,1.36,2.8Z"/>
        </g>
        <path class="cls-3" d="M57.07,4.56s-.02.06-.02.08c-.05.31-.08.62-.1.94.01-.32.04-.63.09-.94,0-.03.01-.05.03-.08Z"/>
        <path class="cls-3" d="M4.69,53.83c-.55,1.02-1.08,1.99-1.58,2.92h-.01c.5-.93,1.03-1.9,1.58-2.92h.01Z"/>
        <path class="cls-3" d="M126.77,67.18s-.05.02-.05,0c0,0,0-.03-.02-.05.02,0,.04-.01.05-.01.01.01.01.03.02.05Z"/>
        <path d="M42.1,117.81c-.35,4.02-2.13,7.28-5.47,9.61-.17.12-.47.06-.71.08-.02-.29-.15-.64-.04-.86.67-1.23,1.34-2.45,2.1-3.62,1.72-2.68,2.01-5.55,1.17-8.56-.31-1.1-.81-2.16-1.28-3.21-1.26-2.81-1.19-5.62-.03-8.43.36-.87.81-1.71,1.32-2.51.25-.4.67-.74,1.08-1.01.45-.29.78-.04.72.68-.11.31-.26.82-.48,1.3-1.57,3.45-1.76,6.88.03,10.33,1.01,1.93,1.78,3.97,1.59,6.2Z"/>
        <path d="M31.94,124.09c-2.67.73-5.73-1.3-6.2-4.07-.73-4.3.83-7.72,3.97-10.55.14-.12.36-.14.55-.21.06.19.23.41.18.56-.23.65-.46,1.33-.81,1.93-1.21,2.09-1.95,4.3-1.8,6.75.07,1.06.42,2.02,1.11,2.82,1.2,1.39,3.51.83,4.09-1.05.26-.83.24-1.75.38-2.63.07-.48.2-.95.35-1.59,1.06.71,1.35,1.58,1.46,2.55.23,2.08-.78,4.81-3.28,5.49Z"/>
        <path d="M105.47,90.15c.92-2.07.68-3.98-.05-5.91-.74-1.97-2.35-3.13-3.9-4.52,1.12-.1,2.24-.19,3.57-.3-.49-.84-.82-1.56-1.29-2.16-1.5-1.92-3.62-2.37-5.91-2.38-.4,0-.8-.06-1.2-.1-.02-.07-.03-.13-.05-.19.98-.31,1.59-1.34,2.85-1.44.13-.24.13-.48-.14-.78-.03-.03-.06-.06-.09-.08-.04-.03-.07-.06-.11-.09-.03-.03-.07-.05-.1-.08-.07-.06-.13-.1-.2-.14-.1-.07-.2-.14-.31-.19-.12-.07-.24-.13-.37-.18-.19-.08-.37-.15-.56-.19-.1-.03-.21-.05-.32-.06-.08-.02-.16-.03-.25-.03-.13-.01-.26-.02-.4-.02-.17,0-.35.01-.52.03-.18.02-.35.04-.53.08-.35.06-.71.16-1.06.27-1.14.36-2.23.89-3.33,1.39-.87.39-1.39-.18-1.93-.66-.54-.48-.37-1.1-.29-1.77.51.48.92.87,1.37,1.29.46-.63.89-1.25,1.25-1.88.05-.08.1-.16.14-.24.11-.2.22-.39.31-.59.09-.19.18-.39.26-.59.1-.24.18-.47.25-.71.07-.24.13-.49.18-.74.03-.19.06-.38.08-.58.01-.06.02-.13.02-.19,0,.01.01.01.01.02.06.11.11.22.16.34.15.35.27.72.41,1.08.04.11.08.21.12.29.04.09.09.16.14.2.21.23.48.2.93-.02.15-.08.3-.16.43-.26.03-.02.06-.04.08-.07.13-.09.25-.2.36-.32.08-.08.16-.17.23-.27.07-.09.14-.19.19-.29.12-.2.22-.41.3-.63.04-.11.08-.23.11-.34.32-1.19.5-2.42.75-3.67.34.71.69,1.46,1.1,2.33.37-.39.8-.71,1.06-1.13.65-1.06,1.08-2.23,1.09-3.49.01-1.34-.09-2.68-.14-3.93.23.16.54.45.91.62.15.06.58-.12.61-.25.52-2.19.53-4.39-.63-6.37-.76-1.29-1.82-2.39-2.79-3.63.55.15,1.11.31,1.68.47.58.16,1.17.32,1.79.5-.59-3.95-2.92-6-6.56-6.94.71-.37,1.45-.63,2.19-.89.57-.2,1.14-.4,1.71-.61.57-.21.53-.58.23-.98-.15-.19-.33-.35-.51-.5-1.72-1.42-3.68-1.3-5.7-.96-.71.12-1.43.13-2.15.19-.02-.09-.03-.18-.05-.26.24-.15.48-.29.71-.45,1.07-.71,2.22-1.34,3.19-2.16,1.37-1.17,1.88-3.86,1.14-5.26-.37-.72-.5-.66-1.03-.1-.28.3-.57.59-.87.88-.05.05-.1.09-.15.14-.18.16-.36.32-.54.47-.19.16-.38.3-.57.43-.11.08-.22.15-.34.22-.13.08-.27.15-.41.22-.24.12-.49.24-.74.35-.76.33-1.55.6-2.31.92.34-1.49.67-2.94,1.04-4.57-.83.4-1.47.59-1.98.97-1.16.89-2.27,1.87-3.39,2.81-.34.41-.67.83-1,1.24-.11-.09-.22-.18-.33-.27.22-.34.44-.67.65-1.01.07-.34.13-.68.21-1.02.11-.5.23-.99.35-1.49-1.24.64-2.28,1.33-3.31,2.06-.96.69-2.08,1.26-2.79,2.16-.97,1.21-1.66,2.66-2.37,4.06-.89,1.74-1.8,3.43-3.49,4.57-.99.67-1.43,1.72-1.46,2.92-.01.69-.93,1.55-1.59,1.55-.7,0-1.42.01-2.11.1-.92.13-1.5.69-1.79,1.58-.19.59-.4,1.18-.66,1.75-.43.93-.21,1.96.6,2.61.53.42,1.08.82,1.56,1.29.08.08.16.15.23.21.08.06.15.12.22.17.15.1.3.18.44.24.07.03.13.05.2.06.12.03.23.04.34.04.07,0,.14-.01.21-.03.06-.01.11-.03.17-.05.06-.01.12-.04.19-.07.11-.05.21-.11.31-.18.11-.08.21-.16.32-.26.06-.05.12-.11.19-.18,1.5.52,2.7.2,2.97-.89.03-.09.05-.17.08-.25.02-.08.05-.14.08-.2s.06-.11.1-.15c.27-.36.69-.31,1.26-.23.07,0,.14.01.22.02h0c-.51,1.01-.97,1.92-1.47,2.82-.08.16-.34.26-.54.31-.75.18-1.51.32-2.27.48-.02.11-.04.22-.06.32.43.28.86.56,1.31.85-.03.05-.04.14-.1.19-1.32,1.1-.38,3.21.91,4.12,1.11.78,2.35.72,3.66.9-.22-.47-.41-.87-.67-1.41,2.42.83,4-.2,5.3-1.93.3-.4.51-.84.31-1.17-.65.13-1.19.25-1.83.38.06-1.52.62-2.62,1.51-3.53,1.17.65,2.22,1.31,3.34,1.83,1.23.58,1.74.21,1.52-1.08-.13-.79-.45-1.54-.69-2.33.7-.37,1.47-.7,2.16-1.16.49-.33.76-.12.96.23.15.29.21.66.2.98-.06,1.97-1.19,3.36-2.68,4.42-2.08,1.47-4.3,2.74-6.37,4.22-1.34.96-2.63,2.04-3.73,3.26-1.06,1.18-1.85,2.6-2.78,3.91-.06.1-.16.22-.26.33-.02.02-.05.04-.07.07-.04.03-.08.07-.11.08-.02.02-.05.03-.07.03h-.02c-.36-.14-.75-.36-.95-.66-.3-.42-.41-.97-.65-1.43-.7-1.39-2.1-1.99-3.47-1.64-1.5.38-1.9,1.52-2.22,2.83.42.04.78.07,1.3.11-3.03,1.83-3.36,4.11-2.01,5.54.57-.74,1.01-1.65,2.19-1.66-.08.28-.16.52-.22.76-.23,1.05-.28,2.11.44,2.98.05.06.1.13.16.2.11.13.24.27.36.4.08.09.16.16.24.23.08.07.16.13.25.19.07.05.14.1.22.13.1.05.2.08.3.1.7.1.65-.88.95-1.36.06-.09.07-.2.11-.3.24-.56.55-.88,1.21-.49.38.22.82.33,1.21.48.33,2.6,1.54,4.65,3.52,6.27.31.26.59.55.89.82-.05.06-.11.13-.16.19-.51-.19-1.01-.39-1.53-.57-2.67-.91-5.25,1.22-4.87,4.02.07.52.32.66.81.52.47-.13.95-.23,1.52-.36-.12.21-.18.32-.24.43-.07.11-.13.23-.2.34-.05.09-.1.18-.14.27-.04.08-.08.15-.11.22-.16.37-.28.74-.33,1.1-.04.27-.05.54-.03.8.01.09.02.19.04.28.01.09.03.18.05.27.04.18.11.36.19.54s.18.36.29.53c.05.09.11.18.18.27.01.01.01.02.02.03.01,0,.01.02.01.03.01.02.02.04.03.07h0c.03.16,0,.33,0,.33.21.12.34.21.48.26.62.19,1.24.82,1.73,0,.2-.6.39-1.21.59-1.82.08.01.16.02.24.04.13.3.26.61.39.92.57,1.29,1.57,1.9,2.85,1.81.56-.04.8-.27.85-.81.05-.61.14-1.21.23-1.96.37.31.63.49.85.71.52.51,1.56.52,1.9-.12.35-.64.61-1.39.68-2.11.07-.68-.15-1.39-.23-2.01,1.1-.34,2.19-.55,3.17-1.02,1.05-.49,1.82-.05,2.63.43.16.09.28.25.43.35,1.58,1.13,1.77,2.77.55,4.29-1.12,1.39-2.7,2.09-4.22,2.85-2.55,1.26-5.11,2.43-7.2,4.46-3.29,3.17-4.47,7.54-2.74,11.9.05.12.1.24.16.36.06.12.12.24.19.35.09.17.19.34.3.5.09.14.2.29.31.42.1.13.21.26.33.38.11.12.23.24.36.35.25.23.52.44.82.64,1.52,1.01,3.2,1.44,4.94,1.7.51.08.61.26.61.68.01,1.53.49,2.89,1.58,3.99.87.87.98,1.94.83,3.3.77-.59,1.38-1.06,1.95-1.49.39.67.73,1.41,1.21,2.05.84,1.11,1.77,2.12,3.1,2.7.62.28.9.25,1.04-.42.08-.37.1-.75.16-1.22.33.19.56.35.82.47,1.67.82,3.39,1.24,5.23.59.51-.18.72-.39.61-.66-.01-.05-.04-.09-.08-.14-.03-.05-.08-.1-.13-.15-.03-.02-.06-.05-.09-.08-.03-.02-.07-.05-.11-.08-.03-.03-.07-.06-.11-.09-.03-.04-.07-.06-.1-.09-.06-.05-.13-.11-.19-.17-.13-.12-.24-.23-.33-.36-.1-.12-.19-.24-.26-.36-.06-.09-.12-.19-.16-.29-.07-.12-.13-.24-.17-.37-.03-.06-.06-.12-.07-.19-.02-.06-.04-.13-.06-.19-.02-.03-.03-.07-.03-.1-.05-.16-.09-.33-.11-.5-.02-.07-.03-.15-.04-.23-.02-.15-.04-.3-.05-.46-.13-2.15-.22-4.3-.34-6.46.65.45,1.33.93,2.05,1.44.65-3.7-2.57-7.75-7.3-7.56.41-.11.61-.17.88-.25-.18-.07-.27-.11-.56-.23.79-.21,1.39-.37,2.15-.57-.24-.33-.38-.67-.64-.86-1.55-1.13-3.86-1.05-5.36.25-.69.59-1.25,1.32-1.84,2.02-.52.62-1.11.55-1.77.32-.34-.11-.51-.31-.61-.55-.02-.05-.04-.11-.05-.17,0-.04-.02-.07-.02-.11-.02-.07-.02-.14-.03-.21-.01-.09-.01-.19-.01-.28-.03-1.36.65-2.42,1.76-3.09,1.25-.76,2.59-1.37,3.94-1.96,1.88-.82,3.8-1.56,5.7-2.36.38-.16.71-.43,1.22-.75-.16,1.07-.3,1.93-.46,2.95.18-.03.35-.08.51-.14.16-.04.31-.1.45-.17.06-.02.12-.05.18-.08,0,0,.02,0,.03-.02.13-.06.26-.12.38-.2.02-.01.05-.02.07-.04.13-.08.25-.16.37-.25.15-.1.29-.21.42-.32.27-.22.53-.46.79-.71.13-.12.25-.25.38-.38h0c.07-.07.13-.14.19-.21.08-.09.15-.18.21-.27.06-.08.11-.17.16-.25.07-.11.13-.22.18-.34.05-.1.09-.2.13-.3.11-.28.2-.58.27-.88.04-.14.07-.28.1-.42.09-.42.18-.85.3-1.27.07,0,.13.01.2.02.06.75.12,1.5.19,2.39.93-.59,1.46-1.29,1.91-2.09,1.49-2.61,1.1-5.3.36-8.01.08-.07.16-.15.25-.22.51.62,1.03,1.24,1.61,1.93ZM71.79,71.45c-.17.55-.11,1.18-.17,1.99-1.82-.63-3.16-.24-3.76,1.7-.87-.99-.45-1.8.05-2.61.65-1.05.53-1.36-.67-1.74-.81-.26-1.28-.19-2.49.37.26-1.11,1.39-1.84,2.5-1.6.44.09.87.21,1.31.28.14.02.3-.08.45-.13-.28-1.49-1.28-2.19-2.71-2.43.91-1.11,2.37-.96,2.94.24.18.4.33.82.47,1.24.29.84.73,1.52,1.65,1.76.52.14.6.39.43.93ZM96.81,73c-1.12.47-2.05,1.81-3.54.73,1.16-.45,2.21-1.18,3.54-.73ZM90.2,69.53c-.61-1.58-.58-1.66,1.05-2.94.09,1.15-.28,2.1-1.05,2.94ZM94.57,66.21c-.26-.64-.51-1.23-.73-1.84-.04-.14.01-.35.09-.48.42-.65.88-1.28,1.33-1.94.54,1.55.3,2.95-.69,4.26ZM100.46,53.79c-2.08-.88-1.75-2.63-1.85-4.45,1.12,1.41,1.72,2.8,1.85,4.45ZM98.54,61.76c-.47-.61-.8-1.12-1.22-1.54-.47-.47-.44-.92-.2-1.47.37-.83.69-1.68,1.08-2.62.95,1.84.95,3.65.34,5.63ZM99.52,45.11c-2.02.42-3.01-.74-3.68-2.48,1.6.36,2.77,1.27,3.68,2.48ZM93.74,38.19c.62-.28,1.41-.18,2.16-.06-.91.76-1.82,1.53-2.76,2.27-.11.09-.39.02-.57-.04-1.42-.43-2.83-.88-4.32-1.35.32-.12.66-.28,1.02-.37.27-.06.58-.06.86-.02,1.24.16,2.42.1,3.61-.43ZM87.07,32.26c-1.38,2.41-3.14,4.41-5.75,5.52,1.02-2.77,3.26-4.27,5.75-5.52ZM81.31,33.18c-.91,2.39-1.57,4.81-4.23,5.81,1.09-2.13,1.45-4.77,4.23-5.81ZM74.79,54.85c.07.48,1.06.58.49,1.14-.18.18-.7.03-1.29.03.38-.55.59-.86.8-1.17ZM75.34,54.05c.6-.75.22-2.25,1.92-2.28-.28.98-.52,1.81-.76,2.67-.41-.14-.75-.25-1.16-.39ZM77.75,57.17c-.22,1.01-.02,1.39,1.03,1.69-.81.77-1.7.51-2.55.49-.28-.01-.56-.14-.84-.21-1.18-.31-1.2-.3-1.53.83-1.18-.15-1.96-1.14-1.42-1.86.21-.27.67-.38,1.04-.49.21-.06.47.03.7.03,1.75.04,2.6-.56,3.16-2.24.36-1.12.72-2.25,1.11-3.48.57.3,1.04.55,1.56.82-1.03,1.39-1.9,2.77-2.26,4.42ZM84.42,48.93c-.26.04-.5.26-.74.4.17.28.29.66.54.82.37.24.83.32,1.22.46-.75.7-2.34.69-3.16.05-.65-.51-1.42-.88-2.28-1.4.28-.29.61-.63.92-.97.28-.31.58-.6.8-.94.11-.17.07-.43.1-.64-.22-.01-.46-.08-.64-.01-.74.3-1.53.53-2.15.99-1.03.76-2,.68-3.09.24-.74-.3-1.53-.4-2.32.37.34.13.59.26.86.35,1.7.52,3.45.92,5.11,1.57,1.49.57,2.75,1.57,3.7,2.88.24.32.37.71.54,1.07-.07.06-.15.12-.22.18-.8-.65-1.63-1.27-2.4-1.95-2.64-2.34-5.68-2.95-9.06-2.24-.57.12-.55.4-.5.85.04.36-.07.73-.11,1.1-.38-.07-.79-.07-1.15-.21-.35-.14-.66-.41-.99-.62-.27.41-.61.94-1.08,1.68-.27-.46-.63-.81-.67-1.19-.09-.77-.31-.97-.98-.63-.11.06-.22.12-.52.08.2-.39.41-.78.58-1.18.12-.27.25-.56.29-.85.03-.27-.2-.68-.08-.8.3-.3.71-.6,1.12-.68.64-.11,1.32-.07,1.97-.03.63.04.38.57.44.92.02.11-.03.25-.07.47.69-.17,1.32-.33,2.02-.5-.1-.16-.13-.26-.2-.33-.83-.77-.82-1.08.1-1.83.69-.56,1.54-1,1.44-2.21-.31.03-.63.06-1.12.1.17-.37.23-.77.46-.97.87-.72,1.73-1.48,2.7-2.04,1.33-.78,2.76-1.39,4.15-2.07.07.05.15.11.22.17-.29.67-.57,1.33-.86,2.01.73.37,1.25-.07,1.59-.6.58-.9,1.44-1.38,2.32-1.94.88-.57,1.66-1.37,2.31-2.21.86-1.09,1.83-1.92,3.14-2.4,1.75-.64,3.45-1.36,5.18-2.05.04.05.09.1.14.15-.63.52-1.21,1.12-1.9,1.54-1.05.64-2.24,1.08-3.26,1.77-.78.53-1.52,1.23-2.06,2-.83,1.18-1.62,2.32-3.02,2.9-.89.37-1.31,1.15-1.5,2.17,1.9-.63,3.72-1.24,5.54-1.84.04.07.07.14.11.21-.95,1.53-2.71,2.12-4.07,3.43,1.5.56,3.02.13,4.48.32.03.08.05.15.08.23-.89.33-1.78.66-2.67.97-.34.12-.72.17-1.04.34-.19.1-.29.37-.43.56.21.14.41.37.62.39.99.09,1.98.12,3.08.18-1.12.69-2.25,1.21-3.53,1.41ZM87.68,49.42c.34-.26.62-.45.87-.68s.45-.51.68-.76h.3c.1.4.41.89.28,1.16-.34.71-1.35.8-2.13.28ZM91.07,49.71c.48.81,1.11,1.57.74,2.5-.32.81-1.19.93-1.94,1.03-.13-.81-.25-1.59-.39-2.44.47-.32,1-.69,1.59-1.09ZM89.57,54.52c.08-.12.3-.16.46-.2.54-.12,1.07-.22,1.61-.33.07.04.15.09.22.14-.47.96-.89,1.94-1.43,2.85-.16.27-.64.45-1,.48-.53.04-1.09-.09-1.69-.14.63-.98,1.22-1.9,1.83-2.8ZM86.36,58.51c.29-.17.76-.08,1.14-.09.55-.01,1.1,0,1.65,0,.04.07.08.14.11.21-.9.8-1.8,1.62-2.74,2.38-.15.13-.5.08-.74.02-.68-.17-1.35-.4-2.15-.64.96-.67,1.82-1.33,2.73-1.88ZM82.09,61.39c.63-.26,1.55.19,2.33.35.22.05.41.19.66.3-1.14.91-2.22,1.77-3.32,2.61-.16.12-.46.19-.63.12-.82-.32-1.62-.69-2.63-1.13,1.26-.82,2.34-1.73,3.59-2.25ZM75.27,67.37c.38-.53.8-1.04,1.22-1.54,1-1.2,1.38-1.29,2.83-.73.47.18.93.37,1.4.55-.96,1.27-1.89,2.5-2.81,3.7-1-.29-2.07-.61-3.24-.96.17-.29.35-.67.6-1.02ZM73.89,70.12c.1-.25.65-.52.92-.46.83.19,1.63.52,2.42.84.12.04.22.34.19.5-.15.79-.3,1.59-.56,2.36-.1.31-.41.65-.71.79-.65.3-2.21-.13-2.59-.7-.18-.28-.19-.68-.29-1.09.19-.74.32-1.52.62-2.24ZM74.75,78.81c-.97-.58-1.68-2.54-1.47-3.9,1.15.2,2.3.4,3.47.6.31,1.11.66,2.36,1.04,3.71-1.03.54-2.05.17-3.04-.41ZM78.45,80.21c.19-.04.42-.03.58.04.46.22.9.49,1.41.77-.8.35-1.57.69-2.35,1-.11.04-.35-.1-.46-.22-.35-.39-.66-.8-.95-1.15.58-.15,1.17-.31,1.77-.44ZM83.51,84.44c-.73.23-1.5.31-2.24.49-.82.2-1.16.81-.99,1.67.16.74.32,1.49.45,2.24.04.24,0,.49,0,.68-.54-.48-1.05-.92-1.55-1.37-.48-.42-.94-.42-1.2.19-.43.97-.77,1.98-1.16,2.99-1.57-1.09-.71-2.29.01-3.51-1.9-.62-2.66-.11-4.21,2.66-.81-.87-.84-2.04.25-3.03.8-.73,1.92-1.11,2.95-1.67-1.5-1.2-3.24-.82-4.95-.71.22-.87.82-1.51,1.64-1.52.71,0,1.42.22,2.14.35.07.01.14.05.21.1,1.51.92,2.91,1.24,4.28-.36.44-.52,1.28-.69,1.91-1.08.78-.48,1.55-.98,2.29-1.53.49-.36.47-.76-.13-.99-1.16-.45-1.78-1.32-2.12-2.47-.09-.31-.32-.59-.49-.88-.77.56-.74,1.31.08,3.08-.81-.39-1.51-.75-1.83-1.59-1.21-3.16-1.01-6.16.87-9.03,1.61-2.45,3.78-4.3,6.15-5.95,2-1.39,3.96-2.84,5.32-4.91,1.55-2.36,2.32-4.9,1.54-7.73-.5-1.83-1.74-3.03-3.28-3.99l-.6-.36h-.01v-.02c.52-.89,1.02-1.74,1.57-2.67h-2.37c.64-.87,1.24-1.69,1.88-2.58,3.44.61,5.43,2.93,6.59,6.16,1.33,3.69.81,7.26-.61,10.78-1.41,3.49-3.81,6.2-6.73,8.52-1.01.8-1.99,1.66-2.86,2.6-2.44,2.63-1.71,6.48,1.45,8.11.59.3,1.13.7,1.7,1.06-.04.09-.07.19-.11.28-.44-.06-.89-.09-1.33-.19-.42-.09-.91-.28-1.11.22-.15.4-.2.95-.04,1.33.18.43.64.74.97,1.11.32.37.63.75.95,1.12-.03.08-.06.15-.09.22-.84-.07-1.68-.14-2.57-.21-.19,1.56-1.41,2-2.62,2.39ZM87.72,73.42c-.34-.18-1.03-.33-1.13-.65-.29-.98.16-1.85.78-2.62.12,1.07.23,2.12.35,3.27ZM89.43,85.25c-.71-.45-1.36-1.01-2.03-1.52.03-.08.07-.16.11-.24.66.09,1.32.18,1.97.27.93.14,1.21-.14,1.06-1.13.81.06,1.45.42,1.95,1.01.11.13.13.45.05.62-.54,1.25-1.96,1.72-3.11.99ZM93.57,85.21c.64.76.8,1.9.79,3.07,0,.16-.26.4-.46.48-.76.3-1.54.54-2.28.8-.34-1.13-.6-2.02-.82-2.76.91-.52,1.79-1.03,2.77-1.59ZM90.72,90.71c.14-.18.53-.18.8-.21.78-.08,1.56-.13,2.37-.2-.73,2.21-2.65,3.92-4.68,2.57.5-.72.97-1.47,1.51-2.16ZM90.05,94.59c-.75.41-1.55.8-2.31,1.27-.6.38-1.16.38-1.78.06-.33-.18-.7-.29-1.13-.45,1.7-.97,3.25-2.23,5.22-.88ZM83.45,96.25c.57-.14,1.3.4,2.11.68-.89.55-1.64,1.07-2.45,1.46-.28.13-.74-.05-1.11-.14-.38-.09-.74-.24-1.12-.37-.03-.08-.07-.17-.1-.25.88-.49,1.72-1.15,2.67-1.38ZM77.72,100.33c1.08-1.32,2.24-2.39,4.02-.89-.75.6-1.51,1.38-2.43,1.89-.66.37-1.25-.25-1.8-.72.11-.15.16-.22.21-.28ZM76.59,101.86c.04-.09.29-.19.39-.15.6.23,1.19.5,1.7.72-.31.96-.61,1.88-.92,2.79-.04.11-.12.25-.22.29-.67.24-1.93-.74-1.78-1.46.16-.75.52-1.47.83-2.19ZM76.15,109.45c-.39-1.11-.81-2.21-.7-3.51.62.24,1.16.42,1.68.67.17.08.31.34.35.53.1.44.13.89.19,1.33.13.93-.12,1.22-1.06,1.19-.16,0-.42-.1-.46-.21ZM79.44,112.49c-.82-.51-1.65-1.03-2.64-1.64,1.62-.45,1.81-.34,2.78,1.41-.05.07-.09.15-.14.23ZM90.78,107.21c-.39.57-.81,1.12-1.15,1.72-.14.25-.11.59-.16.89.32.03.64.1.95.08.78-.06,1.56-.25,2.33-.23,1.96.05,3.21,1.24,4.16,2.88-1.38-.71-2.77-.97-4.28-.39.63.69,1.25,1.27,1.77,1.94.93,1.21,1.36,2.6,1.32,4.13-.02.77.01,1.54,0,2.3-.03,1.29.33,2.44,1.29,3.57-1.11.01-2.02-.22-2.72-.76-.83-.65-1.53-1.48-2.23-2.29-.38-.43-.6-1-.94-1.46-.14-.18-.42-.24-.64-.36-.05.21-.16.43-.15.64.03.84.11,1.68.16,2.52.02.25,0,.51,0,.96-1.11-1.37-1.65-2.77-1.9-4.31-.15-.88-.37-1.75-.59-2.62-.05-.22-.18-.47-.36-.6-.25-.18-.58-.27-.87-.4-.08.28-.27.59-.21.85.21,1.03.1,1.98-.45,2.94-.99-1.27-2.13-2.43-1.75-4.29,1.42,0,2.89-.06,4.35.02,1.13.06,2.02.68,2.74,1.55.22.26.42.54.67.78.16.15.47.36.57.3.22-.12.49-.4.5-.62.01-.59.03-1.24-.18-1.77-1-2.57-2.78-4.25-5.6-4.61.15-1.86,1.86-3.36,3.38-3.36ZM98.07,99.29c-.79-1.61.57-2.18,1.41-3.11-.13,1.28-.56,2.3-1.41,3.11ZM93.4,98.85c-2.15,1.18-4.59,1.83-6.88,2.75-1.97.8-3.4,2.22-4.34,4.09-1,2-.03,4.31,2.2,5.24,1.28.54,2.62.92,3.95,1.32,1.2.35,2.04,1.16,2.79,2.1-1.36-.81-2.86-1.04-4.39-1.14-.92-.07-1.85-.09-2.76-.21-2.16-.3-3.64-1.54-4.57-3.48-1.37-2.84-.6-5.32,1.32-7.41,1.95-2.14,4.5-3.44,7.02-4.77,2.13-1.14,4.34-2.19,5.93-4.09,2.34-2.8,3.06-6.31.76-9.51-.97-1.37-2.41-2.08-3.91-2.71-.56-.24-1.09-.55-1.64-.83.02-.09.04-.19.05-.29.84-.18,1.69-.36,2.73-.59-.18-.4-.27-.99-.61-1.31-.89-.81-1.89-1.5-2.83-2.25-.45-.37-.87-.78-1.26-1.24,2.9.36,5.86.3,8.43,1.83,3.66,2.18,5.66,5.4,5.88,9.68.3,6.07-2.88,10.08-7.87,12.82ZM100.32,78.38c-.15.02-.37-.07-.47-.18-.59-.7-1.15-1.43-1.61-1.99,1.51-.09,3.07.58,4.49,1.76-.84.14-1.62.3-2.41.41ZM102.2,94.65c-.62-1.1-1.16-2.1-.35-3.31.26-.39.3-.94.45-1.45.68,1.58.82,3.13-.1,4.76ZM102.94,85.87c-.1-.07-.16-.23-.19-.36-.18-1.02-.34-2.05-.52-3.15,1.42,1.21,2.18,2.69,2.32,4.51-.56-.34-1.09-.66-1.61-1Z"/>
        <path d="M64.66,77.81c-.29-.01-.57.06-.84.2-.05.02-.09.04-.13.07-.06.04-.12.08-.18.12-.11.07-.21.16-.3.26-.06.06-.12.12-.17.18-.11.13-.21.26-.3.41-.09.15-.17.31-.24.47-.07.16-.12.33-.17.51-.04.18-.07.36-.09.54-.09,1.01,1.2,2.76,2.51,2.63,1.5-.12,2.25-.8,2.39-2.76.09-1.28-1.17-2.59-2.48-2.63ZM64.58,81.36c-.35-.12-.69-.58-.81-.97-.14-.43.57-1.05,1.1-.95.3.05.55.36.7.46-.01.94-.52,1.63-.99,1.46Z"/>
        <path d="M67.8,59.45c-.06-.14-.12-.27-.18-.39-.25-.48-.55-.79-.96-.97-.21-.09-.44-.15-.71-.18-.13-.02-.27-.03-.42-.03-.3.04-.69-.03-.89.13-1.07.88-1.59,1.97-1.26,3.39.26,1.08,1.07,1.8,2.14,1.62.57-.09,1.13-.48,1.61-.85.07-.06.14-.12.2-.19.1-.1.18-.21.25-.34.05-.07.09-.15.12-.23.05-.1.09-.2.12-.31.17-.55.17-1.16-.02-1.65ZM65.85,61.23c-.11.14-.68.14-.76.02-.15-.22-.22-.65-.1-.87.17-.32.53-.53.89-.86.54.62.39,1.21-.03,1.71Z"/>
        <path d="M62.94,115.62c-1.16-.01-2.39,1.41-2.41,2.87-.02,1.26,1.01,2.41,2.17,2.34,1.24.02,2.69-1.32,2.62-2.57-.09-1.51-.72-2.63-2.38-2.64ZM62.67,119.09c-.2-.06-.42-.56-.37-.81.07-.39.41-1.07.56-1.05.47.07.91.4,1.45.67-.57.74-.85,1.45-1.64,1.19Z"/>
        <path d="M64.14,95.65c-1.6,0-2.68,1.05-2.7,2.64-.02,1.29.97,2.19,2.36,2.17,1.36-.02,2.57-1.24,2.57-2.59.01-1.08-1.13-2.21-2.23-2.22ZM64.56,98.24c-.09.29-.61.49-.97.6-.12.03-.5-.36-.51-.57-.04-.71.38-1.15,1.34-1.49.07.55.27,1.06.14,1.46Z"/>
        <path d="M68.88,41.08v-.02s-.02-.08-.04-.13c-.03-.09-.08-.19-.14-.29-.03-.05-.06-.09-.1-.14-.04-.06-.09-.12-.15-.18-.05-.06-.1-.11-.16-.16-.07-.06-.13-.11-.2-.16-.07-.06-.14-.11-.22-.15-.1-.06-.21-.12-.31-.17-.11-.05-.21-.1-.32-.13-.05-.02-.1-.03-.16-.05-.2-.06-.4-.09-.6-.1-1.48-.05-2.3.84-2.35,2.56,0,.07,0,.14.01.2-.01.01,0,.01,0,.01-.01.01,0,.02,0,.02-.01.01,0,.01,0,.01-.01.01,0,.01,0,.01-.01.03-.01.05,0,.07,0,.04,0,.07.01.1,0,.06,0,.12.02.18,0,.04.01.08.02.11.02.08.03.14.06.21.01.05.03.1.05.14.04.1.08.19.14.28.06.11.14.21.23.3.17.18.39.32.64.41.12.05.26.09.4.11.1.02.2.04.31.03.05.02.1.02.15.02.15,0,.31-.01.45-.04.08-.01.15-.03.22-.05.07-.01.13-.03.19-.06.12-.03.23-.08.33-.14.12-.06.23-.13.34-.2t.01-.01c.14-.11.27-.22.39-.35.12-.13.23-.27.33-.42.06-.1.12-.21.17-.32.12-.24.2-.49.25-.76.03-.18.05-.36.05-.55h0c0-.07-.01-.13-.02-.19ZM66.14,42.59c-.11-.12-.56-.48-.51-.57.25-.45.63-.84.96-1.24.25.26.62.48.71.78.14.51-.38,1.01-1.16,1.03Z"/>
        <path class="cls-3" d="M84.65,31.52c-.34.41-.67.83-1,1.24-.11-.09-.22-.18-.33-.27.22-.34.44-.67.65-1.01.23.02.45.03.68.04Z"/>
        <path d="M66.16,87.02s0,.04-.02.06c-.03.01-.06.02-.07.01-.02-.01-.01-.04-.02-.06.04-.01.07-.01.11-.01Z"/>
        <path d="M25.56,60.61c-1.35-.92-2.08-2.31-2.69-3.76-.75-1.77-1.03-3.65-1.25-5.54-.19-1.65-.05-3.27.37-4.87.06-.21.3-.37.46-.55.15.19.38.35.42.56.44,2.19.79,4.41,1.3,6.59.44,1.88,1.04,3.74,1.63,5.58.23.73.31,1.36-.24,1.99Z"/>
        <path d="M126.75,67.13s-.03.01-.05.01c.01.02.01.04.02.05,0,.01.03,0,.05,0-.01-.02-.01-.04-.02-.05ZM113.29,35.01h-.01c.03.1.08.2.13.29-.04-.1-.09-.2-.12-.29ZM113.09,37.88c-1.21,3.25-2.5,6.48-3.75,9.72,1.26-3.24,2.54-6.47,3.76-9.72.26-.7.3-1.48.39-2.23-.1.75-.14,1.53-.4,2.23ZM111.27,71c.46.91.89,1.84,1.35,2.8h.01c-.46-.96-.89-1.89-1.36-2.8ZM112.5,21.2c.11-.1.21-.16.29-.19-.09.02-.19.08-.29.19ZM111.25,70.39c-.09.13-.11.26-.06.42-.04-.16-.02-.29.06-.42ZM109.56,67.51c.16.27.32.53.49.81h.01c-.17-.28-.33-.55-.5-.81ZM108.29,110.69c-.16-.44-.37-.84-.62-1.22.24.38.45.78.61,1.22.99,2.75.94,5.38-.52,7.91-.24.4-.42.81-.56,1.22.14-.41.33-.82.57-1.22,1.46-2.53,1.51-5.16.52-7.91ZM106.94,53.78c.9-2.01,1.61-4.12,2.4-6.18-.8,2.06-1.51,4.17-2.41,6.18-.52,1.18-.66,2.3-.46,3.53.26,1.59.57,3.19.61,4.79-.03-1.6-.34-3.2-.6-4.79-.2-1.23-.06-2.35.46-3.53ZM106.93,32.1c-.1.44-.2.87-.3,1.31-1.07,4.77-1.35,9.6-1.16,14.4-.19-4.79.1-9.63,1.17-14.4.1-.44.19-.87.29-1.31ZM105.16,106.38c-.5-.69-.88-1.4-1.09-2.13.2.73.57,1.44,1.08,2.13.66.89,1.46,1.66,2.14,2.55-.67-.89-1.47-1.66-2.13-2.55ZM104.94,98.84c-.02.24-.01.49-.03.72.03-.23.03-.48.04-.72h-.01ZM104.59,114.11c-.05-.27-.11-.55-.19-.82.07.27.13.55.18.82.29,1.54-.5,2.82-1.35,4.02-.13.18-.24.36-.34.55.11-.19.22-.37.35-.55.85-1.2,1.64-2.48,1.35-4.02ZM104.06,101.62c.09-.3.2-.59.34-.89-.15.3-.26.6-.34.89ZM103.9,103.37c.03.29.08.58.17.87-.08-.29-.14-.58-.17-.87ZM103.54,110.91c-.25-.54-.53-1.08-.78-1.62.24.54.52,1.08.77,1.62.12.25.23.51.34.78-.1-.27-.21-.53-.33-.78ZM103.39,125.97c-.07-.49-.19-.98-.34-1.46.14.48.25.97.33,1.46.14.94.26,1.98.03,2.89-.11.44-.25.86-.42,1.25.18-.39.32-.81.43-1.25.23-.91.11-1.95-.03-2.89ZM102.2,104.35c-.06.59-.13,1.16-.16,1.73.04-.57.11-1.14.17-1.73h-.01ZM93.83,129.86c-.12-.15-.24-.29-.37-.42.12.13.24.27.36.42.13.17.27.33.42.46-.14-.14-.28-.29-.41-.46ZM93.52,24.41c-.07-.96-.38-1.91-.51-2.87-.43-3.15-.83-6.31-1.24-9.46-.05-.41-.08-.82-.14-1.48h-.01c.06.66.09,1.07.14,1.48.41,3.15.81,6.31,1.24,9.46.13.96.44,1.91.51,2.87.03.35-.02.65-.11.9.11-.25.15-.55.12-.9ZM90.95,130.36c-.07-.24-.16-.48-.11-.9h0s0-.01,0-.01c-.05.43.04.67.11.91.12.45.21.89.21,1.32,0-.44-.08-.88-.2-1.32ZM90.47,133.59c-.14.17-.28.32-.43.47.16-.15.3-.3.44-.47.02-.03.04-.05.06-.08-.03.03-.05.06-.07.08ZM84.67,5.02v.12s.01-.08.01-.12c0-.05.01-.1.03-.19-.02.09-.04.14-.04.19ZM83.23,131.47c0,.21.03.41.1.61-.06-.19-.1-.41-.1-.61ZM83.59,126.53c0-.05-.03-.11-.04-.17.01.06.02.12.03.17.28,1.49.14,2.9-.27,4.32-.03.09-.05.19-.06.29.02-.1.04-.19.07-.29.41-1.42.55-2.83.27-4.32ZM82.96,23.73c-.08-.1-.17-.19-.25-.28.03-.09.06-.18.1-.26h-.01c-.03.08-.07.17-.1.26.08.09.17.18.25.28.23.28.42.52.57.75-.14-.23-.33-.47-.56-.75ZM79.22,116.5h0c-.02.27.01.51-.07.71-.03.09-.07.19-.1.28.03-.09.07-.19.11-.28.08-.2.05-.45.07-.71h-.01ZM78.84,120.16c.08.29.19.57.35.82-.15-.25-.27-.53-.35-.82ZM78.86,18.39c.88-1.35,1.72-2.73,2.49-4.14-.78,1.41-1.61,2.79-2.49,4.14ZM77.19,121.66h-.01s-.01-.01-.01-.01c.1.22.2.44.3.65-.09-.21-.18-.42-.28-.64ZM78.35,124.16c-.2-.4-.39-.81-.58-1.22.18.41.37.82.57,1.22.11.21.22.42.32.63-.1-.21-.2-.42-.31-.63ZM74.12,113.7c.15.32.27.64.36.98-.08-.34-.2-.66-.36-.98ZM71.85,27.66c-.41.48-.82.95-1.24,1.42.43-.47.84-.94,1.25-1.42,1.12-1.32,2.21-2.66,3.26-4.02-1.06,1.36-2.15,2.7-3.27,4.02ZM71.82,124.28c.68-1.68,1.46-3.32,2.19-4.98-.74,1.66-1.52,3.3-2.2,4.98-.57,1.41-.13,2.8.6,3.97.05.09.11.17.18.23-.06-.07-.12-.15-.17-.23-.73-1.17-1.18-2.56-.6-3.97ZM72.03,97.98c.04.24.07.49.08.74,0,.08.01.15.01.23v-.23c-.01-.25-.04-.5-.09-.74ZM69.08,101.74c.38-.35.75-.7,1.12-1.05h0c-.37.35-.75.7-1.12,1.05ZM68.97,108.04c-.02-.09-.03-.18-.05-.27,0,.09.02.18.04.27.15.69.64,1.36,1.14,1.89h.01c-.5-.53-.99-1.2-1.14-1.89ZM69.72,105.13c-.47.85-.91,1.72-.8,2.64-.1-.92.34-1.79.81-2.64.14-.24.27-.48.41-.73-.14.24-.28.48-.42.73ZM68.08,122.16c.22-.31.4-.63.54-.96-.15.33-.33.65-.54.96ZM65.47,105.47c-.12.15-.23.32-.33.48.11-.16.22-.33.34-.48.18-.24.37-.47.57-.7-.2.23-.4.46-.58.7ZM65.26,131.49c-.28-.47-.52-.97-.83-1.43-.95-1.41-.78-3.4.64-4.85h-.01c-1.42,1.45-1.59,3.44-.64,4.85.31.46.55.96.83,1.43.04.07.08.14.12.21-.03-.07-.07-.14-.11-.21ZM64.37,107.54c.13-.37.29-.74.47-1.08-.19.34-.34.71-.47,1.08ZM64.38,31.86s.02.09.03.13h.01c-.02-.05-.03-.09-.04-.13ZM64.24,31.51h-.01c.06.04.09.12.12.21-.02-.09-.05-.17-.11-.21ZM63.02,39.39c-.17.28-.35.6-.37.9-.25,4.56-.5,9.12-.71,13.68.22-4.56.47-9.12.72-13.68.02-.3.2-.62.37-.9.11-.19.21-.34.29-.48-.09.14-.19.29-.3.48ZM61.21,70.64c-.1,1.67-.05,3.34-.2,5.01-.1,1.18-.13,2.36-.17,3.55.05-1.19.08-2.37.18-3.55.15-1.67.1-3.34.2-5.01.11-1.77.18-3.55.25-5.33-.08,1.78-.15,3.56-.26,5.33ZM60.58,85.89c-.22,4.59-.47,9.18-.7,13.77.23-4.59.48-9.18.71-13.77.02-.36.03-.73.04-1.1-.01.37-.03.73-.05,1.1ZM59.71,103.76c.06-1.37.1-2.74.17-4.1-.07,1.36-.1,2.73-.17,4.1ZM59.35,111.62c.07-.46.08-.93.08-1.39,0,.47-.02.93-.08,1.39ZM59.25,113.52c0,.78.02,1.55-.01,2.32-.02.43-.04.85-.06,1.28.03-.43.05-.85.07-1.28.03-.77.01-1.55,0-2.32ZM58.16,133.46c-.11,1.88-.2,3.77-.3,5.66.1-1.89.2-3.77.31-5.65h-.01ZM58.93,121.07c-.19,2.96-.4,5.92-.58,8.89-.04.64-.07,1.27-.1,1.91h.01c.03-.64.06-1.27.1-1.91.18-2.97.39-5.93.58-8.89.03-.44.06-.87.08-1.31-.03.44-.06.87-.09,1.31ZM57.04,4.64c-.05.31-.08.62-.09.94.02-.32.05-.63.1-.94,0-.02.01-.05.02-.08-.02.03-.03.05-.03.08ZM55.91,21.68c-.4.72-.81,1.42-1.24,2.11-.12.19-.21.37-.27.52.07-.15.16-.33.28-.52.43-.69.84-1.39,1.24-2.11.06-.11.12-.23.17-.35-.05.12-.11.24-.18.35ZM53.58,4.94c-.69.77-1.4,1.52-2.02,2.33-.35.46-.72.92-1.08,1.38.36-.46.74-.92,1.09-1.38.62-.81,1.33-1.56,2.02-2.33h0ZM48.92,11.07c-.8,1.79-1.4,3.67-2.03,5.53.64-1.86,1.25-3.74,2.04-5.53.38-.86.95-1.65,1.55-2.42-.61.77-1.18,1.56-1.56,2.42ZM27.7,39.83c-.08-.41-.16-.81-.23-1.22.07.41.13.81.22,1.22.43,2,.82,4.02,1.23,6.03-.4-2.01-.79-4.03-1.22-6.03ZM27.15,37.1c.13.49.23,1,.32,1.51-.08-.51-.18-1.02-.32-1.51ZM25.29,33.92c.32.4.65.79.96,1.2-.3-.42-.63-.8-.96-1.2ZM25.2,33.94s.06,0,.09-.02h0s-.07.01-.09.02ZM4.68,53.83c-.55,1.02-1.08,1.99-1.58,2.92h.01c.5-.93,1.03-1.9,1.58-2.92h-.01Z"/>
        <path class="cls-4" d="M93.99,32.35c-.63.52-1.21,1.12-1.9,1.54-1.05.64-2.24,1.08-3.26,1.77-.78.53-1.52,1.23-2.06,2-.83,1.18-1.62,2.32-3.02,2.9-.89.37-1.31,1.15-1.5,2.17,1.9-.63,3.72-1.24,5.54-1.84.03.07.07.14.1.21-.95,1.53-2.71,2.12-4.07,3.44,1.5.56,3.03.13,4.48.31l.08.23c-.89.32-1.77.65-2.66.97-.34.12-.72.17-1.04.33-.19.1-.29.37-.43.57.21.13.4.36.62.38.99.09,1.98.12,3.08.19-1.12.69-2.25,1.21-3.53,1.41-.26.04-.49.26-.74.4.18.28.29.66.55.82.36.24.82.32,1.22.46-.75.7-2.34.69-3.16.05-.65-.51-1.42-.87-2.29-1.4.28-.3.61-.63.93-.98.28-.3.57-.6.8-.94.11-.16.07-.42.1-.64-.22,0-.46-.08-.64,0-.73.3-1.52.53-2.14.99-1.03.76-2,.69-3.09.24-.74-.3-1.53-.39-2.32.37.33.14.59.27.85.35,1.71.52,3.46.93,5.12,1.57,1.49.57,2.75,1.57,3.7,2.88.23.32.36.71.54,1.07-.07.06-.15.12-.22.18-.8-.65-1.63-1.27-2.4-1.96-2.63-2.34-5.67-2.95-9.06-2.24-.57.12-.55.4-.5.85.04.36-.07.73-.11,1.1-.38-.06-.79-.07-1.15-.21-.36-.14-.66-.41-.99-.62-.27.41-.61.94-1.09,1.68-.27-.46-.62-.81-.67-1.19-.09-.76-.3-.96-.98-.62-.11.06-.23.12-.52.08.19-.39.4-.78.58-1.18.12-.27.25-.56.28-.85.03-.27-.2-.68-.08-.8.3-.3.72-.6,1.13-.68.64-.11,1.31-.07,1.97-.04.63.04.38.57.44.92.02.12-.03.25-.07.47.69-.17,1.32-.33,2.02-.5-.1-.16-.13-.26-.2-.32-.83-.78-.82-1.08.1-1.83.69-.56,1.53-1,1.44-2.21-.31.03-.63.05-1.12.09.17-.37.23-.77.47-.97.86-.72,1.72-1.48,2.69-2.04,1.33-.78,2.76-1.39,4.15-2.07.07.06.15.11.22.17-.29.67-.57,1.33-.86,2.01.73.37,1.25-.07,1.59-.6.59-.9,1.45-1.38,2.32-1.94.88-.57,1.66-1.37,2.32-2.21.86-1.09,1.82-1.92,3.14-2.4,1.74-.63,3.45-1.36,5.18-2.05.05.05.09.1.14.16ZM79.5,43.01c0-.09-.02-.19-.02-.28-1.15.3-2.31.58-3.46.89-1.33.36-1.16.44-.9,1.65.21.98,1.01,1.04,1.75,1.17.66.12,1.18-.11,1.47-.77.38-.89.78-1.77,1.17-2.65ZM69.55,49.39c-.57-.27-1.08-.7-1.6-.17-.11.11.08.82.27.89.56.22,1.08.03,1.32-.72Z"/>
        <path class="cls-4" d="M84.36,114.92c1.42,0,2.89-.06,4.35.02,1.13.06,2.02.68,2.74,1.55.22.26.42.55.67.78.16.15.46.36.57.31.22-.12.49-.4.5-.62.02-.59.03-1.23-.18-1.77-.99-2.57-2.78-4.25-5.6-4.61.15-1.85,1.86-3.35,3.39-3.36-.39.57-.81,1.12-1.15,1.72-.14.25-.11.59-.16.89.32.03.64.1.96.08.78-.06,1.55-.25,2.32-.23,1.97.05,3.21,1.24,4.17,2.88-1.38-.71-2.77-.97-4.28-.38.63.69,1.25,1.27,1.77,1.94.94,1.21,1.36,2.6,1.32,4.13-.02.77.01,1.53,0,2.3-.04,1.29.32,2.44,1.29,3.57-1.11,0-2.02-.22-2.72-.76-.84-.65-1.54-1.48-2.24-2.29-.37-.43-.6-1-.94-1.46-.13-.18-.42-.24-.64-.36-.05.21-.16.43-.15.64.04.84.11,1.68.16,2.52.02.26,0,.52,0,.97-1.12-1.37-1.66-2.77-1.91-4.31-.14-.88-.37-1.75-.58-2.61-.06-.22-.18-.47-.36-.6-.25-.19-.58-.27-.87-.4-.08.29-.27.59-.21.85.21,1.03.1,1.98-.44,2.95-.99-1.27-2.13-2.44-1.75-4.29Z"/>
        <path class="cls-4" d="M71.62,73.44c-1.82-.64-3.15-.25-3.76,1.7-.87-.99-.45-1.8.05-2.61.65-1.05.53-1.36-.67-1.74-.81-.26-1.28-.19-2.49.38.26-1.12,1.39-1.84,2.5-1.6.44.09.87.21,1.31.27.14.02.3-.08.45-.12-.28-1.49-1.28-2.19-2.71-2.43.9-1.11,2.37-.96,2.93.24.19.4.33.83.47,1.25.28.84.73,1.51,1.65,1.75.52.14.6.39.43.93-.17.56-.12,1.18-.17,2Z"/>
        <path class="cls-4" d="M78.78,58.86c-.8.77-1.7.51-2.55.49-.28,0-.56-.13-.84-.21-1.18-.31-1.2-.3-1.53.83-1.17-.14-1.96-1.14-1.41-1.86.2-.27.67-.38,1.03-.49.21-.06.47.03.71.03,1.75.04,2.6-.56,3.15-2.24.37-1.12.72-2.25,1.11-3.48.57.3,1.04.55,1.56.82-1.04,1.38-1.91,2.77-2.26,4.41-.22,1.02-.02,1.39,1.03,1.69Z"/>
        <path class="cls-4" d="M80.73,65.65c-.96,1.27-1.89,2.49-2.81,3.7-1-.3-2.07-.62-3.24-.96.17-.29.35-.67.6-1.01.38-.53.8-1.04,1.22-1.55,1-1.19,1.38-1.29,2.83-.73.47.18.93.37,1.4.55Z"/>
        <path class="cls-4" d="M73.27,72.35c.19-.73.32-1.52.62-2.23.1-.25.65-.52.92-.46.83.19,1.63.52,2.43.84.11.05.21.34.19.5-.15.79-.3,1.6-.55,2.36-.1.31-.41.65-.72.79-.64.3-2.21-.13-2.58-.7-.18-.28-.19-.68-.29-1.09Z"/>
        <path class="cls-4" d="M76.75,75.51c.31,1.1.67,2.36,1.05,3.7-1.03.55-2.06.17-3.04-.41-.98-.58-1.68-2.53-1.47-3.9,1.15.2,2.3.4,3.46.61Z"/>
        <path class="cls-4" d="M85.08,62.04c-1.14.9-2.22,1.77-3.32,2.61-.16.12-.46.19-.63.12-.82-.32-1.62-.69-2.63-1.13,1.26-.82,2.34-1.73,3.59-2.25.62-.26,1.55.19,2.33.35.22.04.41.19.65.3Z"/>
        <path class="cls-4" d="M91.62,89.55c-.33-1.12-.6-2.02-.82-2.76.91-.52,1.79-1.03,2.77-1.59.64.76.8,1.9.79,3.06,0,.17-.27.41-.46.49-.76.3-1.54.54-2.29.8Z"/>
        <path class="cls-4" d="M87.07,32.26c-1.37,2.41-3.14,4.41-5.75,5.52,1.02-2.77,3.27-4.27,5.75-5.52Z"/>
        <path class="cls-4" d="M88.25,39c.33-.12.67-.28,1.02-.36.28-.06.58-.07.87-.03,1.24.16,2.42.1,3.6-.43.62-.28,1.41-.18,2.17-.06-.92.76-1.82,1.54-2.76,2.28-.11.09-.39.02-.58-.04-1.42-.43-2.83-.88-4.32-1.35Z"/>
        <path class="cls-4" d="M93.89,90.29c-.73,2.21-2.64,3.92-4.67,2.58.5-.73.97-1.48,1.51-2.17.14-.17.52-.17.8-.2.78-.08,1.56-.14,2.36-.2Z"/>
        <path class="cls-4" d="M87.51,83.49c.66.09,1.32.17,1.98.27.92.14,1.2-.15,1.06-1.14.81.07,1.45.42,1.95,1.01.11.13.13.45.05.62-.54,1.25-1.97,1.72-3.11.99-.71-.45-1.36-1.01-2.04-1.52.04-.08.07-.16.11-.24Z"/>
        <path class="cls-4" d="M83.64,60.39c.96-.67,1.81-1.33,2.73-1.88.29-.18.75-.08,1.14-.09.55-.01,1.1,0,1.65,0,.04.07.08.14.11.22-.91.8-1.8,1.61-2.74,2.38-.15.13-.5.08-.74.02-.69-.18-1.36-.4-2.15-.64Z"/>
        <path class="cls-4" d="M81.31,33.18c-.9,2.38-1.57,4.81-4.22,5.8,1.09-2.13,1.45-4.77,4.22-5.8Z"/>
        <path class="cls-4" d="M91.87,54.12c-.47.96-.89,1.94-1.43,2.85-.16.27-.65.45-1,.47-.54.04-1.09-.08-1.7-.14.63-.98,1.22-1.9,1.83-2.8.08-.12.3-.16.46-.2.53-.12,1.07-.22,1.6-.33.07.05.15.1.22.14Z"/>
        <path class="cls-4" d="M78.69,102.42c-.32.96-.61,1.88-.92,2.79-.04.11-.13.25-.23.29-.66.24-1.93-.73-1.77-1.45.16-.76.52-1.47.83-2.19.04-.09.29-.19.39-.16.61.23,1.2.5,1.71.72Z"/>
        <path class="cls-4" d="M98.54,61.75c-.47-.61-.8-1.12-1.22-1.54-.47-.47-.45-.92-.2-1.47.37-.83.69-1.67,1.08-2.62.95,1.85.95,3.65.34,5.63Z"/>
        <path class="cls-4" d="M77.51,100.61c.11-.16.16-.22.21-.28,1.09-1.33,2.24-2.39,4.03-.89-.76.61-1.52,1.38-2.43,1.89-.67.37-1.26-.25-1.81-.71Z"/>
        <path class="cls-4" d="M75.45,105.94c.62.24,1.17.42,1.68.67.17.08.31.33.35.53.1.43.13.89.19,1.33.13.93-.12,1.22-1.06,1.19-.16,0-.42-.1-.46-.21-.4-1.1-.81-2.21-.71-3.51Z"/>
        <path class="cls-4" d="M90.05,94.59c-.74.4-1.55.8-2.3,1.27-.61.38-1.17.38-1.78.06-.34-.18-.71-.29-1.13-.45,1.7-.96,3.25-2.23,5.21-.87Z"/>
        <path class="cls-4" d="M89.48,50.79c.47-.32,1-.68,1.59-1.08.48.8,1.11,1.57.75,2.5-.32.81-1.19.93-1.94,1.03-.13-.81-.26-1.59-.39-2.44Z"/>
        <path class="cls-4" d="M80.78,97.62c.88-.48,1.72-1.15,2.67-1.38.57-.14,1.3.4,2.11.68-.89.55-1.64,1.07-2.45,1.46-.28.14-.74-.05-1.11-.14-.38-.09-.75-.24-1.12-.36-.03-.09-.07-.17-.1-.26Z"/>
        <path class="cls-4" d="M102.74,77.96c-.84.15-1.63.3-2.41.41-.15.02-.37-.07-.47-.18-.59-.7-1.16-1.42-1.61-1.99,1.5-.09,3.06.59,4.49,1.76Z"/>
        <path class="cls-4" d="M102.23,82.36c1.43,1.21,2.18,2.69,2.32,4.51-.55-.34-1.09-.66-1.6-1-.1-.07-.17-.23-.19-.36-.18-1.02-.34-2.05-.53-3.15Z"/>
        <path class="cls-4" d="M94.57,66.21c-.26-.64-.51-1.23-.72-1.84-.05-.13,0-.35.09-.48.42-.65.88-1.28,1.33-1.94.54,1.55.31,2.95-.69,4.26Z"/>
        <path class="cls-4" d="M102.21,94.65c-.63-1.1-1.16-2.1-.36-3.31.26-.39.3-.94.45-1.45.68,1.58.82,3.12-.09,4.76Z"/>
        <path class="cls-4" d="M99.53,45.11c-2.02.42-3.01-.74-3.68-2.49,1.6.36,2.76,1.27,3.68,2.49Z"/>
        <path class="cls-4" d="M100.47,53.79c-2.08-.88-1.75-2.63-1.85-4.45,1.12,1.4,1.71,2.79,1.85,4.45Z"/>
        <path class="cls-4" d="M76.68,80.64c.58-.15,1.18-.31,1.78-.44.18-.04.41-.03.58.05.46.22.9.48,1.41.77-.8.34-1.57.69-2.36.99-.11.04-.35-.1-.46-.22-.35-.38-.66-.8-.95-1.15Z"/>
        <path class="cls-4" d="M77.26,51.77c-.28.98-.51,1.81-.75,2.66-.41-.14-.75-.25-1.16-.38.6-.76.22-2.25,1.92-2.28Z"/>
        <path class="cls-4" d="M87.38,70.14c.12,1.08.23,2.13.35,3.28-.34-.18-1.04-.33-1.13-.65-.29-.98.16-1.86.78-2.63Z"/>
        <path class="cls-4" d="M96.82,73c-1.12.47-2.05,1.8-3.55.73,1.16-.45,2.22-1.18,3.55-.73Z"/>
        <path class="cls-4" d="M91.25,66.59c.09,1.14-.28,2.1-1.05,2.94-.61-1.59-.58-1.66,1.05-2.94Z"/>
        <path class="cls-4" d="M99.49,96.17c-.13,1.28-.56,2.3-1.42,3.11-.78-1.6.58-2.18,1.42-3.11Z"/>
        <path class="cls-4" d="M87.69,49.42c.33-.26.62-.45.86-.69.25-.23.46-.51.68-.76.1,0,.2,0,.29,0,.11.39.42.88.28,1.16-.34.7-1.35.8-2.13.28Z"/>
        <path class="cls-4" d="M79.45,112.48c-.82-.51-1.65-1.02-2.64-1.64,1.62-.45,1.8-.34,2.77,1.41-.05.08-.09.15-.14.23Z"/>
        <path class="cls-4" d="M74.79,54.85c.07.48,1.06.58.5,1.14-.18.18-.7.03-1.29.03.37-.55.59-.86.8-1.17Z"/>
        <path class="cls-3" d="M65.58,79.9c-.02.94-.52,1.62-.99,1.46-.35-.12-.69-.58-.81-.97-.14-.43.58-1.05,1.1-.96.3.05.55.36.7.46Z"/>
        <path class="cls-3" d="M65.88,59.52c.54.62.39,1.2-.03,1.71-.12.14-.68.14-.77.02-.15-.22-.22-.65-.1-.88.17-.32.54-.53.89-.85Z"/>
        <path class="cls-3" d="M64.31,117.9c-.57.74-.84,1.44-1.64,1.19-.2-.06-.42-.56-.37-.81.08-.39.42-1.07.56-1.05.47.07.91.4,1.45.67Z"/>
        <path class="cls-3" d="M64.43,96.78c.07.55.27,1.06.14,1.46-.09.28-.61.49-.98.6-.11.03-.5-.35-.51-.56-.04-.71.38-1.16,1.35-1.49Z"/>
        <path class="cls-3" d="M66.14,42.59c-.11-.12-.55-.48-.5-.57.25-.45.63-.83.96-1.24.25.26.62.48.71.79.14.51-.38,1.01-1.16,1.03Z"/>
        <path d="M79.5,43.01c-.39.88-.79,1.77-1.17,2.65-.28.66-.8.9-1.47.77-.73-.14-1.54-.19-1.75-1.17-.26-1.21-.43-1.29.9-1.65,1.15-.31,2.31-.59,3.46-.89,0,.09.02.19.02.28ZM76,44.43c.34.42.54.68.78.99.42-.32.81-.63,1.2-.93-.05-.12-.11-.24-.16-.35-.57.09-1.13.18-1.82.3Z"/>
        <path d="M69.55,49.39c-.25.75-.76.94-1.32.72-.19-.08-.39-.78-.27-.89.52-.52,1.03-.09,1.6.17Z"/>
        <path class="cls-3" d="M76,44.43c.69-.11,1.26-.2,1.82-.3.05.12.11.24.16.35-.39.3-.78.6-1.2.93-.25-.31-.45-.56-.78-.99Z"/>
      </g>
      <path d="M55.98,129.38s-.01.07,0,.11c-.03-.01-.05-.02-.07-.04.02-.02.05-.05.07-.07Z"/>
      <path d="M66.16,134.35c-.05-.06-.1-.12-.15-.18l.08.1c-.15-.19-.28-.4-.38-.61-.05-.11-.19-.2-.3-.23-.12-.03-.28-.02-.39.05s-.2.17-.23.3l-.02.13c0,.09.02.17.07.25.16.32.37.62.61.89.08.09.23.15.35.15s.27-.05.35-.15.15-.22.15-.35l-.02-.13c-.02-.08-.07-.16-.13-.22h0Z"/>
      <g>
        <path d="M137.91,57.38c-1.96-3.34-3.86-6.72-5.8-10.08-2.96-5.13-5.91-10.29-8.93-15.39-1.86-3.12-3.78-6.21-5.79-9.23-1.62-2.42-3.45-4.65-6.24-5.9-6.41-2.85-12.78-5.76-19.16-8.66-.36-.16-.77-.3-1.02-.57-1.16-1.26-2.31-2.54-3.4-3.86-1.37-1.68-3.22-2.51-5.25-2.8C77.88.26,73.42-.04,68.92,0c-4.38.05-8.75.17-13.04,1.18-1.11.26-2.36.57-3.17,1.29-1.69,1.5-3.12,3.29-4.67,4.94-.28.3-.61.59-.97.75-4.22,1.86-8.47,3.64-12.67,5.56-2.2,1-4.31,2.22-6.46,3.34-2.71,1.41-4.38,3.86-6.03,6.26-2.84,4.12-5.51,8.36-8.27,12.54-3.38,5.13-6.77,10.25-10.16,15.37-1,1.52-2.03,3.02-3,4.56-.7,1.12-.64,2.09.18,2.97.94,1,1.88,2.03,2.94,2.88,3.17,2.54,6.36,5.06,9.62,7.47,2.72,2.01,5.63,3.71,8.73,5.1,1.44.64,2.67.71,3.78-.54.02-.02.09,0,.14,0-.25,1.75-.51,3.48-.74,5.23-.4,3.02-.77,6.05-1.16,9.08-.35,2.71-.72,5.43-1.06,8.15-.35,2.79-.66,5.59-1.01,8.38-.34,2.77-.72,5.54-1.05,8.31-.35,2.93-.64,5.86-.99,8.79-.4,3.24-.83,6.48-1.22,9.72-.15,1.18.22,1.76,1.31,2.24.62.28,1.25.56,1.88.81,5.53,2.18,11.19,3.9,17.03,4.98,3.36.61,6.75,1.1,10.14,1.53,1.85.24,3.74.23,5.61.36.28.03.71.11.81.31.37.68.95.9,1.63.96,3.09.26,6.19.6,9.29.72,2.58.11,5.18.02,7.76-.11,4.16-.2,8.33-.4,12.47-.82,5.47-.56,10.89-1.49,16.24-2.8,3.33-.82,6.6-1.8,9.73-3.21.84-.38,1.44-1.02,1.44-1.92,0-1.66-.11-3.31-.24-4.96-.15-2.05-.37-4.09-.55-6.14-.18-2-.33-3.99-.51-5.99-.19-2.01-.41-4.03-.6-6.05-.19-1.97-.33-3.94-.52-5.91-.24-2.38-.5-4.76-.75-7.14-.23-2.21-.44-4.41-.68-6.61-.29-2.8-.6-5.6-.91-8.41-.29-2.69-.59-5.39-.88-8.08-.14-1.26-.26-2.51-.39-3.76.1-.04.08-.03.18-.06.73,1.33,1.48,2.66,2.19,4.01.61,1.17,1.77,1.76,3.06,1.52,2.55-.49,4.98-1.36,7.31-2.48,6.29-3.03,11.83-7.12,16.71-12.1,1.66-1.7,1.72-2.83.51-4.86ZM83.24,10.48c.2-.43.38-.87.55-1.31.17-.44.33-.89.45-1.34.06-.23.12-.46.17-.69l.03-.15c.04-.18.08-.36.1-.54.04-.22.07-.44.08-.66.01-.11.02-.23.03-.34,0-.06,0-.12,0-.18.01-.04.01-.09.01-.13v-.12c0-.05.02-.1.04-.19,0-.02.02-.05.03-.09.02-.05.03-.1.05-.17.41.41.81.81,1.21,1.22.3.3.59.6.86.91.1.12.21.23.31.35.18.2.35.41.51.62.12.16.25.32.35.49.17.24.33.49.47.75,0,0,.01,0,.01.01.15.26.29.52.41.79.2.43.32.89.4,1.36.03.16.06.32.08.48.03.21.06.43.08.64.03.29.05.58.08.87.02.16.03.33.05.49.06.52.11,1.04.15,1.56.09,1.04.17,2.09.25,3.13.03.26.05.52.07.78.02.26.05.52.08.78.03.25.06.5.1.76.09.5.19,1.02.3,1.56.06.28.12.56.17.85h-.01c-1.2-.35-2.36-.62-3.46-1.04-2.2-.84-4.5-1.17-6.82-1.42-.51-.05-1.01-.02-1.31.32-.05.05-.09.11-.13.17-.04.07-.07.14-.1.23-.02.08-.04.17-.06.27,0,.02,0,.05,0,.08-.01.02-.01.05-.01.07,0,.09.01.17.05.23.5.86.99,1.72,1.52,2.55.2.31.3.54.11.75-.06.09-.16.16-.3.24-1.84,1.02-3.67,2.06-5.46,3.16-1.36.84-2.66,1.77-3.96,2.69-1.48,1.05-2.94,2.13-4.41,3.18-.15.1-.35.13-.64.03.35-.41.68-.83,1.03-1.23.42-.47.85-.93,1.28-1.39.86-.92,1.72-1.84,2.57-2.78.42-.47.83-.94,1.24-1.42,1.12-1.32,2.21-2.66,3.27-4.02.99-1.28,1.94-2.58,2.85-3.91.3-.44.6-.89.89-1.34.88-1.35,1.71-2.73,2.49-4.14.26-.47.51-.95.76-1.43.39-.77.77-1.55,1.13-2.34ZM56.95,5.58c.01-.32.04-.63.09-.94,0-.03.01-.05.03-.08.02-.08.08-.17.15-.24.03-.04.06-.07.09-.1.14-.13.31-.23.45-.26,1.51-.34,3.03-.66,4.56-.87,1.46-.2,2.94-.24,4-.32,3.26,0,6.12-.12,8.96.04,2.16.12,4.31.58,6.46.94.04.01.09.03.14.08.02.01.05.03.07.07.08.07.15.18.19.28.01.03.02.06.03.09.02.04.03.08.02.12-.12.99-.35,1.96-.52,2.94-.1.56-.4.69-.95.61-2.31-.33-4.63-.78-6.95-.89-3.44-.16-6.9-.14-10.34-.02-1.86.06-3.71.44-5.55.74-.36.06-.61-.01-.76-.17-.03-.02-.06-.06-.08-.1-.07-.12-.1-.26-.11-.44-.01-.21-.01-.42-.01-.64,0-.28.01-.56.03-.84ZM46.89,16.6c.63-1.86,1.23-3.74,2.03-5.53.38-.86.95-1.65,1.56-2.42.36-.46.73-.92,1.08-1.38.62-.81,1.33-1.56,2.02-2.33h0c.14-.15.35-.23.53-.34h.01c.07.19.19.37.19.56,0,2.47.49,4.87,1.15,7.23.81,2.91,1.92,5.71,3.28,8.43.79,1.56,1.62,3.09,2.53,4.57.46.73.94,1.46,1.45,2.17.25.35.51.7.77,1.05h.01c.26.35.53.69.81,1.03.02.02.04.05.05.07.15.18.3.36.42.55.03.04.06.08.07.12.04.05.06.09.08.13.11.16.17.29.2.42.01.03.02.06.01.09.03.11.02.21-.03.3-.02.06-.07.13-.13.2-.04.05-.09.09-.14.14-.07.07-.16.13-.25.2h-.01s-.11.09-.17.13h-.01s-.02-.09-.03-.13c-.01-.05-.02-.1-.03-.14-.03-.09-.06-.17-.12-.21-1.01-.66-2.04-1.28-3.06-1.93-2.04-1.31-4.07-2.62-6.1-3.94-.2-.13-.35-.24-.47-.36-.21-.19-.31-.37-.3-.59,0-.12.04-.24.1-.38.06-.15.15-.33.27-.52.43-.69.84-1.39,1.24-2.11.07-.11.13-.23.18-.35.05-.12.09-.25.11-.37.07-.46-.06-.84-.34-1.08-.06-.06-.12-.1-.19-.14-.34-.21-.83-.25-1.35-.08-2.75.88-5.5,1.73-8.26,2.57-.46.14-.96.14-1.51.22.59-1.39,1.19-2.68,1.68-4,.23-.61.44-1.23.66-1.85ZM24.04,72.21h-.01c-1.9-.56-3.71-1.36-5.26-2.6-2.34-1.86-4.59-3.83-6.86-5.78-1.69-1.46-3.33-2.98-5.06-4.4-1.15-.94-2.41-1.73-3.74-2.68h-.01c.5-.93,1.03-1.9,1.58-2.92h.01c3.53,1.62,6.44,3.83,9.13,6.38,3.12,2.95,6.37,5.74,10.11,7.89.44.25.92.47,1.37.72.02.01.04.03.06.06.04.02.06.06.09.1.03.04.06.08.09.11-.5,1.04-.98,2.05-1.5,3.12ZM23.84,64.96c-.97-.61-2.07-1.03-2.98-1.71-1.47-1.1-2.85-2.34-4.24-3.55-2.98-2.6-5.87-5.3-9.35-7.25-.7-.39-.76-.76-.33-1.43,2.83-4.36,5.6-8.76,8.42-13.12,2.55-3.94,5.11-7.87,7.69-11.78.2-.31.41-.61.62-.91.42-.61.86-1.2,1.3-1.79.22-.3.43-.6.65-.9.06-.08.11-.15.16-.2.05-.07.1-.11.14-.14.27-.23.47-.13.69.39.51,1.19.98,2.41,1.41,3.64.14.41.28.82.41,1.23.32.97.47,2,.6,3.02.19,1.54.35,3.08.43,4.62.09,1.61.13,3.22.09,4.82-.04,1.38-.13,2.76-.23,4.14-.03.46-.06.92-.09,1.38-.01.07-.02.14-.04.21-.01.03-.02.07-.03.11,0,.02-.02.03-.02.05,0,.01,0,.03-.01.05h-.01c-.07.01-.13.02-.2.02-.41-2.01-.8-4.03-1.23-6.03-.09-.41-.15-.81-.22-1.22-.09-.51-.19-1.02-.32-1.51-.05-.2-.11-.39-.18-.59-.17-.48-.4-.95-.72-1.39-.31-.41-.64-.8-.96-1.2-.03.01-.06.02-.09.02-.05.02-.07.02-.12.04-.02.01-.05.02-.09.03,0,.54-.04,1.08-.04,1.61,0,.18,0,.36.01.54,0,.18.02.35.04.53.04.3.08.6.12.9.12.9.23,1.81.36,2.71.13.9.28,1.8.46,2.69.06.29.12.59.19.88.21.89.46,1.77.72,2.65.18.58.37,1.16.56,1.75.28.87.57,1.74.83,2.62.04.12.07.24.09.37,0,.02,0,.04,0,.06.04.24.05.48.02.71-.07.57-.15,1.13-.23,1.7-.07.57-.15,1.14-.23,1.71-.14,1.13-.3,2.27-.45,3.4-.31,2.26-.62,4.53-.93,6.8-.03.28-.12.56-.25,1.12-.92-.69-1.63-1.3-2.43-1.8ZM55.98,129.49c-.1,1.66-.19,3.31-.28,4.97-.06,1.15-.16,2.3-.22,3.45-.03.53-.24.73-.79.67-3.11-.34-6.25-.52-9.33-1.01-3.63-.58-7.22-1.41-10.82-2.16-4.04-.84-7.86-2.33-11.73-3.7-1.41-.49-1.67-.86-1.5-2.34.44-3.93.92-7.85,1.39-11.77.39-3.3.77-6.59,1.17-9.88.35-2.93.7-5.85,1.12-8.77.08-.55.45-1.11.81-1.56.68-.84,1.47-1.59,2.19-2.39.69-.75,1.36-1.52,2.19-2.45-.3.87-.46,1.63-.81,2.31-.84,1.64-1.82,3.2-2.13,5.08-.35,2.13.53,3.98,2.38,4.51,2.07.59,3.67-.05,5.03-1.88,1.93-2.6,2.22-5.6,2.26-8.71.04-3.3-1.19-6.13-3.52-8.27-3.18-2.93-2.76-6.99-1.04-9.97.86-1.51,1.81-2.96,2.67-4.46.24-.45.3-.99.45-1.49.54.94.6,2.2.17,3.43-.45,1.26-1.02,2.49-1.32,3.79-.55,2.36,1.43,3.45,3.18,3.25,1.44-.17,2.57-.89,3.51-1.95,1.54-1.74,2.63-3.66,2.56-6.11-.04-1.51-.57-2.78-1.6-3.84-.66-.69-1.35-1.34-2.09-1.93-1.85-1.49-2.18-3.44-1.84-5.62.34-2.17,1.46-3.82,3.32-4.96,1.61-.99,2.62-2.36,2.92-4.26.6,1.54.22,2.93-.75,4.1-2.5,3.01-2.6,6.4-.12,9.53.29.36.61.69.95.99,1.58,1.36,2.58,2.99,2.54,5.13.79.24,1.05-.22,1.23-.79.38-1.22-.07-2.34-.39-3.48-.33-1.18-.62-2.38-.89-3.57-.07-.29-.01-.61-.01-.67.53.9,1.14,1.92,1.74,2.95.5.86,1.06,1.7,1.45,2.61.85,2,.42,3.95-.56,5.77-.48.89-1.17,1.69-1.87,2.44-2.17,2.33-4.44,4.58-5.95,7.44-1.16,2.2-1.43,4.55-.49,6.86,1.27,3.12,4.19,3.77,6.93,2.4,1.99-.99,2.91-2.71,2.91-4.87.01-1.13-.16-2.26-.35-3.37-.36-2.15,0-4.13,1.13-6,.17-.28.32-.59.57-1.07.03.38.08.59.06.8-.28,2.28.5,4.31,1.47,6.29,1.6,3.26.46,6.4-1.88,8.59-1.86,1.76-3.86,3.38-5.57,5.27-2.29,2.53-3.4,5.63-3.19,9.08.12,2.07.72,3.95,2.66,5.12,1.46.88,2.88.46,3.72-1.04.66-1.18.64-2.42.49-3.7-.15-1.31-.13-2.62.59-3.98.15.93.2,1.73.41,2.48.38,1.39.9,2.75,1.29,4.14.46,1.62.04,3.14-.84,4.52-.48.75-1.09,1.41-1.68,2.09-.98,1.14-2.05,2.21-2.96,3.4-1.37,1.79-1.65,3.84-1.08,6,.52,1.93,1.87,2.93,3.81,3.19,1.86.25,3.16-.64,4.2-2.1.13-.18.24-.38.33-.59.46.76,1.04,1.45,1.73,2.02.02-.02.05-.05.07-.07,0,.04-.01.07,0,.11ZM57.27,103.92c-.13,2.93-.25,5.87-.39,8.8v1.12c-.16,1.29-.37,2.53-.44,3.78-.09,1.64-.03,3.28-.11,4.92-.06,1.35-.13,2.7-.2,4.05-.28-.39-.53-.8-.75-1.22-.34-.62-.63-1.26-.91-1.9-.16-.71-.43-1.33-.79-1.71-.14-.15-.29-.34-.46-.4-.29-.09-.7-.21-.87-.08-.19.15-.26.57-.23.86.07.81.27,1.61.34,2.42.09,1.14-.3,2.11-1.2,2.87-.94.79-2.35.6-3.31-.48-.97-1.1-.79-3.04-.04-4.3,1.26-2.12,3.23-3.58,4.74-5.47,1.56-1.95,1.95-4.15,1.46-6.51-.24-1.15-.65-2.27-1.06-3.37-.78-2.05-.76-3.96.71-5.71.34-.4.82-.87.44-1.37-.39-.51-.96-.17-1.44.08-2.73,1.42-4.37,3.54-4.31,6.75.01.87.04,1.75-.04,2.61-.06.6-.13,1.31-.94,1.48-.71.15-1.32-.24-1.75-1.04-.82-1.49-.79-3.06-.56-4.68.52-3.48,2.75-5.77,5.31-7.9,1.86-1.54,3.7-3.19,4.82-5.35,1.22-2.35,1.34-4.89.4-7.43-.47-1.26-.88-2.54-1.29-3.82-.77-2.38-.19-4.59.89-6.73.19-.38.42-.74.55-1.14.12-.36.12-.76.18-1.21-1.04-.03-1.52.62-1.97,1.12-1.88,2.09-3.52,4.35-4.6,6.96-.67,1.63-.85,3.33-.49,5.11.24,1.16.39,2.39.29,3.57-.16,2.06-1.98,3.39-4.02,3.16-1.38-.16-2.56-1.65-2.64-3.41-.09-2.11.55-4.03,1.87-5.65,1.47-1.8,3.03-3.55,4.62-5.25,3.6-3.85,3.93-9.35.43-13.51-.42-.5-.77-1.17-.87-1.81-.11-.76.1-1.56.15-2.34.02-.4.03-.8-.06-1.18-.02-.08-.62-.16-.78-.03-.56.44-1.16.91-1.55,1.5-.83,1.25-1.3,2.65-1.29,4.19-1.51-.92-2.33-3.85-1.71-5.3.42-.95.84-1.94,1.49-2.74,1.69-2.09,1.35-5.55-.53-7.51-.69-.72-1.26-1.58-2.36-1.73-.26-.04-.54-.01-1-.01.33.69.57,1.23.85,1.75,1.08,2,.9,3.85-.56,5.19-.42.39-.93.69-1.38,1.04-2.82,2.19-4.03,5.1-3.5,8.6.21,1.38.87,2.68,2.03,3.63.76.61,1.51,1.23,2.21,1.91,1.17,1.14,1.72,2.47,1.26,4.14-.54,1.99-1.44,3.71-3.41,4.65-.3.14-.65.23-.98.25-1.11.07-1.65-.54-1.36-1.62.27-1.02.71-1.99.96-3.01.89-3.76-.26-7.2-3.79-8.92-.35-.17-.79-.38-1.02.07-.12.25-.01.68.11.99.4,1.07,1.02,2.09,1.23,3.2.33,1.74-.74,3.11-1.59,4.51-1.21,1.98-2.35,3.99-2.55,6.37-.14,1.71.24,3.36.86,4.9.31.79,1.13,1.37,1.66,2.09.9,1.22,1.91,2.4,2.58,3.74.73,1.45.76,3.11.62,4.73-.08.91-.12,1.84-.34,2.71-.24.91-.5,1.91-1.08,2.59-.64.74-1.26,1.61-2.31,1.96-1.73.58-2.91-1.15-2.49-2.51.39-1.3.95-2.55,1.49-3.8.92-2.09,1.52-4.19.75-6.5-.43-1.3-1.27-2.13-2.61-2.88-.02.45-.15.82-.04,1.09.85,1.98.02,4.68-1.67,5.9-.48.34-.82.87-1.22,1.32q-.11-.05-.23-.09c0-.25-.02-.49.01-.73.37-2.89.76-5.78,1.14-8.66.3-2.3.6-4.59.88-6.89.38-2.98.75-5.96,1.1-8.94.44-3.68.85-7.36,1.29-11.05.27-2.32.59-4.63.84-6.96.28-2.69.57-5.38.74-8.08.16-2.46.31-4.95.22-7.41-.1-2.44-.48-4.86-.77-7.29-.11-.86-.32-1.7-.53-2.55-.53-2.2-.99-4.44-2.76-6.08,1.7-1.58,15.26-8.14,18.58-8.95-1.31,3.34-2.55,6.56-3.85,9.77-.41,1.01-1.02,1.94-1.46,2.95-.45,1,0,1.88,1.19,1.66.85-.16,1.69-.38,2.52-.62,2.27-.66,4.54-1.35,6.81-2,.15-.05.4,0,.48.1.07.08.01.33-.06.47-.76,1.42-.77,1.42-.61,2.55,4.02,2.56,7.93,5.04,11.66,7.41-.71,1.35-1.49,2.45-1.86,3.66-.42,1.38-.54,2.87-.68,4.32-.21,2.33-.36,4.67-.49,7.01-.16,2.81-.28,5.62-.4,8.43-.14,3.41-.25,6.83-.4,10.25-.16,3.52-.39,7.04-.55,10.56-.16,3.58-.28,7.16-.43,10.74l-.05.73c-.13,2.51-.45,6.27-.54,8.44-.08,2.03-.15,4.07-.23,6.1ZM110.91,127.33c.11,1.74.23,3.47.34,5.2.01.21-.01.4-.07.57h0c-.04.15-.1.27-.18.38-.05.07-.11.14-.18.2-.25.26-.59.43-.95.56-1.92.72-3.83,1.48-5.8,2.05-4.48,1.31-9.06,2.18-13.68,2.73-4.36.52-8.74.96-13.12,1.26-3.55.24-7.1.3-10.65.28-2.58-.01-5.15-.28-7.72-.43-.63-.04-1.08-.28-1.04-1.01.1-1.89.19-3.78.3-5.66h.01c.17.11.35.19.53.29.33.18.64.4.93.64.57.48,1.08,1.04,1.64,1.53.52.46,1.11.81,1.79.97.01,0,.01,0,.02,0,.02.02.03.02.05.03.49.18,1.04.21,1.56.24.03,0,.06,0,.09-.01h.03c.28.01.57,0,.84-.09.48-.14.8-.44.98-.83.02-.04.05-.09.06-.14.02-.05.04-.1.05-.15.06-.18.1-.38.11-.58.05-.76-.23-1.51-.54-2.19-.24-.51-.51-1.03-.92-1.44-.01-.01-.01-.02-.02-.03-.04-.07-.08-.14-.12-.21-.28-.47-.52-.97-.83-1.43-.95-1.41-.78-3.4.64-4.85h.01c.57-.58,1.2-1.1,1.8-1.66.17-.16.34-.32.49-.49.27-.29.51-.59.72-.9.21-.31.39-.63.54-.96.14-.33.25-.67.33-1.02.12-.55.14-1.12.07-1.73-.02-.25-.07-.5-.13-.75-.04-.16-.09-.32-.14-.49-.05-.14-.1-.28-.15-.42-.12-.27-.25-.53-.4-.77-.16-.25-.33-.48-.53-.69-.29-.32-.62-.59-1.01-.81-.71-.41-1.26-.91-1.68-1.48-.18-.24-.33-.48-.45-.74-.51-1.02-.66-2.19-.5-3.34.04-.29.09-.58.17-.86.05-.19.11-.38.17-.56.13-.37.28-.74.47-1.08.1-.18.2-.34.3-.51.1-.16.21-.33.33-.48.18-.24.38-.47.58-.7.6-.67,1.27-1.29,1.91-1.94.37-.37.75-.73,1.12-1.09.37-.35.75-.7,1.12-1.06h.01c-.04.15-.08.29-.13.43-.08.28-.19.56-.32.83-.3.68-.71,1.33-1.16,1.95-1.22,1.66-1.81,3.45-1.08,5.47.1.26.21.5.34.72.14.22.3.43.47.62.11.13.23.25.36.37.51.46,1.1.85,1.71,1.21.42.25.8.53,1.14.85.07.06.14.13.2.2.32.34.59.71.76,1.13.04.1.09.2.12.31.03.08.05.16.07.24.07.27.11.55.1.85-.01.38-.05.76-.12,1.14-.02.13-.04.25-.07.38-.03.16-.08.33-.12.5-.1.4-.22.8-.36,1.19-.05.15-.1.29-.15.44-.23.65-.53,1.29-.84,1.92-.23.47-.46.94-.68,1.42-.07.16-.13.32-.2.48-.56,1.39-.75,2.85-.36,4.34.03.15.08.29.13.43.06.14.12.27.18.4.22.45.52.85.87,1.21.99,1,2.4,1.62,3.83,1.55.41-.02.8-.09,1.17-.21.24-.08.48-.18.7-.3.34-.17.65-.39.94-.65.55-.53.98-1.2,1.25-1.98.09-.26.16-.54.21-.82.08-.43.05-.83-.03-1.22-.05-.22-.12-.44-.2-.66-.08-.21-.18-.42-.28-.63-.1-.21-.21-.42-.32-.63-.2-.4-.39-.81-.57-1.22-.1-.21-.2-.42-.3-.64-.1-.21-.2-.43-.3-.65h.02c1.15.95,2.17,1.8,3.22,2.64.13.1.25.21.37.33.12.11.23.23.32.35.29.36.5.75.63,1.16.07.19.12.38.15.58.04.24.06.49.06.74,0,.33-.03.66-.09,1.01-.18,1.01-.41,2.01-.56,3.02-.01.06-.01.11-.02.16-.12,1.22.51,2.11,1.44,2.83,2.19,1.67,5.37,1.45,7.33-.41.15-.15.29-.3.43-.47.02-.02.04-.05.07-.08.02-.03.04-.06.06-.09.12-.16.22-.34.3-.51.03-.07.06-.15.09-.23.05-.16.09-.32.12-.49.03-.17.04-.34.04-.51,0-.43-.09-.87-.21-1.32-.07-.24-.16-.48-.11-.91h0c.09.05.19.1.28.16.3.15.6.3.84.52.54.51,1.02,1.07,1.48,1.65.13.17.26.32.4.46,1.38,1.43,3.09,1.65,5.06,1.18,1.38-.34,2.45-.99,3.23-1.92.17-.21.33-.42.47-.66.14-.23.27-.48.39-.73.17-.39.31-.81.42-1.25.23-.91.11-1.95-.03-2.89-.08-.49-.19-.98-.33-1.46s-.31-.96-.47-1.43c-.42-1.23-.47-2.38-.1-3.48.04-.12.09-.25.14-.37.08-.19.16-.37.27-.55.1-.19.21-.37.34-.55.85-1.2,1.64-2.48,1.35-4.02-.05-.27-.11-.55-.18-.82-.14-.54-.32-1.08-.53-1.6-.11-.27-.22-.53-.34-.78-.25-.54-.53-1.08-.77-1.62-.07-.18-.15-.37-.23-.56-.08-.19-.15-.37-.2-.56-.22-.66-.34-1.35-.29-2.09.03-.57.1-1.14.16-1.73h.01c.11.03.18.04.2.06h.01c.08.43.2.83.36,1.21.05.12.1.25.16.37.35.74.81,1.41,1.31,2.05.51.64,1.07,1.24,1.61,1.85,1.8,2.02,1.93,5.46.68,7.62-.35.59-.72,1.18-.97,1.82-1.04,2.73,1.03,7.26,4.66,7.34.24,0,.4.06.5.17.06.05.1.12.12.21.03.08.05.17.06.28ZM108.61,100.13c.19,1.96.38,3.92.57,5.88.2,1.96.38,3.92.57,5.88.12,1.28.24,2.57.35,3.85.12,1.28.24,2.56.35,3.84.12,1.28.24,2.57.35,3.85.03.33.03.55-.02.7h0c-.02.09-.06.15-.12.19-.14.11-.38.12-.79.11-.46-.02-.92-.18-1.33-.45-.16-.11-.32-.23-.46-.37-.69-.65-1.14-1.58-1.11-2.48.02-.46.1-.89.23-1.31.14-.41.32-.82.56-1.22,1.46-2.53,1.51-5.16.52-7.91-.16-.44-.37-.84-.61-1.22-.12-.19-.25-.37-.38-.54-.68-.89-1.48-1.66-2.14-2.55-.51-.69-.88-1.4-1.08-2.13h0c-.09-.3-.14-.59-.17-.88-.02-.27-.02-.54-.01-.81.02-.19.04-.38.08-.57.03-.12.06-.25.09-.37.08-.29.19-.59.34-.89.07-.14.15-.29.23-.44.09-.16.22-.32.25-.49.02-.08.03-.16.03-.24.02-.23.01-.48.03-.72-.35.01-.71-.06-1.03.04-.22.06-.42.2-.59.37-.06.05-.12.11-.17.17-2.44,2.6-3.5,5.61-2.41,9.11.04.12.08.24.12.36.16.41.37.81.59,1.2.23.39.47.78.68,1.17.58,1.05,1.12,2.14.89,3.35-.1.6-.28,1.22-.55,1.77-.09.18-.19.36-.3.52-.21.3-.41.6-.6.91-.09.15-.18.31-.27.46-.11.2-.21.4-.3.6-.08.2-.16.4-.23.61-.06.21-.11.42-.15.64-.02.1-.03.21-.04.32-.02.28-.01.58.03.89.13,1,.42,2,.77,2.95.04.12.09.24.13.36.41,1.19.6,2.37.37,3.53-.04.22-.1.45-.18.67-.07.23-.17.45-.28.67-.05.11-.12.22-.18.33-.72,1.22-1.88,1.85-3.27,1.87-1.43.03-2.71-.36-3.73-1.39-.15-.13-.29-.29-.42-.46-.12-.15-.24-.29-.36-.42-.89-.92-2.03-1.44-3.35-1.61-.36-.04-.72-.15-1.11-.24-.08.09-.17.19-.26.28-.08.09-.17.19-.25.27.26.74.54,1.5.8,2.25.1.28.14.54.14.79,0,.69-.35,1.27-.97,1.7-1.12.79-2.36,1.18-3.73.7-.33-.12-.63-.32-.86-.57-.1-.1-.19-.21-.27-.34-.08-.12-.15-.25-.2-.39-.03-.06-.05-.13-.07-.2-.07-.2-.1-.4-.1-.61-.01-.11,0-.22.02-.33.01-.1.03-.2.06-.29.41-1.42.55-2.83.27-4.32-.01-.05-.02-.11-.03-.17-.01-.06-.03-.11-.04-.16-.03-.11-.05-.21-.09-.31-.06-.21-.14-.4-.22-.59-.18-.38-.39-.74-.63-1.06-.16-.21-.33-.42-.52-.61-.44-.47-.96-.88-1.5-1.26-.29-.21-.56-.42-.78-.65-.12-.11-.23-.23-.32-.36-.09-.12-.18-.25-.26-.38-.16-.25-.27-.53-.35-.82-.19-.69-.16-1.48.12-2.4.02-.09.06-.18.09-.27.03-.09.07-.19.1-.28.08-.2.05-.44.07-.7-.17.08-.34.16-.5.25-.66.36-1.23.8-1.72,1.31-.36.39-.67.83-.93,1.32-1.02,1.96-.48,3.72.74,5.37.68.91.94,1.89.46,2.95-.11.25-.27.46-.47.64-1.09,1.05-3.26,1.2-4.21.13-.07-.06-.13-.14-.18-.23-.73-1.17-1.17-2.56-.6-3.97.68-1.68,1.46-3.32,2.2-4.98.11-.24.2-.49.28-.74.05-.12.08-.25.12-.38.08-.29.14-.59.19-.89.13-.87.1-1.76-.12-2.61-.09-.34-.21-.66-.36-.98-.08-.17-.16-.33-.25-.48-.19-.31-.41-.6-.66-.88-.08-.1-.17-.19-.26-.27-.19-.18-.39-.35-.6-.51-.11-.09-.22-.16-.34-.24-.66-.43-1.37-.83-1.9-1.39h-.01c-.5-.53-.99-1.2-1.14-1.89-.02-.09-.04-.18-.04-.27-.11-.92.33-1.79.8-2.64.14-.25.28-.49.42-.73.14-.24.28-.48.41-.72.71-1.24,1.36-2.52,1.52-3.98.03-.23.05-.46.05-.69v-.06c0-.08-.01-.15-.01-.23-.01-.25-.04-.5-.08-.74h0c-.05-.25-.12-.49-.2-.71h0c-.09-.24-.2-.45-.31-.66-.13-.21-.26-.41-.42-.59-.09-.1-.18-.2-.28-.29-.22-.2-.45-.37-.71-.51-.18-.09-.36-.16-.56-.22,0,.46-.05.91.01,1.33s.05.83-.02,1.21c-.03.21-.08.42-.14.61-.04.13-.09.25-.14.38-.19.43-.43.83-.71,1.2-.27.38-.58.73-.91,1.08-.14.15-.29.3-.44.44-.58.58-1.19,1.12-1.76,1.69-.15.14-.29.28-.43.43-.28.29-.55.59-.8.91-.16.21-.31.41-.46.62-.28.42-.53.85-.75,1.28h0c-.08.17-.15.34-.22.5-.13.33-.25.66-.34,1-.04.17-.08.34-.12.51,0,0,.01.01,0,.02-.04.23-.08.46-.1.69-.07.72-.03,1.46.12,2.22.06.26.12.52.2.78.04.14.08.27.13.4s.11.26.16.4c.05.13.11.25.17.37.13.24.28.46.44.67.08.1.16.2.25.29.59.63,1.31,1.13,1.98,1.67,2.53,2.07,2.18,4.24.16,6.38-.53.56-1.13,1.04-1.68,1.58-.09.09-.18.18-.27.27-.08.09-.17.19-.25.29-1.65,1.98-2.07,4.49-.65,6.88.32.54.65,1.08.98,1.61h0s1.09,1.89,1.09,1.89c.17.28.54.82.15,1.05-.32.2-.84.18-1.19.14-.83-.09-1.59-.51-2.12-1.15-.58-.71-.98-1.5-1.74-2.05-.56-.4-1.21-.64-1.89-.72h-.01c.03-.64.06-1.27.1-1.91.18-2.97.39-5.93.58-8.89.03-.44.06-.87.09-1.31.05-.86.11-1.72.16-2.58v-.06c.02-.43.04-.85.06-1.28.03-.77.01-1.54.01-2.32,0-.64.02-1.27.1-1.9.06-.46.08-.92.08-1.39,0-.36-.01-.73-.01-1.09,0-.23,0-.45.01-.68s.02-.45.05-.68c.04-.33.07-.67.1-1,.04-.67.07-1.34.09-2.01.01-.34.03-.67.04-1.01.06-1.37.1-2.74.17-4.1.23-4.59.48-9.18.7-13.77.02-.37.04-.73.05-1.1.04-.75.06-1.5.09-2.25.04-1.11.08-2.22.12-3.34.04-1.19.07-2.37.17-3.55.15-1.67.1-3.34.2-5.01.11-1.77.18-3.55.26-5.33.16-3.78.3-7.56.47-11.34.21-4.56.46-9.12.71-13.68.02-.3.2-.62.37-.9.11-.19.21-.34.3-.48h0c.09-.14.16-.25.24-.35.05-.07.1-.12.16-.18.03-.04.06-.07.09-.1.27-.25.63-.48,1.34-.92,3.48-2.17,6.95-4.36,10.45-6.48,2.22-1.35,4.49-2.61,6.75-3.9,1.04-.59,1.54-1.02,1.54-1.56,0-.11-.02-.22-.06-.34-.04-.12-.1-.25-.18-.39-.04-.07-.08-.14-.13-.21-.15-.23-.34-.47-.57-.75-.08-.1-.17-.19-.25-.28.03-.09.07-.18.1-.26h.01c2.13.68,4.26,1.39,6.41,2.05.98.3,1.98.56,2.98.74.34.06.64-.01.87-.19.14-.12.25-.28.33-.48.09-.25.14-.55.11-.9-.07-.96-.38-1.91-.51-2.87-.43-3.15-.83-6.31-1.24-9.46-.05-.41-.08-.82-.14-1.48h.01c6.47,2.96,12.77,5.84,19.23,8.79h.01c-.07.08-.14.15-.21.21l-.37.37c-.12.11-.23.22-.34.33-.1.11-.19.22-.28.33-.04.05-.07.11-.11.17-.25.42-.51.83-.77,1.25-.26.41-.52.83-.77,1.24-.37.63-.73,1.27-1.04,1.92-.1.22-.2.44-.29.66-2.15,5.13-3.08,10.55-3.27,16.1-.06,1.82-.17,3.65-.07,5.46.09,1.71.21,3.43.35,5.13.07.85.14,1.71.21,2.56.08.86.15,1.71.22,2.57.09,1.11.19,2.21.28,3.31.1,1.1.19,2.2.3,3.3.07.73.15,1.46.23,2.19.09.85.19,1.69.28,2.53.15,1.27.31,2.54.46,3.8.16,1.26.32,2.52.47,3.79.29,2.48.56,4.96.83,7.44.13,1.21.26,2.42.39,3.63.07.6.13,1.2.19,1.81.06.6.12,1.21.17,1.81.06.74.13,1.47.2,2.21.22,2.21.47,4.41.68,6.62ZM110.06,68.32h-.01c-.17-.28-.33-.54-.49-.81-.17-.27-.33-.53-.49-.79-.32-.52-.63-1.02-.93-1.53-.2-.34-.4-.68-.6-1.02-.18-.31-.3-.63-.36-.98-.06-.26-.08-.52-.09-.81,0-.09,0-.18,0-.28-.04-1.6-.35-3.2-.61-4.79-.2-1.23-.06-2.35.46-3.53.9-2.01,1.61-4.12,2.41-6.18,1.25-3.24,2.54-6.47,3.75-9.72.26-.7.3-1.48.4-2.23.02-.11-.02-.23-.08-.35-.05-.09-.1-.19-.13-.29-.22.1-.48.16-.64.33-1.38,1.44-2.18,3.23-2.92,5.03-.71,1.73-1.4,3.45-2.08,5.18-.67,1.72-1.34,3.43-2.01,5.12-.07-.95-.13-1.9-.16-2.86-.19-4.8.09-9.63,1.16-14.4.1-.44.2-.87.3-1.31.42-1.74.9-3.46,1.57-5.11.21-.51.44-1.01.7-1.51.25-.5.53-.98.84-1.46.12-.19.25-.37.38-.56.15-.21.31-.41.47-.6.16-.2.34-.4.52-.58.18-.19.36-.37.54-.54.18-.18.37-.36.55-.54.1-.11.2-.17.29-.19.08-.01.15-.01.21.01s.13.05.18.11c.03.01.06.04.09.08h0c.66.69,1.22,1.47,1.76,2.26.3.45.6.91.9,1.36.16.24.32.49.48.73.48.73.96,1.46,1.41,2.2.26.4.5.8.74,1.2,2.5,4.21,4.98,8.43,7.45,12.66,2.07,3.58,4.11,7.17,6.17,10.75.03.06.07.12.11.19.08.12.17.25.26.39.05.08.1.15.16.24h0c-.48.18-.9.34-1.33.51-3.62,1.5-6.96,3.47-10.02,5.95-2.81,2.27-5.7,4.42-8.56,6.61-.46.35-.92.7-1.38,1.04-.46.34-.91.68-1.36,1.02ZM126.72,67.19s0-.03-.02-.05c.02,0,.04-.01.05-.01.01.01.01.03.02.05-.02,0-.05.02-.05,0ZM128.77,62.29c-3.43,2.04-6.43,4.66-9.46,7.26-1.82,1.57-3.66,3.18-5.98,4.04-.22.08-.45.13-.7.21h-.01c-.46-.96-.89-1.89-1.35-2.8-.03-.06-.06-.13-.08-.19-.05-.16-.03-.29.06-.42.03-.04.06-.08.11-.12.04-.04.09-.08.14-.12,3.99-3.15,7.93-6.36,11.95-9.47,2.56-1.99,5.28-3.75,8.32-4.96.48-.19.97-.4,1.44-.62.28-.14.48-.12.63.02.04.04.08.08.12.14.04.05.08.12.11.19.44.97.89,1.94,1.35,2.91.04.08.11.16.15.21.01.01.03.03.03.03-2.28,1.22-4.6,2.37-6.83,3.69Z"/>
        <path class="cls-2" d="M82.18,4.39c-.12.99-.34,1.96-.51,2.94-.1.56-.4.69-.95.61-2.31-.33-4.63-.78-6.95-.89-3.44-.16-6.9-.14-10.34-.02-1.86.06-3.71.44-5.55.74-.36.06-.61-.01-.76-.17-.03-.02-.06-.06-.08-.1-.07-.12-.1-.26-.11-.44-.01-.21-.01-.42-.01-.64,0-.28.01-.56.03-.84.02-.32.05-.63.1-.94,0-.02.01-.05.02-.08.02-.08.08-.17.15-.24.03-.04.06-.07.09-.1.14-.13.31-.23.45-.26,1.51-.34,3.03-.66,4.56-.87,1.46-.2,2.94-.24,4-.32,3.26,0,6.12-.12,8.96.04,2.16.12,4.31.58,6.46.94.04.01.09.03.14.08.02.02.05.04.07.07.08.07.15.18.19.28.01.03.02.06.03.09.01.05.02.08.01.12Z"/>
        <path class="cls-2" d="M65.15,31.02c.02.1,0,.21-.03.3-.02.06-.07.13-.13.2-.04.05-.09.09-.14.14-.07.07-.16.13-.25.2h-.01s-.11.08-.17.12c-.02-.04-.03-.08-.04-.12-.01-.05-.02-.1-.03-.14-.02-.09-.05-.17-.11-.21h-.01c-1.01-.66-2.04-1.28-3.06-1.93-2.04-1.31-4.07-2.62-6.1-3.94-.2-.13-.35-.24-.47-.36-.21-.19-.31-.37-.3-.59,0-.12.04-.24.1-.38.07-.15.16-.33.28-.52.43-.69.84-1.39,1.24-2.11.06-.11.12-.23.17-.35.05-.12.09-.25.11-.37.07-.46-.06-.84-.34-1.08-.06-.06-.12-.1-.19-.14-.34-.21-.83-.25-1.35-.08-2.75.88-5.5,1.73-8.26,2.57-.46.14-.96.14-1.51.22.59-1.39,1.19-2.68,1.68-4,.23-.61.44-1.23.66-1.85.64-1.86,1.25-3.74,2.04-5.53.38-.86.95-1.65,1.55-2.42.36-.46.74-.92,1.09-1.38.62-.81,1.33-1.56,2.02-2.33.14-.15.35-.23.53-.34.07.19.19.37.19.56,0,2.47.49,4.87,1.15,7.23.81,2.91,1.92,5.71,3.28,8.43.78,1.57,1.62,3.09,2.54,4.57.45.74.93,1.46,1.45,2.17.24.36.5.71.77,1.05h.01c.14.2.29.39.44.58.12.15.24.3.37.45.02.02.04.05.05.07.14.18.27.35.4.54.03.05.07.09.09.13.04.05.06.09.08.13.11.16.17.29.2.42.01.03.02.06.01.09Z"/>
        <path class="cls-2" d="M78.83,21.58s-.01.05-.01.07c0,.09.01.17.05.23.49.86.98,1.72,1.51,2.55.2.31.3.54.12.75-.06.09-.16.16-.3.24-1.84,1.02-3.67,2.06-5.46,3.16-1.36.84-2.66,1.77-3.96,2.69-1.48,1.05-2.94,2.13-4.41,3.18-.15.1-.35.13-.64.03.35-.41.68-.83,1.03-1.23.42-.47.85-.93,1.28-1.39.87-.92,1.73-1.84,2.57-2.78.43-.47.84-.94,1.25-1.42,1.12-1.32,2.21-2.66,3.26-4.02.99-1.28,1.94-2.58,2.85-3.91.3-.44.6-.89.89-1.34.88-1.35,1.72-2.73,2.49-4.14.26-.47.51-.95.76-1.43.39-.77.77-1.55,1.13-2.34.2-.43.38-.87.55-1.31.17-.44.33-.89.45-1.34.06-.23.12-.46.17-.69l.03-.15c.04-.18.08-.36.1-.54.04-.22.07-.44.08-.66.01-.11.02-.23.03-.34,0-.06,0-.12,0-.18.01-.04.01-.09.01-.13.01-.04.01-.08.01-.12,0-.05.01-.1.03-.19,0-.02.02-.05.03-.09.02-.05.03-.1.05-.17.41.41.81.81,1.21,1.22.3.3.59.6.86.91.1.12.21.23.31.35.18.2.35.41.51.62.12.16.25.32.35.49.17.24.32.5.47.75,0,0,.01,0,.01.01.14.26.28.52.4.79.19.43.31.89.41,1.36.03.16.06.32.08.48.03.21.06.43.08.64.03.29.05.58.08.87.02.16.03.33.05.49.06.52.11,1.04.15,1.56.09,1.04.17,2.09.25,3.13.03.26.05.52.07.78.02.26.04.52.07.78.03.25.06.5.11.76.09.5.19,1.02.3,1.56.05.28.11.56.16.85-1.2-.35-2.36-.62-3.46-1.04-2.2-.84-4.5-1.17-6.82-1.42-.51-.05-1.01-.02-1.31.32-.05.04-.09.1-.13.17-.04.07-.07.14-.1.23-.03.08-.05.17-.07.27-.01.03-.01.05,0,.08Z"/>
        <path class="cls-2" d="M135.6,58.6c-2.28,1.22-4.6,2.37-6.83,3.69-3.43,2.04-6.43,4.66-9.46,7.26-1.82,1.57-3.66,3.18-5.98,4.04-.22.08-.45.13-.7.21-.46-.96-.89-1.89-1.36-2.8-.03-.06-.06-.13-.08-.19-.04-.16-.02-.29.06-.42.03-.04.06-.08.11-.12.04-.04.09-.08.14-.12,3.99-3.15,7.93-6.36,11.95-9.47,2.56-1.99,5.28-3.75,8.32-4.96.48-.19.97-.4,1.44-.62.28-.14.48-.12.63.02.04.04.08.08.12.14.04.06.07.12.1.19.44.97.9,1.94,1.35,2.91.05.09.12.17.16.21.01.01.03.03.03.03Z"/>
        <path class="cls-2" d="M110.45,119.58c-.11-1.28-.23-2.56-.35-3.84s-.24-2.57-.36-3.85c-.18-1.96-.37-3.92-.56-5.88s-.38-3.92-.57-5.88c-.21-2.21-.46-4.41-.68-6.62-.07-.74-.15-1.47-.21-2.21-.05-.6-.11-1.21-.16-1.81-.06-.61-.12-1.21-.19-1.81-.13-1.21-.27-2.42-.4-3.63-.27-2.48-.54-4.96-.83-7.44-.15-1.27-.3-2.53-.46-3.79-.15-1.26-.31-2.53-.46-3.8-.1-.84-.2-1.68-.29-2.53-.08-.73-.15-1.46-.22-2.19-.11-1.1-.2-2.2-.3-3.3-.1-1.1-.19-2.2-.29-3.31-.07-.85-.14-1.71-.21-2.57-.07-.85-.14-1.71-.21-2.56-.14-1.7-.26-3.42-.36-5.13-.1-1.81.01-3.64.07-5.46.19-5.55,1.13-10.97,3.27-16.1.09-.22.19-.44.3-.66.31-.65.67-1.29,1.04-1.92.25-.41.51-.83.77-1.24.25-.42.51-.83.76-1.25.04-.06.08-.12.12-.17.08-.11.17-.22.28-.33.11-.11.22-.22.34-.33l.37-.37c.06-.07.13-.14.2-.21-6.46-2.95-12.76-5.83-19.23-8.79.06.66.09,1.07.14,1.48.41,3.15.81,6.31,1.24,9.46.13.96.44,1.91.51,2.87.03.35-.01.65-.12.9-.08.2-.19.36-.33.48-.23.18-.53.25-.87.19-1-.18-2-.44-2.98-.74-2.15-.66-4.28-1.37-6.41-2.05-.04.08-.07.17-.1.26.08.09.17.18.25.28.23.28.42.52.56.75.05.07.09.14.13.21.08.14.14.27.18.39.04.12.06.23.06.34,0,.54-.5.97-1.54,1.56-2.26,1.29-4.53,2.55-6.75,3.9-3.5,2.12-6.97,4.31-10.45,6.48-.71.44-1.07.67-1.34.92-.03.03-.06.06-.09.1-.06.06-.11.11-.16.18-.07.1-.15.21-.24.34h0c-.08.15-.18.3-.29.49-.17.28-.35.6-.37.9-.25,4.56-.5,9.12-.72,13.68-.17,3.78-.31,7.56-.47,11.34-.07,1.78-.14,3.56-.25,5.33-.1,1.67-.05,3.34-.2,5.01-.1,1.18-.13,2.36-.18,3.55-.04,1.12-.08,2.23-.12,3.34-.03.75-.05,1.5-.09,2.25-.01.37-.02.74-.04,1.1-.23,4.59-.48,9.18-.71,13.77-.07,1.36-.1,2.73-.17,4.1-.01.34-.03.67-.04,1.01-.02.67-.04,1.34-.09,2.01-.03.33-.06.67-.1,1-.03.23-.04.45-.05.68s-.01.45-.01.68c0,.36.01.73.01,1.09,0,.46-.01.93-.08,1.39-.08.63-.1,1.26-.1,1.9.01.77.03,1.55,0,2.32-.02.43-.04.85-.07,1.28v.06c-.05.86-.11,1.72-.16,2.58-.02.44-.05.87-.08,1.31-.19,2.96-.4,5.92-.58,8.89-.04.64-.07,1.27-.1,1.91.68.08,1.33.32,1.89.72.76.55,1.16,1.34,1.74,2.05.53.64,1.29,1.06,2.12,1.15.35.04.87.06,1.19-.14.39-.23.02-.77-.15-1.05l-1.09-1.88h0c-.34-.54-.67-1.08-.99-1.62-1.42-2.39-1-4.9.65-6.88.08-.1.17-.2.26-.29.09-.09.18-.18.27-.27.55-.54,1.15-1.02,1.68-1.58,2.02-2.14,2.37-4.31-.16-6.38-.67-.54-1.39-1.04-1.98-1.67-.09-.09-.17-.19-.25-.29-.17-.21-.32-.43-.44-.67-.07-.12-.13-.24-.18-.37-.06-.14-.1-.27-.15-.4s-.09-.26-.13-.4c-.08-.26-.14-.52-.2-.78-.16-.76-.2-1.5-.12-2.22.02-.23.06-.46.1-.69.01-.01,0-.02,0-.02.04-.17.08-.34.12-.51.09-.34.2-.67.34-1,.07-.16.14-.33.22-.49h0c.21-.44.46-.87.75-1.29.14-.21.29-.42.45-.62.25-.32.52-.63.81-.91.14-.16.28-.31.43-.43.57-.57,1.18-1.11,1.76-1.69.15-.15.29-.29.43-.44.33-.35.65-.71.92-1.08.28-.37.52-.77.71-1.2.05-.13.1-.25.14-.38.06-.19.11-.4.14-.61.05-.38.06-.78.01-1.21-.05-.42-.01-.87-.01-1.33h.01c.2.06.38.13.56.22.26.14.49.31.71.51.1.09.19.19.28.29.16.18.29.38.42.59.12.21.23.43.31.65h0c.08.23.15.47.2.71h0c.05.25.08.5.09.75v.29c0,.23-.02.46-.05.69-.16,1.46-.81,2.74-1.52,3.98-.13.24-.27.48-.41.72-.14.25-.27.49-.41.73-.47.85-.91,1.72-.81,2.64.02.09.03.18.05.27.15.69.64,1.36,1.14,1.89.53.56,1.24.96,1.9,1.39.12.08.23.15.34.24.22.16.42.33.6.51.09.08.18.17.26.27.25.28.47.57.66.88.09.15.17.31.25.48.16.32.28.64.36.98.22.85.25,1.74.12,2.61-.05.3-.11.6-.19.89-.04.13-.07.26-.12.38-.08.25-.17.5-.28.74-.73,1.66-1.51,3.3-2.19,4.98-.58,1.41-.13,2.8.6,3.97.05.08.11.16.17.23.95,1.07,3.12.92,4.21-.13.2-.19.35-.4.46-.64.49-1.06.22-2.04-.46-2.95-1.22-1.65-1.76-3.41-.74-5.37.26-.5.58-.94.94-1.32.49-.51,1.06-.95,1.72-1.31.16-.09.33-.18.5-.26h.01c-.02.26.01.51-.07.71-.04.09-.08.19-.11.28-.03.09-.07.18-.09.27-.28.92-.31,1.71-.12,2.4.08.29.2.57.35.82.08.13.17.26.26.38.09.13.2.25.32.36.22.23.49.44.78.65.54.38,1.06.79,1.5,1.26.19.19.36.4.52.61.24.32.45.68.63,1.06.08.19.16.38.22.59.04.1.06.2.09.31.01.05.03.1.04.16.01.06.03.12.04.17.28,1.49.14,2.9-.27,4.32-.03.1-.05.19-.07.29-.02.11-.03.22-.02.33,0,.2.04.42.1.61.02.07.04.14.07.2.05.14.12.27.2.39.08.12.17.23.27.34.23.25.53.45.86.57,1.37.48,2.61.09,3.73-.7.62-.43.97-1.01.97-1.7,0-.25-.05-.51-.15-.79-.26-.75-.53-1.51-.8-2.25h.01c.08-.08.17-.18.25-.27.09-.09.18-.19.26-.28.39.09.75.2,1.11.24,1.32.17,2.46.69,3.35,1.61.13.13.25.27.37.42.13.17.27.32.41.46,1.02,1.03,2.3,1.42,3.73,1.39,1.39-.02,2.55-.65,3.27-1.87.06-.11.13-.22.18-.33.11-.22.2-.44.28-.67.08-.22.14-.45.18-.67.22-1.16.03-2.34-.37-3.53-.04-.12-.09-.24-.13-.36-.36-.95-.65-1.95-.78-2.95-.04-.31-.05-.6-.02-.89,0-.11.02-.22.04-.32.03-.22.08-.43.15-.64.07-.21.15-.41.23-.61.09-.2.19-.4.3-.6.09-.15.18-.31.27-.46.19-.31.39-.61.6-.91.11-.16.21-.34.3-.52.26-.55.43-1.17.54-1.77.23-1.21-.31-2.3-.89-3.35-.22-.39-.45-.78-.67-1.17-.22-.39-.43-.79-.59-1.2-.05-.12-.09-.24-.13-.36-1.09-3.5-.03-6.51,2.41-9.11h.01c.05-.07.11-.12.17-.17.17-.17.37-.31.59-.37.32-.1.68-.03,1.03-.04h.01c-.01.24-.01.49-.04.72,0,.08,0,.16-.03.24-.03.17-.16.33-.25.49-.08.15-.16.3-.23.44-.14.3-.25.59-.34.89-.03.12-.06.25-.09.37-.04.19-.06.38-.08.57-.01.27-.01.54.01.81.03.29.09.58.17.87h0c.21.74.59,1.45,1.09,2.14.66.89,1.46,1.66,2.13,2.55.13.17.26.35.38.54.25.38.46.78.62,1.22.99,2.75.94,5.38-.52,7.91-.24.4-.43.81-.57,1.22-.13.42-.21.85-.23,1.31-.03.9.42,1.83,1.11,2.48.14.14.3.26.46.37.41.27.87.43,1.33.45.41,0,.65,0,.79-.11.05-.04.09-.1.12-.18h0c.04-.16.04-.38.01-.71-.11-1.28-.23-2.57-.34-3.85ZM66.48,39.4c.2.01.4.04.6.1.05.01.11.03.16.05.11.03.21.08.32.13.11.05.21.1.31.17.08.04.15.09.22.15.07.05.14.1.2.16.06.05.12.11.16.16.06.06.11.12.15.18.04.04.08.09.1.14.06.1.11.2.14.29.02.04.04.09.04.13v.02c.01.06.02.12.02.18h0c0,.2-.02.38-.05.56-.05.27-.13.52-.25.76-.05.11-.11.21-.17.32-.1.15-.21.29-.33.42-.12.13-.25.25-.39.35t-.01.01c-.11.07-.22.14-.34.2-.1.06-.21.11-.33.14-.06.03-.12.05-.19.06-.07.03-.14.04-.22.05-.14.03-.3.04-.45.04-.03,0-.05,0-.07-.01-.03,0-.06,0-.08-.01-.11.01-.21-.01-.31-.03-.14-.02-.28-.06-.4-.11-.25-.09-.47-.23-.64-.41-.09-.09-.17-.19-.23-.3-.05-.08-.11-.17-.14-.28-.02-.04-.04-.09-.05-.14-.03-.06-.05-.13-.06-.21-.01-.03-.02-.07-.02-.11-.01-.06-.02-.12-.02-.18-.01-.03-.01-.06-.01-.1-.01-.03-.01-.04,0-.07v-.02s-.01,0,0,0v-.02c-.01-.06-.01-.13-.01-.2.05-1.72.87-2.61,2.35-2.56ZM64.64,58.01c.2-.16.59-.09.89-.13.15,0,.29.01.42.03.27.03.5.09.71.18.41.18.71.49.96.97.06.12.12.25.18.39.19.49.19,1.1.02,1.65-.03.11-.07.21-.12.31-.03.08-.07.16-.12.23-.07.13-.15.24-.25.34-.06.07-.13.13-.2.19-.48.37-1.04.76-1.61.85-1.07.18-1.88-.54-2.14-1.62-.33-1.42.19-2.51,1.26-3.39ZM62.94,115.62c1.66,0,2.29,1.13,2.38,2.64.07,1.25-1.38,2.59-2.62,2.57-1.16.07-2.19-1.08-2.17-2.34.02-1.46,1.25-2.88,2.41-2.87ZM63.8,100.46c-1.39.02-2.38-.88-2.36-2.17.02-1.59,1.1-2.64,2.7-2.64,1.1.01,2.24,1.14,2.23,2.22,0,1.35-1.21,2.57-2.57,2.59ZM66.05,87.03s.07-.01.11-.01c0,.02,0,.04-.02.06-.03.01-.06.02-.07.01-.02-.01-.01-.04-.02-.06ZM64.75,83.2c-1.31.13-2.6-1.62-2.51-2.63.02-.18.04-.36.09-.54.04-.18.1-.35.17-.51.07-.17.15-.32.24-.47.09-.15.19-.28.3-.41.05-.07.11-.13.17-.18.09-.1.19-.19.3-.26.06-.05.12-.09.18-.12.04-.03.09-.05.13-.07.27-.14.55-.21.84-.2,1.31.04,2.57,1.35,2.48,2.63-.14,1.96-.89,2.64-2.39,2.76ZM105.47,90.15c-.58-.69-1.1-1.31-1.61-1.93-.09.07-.17.15-.25.22.74,2.71,1.13,5.4-.36,8.01-.45.8-.98,1.5-1.91,2.09-.07-.89-.13-1.64-.19-2.39-.07,0-.13-.02-.2-.02-.12.42-.21.85-.3,1.27-.03.14-.06.28-.1.42-.07.3-.16.6-.27.88-.04.1-.08.2-.13.3-.05.12-.11.23-.18.34-.05.08-.1.17-.16.25-.06.09-.13.18-.21.27-.06.07-.12.14-.19.21h0c-.13.13-.25.26-.38.38-.26.25-.52.49-.79.71-.13.11-.27.22-.42.32-.12.1-.24.18-.37.25-.02.02-.05.03-.07.04-.12.08-.25.14-.38.2-.01.02-.02.02-.03.02-.06.03-.12.06-.18.08-.14.07-.29.13-.45.17-.16.06-.33.11-.51.14.16-1.02.3-1.88.46-2.95-.51.32-.84.59-1.22.75-1.9.8-3.82,1.54-5.7,2.36-1.35.59-2.69,1.2-3.94,1.96-1.11.67-1.79,1.73-1.76,3.09,0,.09,0,.19.01.28.01.07.01.14.03.21,0,.04.01.07.02.11.01.06.03.12.05.17.1.24.27.44.61.55.66.23,1.25.3,1.77-.32.59-.7,1.15-1.43,1.84-2.02,1.5-1.3,3.81-1.38,5.36-.25.26.19.4.53.64.86-.76.2-1.36.36-2.15.57.29.12.38.16.56.23-.27.08-.47.14-.88.25,4.73-.19,7.95,3.86,7.3,7.56-.72-.51-1.4-.99-2.05-1.44.12,2.16.21,4.31.34,6.46.01.16.03.31.05.46.01.08.02.16.04.23.03.17.06.34.11.5,0,.03.01.07.03.1.02.06.04.13.06.19,0,.07.04.13.07.19.05.13.11.25.17.37.04.1.1.2.16.29.07.12.16.24.26.36.09.13.2.24.33.36.06.06.13.12.19.17.03.03.07.05.1.09.04.02.07.05.11.08.04.03.08.06.11.09.03.03.06.06.09.08.05.05.1.1.13.15.04.05.07.09.08.14.11.27-.1.48-.61.66-1.84.65-3.56.23-5.23-.59-.26-.12-.49-.28-.82-.47-.06.47-.08.85-.16,1.22-.14.67-.42.7-1.04.42-1.33-.58-2.26-1.59-3.1-2.7-.48-.64-.82-1.38-1.21-2.05-.57.43-1.18.9-1.95,1.49.15-1.36.04-2.43-.83-3.3-1.09-1.1-1.57-2.46-1.58-3.99,0-.42-.1-.6-.61-.68-1.74-.26-3.42-.69-4.94-1.7-.3-.2-.57-.41-.82-.64-.13-.11-.25-.23-.36-.35-.12-.12-.23-.25-.33-.38-.11-.13-.22-.28-.31-.42-.11-.16-.22-.33-.3-.5-.07-.11-.13-.23-.19-.35-.06-.12-.11-.24-.16-.36-1.73-4.36-.55-8.73,2.74-11.9,2.09-2.03,4.65-3.2,7.2-4.46,1.52-.76,3.1-1.46,4.22-2.85,1.22-1.52,1.03-3.16-.55-4.29-.15-.1-.27-.26-.43-.35-.81-.48-1.58-.92-2.63-.43-.98.47-2.07.68-3.17,1.02.08.62.3,1.33.23,2.01-.07.72-.33,1.47-.68,2.11-.34.64-1.38.63-1.9.12-.22-.22-.48-.4-.85-.71-.09.75-.18,1.35-.23,1.96-.05.54-.29.77-.85.81-1.28.09-2.28-.52-2.85-1.81-.13-.31-.26-.62-.39-.92-.08-.02-.16-.03-.24-.04-.2.61-.39,1.22-.59,1.82-.49.82-1.11.19-1.73,0-.14-.05-.27-.14-.48-.26,0,0,.03-.17,0-.32h0s-.02-.06-.03-.08c0,0,0-.02-.01-.03-.01-.01-.01-.02-.02-.03-.07-.09-.13-.18-.18-.27-.11-.17-.21-.35-.29-.53s-.15-.36-.19-.54c-.02-.09-.04-.18-.05-.27-.03-.09-.04-.18-.04-.28-.03-.26-.02-.53.03-.8.05-.36.17-.73.33-1.1.03-.07.07-.14.11-.22.04-.09.09-.18.14-.27.07-.11.13-.23.2-.34.06-.11.12-.22.24-.43-.57.13-1.05.23-1.52.36-.49.14-.74,0-.81-.52-.38-2.8,2.2-4.93,4.87-4.02.52.18,1.02.38,1.53.57.05-.06.11-.13.16-.19-.3-.27-.58-.56-.89-.82-1.98-1.62-3.19-3.67-3.52-6.27-.39-.15-.83-.26-1.21-.48-.66-.39-.97-.07-1.21.49-.04.1-.05.21-.11.3-.3.48-.25,1.46-.95,1.36-.1-.02-.2-.05-.3-.1-.08-.03-.15-.08-.22-.13-.08-.05-.17-.11-.25-.19-.08-.07-.16-.14-.24-.23-.12-.13-.25-.27-.36-.4-.06-.07-.11-.14-.16-.2-.72-.87-.67-1.93-.44-2.98.06-.24.14-.48.22-.76-1.18.01-1.62.92-2.19,1.66-1.35-1.43-1.02-3.71,2.01-5.54-.52-.04-.88-.07-1.3-.11.32-1.31.72-2.45,2.22-2.83,1.37-.35,2.77.25,3.47,1.64.24.46.35,1.01.65,1.43.2.3.59.52.95.66h.02s.05-.01.07-.03c.03-.01.07-.05.11-.08.02-.03.05-.05.07-.07.1-.11.2-.23.26-.33.93-1.31,1.72-2.73,2.78-3.91,1.1-1.22,2.39-2.3,3.73-3.26,2.07-1.48,4.29-2.75,6.37-4.22,1.49-1.06,2.62-2.45,2.68-4.42.01-.32-.05-.69-.2-.98-.2-.35-.47-.56-.96-.23-.69.46-1.46.79-2.16,1.16.24.79.56,1.54.69,2.33.22,1.29-.29,1.66-1.52,1.08-1.12-.52-2.17-1.18-3.34-1.83-.89.91-1.45,2.01-1.51,3.53.64-.13,1.18-.25,1.83-.38.2.33,0,.77-.31,1.17-1.3,1.73-2.88,2.76-5.3,1.93.26.54.45.94.67,1.41-1.31-.18-2.55-.12-3.66-.9-1.29-.91-2.23-3.02-.91-4.12.06-.05.07-.14.1-.19-.45-.29-.88-.57-1.31-.85.02-.1.04-.21.06-.32.76-.16,1.52-.3,2.27-.48.2-.05.46-.15.54-.31.5-.9.96-1.81,1.47-2.81-.07-.01-.15-.02-.22-.03-.57-.08-.99-.13-1.26.23-.04.04-.07.09-.1.15s-.06.12-.08.2c-.03.08-.05.16-.08.25-.27,1.09-1.47,1.41-2.97.89-.07.07-.13.13-.19.18-.11.11-.22.2-.32.26-.11.08-.21.14-.31.18-.07.03-.13.06-.19.07-.06.02-.11.04-.17.05-.07.02-.14.03-.21.03-.11,0-.22-.01-.34-.04-.07-.01-.13-.03-.2-.06-.14-.06-.29-.14-.44-.24-.07-.05-.14-.11-.22-.17-.07-.06-.15-.13-.23-.21-.48-.47-1.03-.87-1.56-1.29-.81-.65-1.03-1.68-.6-2.61.26-.57.47-1.16.66-1.75.29-.89.87-1.45,1.79-1.58.69-.09,1.41-.1,2.11-.1.66,0,1.58-.86,1.59-1.55.03-1.2.47-2.25,1.46-2.92,1.69-1.14,2.6-2.83,3.49-4.57.71-1.4,1.4-2.85,2.37-4.06.71-.9,1.83-1.47,2.79-2.16,1.03-.73,2.07-1.42,3.31-2.06-.12.5-.24.99-.35,1.49-.08.34-.14.68-.21,1.02-.21.34-.43.67-.65,1.01.11.09.22.18.33.27.33-.41.66-.83,1-1.24,1.12-.94,2.23-1.92,3.39-2.81.51-.38,1.15-.57,1.98-.97-.37,1.63-.7,3.08-1.04,4.57.76-.32,1.55-.59,2.31-.92.25-.11.5-.23.74-.35.14-.07.28-.15.41-.23.12-.07.23-.14.34-.21.19-.13.38-.27.57-.43.18-.15.36-.31.54-.47.05-.05.1-.09.15-.14.3-.29.59-.58.87-.88.53-.56.66-.62,1.03.1.74,1.4.23,4.09-1.14,5.26-.97.82-2.12,1.45-3.19,2.16-.23.16-.47.3-.71.45.02.08.03.17.05.26.72-.06,1.44-.07,2.15-.19,2.02-.34,3.98-.46,5.7.96.18.15.36.31.51.5.3.4.34.77-.23.98-.57.21-1.14.41-1.71.61-.74.26-1.48.52-2.19.89,3.64.94,5.97,2.99,6.56,6.94-.62-.17-1.21-.34-1.79-.5-.57-.16-1.13-.32-1.68-.47.97,1.24,2.03,2.34,2.79,3.63,1.16,1.98,1.15,4.18.63,6.37-.03.13-.46.31-.61.25-.37-.17-.68-.46-.91-.62.05,1.25.15,2.59.14,3.93-.01,1.26-.44,2.43-1.09,3.49-.26.42-.69.74-1.06,1.13-.41-.87-.76-1.62-1.1-2.33-.25,1.25-.43,2.48-.75,3.67-.03.11-.07.23-.11.34-.08.22-.18.43-.3.63-.05.1-.12.2-.19.29-.07.1-.15.19-.23.27-.11.12-.23.23-.36.32-.02.03-.05.05-.08.07-.13.1-.28.18-.43.26-.45.22-.72.25-.93.02-.05-.04-.1-.11-.14-.2-.04-.08-.08-.18-.12-.29-.14-.36-.26-.73-.41-1.08-.05-.12-.1-.23-.16-.34-.01.06-.01.11-.03.17-.02.2-.05.39-.08.58-.05.25-.11.5-.18.74-.07.24-.15.47-.25.71-.08.2-.16.39-.26.59-.09.2-.2.39-.31.59-.04.08-.09.16-.14.24-.36.63-.79,1.25-1.25,1.88-.45-.42-.86-.81-1.37-1.29-.08.67-.25,1.29.29,1.77.54.48,1.06,1.05,1.93.66,1.1-.5,2.19-1.03,3.33-1.39.35-.11.71-.21,1.06-.27.18-.04.35-.06.53-.08.17-.02.35-.03.52-.03.14,0,.27.01.4.02.09,0,.17.01.25.03.11,0,.22.03.32.06.19.04.37.11.56.19.13.05.25.11.37.18.11.05.21.12.31.19.07.04.13.08.2.14.03.02.07.04.1.07.04.03.07.06.11.1.03.02.06.05.09.08.27.3.27.54.14.78-1.26.1-1.87,1.13-2.85,1.44.02.06.03.12.05.19.4.04.8.1,1.2.1,2.29.01,4.41.46,5.91,2.38.47.6.8,1.32,1.29,2.16-1.33.11-2.45.2-3.57.3,1.55,1.39,3.16,2.55,3.9,4.52.73,1.93.97,3.84.05,5.91Z"/>
        <path class="cls-4" d="M93.4,98.85c-2.15,1.18-4.59,1.83-6.88,2.75-1.97.8-3.4,2.22-4.34,4.09-1,2-.03,4.31,2.2,5.24,1.28.54,2.62.92,3.95,1.32,1.2.35,2.04,1.16,2.79,2.1-1.36-.81-2.86-1.04-4.39-1.14-.92-.07-1.85-.09-2.76-.21-2.16-.3-3.64-1.54-4.57-3.48-1.37-2.84-.6-5.32,1.32-7.41,1.95-2.14,4.5-3.44,7.02-4.77,2.13-1.14,4.34-2.19,5.93-4.09,2.34-2.8,3.06-6.31.76-9.51-.97-1.37-2.41-2.08-3.91-2.71-.56-.24-1.09-.55-1.64-.83.02-.09.04-.19.05-.29.84-.18,1.69-.36,2.73-.59-.18-.4-.27-.99-.61-1.31-.89-.81-1.89-1.5-2.83-2.25-.45-.37-.87-.78-1.26-1.24,2.9.36,5.86.3,8.43,1.83,3.66,2.18,5.66,5.4,5.88,9.68.3,6.07-2.88,10.08-7.87,12.82Z"/>
        <path class="cls-4" d="M95.9,57.88c-1.41,3.49-3.81,6.2-6.73,8.52-1.01.8-1.99,1.66-2.86,2.6-2.44,2.63-1.71,6.48,1.45,8.11.59.3,1.13.7,1.7,1.06-.04.09-.07.19-.11.28-.44-.06-.89-.09-1.33-.19-.42-.09-.91-.28-1.11.22-.15.4-.2.95-.04,1.33.18.43.64.74.97,1.11.32.37.63.75.95,1.12-.03.08-.06.15-.09.22-.84-.07-1.68-.14-2.57-.21-.19,1.56-1.41,2-2.62,2.39-.73.23-1.5.31-2.24.49-.82.2-1.16.81-.99,1.67.16.74.32,1.49.45,2.24.04.24,0,.49,0,.68-.54-.48-1.05-.92-1.55-1.37-.48-.42-.94-.42-1.2.19-.43.97-.77,1.98-1.16,2.99-1.57-1.09-.71-2.29.01-3.51-1.9-.62-2.66-.11-4.21,2.66-.81-.87-.84-2.04.25-3.03.8-.73,1.92-1.11,2.95-1.67-1.5-1.2-3.24-.82-4.95-.71.22-.87.82-1.51,1.64-1.52.71,0,1.42.22,2.14.35.07.01.14.05.21.1,1.51.92,2.91,1.24,4.28-.36.44-.52,1.28-.69,1.91-1.08.78-.48,1.55-.98,2.29-1.53.49-.36.47-.76-.13-.99-1.16-.45-1.78-1.32-2.12-2.47-.09-.31-.32-.59-.49-.88-.77.56-.74,1.31.08,3.08-.81-.39-1.51-.75-1.83-1.59-1.21-3.16-1.01-6.16.87-9.03,1.61-2.45,3.78-4.3,6.15-5.95,2-1.39,3.96-2.84,5.32-4.91,1.55-2.36,2.32-4.9,1.54-7.73-.5-1.83-1.74-3.03-3.28-3.99l-.6-.36h-.01v-.02c.52-.89,1.02-1.74,1.57-2.67h-2.37c.64-.87,1.24-1.69,1.88-2.58,3.44.61,5.43,2.93,6.59,6.16,1.33,3.69.81,7.26-.61,10.78Z"/>
        <path class="cls-2" d="M62.9,33.68c-.71,1.35-1.49,2.45-1.86,3.66-.42,1.38-.54,2.87-.68,4.32-.21,2.33-.36,4.67-.49,7.01-.16,2.81-.28,5.62-.4,8.43-.14,3.41-.25,6.83-.4,10.25-.16,3.52-.39,7.04-.55,10.56-.16,3.58-.28,7.16-.43,10.74l-.05.73c-.13,2.51-.45,6.27-.54,8.44-.08,2.03-.15,4.07-.23,6.1-.13,2.93-.25,5.87-.39,8.8v1.12c-.16,1.29-.37,2.53-.44,3.78-.09,1.64-.03,3.28-.11,4.92-.06,1.35-.13,2.7-.2,4.05-.28-.39-.53-.8-.75-1.22-.34-.62-.63-1.26-.91-1.9-.16-.71-.43-1.33-.79-1.71-.14-.15-.29-.34-.46-.4-.29-.09-.7-.21-.87-.08-.19.15-.26.57-.23.86.07.81.27,1.61.34,2.42.09,1.14-.3,2.11-1.2,2.87-.94.79-2.35.6-3.31-.48-.97-1.1-.79-3.04-.04-4.3,1.26-2.12,3.23-3.58,4.74-5.47,1.56-1.95,1.95-4.15,1.46-6.51-.24-1.15-.65-2.27-1.06-3.37-.78-2.05-.76-3.96.71-5.71.34-.4.82-.87.44-1.37-.39-.51-.96-.17-1.44.08-2.73,1.42-4.37,3.54-4.31,6.75.01.87.04,1.75-.04,2.61-.06.6-.13,1.31-.94,1.48-.71.15-1.32-.24-1.75-1.04-.82-1.49-.79-3.06-.56-4.68.52-3.48,2.75-5.77,5.31-7.9,1.86-1.54,3.7-3.19,4.82-5.35,1.22-2.35,1.34-4.89.4-7.43-.47-1.26-.88-2.54-1.29-3.82-.77-2.38-.19-4.59.89-6.73.19-.38.42-.74.55-1.14.12-.36.12-.76.18-1.21-1.04-.03-1.52.62-1.97,1.12-1.88,2.09-3.52,4.35-4.6,6.96-.67,1.63-.85,3.33-.49,5.11.24,1.16.39,2.39.29,3.57-.16,2.06-1.98,3.39-4.02,3.16-1.38-.16-2.56-1.65-2.64-3.41-.09-2.11.55-4.03,1.87-5.65,1.47-1.8,3.03-3.55,4.62-5.25,3.6-3.85,3.93-9.35.43-13.51-.42-.5-.77-1.17-.87-1.81-.11-.76.1-1.56.15-2.34.02-.4.03-.8-.06-1.18-.02-.08-.62-.16-.78-.03-.56.44-1.16.91-1.55,1.5-.83,1.25-1.3,2.65-1.29,4.19-1.51-.92-2.33-3.85-1.71-5.3.42-.95.84-1.94,1.49-2.74,1.69-2.09,1.35-5.55-.53-7.51-.69-.72-1.26-1.58-2.36-1.73-.26-.04-.54-.01-1-.01.33.69.57,1.23.85,1.75,1.08,2,.9,3.85-.56,5.19-.42.39-.93.69-1.38,1.04-2.82,2.19-4.03,5.1-3.5,8.6.21,1.38.87,2.68,2.03,3.63.76.61,1.51,1.23,2.21,1.91,1.17,1.14,1.72,2.47,1.26,4.14-.54,1.99-1.44,3.71-3.41,4.65-.3.14-.65.23-.98.25-1.11.07-1.65-.54-1.36-1.62.27-1.02.71-1.99.96-3.01.89-3.76-.26-7.2-3.79-8.92-.35-.17-.79-.38-1.02.07-.12.25-.01.68.11.99.4,1.07,1.02,2.09,1.23,3.2.33,1.74-.74,3.11-1.59,4.51-1.21,1.98-2.35,3.99-2.55,6.37-.14,1.71.24,3.36.86,4.9.31.79,1.13,1.37,1.66,2.09.9,1.22,1.91,2.4,2.58,3.74.73,1.45.76,3.11.62,4.73-.08.91-.12,1.84-.34,2.71-.24.91-.5,1.91-1.08,2.59-.64.74-1.26,1.61-2.31,1.96-1.73.58-2.91-1.15-2.49-2.51.39-1.3.95-2.55,1.49-3.8.92-2.09,1.52-4.19.75-6.5-.43-1.3-1.27-2.13-2.61-2.88-.02.45-.15.82-.04,1.09.85,1.98.02,4.68-1.67,5.9-.48.34-.82.87-1.22,1.32q-.11-.05-.23-.09c0-.25-.02-.49.01-.73.37-2.89.76-5.78,1.14-8.66.3-2.3.6-4.59.88-6.89.38-2.98.75-5.96,1.1-8.94.44-3.68.85-7.36,1.29-11.05.27-2.32.59-4.63.84-6.96.28-2.69.57-5.38.74-8.08.16-2.46.31-4.95.22-7.41-.1-2.44-.48-4.86-.77-7.29-.11-.86-.32-1.7-.53-2.55-.53-2.2-.99-4.44-2.76-6.08,1.7-1.58,15.26-8.14,18.58-8.95-1.31,3.34-2.55,6.56-3.85,9.77-.41,1.01-1.02,1.94-1.46,2.95-.45,1,0,1.88,1.19,1.66.85-.16,1.69-.38,2.52-.62,2.27-.66,4.54-1.35,6.81-2,.15-.05.4,0,.48.1.07.08.01.33-.06.47-.76,1.42-.77,1.42-.61,2.55,4.02,2.56,7.93,5.04,11.66,7.41Z"/>
        <path class="cls-2" d="M25.53,69.09c-.5,1.04-.98,2.05-1.5,3.12-1.9-.56-3.71-1.36-5.26-2.6-2.34-1.86-4.59-3.83-6.86-5.78-1.69-1.46-3.33-2.98-5.06-4.4-1.15-.94-2.41-1.73-3.74-2.68.5-.93,1.03-1.9,1.58-2.92,3.53,1.62,6.44,3.83,9.13,6.38,3.12,2.95,6.37,5.74,10.11,7.89.44.25.92.47,1.37.72.02.01.04.03.06.06.04.02.06.06.09.1.03.04.05.08.08.11Z"/>
        <path class="cls-2" d="M29.46,35.08c-.09-1.54-.25-3.08-.44-4.62-.13-1.02-.28-2.05-.59-3.02-.13-.41-.27-.82-.41-1.23-.43-1.23-.9-2.45-1.41-3.64-.22-.52-.42-.62-.69-.39-.04.03-.09.07-.14.14-.05.05-.1.12-.16.2-.22.3-.43.6-.65.9-.44.59-.87,1.18-1.3,1.79-.21.3-.42.6-.62.91-2.58,3.91-5.14,7.84-7.69,11.78-2.82,4.36-5.59,8.76-8.42,13.12-.43.67-.37,1.04.33,1.43,3.48,1.95,6.37,4.65,9.35,7.25,1.39,1.21,2.77,2.45,4.24,3.55.91.68,2.01,1.1,2.98,1.71.8.5,1.51,1.11,2.43,1.8.12-.56.21-.84.25-1.12.31-2.27.62-4.54.93-6.8.15-1.13.31-2.27.45-3.4.08-.57.16-1.14.23-1.71.07-.57.15-1.13.22-1.7.03-.23.02-.47-.01-.71,0-.02,0-.04,0-.06-.02-.13-.05-.25-.09-.37-.26-.88-.55-1.75-.83-2.62-.19-.59-.38-1.17-.56-1.75-.26-.88-.51-1.76-.72-2.65-.07-.29-.13-.59-.19-.88-.18-.89-.33-1.79-.46-2.69-.14-.9-.25-1.81-.36-2.71-.04-.3-.08-.6-.12-.9-.02-.18-.04-.35-.04-.53-.01-.18-.01-.36-.01-.54,0-.53.03-1.08.03-1.62.03-.01.07-.02.1-.02.05-.02.07-.02.12-.04.02,0,.05-.02.09-.03h0c.33.41.66.79.96,1.21.32.44.55.91.72,1.39.07.2.13.39.18.59.14.49.24,1,.32,1.51.07.41.15.81.23,1.22.43,2,.82,4.02,1.22,6.03.07,0,.13-.01.2-.02,0-.02.01-.03.02-.05,0-.02.01-.03.02-.05.01-.04.02-.08.03-.11.02-.07.03-.14.04-.21.03-.46.06-.92.09-1.38.09-1.38.18-2.76.22-4.14.04-1.6,0-3.21-.08-4.82ZM25.8,58.62c.23.73.31,1.36-.24,1.99-1.35-.92-2.08-2.31-2.69-3.76-.75-1.77-1.03-3.65-1.25-5.54-.19-1.65-.05-3.27.37-4.87.06-.21.3-.37.46-.55.15.19.38.35.42.56.44,2.19.79,4.41,1.3,6.59.44,1.88,1.04,3.74,1.63,5.58Z"/>
        <path class="cls-2" d="M132.71,53.19c-.48.18-.9.34-1.33.51-3.62,1.5-6.96,3.47-10.02,5.95-2.81,2.27-5.7,4.42-8.56,6.61-.46.35-.92.7-1.38,1.04-.46.34-.91.68-1.36,1.01-.17-.27-.33-.54-.5-.8-.17-.27-.33-.53-.49-.79-.32-.52-.63-1.02-.93-1.53-.2-.34-.4-.68-.6-1.02-.18-.31-.3-.63-.36-.98-.06-.26-.08-.52-.09-.81,0-.09,0-.18,0-.28-.03-1.6-.34-3.2-.6-4.79-.2-1.23-.06-2.35.46-3.53.9-2.01,1.61-4.12,2.4-6.18,1.26-3.24,2.54-6.47,3.76-9.72.26-.7.3-1.48.39-2.23.02-.11-.02-.23-.08-.35-.04-.1-.09-.2-.12-.29h-.01c-.22.1-.48.16-.64.33h-.01c-1.38,1.44-2.18,3.23-2.92,5.03-.71,1.73-1.39,3.45-2.07,5.18-.67,1.72-1.34,3.43-2.01,5.12-.07-.95-.13-1.9-.16-2.86-.19-4.79.1-9.63,1.17-14.4.1-.44.19-.87.29-1.31.42-1.74.9-3.46,1.57-5.11.22-.51.45-1.01.7-1.51s.53-.98.84-1.46c.12-.19.25-.37.38-.56.15-.21.31-.41.47-.6.17-.2.34-.39.52-.58s.36-.37.54-.54c.18-.18.37-.36.55-.54.11-.1.21-.16.29-.19.08-.01.15-.01.21.01s.13.05.18.11c.03.01.06.04.09.08.11.11.21.26.3.37.69.86,1.36,1.74,1.97,2.66.13.2.26.39.4.59.16.24.32.49.48.73.48.73.95,1.46,1.41,2.2.25.4.49.8.73,1.2,2.51,4.21,4.98,8.43,7.45,12.66,2.07,3.58,4.12,7.17,6.17,10.75.04.06.08.12.12.19.08.12.17.25.26.39.04.08.1.15.15.24Z"/>
        <path class="cls-1" d="M111.24,132.53c.01.21-.01.4-.06.57h0c-.04.15-.1.27-.18.38-.05.07-.11.14-.18.2-.25.26-.59.43-.95.56-1.92.72-3.83,1.48-5.8,2.05-4.48,1.31-9.06,2.18-13.68,2.73-4.36.52-8.74.96-13.12,1.26-3.55.24-7.1.3-10.65.28-2.58-.01-5.15-.28-7.72-.43-.63-.04-1.08-.28-1.04-1.01.1-1.89.2-3.77.31-5.65.17.1.35.18.53.28.33.18.64.4.93.64.57.48,1.08,1.04,1.64,1.53.52.46,1.11.81,1.79.97.01,0,.01,0,.02,0,.02.02.03.02.05.03.49.18,1.04.21,1.56.24.03,0,.06,0,.09-.01h.03c.28.01.57,0,.84-.09.48-.14.8-.44.98-.83.02-.04.05-.09.06-.14.02-.05.04-.1.05-.15.06-.18.1-.38.11-.58.05-.76-.23-1.51-.54-2.19-.24-.51-.51-1.03-.92-1.44-.01-.01-.01-.02-.02-.03-.03-.07-.07-.14-.11-.21-.28-.47-.52-.97-.83-1.43-.95-1.41-.78-3.4.64-4.85.57-.58,1.2-1.1,1.8-1.66.17-.16.34-.32.49-.49.27-.29.51-.59.72-.9.22-.31.4-.63.54-.96.14-.33.25-.67.33-1.02.12-.55.14-1.12.07-1.73-.02-.25-.07-.5-.13-.75-.04-.16-.09-.32-.14-.49-.05-.14-.1-.28-.15-.42-.11-.27-.24-.53-.4-.77-.16-.25-.33-.48-.53-.69-.29-.32-.62-.59-1.01-.81-.71-.41-1.26-.91-1.68-1.48-.18-.24-.33-.48-.45-.74-.51-1.02-.66-2.19-.5-3.34.04-.29.09-.58.17-.86.05-.19.11-.38.17-.56.13-.37.29-.74.47-1.08.1-.18.2-.34.3-.51.11-.16.22-.33.34-.48.18-.24.37-.47.57-.7.6-.67,1.27-1.29,1.91-1.94.37-.37.75-.73,1.12-1.09.38-.35.75-.7,1.12-1.05-.04.14-.08.28-.12.42-.08.28-.19.56-.32.83-.31.68-.71,1.32-1.17,1.95-1.22,1.66-1.81,3.45-1.08,5.47.09.26.21.5.35.72s.3.43.47.62c.11.13.23.25.36.37.51.46,1.1.85,1.71,1.21.42.25.8.53,1.14.85.07.06.14.13.2.2.32.34.59.71.76,1.13.04.1.09.2.12.31.03.08.05.16.07.24.06.27.1.55.09.85,0,.38-.05.76-.11,1.14-.02.13-.04.25-.07.38-.03.16-.08.33-.12.5-.1.4-.22.8-.36,1.19-.06.15-.11.29-.16.44-.23.65-.53,1.29-.83,1.92-.23.47-.46.94-.68,1.42-.07.16-.14.32-.21.48-.56,1.39-.75,2.85-.36,4.34.04.15.08.29.14.43.06.14.12.27.18.4.22.45.52.85.87,1.21.99,1,2.4,1.62,3.83,1.55.41-.02.8-.09,1.17-.21.24-.08.48-.18.7-.3.34-.17.65-.39.94-.65.55-.53.98-1.2,1.25-1.98.09-.26.16-.54.21-.82.08-.43.05-.83-.03-1.22-.05-.22-.12-.44-.2-.66-.08-.21-.18-.42-.28-.63-.1-.21-.2-.42-.31-.63-.2-.4-.39-.81-.58-1.22-.1-.21-.2-.42-.3-.64-.09-.21-.18-.42-.28-.64,1.15.94,2.17,1.79,3.22,2.63.13.1.25.21.37.33.12.11.23.23.32.35.29.36.5.75.63,1.16.06.19.11.38.15.58.04.24.06.49.06.74,0,.33-.04.66-.1,1.01-.18,1.01-.4,2.01-.56,3.02,0,.05,0,.11,0,.16-.12,1.22.51,2.11,1.44,2.83,2.19,1.67,5.37,1.45,7.33-.41.16-.15.3-.3.44-.47.02-.03.04-.05.06-.08.02-.03.04-.06.06-.09.12-.16.22-.34.3-.51.03-.07.06-.15.09-.23.05-.16.09-.32.12-.49.03-.17.04-.34.04-.51,0-.44-.08-.88-.2-1.32-.07-.24-.16-.48-.11-.9.09.05.19.1.28.15.3.15.6.3.84.52.53.51,1.02,1.07,1.47,1.65.13.17.27.33.41.46,1.38,1.43,3.09,1.65,5.06,1.18,1.38-.34,2.45-.99,3.23-1.92.17-.21.33-.42.47-.66.15-.23.28-.48.39-.73.18-.39.32-.81.43-1.25.23-.91.11-1.95-.03-2.89-.07-.49-.19-.98-.34-1.46-.14-.48-.31-.96-.47-1.43-.42-1.23-.47-2.38-.1-3.48.04-.12.09-.25.14-.37.08-.19.17-.37.27-.55.11-.19.22-.37.35-.55.85-1.2,1.64-2.48,1.35-4.02-.05-.27-.11-.55-.19-.82-.14-.54-.32-1.08-.53-1.6-.1-.27-.21-.53-.33-.78-.25-.54-.53-1.08-.78-1.62-.07-.18-.15-.37-.23-.56-.07-.18-.14-.37-.2-.56-.22-.66-.34-1.35-.29-2.09.04-.57.11-1.14.17-1.73.11.03.18.04.2.06.08.43.21.83.37,1.21.05.12.1.25.16.37.35.74.81,1.41,1.31,2.05s1.05,1.24,1.6,1.85c1.8,2.02,1.93,5.46.68,7.62-.34.59-.72,1.18-.96,1.82-1.04,2.73,1.03,7.26,4.66,7.34.24,0,.4.06.5.17.06.05.1.12.12.21.03.08.04.17.05.28.11,1.74.23,3.47.34,5.2Z"/>
        <path class="cls-1" d="M55.91,129.45c-.69-.57-1.27-1.26-1.73-2.02-.09.21-.2.41-.33.59-1.04,1.46-2.34,2.35-4.2,2.1-1.94-.26-3.29-1.26-3.81-3.19-.57-2.16-.29-4.21,1.08-6,.91-1.19,1.98-2.26,2.96-3.4.59-.68,1.2-1.34,1.68-2.09.88-1.38,1.3-2.9.84-4.52-.39-1.39-.91-2.75-1.29-4.14-.21-.75-.26-1.55-.41-2.48-.72,1.36-.74,2.67-.59,3.98.15,1.28.17,2.52-.49,3.7-.84,1.5-2.26,1.92-3.72,1.04-1.94-1.17-2.54-3.05-2.66-5.12-.21-3.45.9-6.55,3.19-9.08,1.71-1.89,3.71-3.51,5.57-5.27,2.34-2.19,3.48-5.33,1.88-8.59-.97-1.98-1.75-4.01-1.47-6.29.02-.21-.03-.42-.06-.8-.25.48-.4.79-.57,1.07-1.12,1.87-1.49,3.85-1.13,6,.19,1.11.36,2.24.35,3.37,0,2.16-.92,3.88-2.91,4.87-2.74,1.37-5.66.72-6.93-2.4-.94-2.31-.67-4.66.49-6.86,1.51-2.86,3.78-5.11,5.95-7.44.7-.75,1.39-1.55,1.87-2.44.98-1.82,1.41-3.77.56-5.77-.39-.91-.95-1.75-1.45-2.61-.6-1.03-1.21-2.05-1.74-2.95,0,.06-.06.38.01.67.27,1.19.56,2.39.89,3.57.32,1.14.77,2.26.39,3.48-.18.57-.44,1.03-1.23.79.04-2.14-.96-3.77-2.54-5.13-.34-.3-.66-.63-.95-.99-2.48-3.13-2.38-6.52.12-9.53.97-1.17,1.35-2.56.75-4.1-.3,1.9-1.31,3.27-2.92,4.26-1.86,1.14-2.98,2.79-3.32,4.96-.34,2.18-.01,4.13,1.84,5.62.74.59,1.43,1.24,2.09,1.93,1.03,1.06,1.56,2.33,1.6,3.84.07,2.45-1.02,4.37-2.56,6.11-.94,1.06-2.07,1.78-3.51,1.95-1.75.2-3.73-.89-3.18-3.25.3-1.3.87-2.53,1.32-3.79.43-1.23.37-2.49-.17-3.43-.15.5-.21,1.04-.45,1.49-.86,1.5-1.81,2.95-2.67,4.46-1.72,2.98-2.14,7.04,1.04,9.97,2.33,2.14,3.56,4.97,3.52,8.27-.04,3.11-.33,6.11-2.26,8.71-1.36,1.83-2.96,2.47-5.03,1.88-1.85-.53-2.73-2.38-2.38-4.51.31-1.88,1.29-3.44,2.13-5.08.35-.68.51-1.44.81-2.31-.83.93-1.5,1.7-2.19,2.45-.72.8-1.51,1.55-2.19,2.39-.36.45-.73,1.01-.81,1.56-.42,2.92-.77,5.84-1.12,8.77-.4,3.29-.78,6.58-1.17,9.88-.47,3.92-.95,7.84-1.39,11.77-.17,1.48.09,1.85,1.5,2.34,3.87,1.37,7.69,2.86,11.73,3.7,3.6.75,7.19,1.58,10.82,2.16,3.08.49,6.22.67,9.33,1.01.55.06.76-.14.79-.67.06-1.15.16-2.3.22-3.45.09-1.66.18-3.31.28-4.97-.03-.01-.05-.02-.07-.04ZM31.94,124.09c-2.67.73-5.73-1.3-6.2-4.07-.73-4.3.83-7.72,3.97-10.55.14-.12.36-.14.55-.21.06.19.23.41.18.56-.23.65-.46,1.33-.81,1.93-1.21,2.09-1.95,4.3-1.8,6.75.07,1.06.42,2.02,1.11,2.82,1.2,1.39,3.51.83,4.09-1.05.26-.83.24-1.75.38-2.63.07-.48.2-.95.35-1.59,1.06.71,1.35,1.58,1.46,2.55.23,2.08-.78,4.81-3.28,5.49ZM42.1,117.81c-.35,4.02-2.13,7.28-5.47,9.61-.17.12-.47.06-.71.08-.02-.29-.15-.64-.04-.86.67-1.23,1.34-2.45,2.1-3.62,1.72-2.68,2.01-5.55,1.17-8.56-.31-1.1-.81-2.16-1.28-3.21-1.26-2.81-1.19-5.62-.03-8.43.36-.87.81-1.71,1.32-2.51.25-.4.67-.74,1.08-1.01.45-.29.78-.04.72.68-.11.31-.26.82-.48,1.3-1.57,3.45-1.76,6.88.03,10.33,1.01,1.93,1.78,3.97,1.59,6.2Z"/>
      </g>
      <path d="M64.69,137.15c.64,0,.64-1,0-1s-.64,1,0,1h0Z"/>
    </g>
  </g>
</svg>