<?xml version="1.0" encoding="UTF-8"?>
<svg id="Capa_2" data-name="Capa 2" xmlns="http://www.w3.org/2000/svg" viewBox="0 0 80.35 125.67">
  <defs>
    <style>
      .cls-1 {
        fill: #fde53c;
      }

      .cls-2 {
        fill: gray;
      }
    </style>
  </defs>
  <g id="ASSETS">
    <g>
      <g>
        <path d="M80.16,102.01c-.17-15.7-.14-31.39-.18-47.09-.2-1.98-.4-4.48-2.26-5.65-2.16-1.24-4.62-1.53-7.05-1.76-.49-.06-.79-.21-.8-.84-.06-4.68-.19-9.37-.24-14.05,.51-10.56-3.21-21.78-12.39-27.74C44.19-3.81,23.89-.77,15.63,13.06c-5.96,9.3-4.5,20.55-4.78,31.07,0,.45-.14,.69-.57,.86-3.2,1.56-7.57,3.15-9.51,6.22-.85,1.74-.72,3.67-.73,5.52-.06,8.95-.03,17.9-.03,26.85s-.02,18.18,.02,27.27c-.31,3,1.98,5.3,4.65,6.23,5.56,1.98,11.43,2.84,17.23,3.82,12.85,2.16,25.79,3.7,38.8,4.59,6.94,1.29,11.71-4.51,16.58-8.43,4.63-3.63,2.53-9.98,2.87-15.05ZM13.6,30.69c0-.15,.01-.28,.01-.43,.01-5.24,1.12-9.74,3.02-13.5h.01C21.19,7.72,30.29,3,39.52,2.68c.61-.02,1.22-.02,1.82,0,6.85,.18,13.6,2.79,18.45,7.84,.2,.21,.4,.41,.57,.62,3.01,3.35,5.21,7.71,6.12,13.07,0,.02,0,.03,.01,.05,.27,1.53,.42,3.13,.46,4.82v.1c.01,.1,.01,.19,.01,.29,.1,2.1,.15,4.2,.16,6.31,.01,.35,.01,.69,.01,1.04,.02,1.72,.01,3.44-.01,5.16-.02,.97-.02,1.94-.01,2.91-.01,1.4-.02,2.79-.02,4.19v.92c-.05,.51-.02,1.1-.12,1.61,0,.03,0,.06,0,.1-.01,.07-.02,.13-.04,.19,0,.01-.01,.02-.01,.04-.02,.07-.04,.14-.07,.2-.04,.06-.07,.11-.12,.16-.09,.14-.2,.28-.33,.41-.35,.34-.71,.51-1.1,.61-.4,.09-.83,.11-1.33,.18-.23,.04-.47,.08-.7,.1-3,.2-3.91-2.37-3.62-4.94-.05-6.21,.09-12.42,.06-18.63,.05-.7,.06-1.39,.03-2.07,0-.15-.01-.29-.02-.44,0-.05,0-.1-.01-.15-.03-.39-.07-.77-.12-1.15-.02-.21-.05-.41-.09-.6-.07-.4-.15-.79-.24-1.18-.05-.19-.1-.39-.15-.58-.04-.18-.09-.35-.15-.52-.05-.17-.11-.34-.16-.51-.11-.34-.23-.68-.36-1.01-.08-.21-.17-.42-.26-.62-.07-.17-.15-.35-.23-.51-.13-.28-.26-.55-.41-.81-.2-.39-.42-.78-.66-1.15-.13-.22-.28-.44-.43-.66-.17-.26-.36-.52-.55-.77-.18-.24-.36-.47-.55-.7-.11-.15-.24-.29-.36-.43-.14-.16-.28-.32-.42-.47-.06-.06-.12-.13-.18-.19-.21-.22-.42-.43-.64-.64-.03-.03-.07-.07-.11-.11-.07-.07-.14-.13-.22-.2-.25-.23-.51-.45-.77-.67-.04-.04-.08-.07-.13-.11-.23-.19-.47-.37-.71-.54-.59-.44-1.2-.85-1.83-1.21-.06-.04-.11-.07-.17-.1-.25-.14-.5-.28-.76-.41-.08-.04-.16-.08-.24-.12-.3-.15-.61-.29-.92-.42-.08-.03-.17-.07-.26-.11-.5-.22-1.02-.41-1.55-.57-.32-.1-.64-.19-.97-.28-.22-.06-.44-.11-.66-.15-.19-.05-.37-.08-.55-.11-.5-.11-1.02-.18-1.54-.23-.31-.04-.62-.06-.94-.08-7.41-.78-14.48,3.6-18.16,9.89-3.7,7.08-1.92,15.29-2.39,22.95,.06,1.28,.13,2.39,.07,3.32-.01,.13-.02,.25-.04,.37-.02,.21-.05,.4-.09,.59-.04,.16-.09,.31-.14,.46-.07,.21-.17,.4-.29,.58-.05,.09-.11,.17-.18,.24-.15,.17-.33,.32-.55,.46-.21,.13-.46,.24-.74,.32-.74,.23-1.73,.32-3.05,.25-.12-.03-.24-.07-.35-.1-.11-.04-.21-.08-.31-.13-.2-.1-.38-.21-.53-.33-.47-.37-.76-.87-.93-1.45-.04-.14-.07-.3-.1-.45-.03-.15-.05-.3-.07-.46-.16-1.44,.11-3.14,.1-4.55,0-.34-.02-.64-.06-.93h0s-.02-.01-.02-.01c0-3.24-.07-6.5,.02-9.74,0-.01,0-.03,0-.04Zm11-7.37c4-11.8,19.87-14.91,28.07-5.57,5.25,5.01,4.26,12.38,4.22,18.96h.14c0,2.89-.02,5.78,.01,8.66,0,.56-.16,.8-.73,.74-3.51-.32-7.02-.64-10.52-1.01-6.96-.75-13.94-1.24-20.89-2.01-1.13-.12-1.11-.17-1.14-1.67,.14-6.02-1.05-12.26,.84-18.1ZM6.35,49.88c.17-.11,.34-.21,.51-.31,.27-.18,.53-.34,.81-.49,.25-.14,.51-.28,.77-.41,.28-.15,.56-.3,.84-.43,.54-.27,1.08-.53,1.62-.79,.02,.17,.04,.33,.08,.48,.01,.07,.03,.13,.05,.19,.09,.39,.25,.76,.47,1.09,.04,.07,.09,.14,.14,.21,.15,.23,.34,.45,.55,.65,.04,.04,.09,.08,.13,.12,.08,.08,.16,.15,.24,.21,.26,.21,.55,.39,.84,.56,.18,.09,.36,.18,.54,.26,.23,.1,.47,.19,.72,.26,.15,.05,.3,.09,.45,.13,.2,.05,.4,.09,.6,.12,.09,.02,.18,.03,.27,.04,.02,.01,.03,.01,.05,.01,.09,0,.19,.02,.28,.02,1.14,.1,2.27-.08,3.19-.53,.42,.46,.89-.1,1.36-.24,2.47-.71,2.94-3.34,2.95-5.42,5.57,.53,11.13,1.06,16.71,1.59,5.58,.53,11.18,1.05,16.8,1.59-.31,1.19-.37,2.41-.13,3.51,.02,.12,.05,.24,.09,.36,.03,.11,.06,.21,.09,.31,.21,.66,.55,1.26,1.01,1.76,.04,.06,.09,.11,.15,.16,.1,.1,.2,.19,.31,.29,.12,.09,.24,.19,.37,.27,.1,.07,.2,.13,.3,.18,.08,.06,.17,.1,.26,.14,.05,.03,.1,.05,.15,.07,.11,.05,.24,.1,.37,.14,.05,.03,.1,.05,.15,.06,.18,.06,.38,.11,.58,.15,.22,.05,.46,.08,.7,.11,.93,.09,2.03,.18,3.12,.12,.22-.01,.44-.03,.66-.05,.14-.02,.28-.03,.42-.06,.15-.02,.29-.04,.44-.08,.08-.02,.16-.04,.24-.06,.2-.04,.39-.1,.58-.18,.16-.06,.32-.13,.48-.21,.36-.18,.68-.4,.96-.68,.17-.16,.32-.35,.45-.56,.06-.1,.12-.21,.18-.32,.72-.96-.09-3.72,1.07-4.07,1.89,.33,4.99,.13,6.12,1.84-2.5,2.36-5.64,3.75-8.64,5.34-1.81,.9-3.77,1.22-5.79,1.12-6.59-.24-13.13-1.16-19.66-2.02-12.71-1.13-25.33-2.65-37.83-5.37,.63-.4,1.23-.8,1.83-1.18ZM75.74,114.55l-.34,.38c-1.24,1.34-2.79,2.5-4.08,3.61-.68,.67-1.33,1.24-1.97,1.73-.42,.33-.83,.62-1.24,.87-.21,.13-.41,.25-.61,.36-.3,.17-.6,.31-.9,.44-.11,.06-.23,.1-.35,.15-.19,.08-.37,.15-.56,.21-.12,.05-.25,.09-.37,.13-.27,.08-.53,.15-.8,.21-.14,.03-.28,.06-.43,.08-.15,.03-.31,.06-.46,.08-.16,.02-.31,.04-.47,.06-.15,.01-.31,.02-.46,.04-.26,.01-.52,.03-.79,.03-.13,0-.26,.01-.39,.01h-.06c-.79,0-1.6-.05-2.47-.12-1.54-.12-3.23-.31-5.16-.43-.71-.08-1.43-.16-2.14-.23-1.16-.13-2.33-.25-3.5-.36-.26-.03-.52-.06-.78-.08-2.46-.26-4.92-.53-7.38-.81-.39-.04-.78-.09-1.17-.14-1.34-.16-2.69-.32-4.03-.5-.6-.12-1.2-.23-1.81-.33-2.51-.44-5.04-.75-7.56-1.13-.07,0-.14-.02-.21-.04-2.18-.33-4.35-.73-6.48-1.28-4.55-.22-9.1-1.3-13.31-3.07-.32-.09-.62-.21-.89-.34-.18-.1-.36-.2-.52-.31-.18-.11-.33-.23-.48-.37-.14-.13-.27-.27-.38-.41-.19-.25-.35-.51-.46-.81-.06-.16-.11-.32-.14-.49-.06-.28-.07-.59-.05-.91-.05-5.03-.05-10.07-.06-15.1,.01-.25,.02-.49,.02-.74,.06-1.73,.01-3.47-.03-5.21v-.02c-.05-1.8-.09-3.59-.04-5.37-.03-6.72-.04-13.44,.06-20.15,0-.8-.01-1.61-.01-2.41,.13-.78-.23-6.18,.28-8.33,.12-.5,.29-.82,.52-.87,.1-.02,.2,0,.32,.08,1.14,.45,2.31,.81,3.5,1.1,.47,.12,.95,.22,1.43,.31,.24,.04,.48,.09,.72,.13,1.17,.23,2.35,.4,3.53,.57h.03c1.04,.15,2.09,.28,3.12,.43,.82,.16,1.65,.31,2.48,.46,.02,.01,.04,.01,.06,.01,2.98,.51,5.98,.91,8.99,1.29,2.36,.29,4.73,.57,7.09,.87,.02,0,.04,0,.06,.01,.6,.07,1.19,.14,1.79,.22,.29,.02,.57,.03,.86,.05h.03c2.84,.18,5.7,.49,8.57,.82,3.41,.4,6.83,.84,10.21,1.14,2.44,.21,4.87,.35,7.26,.35h.07c.12,.02,.23,.03,.35,.03,.12,.01,.25,.01,.37,.01,1.32,0,2.72-.43,4.13-1.07,.03-.01,.06-.03,.09-.04,1.48-.68,2.96-1.59,4.38-2.5,.05-.02,.09-.05,.13-.08,1.11-.71,2.18-1.42,3.16-1.99,.31-.19,.62-.36,.91-.51,.02,0,.03-.02,.05-.03,.02,.02,.04,.04,.04,.06,.06,.04,.11,.12,.15,.21,.02,.04,.04,.09,.05,.15,.02,.06,.04,.12,.05,.19v.02c.02,.1,.02,.2,.02,.31,0,.21-.02,.42-.02,.62-.01,.02-.01,.04,0,.06,.01,1.34,.06,2.67,.06,4.01-.03,1.3-.04,2.6-.04,3.91,0,.76,.01,1.51,.01,2.27,.01,.61,.02,1.21,.02,1.82,.02,.91,.03,1.83,.05,2.74-.01,.33-.01,.65-.01,.98v.11c-.06,4.49,.05,9.03,.1,13.54v.33c.04,4.04,.04,8.06-.16,12.02,.16,1.23,.23,2.47,.26,3.71v.08c.04,1.33,.02,2.68,0,4.02-.02,1.54-.04,3.08,.02,4.6,0,.06,.01,.12,.01,.18-.03,1.69-.79,3.12-1.84,4.37Z"/>
        <path class="cls-2" d="M13.58,40.47c-.18-9.85-.55-20.59,6.19-28.59C33.28-4.03,61.61,1.41,66.2,22.43c1.13,6.43,.9,13.04,.92,19.55-.06,3.21,.11,6.43-.15,9.63,.03,.62-1.03,1.75-1.68,1.71-.68,0-1.35,.22-2.03,.27-3,.2-3.9-2.37-3.62-4.93-.05-6.21,.09-12.42,.06-18.63,.78-10.61-7.72-20.01-18.29-20.58-7.42-.78-14.49,3.61-18.17,9.9-3.69,7.08-1.92,15.29-2.38,22.94,.2,4.47,.55,6.88-5.02,6.6-3.63-.91-1.85-5.67-2.25-8.41,0,0-.01,0-.02,0Z"/>
        <path class="cls-1" d="M57.31,48.79c-.91,3.45,.37,7.11,4.4,7.51,2.49,.23,6.25,.5,7.53-2.08,.72-.96-.09-3.72,1.07-4.07,1.89,.33,4.99,.12,6.12,1.84-2.51,2.36-5.64,3.75-8.65,5.34-1.8,.91-3.76,1.23-5.78,1.12-6.59-.24-13.13-1.16-19.66-2.02-12.71-1.13-25.33-2.65-37.83-5.37,2.07-1.41,4.14-2.59,6.37-3.6,.36,3.77,5.6,5.29,8.6,3.82,.42,.45,.88-.1,1.36-.24,2.47-.71,2.94-3.35,2.95-5.43,11.14,1.06,22.27,2.12,33.51,3.19Z"/>
        <path d="M69.22,70.84v.13c-.04,1.85-.08,3.67-.09,5.34-.02,3.36-.04,6.72-.06,10.07,0,.38-.01,.76-.01,1.14-.02,3.73-.04,7.47-.05,11.2-.12,4.59,0,9.17,.08,13.76-.26,2.35,1.04,5.87-1.86,6.86-.65-5.79-.06-11.79-.15-17.64-.13-6.8,.24-13.61,.05-20.4-.02-5.37,0-10.74,0-16.11,.23-1.35-.59-3.54,.79-4.33,.41-.09,.8-.08,1.19-.26,.07,.84,.11,1.72,.14,2.63h0c.08,2.43,.03,5.06-.03,7.61Z"/>
        <g>
          <path class="cls-1" d="M2.47,89.73c.01,1.73,.02,3.47,.03,5.21,.06-1.73,.01-3.47-.03-5.21Zm.3-36.54c0,.09-.01,.17-.01,.26,.12-.5,.29-.82,.52-.87-.31-.01-.48,.2-.51,.61Zm6.48,1.01c1.17,.23,2.35,.4,3.53,.57-1.18-.19-2.35-.38-3.53-.57Zm5.03,46.98s-.14-.05-.19-.06c-.76-.13-1.5-.27-2.23-.5-.7-.21-1.38-.51-2.01-.86-.59-.33-1.13-.72-1.7-1.08-.13-.09-.41-.27-.54-.2-.2,.11-1.38,.79-1.57,.9-.03,.02-.09,.1-.08,.14,.05,.08,.1,.16,.15,.25,.05-.04,.19-.14,.23-.12,.17,.04,.79,.45,.92,.55-.1,.18-.22,.36-.32,.56-.01,.02,.02,.02,.02,.04,0,.07,0,.15,0,.22,0,1.03,.3,6.62,.18,7.62,.1,.05,.18,.11,.27,.16,.31-.53,.61-1.05,.92-1.57,.03-.3,.03-.61,.01-.93,.4-.29,.78-.57,1.16-.87,.03-.02-.1-.1-.09-.13,.11-.26,.3-.48,.48-.68,.7-.77,1.54-1.42,2.41-1.99,.06-.04,.45-.2,.52-.23,.52-.31,1.03-.6,1.54-.9,.13-.08,0-.2-.08-.32Zm5.33,7.95c-.08-.74-.89-4.6-1.07-5.35-.07-.18-.1-.38-.23-.54-.04-.05-.19-.24-.26-.26-.15-.06-.47,.14-.62,.23-.72,.42-1.44,.84-2.19,1.18-.23,.12-.46,.24-.72,.31,.09-.2,.69-1.26,.8-1.44,.5-.91,.95-1.83,1.4-2.76,.36,.58,.63,1.2,.97,1.8,.03,.02,.08,.16,.11,.2,.05,.06,.11,.14,.18,.22,.47-.39,.94-.76,1.4-1.13-.08-.18-.61-1.2-.71-1.38-.18-.31-.88-1.49-1.18-1.69-.02,0-.05-.02-.06,0-.19,.14-1.27,1-1.44,1.14-.04,.03-.12,.17-.14,.2-.12,.21-.68,1.41-.79,1.62-.35,.73-.7,1.44-1.07,2.15-.14,.24-.93,1.68-1.06,1.93-.03,.06-.09,.19-.04,.24,.03,.03,.17,.22,.19,.26,.04,.05,.17,.01,.23,0,1.07-.28,2.01-.88,2.96-1.42,.11-.08,.45-.27,.59-.25,.17,.47,.65,2.92,.75,3.41-.72-.41-1.52-.72-2.32-.94-.05-.02-.18-.04-.22-.02-.18,.14-1.22,1.04-1.39,1.18-.04,.03-.03,.11-.01,.14,.05,.07,.12,.14,.18,.21,.03,.04,.13-.13,.19-.12,.27,.04,1.47,.5,1.71,.62,.85,.37,1.59,.92,2.3,1.51,.03,.05,.12,.11,.17,.07,.45-.39,.92-.77,1.38-1.16,.03-.02,.01-.11,.01-.16Zm5.85,9.68c2.51,.41,5.04,.76,7.56,1.13-2.51-.44-5.04-.75-7.56-1.13Zm.97-62c-2.66-.34-5.31-.73-7.96-1.14,2.98,.51,5.98,.91,8.99,1.29-.34-.05-.69-.1-1.03-.15Zm1.42,57.15c-.08-.36-.18-.71-.27-1.06-.5-2.17-.86-4.36-1.04-6.57-.14-1.73-.15-3.48-.16-5.2,.01-.05,0-.29-.01-.34-.01-.05-.09-.27-.1-.32-.56,.19-1.15,.39-1.71,.6-.02,0-.03,.03-.04,.04-.05,.18-.09,.34-.13,.52-.52,1.75-1.04,3.49-1.68,5.21-.28-1.38-.52-2.78-.71-4.18-.07-.62-.11-1.27-.33-1.85-.57,.21-1.13,.41-1.7,.62,.1,.36,.34,2.43,.41,2.81,.18,1.22,.4,2.41,.67,3.61,.11,.46,.23,.94,.42,1.36,.06,.1,.15,.25,.25,.21,.21-.08,1.52-.56,1.73-.63,.2-.08,.41-.63,.5-.81,.28-.65,.51-1.32,.73-1.97,.15,2.3,.5,4.58,1.01,6.82-1.15-.49-2.37-.82-3.57-1.22-.23-.08-.45-.15-.66-.25-.2-.09-.4-.19-.54-.35,.03-.21,.16-.41,.31-.57,.03-.02,.04-.07,.07-.08,.05-.02,.12-.04,.09-.11-.03-.08-.06-.17-.09-.27-.15,.05-1.07,.39-1.23,.44-.11,.05-.56,.21-.65,.3-.15,.15-.28,.33-.31,.52-.03,.18,.12,.56,.24,.66,.21,.2,.5,.32,.76,.42,1.04,.39,2.1,.65,3.15,1.04,.92,.33,1.8,.78,2.67,1.25,.04,0,.14,.06,.17,.05,.58-.19,1.14-.38,1.72-.55,.05-.02,.04-.1,.03-.15Zm6.76-56.12c.6,.07,1.19,.14,1.79,.22,.29,.02,.57,.03,.86,.05-.88-.09-1.76-.18-2.65-.27Zm3.5,53.61c-.04-.65-.06-1.29-.13-1.93-.01-.04-.13-.21-.16-.26-.52,.32-1.02,.64-1.53,.96,.03,.31,.05,.62,.06,.94-.79,.26-1.58,.57-2.39,.85,.38-.9,.69-1.85,.82-2.82,.2-1.44,.13-2.92,.1-4.39-.03-.74-.03-1.48-.1-2.23,0-.11-.03-.51-.09-.59-.03-.04-.15-.24-.19-.27-.04-.04-.14-.01-.2,.01-.16,.05-.33,.12-.46,.22-.2,.13-1.34,.86-1.53,1.02-.06,.03-.08,.12-.1,.19,.05,.09,.11,.17,.16,.26,.08-.07,.61-.4,.69-.45,.15,.95,.11,1.92,.13,2.91,.04,1.18,.08,2.37-.03,3.55-.08,.8-.23,1.6-.49,2.35-.14,.43-.32,.81-.47,1.23-.03,.08,.1,.23,.15,.3,.05,.07,.18,0,.26-.02,.61-.22,1.2-.45,1.81-.66,.53-.2,1.1-.39,1.66-.37,.03,0,.08-.05,.12-.06,.06-.05,.13-.1,.2-.15,.03,.42,.27,1.81,.51,2.14,.05,.08,.11,.17,.16,.23,.19-.12,1.28-.92,1.47-1.06-.17-.29-.41-1.56-.43-1.9Zm1.92,9.46c2.46,.3,4.92,.55,7.38,.81-2.46-.26-4.92-.53-7.38-.81Zm7.54-7.55c-.73-.93-1.38-1.93-1.91-2.99-.44-.87-.81-1.78-1.17-2.69-.45-1.04-.85-2.1-1.18-3.18,.4-.33,.81-.63,1.21-.96,.03-.02,.08-.04,.07-.08-.06-.08-.14-.25-.24-.22-.51,.16-1.03,.34-1.55,.45-.38,.09-.77,.16-1.16,.21-.31,.04-.63,.06-.94-.02-.47,.37-.95,.74-1.42,1.12,.04,.11,.12,.2,.2,.29,.02,0,.07-.04,.08-.04,.58,.12,1.2-.02,1.76-.15-.12,.82-.3,1.62-.48,2.44-.43,1.84-.97,3.67-1.58,5.47-.05,.13-.28,.88-.31,1.01,.06,.07,.13,.16,.18,.23,.47-.38,.94-.77,1.4-1.14,.06-.05,.04-.36,.13-.36,1.6-.04,3.25,.46,4.6,1.32,.46,.3,.9,.61,1.29,1,.12,.13,.24,.24,.36,.36,.42-.46,.82-.9,1.22-1.34-.17-.26-.37-.49-.56-.73Zm.56-54.2c-.76-.08-1.51-.15-2.27-.23,3.41,.4,6.83,.84,10.21,1.14-2.66-.31-5.34-.72-7.94-.91Zm7.82,49.44c-.13-.05-.56,.09-.7,.13-.33,.08-2.33,.64-2.68,.73,.57-.63,1.16-1.28,1.74-1.9,.25-.25,1.47-1.47,1.66-1.75,.04-.07,.11-.21,.07-.28-.05-.07-.2-.29-.27-.31-.11-.05-.58-.01-.7,0-.73,.09-1.46,.25-2.18,.39-.18,.04-1.3,.21-1.48,.24,.15-.36,.4-.72,.75-.93,.05-.03,.43-.21,.48-.25-.01-.03-.11-.24-.12-.27-.05,.03-.12,.04-.17,.06-.02,.01-.05,.01-.06,.01h-.01c-.06,.02-.11,.03-.16,.05-.63,.21-1.27,.38-1.91,.5-.27,.03-.56,.05-.82,0-.02,0-.05,0-.07,0-.52,.31-1.03,.6-1.55,.9,.02,.04,.13,.25,.16,.28,.01,.02,.03-.02,.06-.02,.32,.08,.68,.04,1.01-.03,.3-.06,.6-.12,.91-.22-.1,.14-.19,.3-.25,.44-.22,.56-.33,1.17-.36,1.78-.06,.94-.03,1.87,.06,2.8,.13,1.35,.35,2.71,.8,3.99,.01,.04,.11,.24,.14,.28,.54-.27,1.07-.55,1.61-.8-.42-1.16-.6-2.41-.75-3.64,.48-.1,.96-.2,1.43-.32,.27-.07,1.7-.49,1.98-.52-.03,.07-.21,.53-.23,.61-.34,1.03-.44,2.13-.42,3.22-.08-.06-.17-.12-.25-.16-.48,.37-.97,.74-1.45,1.1,.07,.08,.13,.15,.18,.24,0,.02,.1,.04,.11,.06,.2,.12,1.22,.85,1.42,.97,.06,.03,.19,.12,.24,.09,.19-.14,1.3-.99,1.47-1.13,.05-.04,.04-.18,.02-.24-.15-1.67-.22-3.43,.3-5.03,.03-.1,.23-.59,.24-.69,.01-.02,.01-.06,0-.08-.05-.07-.17-.27-.25-.3Zm-2.3-1.4c-.05,0-.11-.01-.16-.02,.07,.01,.14,.01,.21,.01-.02,0-.03,0-.05,.01Zm9.2,8.35c-.07-.74-.89-4.61-1.07-5.35-.07-.18-.1-.38-.23-.54-.03-.05-.19-.24-.26-.27-.15-.05-.47,.15-.62,.23-.72,.43-1.43,.84-2.19,1.19-.23,.12-.46,.24-.72,.31,.1-.2,.7-1.26,.8-1.44,.5-.91,.96-1.83,1.4-2.76,.36,.57,.63,1.2,.97,1.79,.03,.02,.08,.17,.11,.2,.05,.07,.12,.14,.18,.23,.47-.39,.94-.76,1.41-1.14-.08-.18-.62-1.19-.72-1.37-.18-.32-.88-1.49-1.18-1.69-.02-.01-.05-.02-.06-.01-.19,.14-1.27,1.01-1.44,1.15-.03,.03-.12,.17-.14,.19-.12,.21-.68,1.41-.79,1.63-.35,.72-.7,1.44-1.06,2.15-.15,.23-.94,1.67-1.07,1.93-.02,.06-.09,.18-.04,.24,.03,.03,.17,.22,.2,.26,.03,.05,.16,.01,.22,0,1.07-.29,2.01-.88,2.96-1.42,.11-.08,.46-.27,.59-.25,.18,.47,.65,2.92,.75,3.41-.72-.42-1.52-.72-2.32-.94-.04-.03-.18-.05-.21-.02-.19,.14-1.23,1.04-1.4,1.18-.03,.03-.03,.11-.01,.14,.06,.07,.12,.14,.19,.21,.02,.03,.12-.13,.18-.13,.27,.04,1.47,.51,1.71,.63,.85,.37,1.59,.92,2.3,1.51,.04,.05,.12,.11,.17,.07,.46-.39,.93-.78,1.38-1.17,.03-.01,.02-.1,0-.15Zm6.16-16.83c.01-3.73,.03-7.47,.05-11.2-.04,3.73-.07,7.47-.05,11.2Zm.24-35.48c-.02,.25-.05,.52-.07,.79,.03,2.27,.04,4.54,.04,6.81,.06-2.55,.11-5.18,.03-7.6Zm-.38-4.18c-.17,.1-.35,.19-.53,.29,1.48-.68,2.96-1.59,4.38-2.5-1.28,.74-2.59,1.44-3.85,2.21Zm2.45,59.48c1.8-1.42,3.12-2.53,4.08-3.61-1.24,1.34-2.79,2.5-4.08,3.61Zm5.13-64.08c-.15,.11-.29,.22-.44,.32,.31-.19,.62-.36,.91-.51-.12-.03-.27,.03-.47,.19Zm.9,17.24c-.06,4.49,.05,9.03,.1,13.54,0-4.5-.05-9.02-.1-13.54Zm-.06,25.89c.16,1.23,.23,2.47,.26,3.71,.02-1.24,0-2.49-.26-3.71Zm.26,7.81c-.02,1.54-.04,3.08,.02,4.6,.06-.56,.09-1.17,.09-1.84,0-.82-.04-1.73-.11-2.76Z"/>
          <path class="cls-1" d="M77.55,105.4c-.01-.11-.01-.21-.02-.32-.08-1.23,0-2.46,.02-3.7v-.08c-.03-1.24-.1-2.48-.26-3.71,.12-3.98,.16-7.99,.16-12.02v-.33c-.05-4.51-.16-9.05-.1-13.54v-.11c0-1.24-.03-2.48-.04-3.72,0-.61-.01-1.21-.02-1.82,0-.76-.01-1.51-.01-2.27-.02-2.64-.03-5.29-.02-7.92-.01-.02-.01-.04,0-.06-.01-.31,0-.62,0-.93v-.02c-.01-.07-.03-.13-.05-.19-.01-.06-.03-.11-.05-.15-.04-.09-.09-.17-.15-.21-.02-.02-.06-.03-.09-.03-.29,.15-.6,.32-.91,.51-1.01,.73-2.07,1.38-3.16,1.99-.04,.03-.08,.06-.13,.08-1.42,.91-2.9,1.82-4.38,2.5-.03,.01-.06,.03-.09,.04-1.3,.66-2.67,1.11-4.13,1.07-.12,0-.25,0-.37-.01-.12,0-.23-.01-.35-.03h-.07c-2.35,.14-4.79-.07-7.26-.35-3.38-.3-6.8-.74-10.21-1.14-2.85-.27-5.71-.53-8.57-.82h-.03c-.29-.02-.57-.03-.86-.05-.6-.08-1.19-.15-1.79-.22-.02-.01-.04-.01-.06-.01-2.37-.26-4.73-.54-7.09-.87-3.01-.38-6.01-.78-8.99-1.29-.02,0-.04,0-.06-.01-1.87-.29-3.73-.59-5.6-.89h-.03c-1.18-.17-2.36-.34-3.53-.57-.24-.04-.48-.09-.72-.13-.48-.09-.96-.19-1.43-.31-1.19-.27-2.36-.63-3.5-1.1-.12-.05-.23-.07-.32-.08-.23,.05-.4,.37-.52,.87-.13,3.58-.21,7.16-.27,10.74-.1,6.71-.09,13.43-.06,20.15,.02,1.79,.03,3.58,.04,5.37v.02c.04,1.74,.09,3.48,.03,5.21,.04,5.28,.06,10.56,.04,15.84-.02,.32-.01,.63,.05,.91,.03,.17,.08,.33,.14,.49,.11,.3,.27,.56,.46,.81,.11,.14,.24,.28,.38,.41,.15,.14,.3,.26,.48,.37,.16,.11,.34,.21,.52,.31,.27,.13,.57,.25,.89,.34,4.21,1.77,8.76,2.85,13.31,3.07,2.14,.51,4.3,.92,6.48,1.28,.07,.02,.14,.03,.21,.04,2.52,.38,5.05,.69,7.56,1.13,1.24,.17,2.48,.35,3.71,.55,.71,.1,1.42,.19,2.13,.28,.39,.05,.78,.1,1.17,.14,2.46,.28,4.92,.55,7.38,.81,.26,.02,.52,.05,.78,.08,1.17,.11,2.34,.23,3.5,.36,.71,.07,1.43,.15,2.14,.23,1.93,.12,3.62,.31,5.16,.43,.87,.07,1.68,.12,2.47,.12h.06c.13,0,.26-.01,.39-.01,.27,0,.53-.02,.79-.03,.15-.02,.31-.03,.46-.04,.16-.02,.31-.04,.47-.06,.15-.02,.31-.05,.46-.08,.15-.02,.29-.05,.43-.08,.27-.06,.53-.13,.8-.21,.12-.04,.25-.08,.37-.13,.19-.06,.37-.13,.56-.21,.12-.05,.24-.09,.35-.15,.3-.13,.6-.27,.9-.44,.2-.11,.4-.23,.61-.36,.41-.25,.82-.54,1.24-.87,.64-.49,1.29-1.06,1.97-1.73,1.29-1.11,2.84-2.27,4.08-3.61l.34-.38c1.1-1.35,1.64-2.68,1.83-4.55-.06-1.52-.04-3.06-.02-4.6Zm-65.25-2.77c-.87,.57-1.71,1.22-2.41,1.99-.18,.2-.37,.42-.48,.68,0,.03,.12,.11,.09,.13-.38,.3-.76,.58-1.16,.87,.02,.32,.02,.63-.01,.93-.31,.52-.61,1.04-.92,1.57-.09-.05-.17-.11-.27-.16,.12-1-.18-6.59-.18-7.62,0-.07,0-.15,0-.22,0-.02-.03-.02-.02-.04,.1-.2,.22-.38,.32-.56-.13-.1-.75-.51-.92-.55-.04-.02-.18,.08-.23,.12-.05-.09-.1-.17-.15-.25-.01-.04,.05-.12,.08-.14,.19-.11,1.37-.79,1.57-.9,.13-.07,.41,.11,.54,.2,.57,.36,1.11,.75,1.7,1.08,.63,.35,1.31,.65,2.01,.86,.73,.23,1.47,.37,2.23,.5,.05,.01,.17,.03,.19,.06,.08,.12,.21,.24,.08,.32-.51,.3-1.02,.59-1.54,.9-.07,.03-.46,.19-.52,.23Zm5.92,7.82s-.14-.02-.17-.07c-.71-.59-1.45-1.14-2.3-1.51-.24-.12-1.44-.58-1.71-.62-.06,0-.16,.16-.19,.12-.06-.07-.13-.14-.18-.21-.02-.03-.03-.11,.01-.14,.17-.14,1.21-1.04,1.39-1.18,.04-.02,.17,0,.22,.02,.8,.22,1.6,.53,2.32,.94-.1-.49-.58-2.94-.75-3.41-.14-.02-.48,.17-.59,.25-.95,.54-1.89,1.14-2.96,1.42-.06,.01-.19,.05-.23,0-.02-.04-.16-.23-.19-.26-.05-.05,.01-.18,.04-.24,.13-.25,.92-1.69,1.06-1.93,.37-.71,.72-1.42,1.07-2.15,.11-.21,.67-1.41,.79-1.62,.02-.03,.1-.17,.14-.2,.17-.14,1.25-1,1.44-1.14,.01-.02,.04,0,.06,0,.3,.2,1,1.38,1.18,1.69,.1,.18,.63,1.2,.71,1.38-.46,.37-.93,.74-1.4,1.13-.07-.08-.13-.16-.18-.22-.03-.04-.08-.18-.11-.2-.34-.6-.61-1.22-.97-1.8-.45,.93-.9,1.85-1.4,2.76-.11,.18-.71,1.24-.8,1.44,.26-.07,.49-.19,.72-.31,.75-.34,1.47-.76,2.19-1.18,.15-.09,.47-.29,.62-.23,.07,.02,.22,.21,.26,.26,.13,.16,.16,.36,.23,.54,.18,.75,.99,4.61,1.07,5.35,0,.05,.02,.14-.01,.16-.46,.39-.93,.77-1.38,1.16Zm9.6,3.66c-.58,.17-1.14,.36-1.72,.55-.03,.01-.13-.05-.17-.05-.87-.47-1.75-.92-2.67-1.25-1.05-.39-2.11-.65-3.15-1.04-.26-.1-.55-.22-.76-.42-.12-.1-.27-.48-.24-.66,.03-.19,.16-.37,.31-.52,.09-.09,.54-.25,.65-.3,.16-.05,1.08-.39,1.23-.44,.03,.1,.06,.19,.09,.27,.03,.07-.04,.09-.09,.11-.03,.01-.04,.06-.07,.08-.15,.16-.28,.36-.31,.57,.14,.16,.34,.26,.54,.35,.21,.1,.43,.17,.66,.25,1.2,.4,2.42,.73,3.57,1.22-.51-2.24-.86-4.52-1.01-6.82-.22,.65-.45,1.32-.73,1.97-.09,.18-.3,.73-.5,.81-.21,.07-1.52,.55-1.73,.63-.1,.04-.19-.11-.25-.21-.19-.42-.31-.9-.42-1.36-.27-1.2-.49-2.39-.67-3.61-.07-.38-.31-2.45-.41-2.81,.57-.21,1.13-.41,1.7-.62,.22,.58,.26,1.23,.33,1.85,.19,1.4,.43,2.8,.71,4.18,.64-1.72,1.16-3.46,1.68-5.21,.04-.18,.08-.34,.13-.52,0-.01,.02-.04,.04-.04,.56-.21,1.15-.41,1.71-.6,0,.05,.09,.27,.1,.32,.01,.05,.02,.29,.01,.34,.01,1.72,.02,3.47,.16,5.2,.18,2.21,.54,4.4,1.04,6.57,.09,.35,.19,.7,.27,1.06,.01,.05,.02,.13-.03,.15Zm9.25,.3c-.05-.06-.11-.15-.16-.23-.24-.33-.48-1.72-.51-2.14-.07,.05-.14,.1-.2,.15-.04,.01-.09,.06-.12,.06-.56-.02-1.13,.17-1.66,.37-.61,.21-1.2,.44-1.81,.66-.08,.02-.21,.09-.26,.02-.05-.07-.18-.22-.15-.3,.15-.42,.33-.8,.47-1.23,.26-.75,.41-1.55,.49-2.35,.11-1.18,.07-2.37,.03-3.55-.02-.99,.02-1.96-.13-2.91-.08,.05-.61,.38-.69,.45-.05-.09-.11-.17-.16-.26,.02-.07,.04-.16,.1-.19,.19-.16,1.33-.89,1.53-1.02,.13-.1,.3-.17,.46-.22,.06-.02,.16-.05,.2-.01,.04,.03,.16,.23,.19,.27,.06,.08,.08,.48,.09,.59,.07,.75,.07,1.49,.1,2.23,.03,1.47,.1,2.95-.1,4.39-.13,.97-.44,1.92-.82,2.82,.81-.28,1.6-.59,2.39-.85,0-.32-.03-.63-.06-.94,.51-.32,1.01-.64,1.53-.96,.03,.05,.15,.22,.16,.26,.07,.64,.09,1.28,.13,1.93,.02,.34,.26,1.61,.43,1.9-.19,.14-1.28,.94-1.47,1.06Zm1.57-26.87c-.34,2.59-.57,5.2-.69,7.82-.03,.54-.21,.99-.57,1.38-.3,.32-.93,.61-1.37,.56-2.11-.2-4.22-.41-6.32-.61-.54-.06-.98-.21-1.38-.57-.32-.3-.61-.93-.56-1.38,.39-3.52,.65-7.06,.94-10.59-.41-.25-.8-.52-1.17-.84-.56-.48-.98-1.15-1.39-1.77-.97-1.47-1.68-3.18-1.7-4.97-.03-2.97,1.88-5.67,4.36-7.16,.54-.32,1.12-.6,1.69-.85,.63-.28,1.27-.55,1.94-.71,1.18-.29,2.48-.37,3.7-.22,1.07,.13,2.13,.34,3.16,.66,1.39,.42,2.51,1.29,3.3,2.51,.42,.65,.72,1.39,.98,2.11,.24,.65,.41,1.33,.51,2.01,.25,1.68,.22,3.32-.17,4.98-.35,1.44-1.03,2.9-2.17,3.89-.81,.7-1.74,1.21-2.75,1.54-.13,.73-.24,1.47-.34,2.21Zm8.27,27.89c-.12-.12-.24-.23-.36-.36-.39-.39-.83-.7-1.29-1-1.35-.86-3-1.36-4.6-1.32-.09,0-.07,.31-.13,.36-.46,.37-.93,.76-1.4,1.14-.05-.07-.12-.16-.18-.23,.03-.13,.26-.88,.31-1.01,.61-1.8,1.15-3.63,1.58-5.47,.18-.82,.36-1.62,.48-2.44-.56,.13-1.18,.27-1.76,.15-.01,0-.06,.04-.08,.04-.08-.09-.16-.18-.2-.29,.47-.38,.95-.75,1.42-1.12,.31,.08,.63,.06,.94,.02,.39-.05,.78-.12,1.16-.21,.52-.11,1.04-.29,1.55-.45,.1-.03,.18,.14,.24,.22,0,.04-.04,.06-.07,.08-.4,.33-.81,.63-1.21,.96,.33,1.08,.73,2.14,1.18,3.18,.36,.91,.73,1.82,1.17,2.69,.53,1.06,1.18,2.06,1.91,2.99,.19,.24,.39,.47,.56,.73-.4,.44-.8,.88-1.22,1.34Zm8.75-.73c.02,.06,.03,.2-.02,.24-.17,.14-1.28,.99-1.47,1.13-.05,.03-.18-.06-.24-.09-.2-.12-1.22-.85-1.42-.97-.01-.02-.1-.04-.11-.06-.05-.09-.11-.16-.18-.24,.48-.36,.97-.73,1.45-1.1,.08,.04,.17,.1,.25,.16-.02-1.09,.08-2.19,.42-3.22,.02-.08,.2-.54,.23-.61-.28,.03-1.71,.45-1.98,.52-.47,.12-.95,.22-1.43,.32,.15,1.23,.33,2.48,.75,3.64-.54,.25-1.07,.53-1.61,.8-.03-.04-.13-.24-.14-.28-.45-1.28-.67-2.64-.8-3.99-.09-.93-.12-1.86-.06-2.8,.03-.61,.14-1.22,.36-1.78,.06-.14,.15-.3,.25-.44-.31,.1-.61,.16-.91,.22-.33,.07-.69,.11-1.01,.03-.03,0-.05,.04-.06,.02-.03-.03-.14-.24-.16-.28,.52-.3,1.03-.59,1.55-.9,.02,0,.05,0,.07,0,.26,.05,.55,.03,.82,0,.64-.12,1.28-.29,1.91-.5,.05-.02,.1-.03,.16-.05h.01s.04,0,.06-.01c.05-.02,.12-.03,.17-.06,0,.03,.11,.24,.12,.27-.05,.04-.43,.22-.48,.25-.35,.21-.6,.57-.75,.93,.18-.03,1.3-.2,1.48-.24,.72-.14,1.45-.3,2.18-.39,.12-.01,.59-.05,.7,0,.07,.02,.22,.24,.27,.31,.04,.07-.03,.21-.07,.28-.19,.28-1.41,1.5-1.66,1.75-.58,.62-1.17,1.27-1.74,1.9,.35-.09,2.35-.65,2.68-.73,.14-.04,.57-.18,.7-.13,.08,.03,.2,.23,.25,.3,.01,.02,.01,.06,0,.08-.01,.1-.21,.59-.24,.69-.52,1.6-.45,3.36-.3,5.03Zm7.18,1c-.45,.39-.92,.78-1.38,1.17-.05,.04-.13-.02-.17-.07-.71-.59-1.45-1.14-2.3-1.51-.24-.12-1.44-.59-1.71-.63-.06,0-.16,.16-.18,.13-.07-.07-.13-.14-.19-.21-.02-.03-.02-.11,.01-.14,.17-.14,1.21-1.04,1.4-1.18,.03-.03,.17-.01,.21,.02,.8,.22,1.6,.52,2.32,.94-.1-.49-.57-2.94-.75-3.41-.13-.02-.48,.17-.59,.25-.95,.54-1.89,1.13-2.96,1.42-.06,.01-.19,.05-.22,0-.03-.04-.17-.23-.2-.26-.05-.06,.02-.18,.04-.24,.13-.26,.92-1.7,1.07-1.93,.36-.71,.71-1.43,1.06-2.15,.11-.22,.67-1.42,.79-1.63,.02-.02,.11-.16,.14-.19,.17-.14,1.25-1.01,1.44-1.15,.01-.01,.04,0,.06,.01,.3,.2,1,1.37,1.18,1.69,.1,.18,.64,1.19,.72,1.37-.47,.38-.94,.75-1.41,1.14-.06-.09-.13-.16-.18-.23-.03-.03-.08-.18-.11-.2-.34-.59-.61-1.22-.97-1.79-.44,.93-.9,1.85-1.4,2.76-.1,.18-.7,1.24-.8,1.44,.26-.07,.49-.19,.72-.31,.76-.35,1.47-.76,2.19-1.19,.15-.08,.47-.28,.62-.23,.07,.03,.23,.22,.26,.27,.13,.16,.16,.36,.23,.54,.18,.74,1,4.61,1.07,5.35,.01,.05,.02,.14,0,.15Zm6.38-44.86v.13c0,5.14-.09,10.28-.15,15.41,0,.38-.01,.76-.01,1.14-.02,3.73-.04,7.47-.05,11.2-.12,4.59,0,9.17,.08,13.76-.26,2.35,1.04,5.87-1.86,6.86-.65-5.79-.06-11.79-.15-17.64-.13-6.8,.24-13.61,.05-20.4-.02-5.37,0-10.74,0-16.11,.23-1.35-.59-3.54,.79-4.33,.41-.09,.8-.08,1.19-.26,.28,.94,.23,1.76,.14,2.63h0c.08,2.43,.03,5.06-.03,7.61Z"/>
        </g>
      </g>
      <g>
        <path d="M14.28,101.18s-.14-.05-.19-.06c-.76-.13-1.5-.27-2.23-.5-.7-.21-1.38-.51-2.01-.86-.59-.33-1.13-.72-1.7-1.08-.13-.09-.41-.27-.54-.2-.2,.11-1.38,.79-1.57,.9-.03,.02-.09,.1-.08,.14,.05,.08,.1,.16,.15,.25,.05-.04,.19-.14,.23-.12,.17,.04,.79,.45,.92,.55-.1,.18-.22,.36-.32,.56-.01,.02,.02,.02,.02,.04,0,.07,0,.15,0,.22,0,1.03,.3,6.62,.18,7.62,.1,.05,.18,.11,.27,.16,.31-.53,.61-1.05,.92-1.57,.03-.3,.03-.61,.01-.93,.4-.29,.78-.57,1.16-.87,.03-.02-.1-.1-.09-.13,.11-.26,.3-.48,.48-.68,.7-.77,1.54-1.42,2.41-1.99,.06-.04,.45-.2,.52-.23,.52-.31,1.03-.6,1.54-.9,.13-.08,0-.2-.08-.32Zm-5.95,3.88c-.01-.52-.13-3.76-.16-4.28,.6,.36,1.26,.67,1.93,.89,.71,.26,1.46,.44,2.21,.56-1.42,.8-2.86,1.65-3.98,2.83Z"/>
        <path d="M19.61,109.13c-.08-.74-.89-4.6-1.07-5.35-.07-.18-.1-.38-.23-.54-.04-.05-.19-.24-.26-.26-.15-.06-.47,.14-.62,.23-.72,.42-1.44,.84-2.19,1.18-.23,.12-.46,.24-.72,.31,.09-.2,.69-1.26,.8-1.44,.5-.91,.95-1.83,1.4-2.76,.36,.58,.63,1.2,.97,1.8,.03,.02,.08,.16,.11,.2,.05,.06,.11,.14,.18,.22,.47-.39,.94-.76,1.4-1.13-.08-.18-.61-1.2-.71-1.38-.18-.31-.88-1.49-1.18-1.69-.02,0-.05-.02-.06,0-.19,.14-1.27,1-1.44,1.14-.04,.03-.12,.17-.14,.2-.12,.21-.68,1.41-.79,1.62-.35,.73-.7,1.44-1.07,2.15-.14,.24-.93,1.68-1.06,1.93-.03,.06-.09,.19-.04,.24,.03,.03,.17,.22,.19,.26,.04,.05,.17,.01,.23,0,1.07-.28,2.01-.88,2.96-1.42,.11-.08,.45-.27,.59-.25,.17,.47,.65,2.92,.75,3.41-.72-.41-1.52-.72-2.32-.94-.05-.02-.18-.04-.22-.02-.18,.14-1.22,1.04-1.39,1.18-.04,.03-.03,.11-.01,.14,.05,.07,.12,.14,.18,.21,.03,.04,.13-.13,.19-.12,.27,.04,1.47,.5,1.71,.62,.85,.37,1.59,.92,2.3,1.51,.03,.05,.12,.11,.17,.07,.45-.39,.92-.77,1.38-1.16,.03-.02,.01-.11,.01-.16Z"/>
        <path d="M27.85,113.96c-.08-.36-.18-.71-.27-1.06-.5-2.17-.86-4.36-1.04-6.57-.14-1.73-.15-3.48-.16-5.2,.01-.05,0-.29-.01-.34-.01-.05-.09-.27-.1-.32-.56,.19-1.15,.39-1.71,.6-.02,0-.03,.03-.04,.04-.05,.18-.09,.34-.13,.52-.52,1.75-1.04,3.49-1.68,5.21-.28-1.38-.52-2.78-.71-4.18-.07-.62-.11-1.27-.33-1.85-.57,.21-1.13,.41-1.7,.62,.1,.36,.34,2.43,.41,2.81,.18,1.22,.4,2.41,.67,3.61,.11,.46,.23,.94,.42,1.36,.06,.1,.15,.25,.25,.21,.21-.08,1.52-.56,1.73-.63,.2-.08,.41-.63,.5-.81,.28-.65,.51-1.32,.73-1.97,.15,2.3,.5,4.58,1.01,6.82-1.15-.49-2.37-.82-3.57-1.22-.23-.08-.45-.15-.66-.25-.2-.09-.4-.19-.54-.35,.03-.21,.16-.41,.31-.57,.03-.02,.04-.07,.07-.08,.05-.02,.12-.04,.09-.11-.03-.08-.06-.17-.09-.27-.15,.05-1.07,.39-1.23,.44-.11,.05-.56,.21-.65,.3-.15,.15-.28,.33-.31,.52-.03,.18,.12,.56,.24,.66,.21,.2,.5,.32,.76,.42,1.04,.39,2.1,.65,3.15,1.04,.92,.33,1.8,.78,2.67,1.25,.04,0,.14,.06,.17,.05,.58-.19,1.14-.38,1.72-.55,.05-.02,.04-.1,.03-.15Z"/>
        <path d="M38.11,111.45c-.04-.65-.06-1.29-.13-1.93-.01-.04-.13-.21-.16-.26-.52,.32-1.02,.64-1.53,.96,.03,.31,.05,.62,.06,.94-.79,.26-1.58,.57-2.39,.85,.38-.9,.69-1.85,.82-2.82,.2-1.44,.13-2.92,.1-4.39-.03-.74-.03-1.48-.1-2.23,0-.11-.03-.51-.09-.59-.03-.04-.15-.24-.19-.27-.04-.04-.14-.01-.2,.01-.16,.05-.33,.12-.46,.22-.2,.13-1.34,.86-1.53,1.02-.06,.03-.08,.12-.1,.19,.05,.09,.11,.17,.16,.26,.08-.07,.61-.4,.69-.45,.15,.95,.11,1.92,.13,2.91,.04,1.18,.08,2.37-.03,3.55-.08,.8-.23,1.6-.49,2.35-.14,.43-.32,.81-.47,1.23-.03,.08,.1,.23,.15,.3,.05,.07,.18,0,.26-.02,.61-.22,1.2-.45,1.81-.66,.53-.2,1.1-.39,1.66-.37,.03,0,.08-.05,.12-.06,.06-.05,.13-.1,.2-.15,.03,.42,.27,1.81,.51,2.14,.05,.08,.11,.17,.16,.23,.19-.12,1.28-.92,1.47-1.06-.17-.29-.41-1.56-.43-1.9Z"/>
        <path d="M47.57,113.36c-.73-.93-1.38-1.93-1.91-2.99-.44-.87-.81-1.78-1.17-2.69-.45-1.04-.85-2.1-1.18-3.18,.4-.33,.81-.63,1.21-.96,.03-.02,.08-.04,.07-.08-.06-.08-.14-.25-.24-.22-.51,.16-1.03,.34-1.55,.45-.38,.09-.77,.16-1.16,.21-.31,.04-.63,.06-.94-.02-.47,.37-.95,.74-1.42,1.12,.04,.11,.12,.2,.2,.29,.02,0,.07-.04,.08-.04,.58,.12,1.2-.02,1.76-.15-.12,.82-.3,1.62-.48,2.44-.43,1.84-.97,3.67-1.58,5.47-.05,.13-.28,.88-.31,1.01,.06,.07,.13,.16,.18,.23,.47-.38,.94-.77,1.4-1.14,.06-.05,.04-.36,.13-.36,1.6-.04,3.25,.46,4.6,1.32,.46,.3,.9,.61,1.29,1,.12,.13,.24,.24,.36,.36,.42-.46,.82-.9,1.22-1.34-.17-.26-.37-.49-.56-.73Zm-4.98-1.99c-.21-.02-.91-.09-1.11,0-.09,.07-.46,.41-.53,.47,.52-1.55,1-3.12,1.4-4.71,.16,.41,.31,.8,.48,1.19,.47,1.14,.92,2.27,1.49,3.37-.57-.18-1.14-.28-1.73-.32Z"/>
        <path d="M55.95,108.6c-.13-.05-.56,.09-.7,.13-.33,.08-2.33,.64-2.68,.73,.57-.63,1.16-1.28,1.74-1.9,.25-.25,1.47-1.47,1.66-1.75,.04-.07,.11-.21,.07-.28-.05-.07-.2-.29-.27-.31-.11-.05-.58-.01-.7,0-.73,.09-1.46,.25-2.18,.39-.18,.04-1.3,.21-1.48,.24,.15-.36,.4-.72,.75-.93,.05-.03,.43-.21,.48-.25-.01-.03-.11-.24-.12-.27-.05,.03-.12,.04-.17,.06-.02,.01-.05,.01-.06,.01h-.01c-.06,.02-.11,.03-.16,.05-.63,.21-1.27,.38-1.91,.5-.27,.03-.56,.05-.82,0-.02,0-.05,0-.07,0-.52,.31-1.03,.6-1.55,.9,.02,.04,.13,.25,.16,.28,.01,.02,.03-.02,.06-.02,.32,.08,.68,.04,1.01-.03,.3-.06,.6-.12,.91-.22-.1,.14-.19,.3-.25,.44-.22,.56-.33,1.17-.36,1.78-.06,.94-.03,1.87,.06,2.8,.13,1.35,.35,2.71,.8,3.99,.01,.04,.11,.24,.14,.28,.54-.27,1.07-.55,1.61-.8-.42-1.16-.6-2.41-.75-3.64,.48-.1,.96-.2,1.43-.32,.27-.07,1.7-.49,1.98-.52-.03,.07-.21,.53-.23,.61-.34,1.03-.44,2.13-.42,3.22-.08-.06-.17-.12-.25-.16-.48,.37-.97,.74-1.45,1.1,.07,.08,.13,.15,.18,.24,0,.02,.1,.04,.11,.06,.2,.12,1.22,.85,1.42,.97,.06,.03,.19,.12,.24,.09,.19-.14,1.3-.99,1.47-1.13,.05-.04,.04-.18,.02-.24-.15-1.67-.22-3.43,.3-5.03,.03-.1,.23-.59,.24-.69,.01-.02,.01-.06,0-.08-.05-.07-.17-.27-.25-.3Zm-4.86,1.48c-.08-1.02-.12-2.05,.03-3.05,.33-.06,2.33-.46,2.65-.51,.21-.03,.41-.06,.6-.03-.11,.29-1.01,1.15-1.22,1.38-.71,.72-1.38,1.46-2.06,2.21Z"/>
        <path d="M62.85,115.55c-.07-.74-.89-4.61-1.07-5.35-.07-.18-.1-.38-.23-.54-.03-.05-.19-.24-.26-.27-.15-.05-.47,.15-.62,.23-.72,.43-1.43,.84-2.19,1.19-.23,.12-.46,.24-.72,.31,.1-.2,.7-1.26,.8-1.44,.5-.91,.96-1.83,1.4-2.76,.36,.57,.63,1.2,.97,1.79,.03,.02,.08,.17,.11,.2,.05,.07,.12,.14,.18,.23,.47-.39,.94-.76,1.41-1.14-.08-.18-.62-1.19-.72-1.37-.18-.32-.88-1.49-1.18-1.69-.02-.01-.05-.02-.06-.01-.19,.14-1.27,1.01-1.44,1.15-.03,.03-.12,.17-.14,.19-.12,.21-.68,1.41-.79,1.63-.35,.72-.7,1.44-1.06,2.15-.15,.23-.94,1.67-1.07,1.93-.02,.06-.09,.18-.04,.24,.03,.03,.17,.22,.2,.26,.03,.05,.16,.01,.22,0,1.07-.29,2.01-.88,2.96-1.42,.11-.08,.46-.27,.59-.25,.18,.47,.65,2.92,.75,3.41-.72-.42-1.52-.72-2.32-.94-.04-.03-.18-.05-.21-.02-.19,.14-1.23,1.04-1.4,1.18-.03,.03-.03,.11-.01,.14,.06,.07,.12,.14,.19,.21,.02,.03,.12-.13,.18-.13,.27,.04,1.47,.51,1.71,.63,.85,.37,1.59,.92,2.3,1.51,.04,.05,.12,.11,.17,.07,.46-.39,.93-.78,1.38-1.17,.03-.01,.02-.1,0-.15Z"/>
      </g>
      <path d="M43.9,79.9c-.35,1.44-1.03,2.9-2.17,3.89-.81,.7-1.74,1.21-2.75,1.54-.13,.73-.24,1.47-.34,2.21-.34,2.59-.57,5.2-.69,7.82-.03,.54-.21,.99-.57,1.38-.3,.32-.93,.61-1.37,.56-2.11-.2-4.22-.41-6.32-.61-.54-.06-.98-.21-1.38-.57-.32-.3-.61-.93-.56-1.38,.39-3.52,.65-7.06,.94-10.59-.41-.25-.8-.52-1.17-.84-.56-.48-.98-1.15-1.39-1.77-.97-1.47-1.68-3.18-1.7-4.97-.03-2.97,1.88-5.67,4.36-7.16,.54-.32,1.12-.6,1.69-.85,.63-.28,1.27-.55,1.94-.71,1.18-.29,2.48-.37,3.7-.22,1.07,.13,2.13,.34,3.16,.66,1.39,.42,2.51,1.29,3.3,2.51,.42,.65,.72,1.39,.98,2.11,.24,.65,.41,1.33,.51,2.01,.25,1.68,.22,3.32-.17,4.98Z"/>
    </g>
  </g>
</svg>