<?xml version="1.0" encoding="UTF-8"?>
<svg id="Capa_2" data-name="Capa 2" xmlns="http://www.w3.org/2000/svg" viewBox="0 0 102.75 155.08">
  <defs>
    <style>
      .cls-1, .cls-2, .cls-3, .cls-4, .cls-5, .cls-6, .cls-7, .cls-8 {
        fill: none;
      }

      .cls-9 {
        fill: #3ab4fd;
      }

      .cls-2 {
        stroke-width: 1.49px;
      }

      .cls-2, .cls-3, .cls-4, .cls-5, .cls-6, .cls-7, .cls-8, .cls-10, .cls-11 {
        stroke-miterlimit: 10;
      }

      .cls-2, .cls-5, .cls-6, .cls-7, .cls-8, .cls-10, .cls-11 {
        stroke: #000;
      }

      .cls-3, .cls-4 {
        stroke: #1d1d1b;
      }

      .cls-3, .cls-6, .cls-11 {
        stroke-width: .74px;
      }

      .cls-4, .cls-5, .cls-10 {
        stroke-width: .56px;
      }

      .cls-12, .cls-10, .cls-11 {
        fill: #843bfd;
      }

      .cls-7 {
        stroke-width: 4.83px;
      }

      .cls-8 {
        stroke-linecap: round;
        stroke-width: 2.42px;
      }
    </style>
  </defs>
  <g id="LOGOTIPOS">
    <g>
      <g>
        <g>
          <path d="M43.05,53.61c-3.3-1.93-6.56-3.95-9.88-5.85-8.91-5.09-17.84-10.13-26.76-15.19-.11-.06-.2-.14-.45-.33,2.44-1.41,4.75-2.77,7.08-4.1,11.26-6.39,22.52-12.77,33.78-19.15,2.96-1.68,5.92-3.34,8.87-5.02,1.83-1.04,3.67-1.14,5.54-.09,5.5,3.07,11.01,6.14,16.52,9.21,5.56,3.1,11.12,6.19,16.68,9.29.75.42,1.48.88,2.29,1.36-2.53,1.46-4.96,2.87-7.4,4.25-11.51,6.5-23.03,13-34.55,19.49-3.61,2.03-7.22,4.06-10.84,6.06-.25.14-.68.2-.89.08ZM95.86,121.82c-7.67,4.38-15.24,8.95-22.86,13.42-8.79,5.16-17.61,10.29-26.41,15.43-.26.15-.54.29-.92.49,0-.59,0-1.09,0-1.6.02-8.26.04-16.51.06-24.77,0-1.65,0-3.3.01-4.95,0-2.45.02-4.89.03-7.34.01-2.45.02-4.89.03-7.34.03-8.33.06-16.65.08-24.98.02-6.32.08-12.63.04-18.95-.01-1.61-.33-3.21-.52-5.02,17.65-9.94,35.52-20.01,53.64-30.21.08,1.25.21,2.37.22,3.49.07,10.5.11,20.99.17,31.48.06,12.6.12,25.2.2,37.8.03,5.45.12,10.89.15,16.34.02,2.99-1.19,5.16-3.91,6.71ZM102.74,112.66c-.04-11.02-.12-22.05-.18-33.07-.06-11.33-.1-22.66-.15-33.99-.03-5.67-.12-11.33-.1-16.99,0-3.46-1.53-5.96-4.42-7.71-1.4-.85-2.82-1.67-4.25-2.47-10.42-5.79-20.86-11.57-31.28-17.37-2.11-1.17-4.25-1.42-6.48-.46-1.13.49-2.25,1.03-3.32,1.64-8.15,4.6-16.29,9.23-24.42,13.85-7.6,4.32-15.21,8.64-22.79,12.99C1.77,31.12-.01,34.19,0,38.36c.04,14.49.01,28.99.01,43.48h0c0,14.62,0,29.23,0,43.85,0,3.71,1.48,6.56,4.81,8.36,1.52.82,3.02,1.69,4.53,2.54,10.27,5.87,20.54,11.75,30.82,17.62,1.82,1.04,3.71,1.13,5.6.28,1.04-.47,2.06-1,3.04-1.58,9.39-5.49,18.77-11,28.16-16.5,6.93-4.06,13.85-8.13,20.8-12.16,2.67-1.55,4.28-3.82,4.76-6.81.25-1.57.21-3.2.2-4.8ZM42.95,63.91c-.01,8.45-.03,16.91-.05,25.36,0,3.28-.02,6.56-.04,9.84-.01,3.04-.03,6.09-.04,9.13-.04,9.74-.09,19.48-.14,29.22-.02,4.58-.09,9.16-.14,13.74,0,.15-.01.3-.04.72-.54-.21-.94-.32-1.29-.52-10.57-6.04-21.13-12.08-31.7-18.13-1.1-.63-2.2-1.26-3.3-1.88-2.2-1.24-3.19-3.15-3.19-5.66,0-3.79,0-7.58,0-11.37,0-4.84,0-9.68,0-14.53,0-9.35,0-18.7,0-28.06,0-1.94,0-3.88,0-5.83v-.4c0-3.24,0-6.48,0-9.71,0-2.92,0-5.85,0-8.77,0-.55,0-1.11,0-1.66,0-2.53.03-5.05.09-7.57,0-.36.02-.72.03-1.07.02-.72.38-1.43.62-2.29,2.87,1.62,5.5,3.09,8.13,4.58,8.95,5.09,17.88,10.18,26.83,15.26,2.1,1.19,3.85,2.67,4.15,5.22.17,1.44.07,2.91.06,4.36Z"/>
          <path class="cls-9" d="M42.83,108.24c-.04,9.74-.09,19.48-.14,29.22-.02,4.58-.09,9.16-.14,13.74,0,.15-.01.3-.04.72-.54-.21-.94-.32-1.29-.52-10.57-6.04-21.13-12.08-31.7-18.13-1.1-.63-2.2-1.26-3.3-1.88-2.2-1.24-3.19-3.15-3.19-5.66,0-3.79,0-7.58,0-11.37,1.27,2.05,2.9,3.22,3.98,3.82.02.01.04.03.07.04.18.11.36.2.55.28,0,0,.01,0,.02,0,.01,0,.02.01.04.02.01,0,.02,0,.03.01.03.01.06.03.09.04,0,0,0,0,0,0,.03.01.05.02.08.03,0,0,.01,0,.02,0,1.43.55,3.02.5,4.38-.29,2.51-1.45,3.26-4.86,1.67-7.61-.97-1.68-2.59-2.73-4.28-2.96,0,0,0,0,0,0-.18-.06-5.1-1.74-6.63-7.92,0-9.35,0-18.7,0-28.06,0-1.94,0-3.88,0-5.83l29.77,16.62.08.04.06.04,6.33,3.54v.09c0,1.64,0,3.18,0,4.56,0,2.71-2.63,7.96-10.45,6.46,0,0,0,0,0,0-2.29-.59-4.69-.39-6.82.74-4.76,2.53-6.42,8.82-3.89,14.3.1.22.2.43.32.64.59,1.11,1.31,2.09,2.14,2.94,1.1,1.14,2.37,2.02,3.73,2.62.98.43,1.99.72,3.02.84,1.87.23,3.77-.07,5.49-.99,1.19-.63,2.19-1.5,2.98-2.54,0,0,0,0,0-.01,3.57-4.09,6-5.86,7.02-7.61Z"/>
          <path class="cls-1" d="M7.63,118.5c-.19-.08-.37-.17-.55-.28.21.11.4.2.55.28Z"/>
          <path class="cls-12" d="M39.28,86.2l-6.33-3.54-.06-.04L2.96,66.23c0-3.24.07-7.14.07-10.38l36.21,20.38c.02,3.41.03,6.87.04,9.97Z"/>
          <polygon class="cls-1" points="32.89 82.63 32.8 82.58 3.04 65.96 3.04 65.56 32.89 82.63"/>
          <path class="cls-9" d="M5.97,32.24c2.44-1.41,4.75-2.77,7.08-4.1,11.26-6.39,22.52-12.77,33.78-19.16,2.96-1.68,5.92-3.34,8.87-5.02,1.83-1.04,3.67-1.13,5.54-.09,5.5,3.07,11.01,6.14,16.52,9.21,5.56,3.1,11.12,6.19,16.68,9.29.75.42,1.48.87,2.29,1.36-2.53,1.46-4.96,2.87-7.4,4.25-11.51,6.5-23.03,13-34.55,19.49-3.61,2.03-7.22,4.06-10.84,6.06-.24.14-.68.2-.89.08-3.3-1.93-6.56-3.95-9.88-5.85-8.91-5.09-17.84-10.13-26.76-15.2-.11-.06-.2-.14-.45-.33Z"/>
          <path class="cls-9" d="M99.62,98.77c-.08-12.6-.14-25.2-.2-37.8-.05-10.49-.1-20.99-.17-31.48,0-1.12-.14-2.24-.22-3.49-18.12,10.2-35.99,20.27-53.64,30.21.2,1.81.51,3.41.52,5.02.04,6.32-.01,12.63-.03,18.95-.03,8.33-.05,16.66-.08,24.98-.02,4.89-.05,9.78-.06,14.68-.03,9.91-.05,19.82-.07,29.73,0,.5,0,1.01,0,1.6.38-.2.66-.33.92-.49,8.81-5.14,17.62-10.27,26.41-15.43,7.62-4.47,15.18-9.04,22.86-13.42,2.72-1.55,3.93-3.72,3.91-6.71-.03-5.45-.12-10.89-.15-16.34Z"/>
        </g>
        <g>
          <path d="M80.99,107.85s-.02-.07-.03-.04c-.03.05.03.1.03.04Z"/>
          <path d="M91.96,110.74s.03,0,.05.03c-.03,0-.05-.03-.05-.03Z"/>
        </g>
        <line class="cls-4" x1="3.03" y1="55.85" x2="2.82" y2="55.73"/>
        <line class="cls-5" x1="39.29" y1="86.2" x2="39.28" y2="86.2"/>
        <line class="cls-5" x1="3.04" y1="65.96" x2="2.68" y2="65.76"/>
        <line class="cls-5" x1="2.98" y1="45.38" x2="39.29" y2="66.13"/>
        <line class="cls-8" x1="11.16" y1="46.12" x2="15.5" y2="48.48"/>
        <line class="cls-8" x1="24.91" y1="53.74" x2="29.26" y2="56.1"/>
        <line class="cls-8" x1="18.48" y1="50.15" x2="18.48" y2="50.15"/>
        <line class="cls-8" x1="21.82" y1="52.01" x2="21.82" y2="52.01"/>
        <path class="cls-5" d="M2.98,37.76l36.12,20.01h0s.09,9.07.14,18.45"/>
        <path class="cls-4" d="M28.83,97.31c-.23-.04-.46-.09-.69-.14"/>
        <path class="cls-4" d="M43.01,53.68s.37,41.45.37,52.6c0,.72-.19,1.34-.55,1.96"/>
        <path class="cls-4" d="M35.8,115.86l-.22.26"/>
        <path class="cls-10" d="M42.95,63.91c-.01,8.45-.03,16.91-.05,25.36,0,3.28-.02,6.56-.04,9.84-.01,3.04-.03,6.09-.04,9.13-1.02,1.75-3.45,3.52-7.02,7.61,0,0,0,0,0,.01-.79,1.03-1.79,1.9-2.98,2.54-1.72.91-3.62,1.22-5.49.99-1.03-.12-2.04-.41-3.02-.84-1.36-.6-2.63-1.48-3.73-2.62-.82-.85-1.55-1.83-2.14-2.94-.11-.21-.22-.43-.32-.64-2.54-5.48-.88-11.77,3.89-14.3,2.13-1.13,4.53-1.33,6.82-.74,0,0,0,0,0,0,7.82,1.5,10.45-3.76,10.45-6.46,0-1.38,0-2.92,0-4.56v-.09c0-3.1-.02-6.56-.04-9.97L3.03,55.85c0-2.92,0-5.85,0-8.77,0-.55,0-1.11,0-1.66,0-2.53.03-5.05.09-7.57,0-.36.02-.72.03-1.07.02-.72.38-1.43.62-2.29,2.87,1.62,5.5,3.09,8.13,4.58,8.95,5.09,17.88,10.18,26.83,15.26,2.1,1.19,3.85,2.67,4.15,5.22.17,1.44.07,2.91.06,4.36Z"/>
        <path class="cls-11" d="M12.28,118.33c-1.36.78-2.95.84-4.38.29,0,0-.01,0-.02,0-.02,0-.05-.02-.08-.03,0,0,0,0,0,0-.03-.01-.06-.03-.09-.04-.01,0-.02,0-.03-.01-.01,0-.02-.01-.04-.02,0,0-.01,0-.02,0-.16-.07-.34-.16-.55-.28-.02-.01-.04-.02-.07-.04-1.08-.6-2.71-1.77-3.98-3.82,0-4.84,0-9.68,0-14.53,1.53,6.18,6.45,7.86,6.63,7.92,0,0,0,0,0,0,1.69.23,3.31,1.27,4.28,2.96,1.59,2.75.84,6.16-1.67,7.61Z"/>
        <path class="cls-3" d="M7.63,118.5c-.19-.08-.37-.17-.55-.28.21.11.4.2.55.28Z"/>
        <ellipse class="cls-7" cx="27.05" cy="108.33" rx="5.26" ry="5.75" transform="translate(-50.54 28.04) rotate(-30)"/>
        <ellipse class="cls-2" cx="9.4" cy="113.53" rx=".6" ry=".66" transform="translate(-55.51 19.91) rotate(-30)"/>
        <path class="cls-6" d="M3.03,99.84c-.3-1.23-.47-2.64-.44-4.26"/>
        <path class="cls-6" d="M3.03,114.37c-1.14-1.83-1.99-4.36-1.92-7.82"/>
        <path class="cls-3" d="M8.18,118.73s-.1-.03-.29-.11"/>
        <line class="cls-5" x1="2.98" y1="45.38" x2="39.29" y2="66.13"/>
        <line class="cls-5" x1="2.64" y1="65.73" x2="39.29" y2="86.57"/>
        <line class="cls-8" x1="24.91" y1="53.74" x2="29.26" y2="56.1"/>
        <line class="cls-8" x1="10.72" y1="46.12" x2="15.07" y2="48.48"/>
        <line class="cls-8" x1="18.48" y1="50.15" x2="18.48" y2="50.15"/>
        <line class="cls-8" x1="21.82" y1="52.01" x2="21.82" y2="52.01"/>
        <path class="cls-5" d="M2.98,37.76l36.12,20.01h0s.09,9.07.14,18.45"/>
      </g>
      <g>
        <path d="M49.35,66.1c.24-.52.59-.99.94-1.43.42-.56.91-1.08,1.39-1.6.88-.9,1.86-1.76,2.96-2.41.5-.3,1.03-.51,1.59-.66.41-.1.86-.12,1.26.02.34.12,2.43.82,2.77.94.51.2.85.76,1.04,1.26,0,.04.06-.04.1-.03.93.33,1.86.64,2.79.97-.02.06-.07.31-.13.35-.24.18-.48.33-.7.49-.3.22-.57.51-.8.8-.35.4-.62.85-.89,1.3-.08.15-.14.28-.23.4-.94-.3-1.87-.63-2.8-.96-.01-.02-.02-.03-.02-.06,0-.14.03-.27.05-.4.16-1.2.11-2.46-.32-3.57-1.43.54-2.64,1.55-3.71,2.61-.91.92-1.81,1.9-2.46,3.05-.18.29-.34.67-.26,1,.72.07,1.46.1,2.18.11.07,0,.3-.06.36-.04.92.31,1.86.64,2.79.97-.04.1-.09.23-.12.34-.11.04-.63.02-.75.02-1.22-.03-2.44-.12-3.63-.42-.28-.07-1.87-.61-2.15-.7-.25-.09-1.25-.38-1.43-.56-.42-.38-.05-1.3.2-1.8Z"/>
        <path d="M56.2,75.87c-.04-.68-.03-1.39.02-2.07,0-.15.07-1,.08-1.14,0-.25,0-1.62.06-1.89.02-.16.09-.32.15-.48.15-.46,1.27-.84,1.71-1.03.44-.19,3.18-1.23,3.62-1.41.24-.08,1.7-.67,1.94-.75.95.29,1.89.59,2.83.9-.03.11-.08.24-.11.36-.38.14-.72.3-1.1.44-.55.22-3.9,1.5-4.45,1.73-.48.19-.97.41-1.42.67-.06.04-.22.17-.24.24-.02.2-.02.38-.02.57.01.02.04.02.04.02.03,1.11-.19,2.19-.14,3.29,1.08-.47,2.18-.93,3.24-1.46.84-.39,1.68-.82,2.47-1.35.58-.4,1.21-.87,1.55-1.51.09-.13.16-.28.15-.46-.03-.35-.47-1.04-.77-1.23.03-.11.05-.24.08-.36.95.2,1.92.41,2.87.61.13.02.35.29.42.38.19.25.37.54.39.84,0,.19-.13.83-.22.99-.26.56-.83.91-1.34,1.22-.51.31-3.38,1.7-3.94,1.95-1.13.51-2.27.96-3.37,1.53-.2.1-.92.51-1.15.5-.94-.02-1.89-.06-2.84-.1-.09,0-.2,0-.26-.04-.19-.14-.22-.71-.24-.95Z"/>
        <path d="M61.66,83.3c-.04-.68-.03-1.39.02-2.07,0-.15.07-1,.08-1.14,0-.25,0-1.62.06-1.89.02-.16.09-.32.15-.48.15-.46,1.27-.84,1.71-1.03.44-.19,3.18-1.23,3.62-1.41.24-.08,1.7-.67,1.94-.75.95.29,1.89.59,2.83.9-.03.11-.08.24-.11.36-.38.14-.72.3-1.1.44-.55.22-3.9,1.5-4.45,1.73-.48.19-.97.41-1.42.67-.06.04-.22.17-.24.24-.02.2-.02.38-.02.57.01.02.04.02.04.02.03,1.11-.19,2.19-.14,3.29,1.08-.47,2.18-.93,3.24-1.46.84-.39,1.68-.82,2.47-1.35.58-.4,1.21-.87,1.55-1.51.09-.13.16-.28.15-.46-.03-.35-.47-1.04-.77-1.23.03-.11.05-.24.08-.36.95.2,1.92.41,2.87.61.13.02.35.29.42.38.19.25.37.54.39.84,0,.19-.13.83-.22.99-.26.56-.83.91-1.34,1.22-.51.31-3.38,1.7-3.94,1.95-1.13.51-2.27.96-3.37,1.53-.2.1-.92.51-1.15.5-.94-.02-1.89-.06-2.84-.1-.09,0-.2,0-.26-.04-.19-.14-.22-.71-.24-.95Z"/>
        <path d="M65.95,98.29c-.05-.22.17-.96.27-1.17.65-1.59,1.96-2.89,3.33-3.94,1.49-1.12,3.05-2.1,4.64-3.04.38-.21.74-.43,1.07-.71-.41-.37-2.63-1.32-3.14-1.54-1.27,1.19-2.61,2.29-3.97,3.36-.83-.54-1.67-1.08-2.5-1.62.05-.06.19-.28.24-.34,1.18-.94,2.36-1.9,3.49-2.91.88-.78,1.74-1.58,2.42-2.54.43-.61.69-1.32.97-2.01.24-.55.52-1.08.85-1.57.82.55,1.65,1.09,2.49,1.63-.07.12-.14.24-.22.37-.29.51-.48,1.07-.74,1.6-.37.87-.87,1.7-1.48,2.45-.31.36-.65.71-.98,1.05,1.16,0,2.39-.14,3.44-.62.43-.2.8-.52,1.13-.85.47-.49.88-1.04,1.31-1.54.02-.04.03-.09.05-.08.98.14,1.95.27,2.93.41-.03.18-.02.38-.14.54-.57.67-1.08,1.44-1.8,1.97-.54.42-1.22.66-1.9.8-.72.16-1.44.21-2.16.2.4.17,2.29,1.04,2.63,1.29.02.03.12.1.12.14.09.19-.02.41-.07.6-.07.37-.93.84-1.25,1.03-1.27.75-2.53,1.54-3.75,2.39-1.15.82-2.27,1.71-3.15,2.8-.26.31-1.03,1.42-1.08,1.83-.03.18-.04.38-.14.54-.97-.16-1.94-.32-2.93-.5ZM78.3,89.72c.05,0,.02-.06.02-.1l-.02.1Z"/>
        <path d="M71.78,97.42c0-.05.13-.3.13-.35.25.09,1.71.66,1.93.75.47-.65.95-1.28,1.5-1.84,1.02-1,2.17-1.87,3.38-2.65.49-.31.99-.57,1.53-.78.73-.26,1.54-.35,2.31-.25-.66-.53-1.36-1.03-2-1.6-.19-.16-1.15-1.09-1.35-1.24.04-.1.09-.23.14-.34.9.38,1.83.76,2.72,1.13.16.06.7.64.83.75.86.82,1.84,1.5,2.75,2.27.12.1.22.21.32.32.03.04.03.1.05.13.03.04.09.12.07.16-.02.04-.13.26-.15.3,0,.03-.03.05-.06.04-.12,0-.73-.15-.84-.17-1-.17-2.06.06-2.96.49-.78.39-1.49.89-2.19,1.38-.73.54-1.43,1.1-2.07,1.73-.52.52-.98,1.11-1.42,1.74.26.23.51.48.74.75.22.27.46.56.59.9.03.04.05.19.03.26-.07.1-.11.2-.17.31-.87-.49-1.72-.99-2.6-1.46-.03,0-.1-.07-.09-.09-.38-.58-2.45-2.21-3.03-2.59-.04-.02-.1-.02-.1-.04ZM85.99,93.64s0,.03,0,.03l.04.02s-.01-.08-.03-.05ZM77.75,101.26s.03,0,.03,0v-.07s-.01.05-.03.06Z"/>
        <path d="M79.25,109.08c-.02-.12.1-.58.14-.72.19-.83,1.88-4.82,2.24-5.61-.57.35-1.15.66-1.75.98-.17.08-.31.21-.46.32-.96-.24-1.94-.47-2.89-.69.01-.08.04-.33.1-.37.52-.39,1.13-.67,1.69-.99,1.24-.73,2.48-1.52,3.51-2.51,1.04-.97,1.94-2.07,2.83-3.14.03-.05.1-.14.15-.14.95.22,1.92.45,2.87.68-.05.27-.14.54-.25.79-.29.65-2.22,4.45-2.52,5.08.89-.89,1.86-1.71,2.94-2.37.54-.33,1.13-.62,1.72-.89.03-.02.12-.09.16-.1.96.24,1.91.46,2.89.69-.02.04-.07.31-.09.34,0,.05-.1.08-.15.11-.33.15-.67.31-.99.47-1.42.74-2.68,1.78-3.81,2.91-1.63,1.64-3.07,3.45-4.64,5.14-.11.1-.56.62-.69.69-.03.02-.04.03-.07.03-.98-.23-1.96-.47-2.94-.7Z"/>
        <path d="M82.46,111.97c0-.51.07-1.04.28-1.5.26-.63.72-1.15,1.21-1.62.6-.6,1.28-1.08,2-1.52.95-.59,1.96-1.03,3.01-1.43.78-.29,1.57-.53,2.36-.81.15-.04.68-.27.83-.24.98.08,1.95.18,2.93.29.1.02.11.12.11.22-.05.78-.17,1.56-.36,2.3.32.06,2.29.42,2.61.48-.02.13-.05.24-.07.35-.01.08-.11.01-.17.01-.25.04-.49.15-.71.26-.9.43-1.74,1.12-2.32,1.93-.02.06-.11.17-.16.16-1-.1-1.96-.19-2.94-.3-.03-.16.09-.85.14-1.03.25-1.01.57-1.99.8-2.99-1.79.64-3.56,1.53-4.97,2.8-.68.61-1.27,1.37-1.55,2.25-.14.47.11,1.03.39,1.44.33.48.83.82,1.34,1.07.67-.22,1.33-.54,1.88-.99.08-.08.18-.16.2-.26-.45-.24-1.99-1.1-2.27-1.52-.06-.07.02-.32.03-.39.98.14,1.97.26,2.95.41.07.13.19.25.33.36.23.15,1.67,1.08,1.9,1.23.19.14,1.26.87,1.47,1,.03,0,.09.09.1.11-.06.11-.09.23-.12.34-.6-.18-1.18-.35-1.76-.55-1.05.58-2.22,1.12-3.4,1.05-.97-.07-1.95-.11-2.92-.18-.71-.03-1.4-.37-1.98-.78-.63-.41-1.19-1.18-1.18-1.95Z"/>
      </g>
    </g>
  </g>
</svg>