<?xml version="1.0" encoding="UTF-8"?>
<svg id="Capa_2" data-name="Capa 2" xmlns="http://www.w3.org/2000/svg" viewBox="0 0 128.32 55.77">
  <defs>
    <style>
      .cls-1, .cls-2 {
        fill: #fff;
      }

      .cls-3 {
        fill: #843bfd;
      }

      .cls-2 {
        stroke: #000;
        stroke-miterlimit: 10;
      }
    </style>
  </defs>
  <g id="ASSETS">
    <g>
      <g>
        <path class="cls-3" d="M60.9,33.06v5.07c0,1.47-.2,2.91-.59,4.29-1.21,4.33-4.27,7.94-8.4,9.89-4.13,1.96-8.74,2.03-12.95,.18l-21.72-9.48c-.87-.91-1.71-1.85-2.52-2.81-.39-.47-.77-.94-1.15-1.41-.45-.55-.88-1.12-1.3-1.69-.29-.39-.57-.78-.86-1.17-.55-.79-1.09-1.58-1.62-2.39-.26-.41-.52-.82-.77-1.23-.83-1.35-1.6-2.72-2.32-4.12-.42-.79-.81-1.6-1.19-2.42-.14-.29-.27-.58-.4-.87-.48-1.07-.93-2.15-1.34-3.24-.35-.91-.68-1.83-.98-2.75-.31-.93-.59-1.86-.85-2.8v-6.43l58.96,23.38Z"/>
        <path class="cls-3" d="M.13,6.88v.13s0-.09,.01-.13h-.01Zm-.13,1.5v0Zm1.94,13.9v.02c.11,.29,.22,.57,.34,.85-.12-.29-.23-.58-.34-.87Z"/>
      </g>
      <path class="cls-3" d="M13,41.16l-8.39-3.67c-1.63-.71-2.67-2.31-2.67-4.08v-11.13c.11,.29,.22,.58,.34,.87,.59,1.49,1.24,2.97,1.94,4.41,.12,.25,.24,.5,.36,.74,.25,.5,.5,.99,.76,1.47,.3,.56,.61,1.12,.93,1.68,.33,.59,.68,1.17,1.03,1.75,.03,.05,.06,.1,.09,.15,.33,.53,.66,1.05,1,1.57,.37,.57,.75,1.13,1.14,1.69,.38,.55,.78,1.1,1.19,1.65,.4,.54,.82,1.08,1.24,1.61,.34,.44,.68,.87,1.04,1.29Z"/>
      <path class="cls-3" d="M60.9,29.86v1.12L3.31,8.15l-1.33-.53c.17-1.46,.82-2.8,1.88-3.83,1.64-1.61,4.01-2.23,6.2-1.63,.31,.08,.61,.19,.9,.32L55.8,22.06c.6,.27,1.17,.59,1.68,.98,1.26,.94,2.23,2.2,2.81,3.66,.41,1.01,.61,2.07,.61,3.16Z"/>
      <g>
        <path class="cls-3" d="M126.38,9.68v6.41c-1.4,5.02-3.42,9.87-6.01,14.41-.51,.89-1.04,1.77-1.6,2.64-.5,.81-1.03,1.6-1.58,2.38-.37,.53-.75,1.06-1.14,1.58-.44,.6-.9,1.19-1.37,1.77-.35,.45-.71,.89-1.09,1.33-.42,.5-.86,1-1.3,1.49-.39,.45-.8,.89-1.21,1.32h-.02s-21.7,9.48-21.7,9.48c-4.22,1.85-8.82,1.78-12.96-.18-4.12-1.95-7.19-5.56-8.4-9.89-.39-1.38-.59-2.82-.59-4.29v-5.07L125.72,9.94l.66-.26Z"/>
        <g>
          <path class="cls-3" d="M128.2,6.88h-.03c.03,.12,.05,.23,.06,.35l-.03-.35Z"/>
          <path d="M128.3,8.18l-.07-.95c-.01-.12-.03-.23-.06-.34-.29-1.7-1.11-3.26-2.36-4.48-2.13-2.09-5.22-2.9-8.06-2.12-.41,.12-.79,.25-1.17,.41l-44.84,19.59c-.56,.24-1.08,.53-1.58,.86-3.87,.59-7.93,.64-11.76,.17-.57-.4-1.18-.75-1.83-1.03L11.73,.71c-.37-.17-.75-.3-1.16-.42-2.85-.78-5.94,.03-8.06,2.12C1.26,3.63,.44,5.18,.14,6.88c-.01,.04-.02,.09-.02,.13-.01,0-.01,.03-.01,.04L.01,8.15v.76s-.01,24.5-.01,24.5c0,2.54,1.51,4.83,3.83,5.85l12.27,5.36,4.61,2.01,17.47,7.63c2.29,1.01,4.69,1.51,7.07,1.51,2.55,0,5.09-.57,7.49-1.71,4.63-2.2,8.07-6.25,9.44-11.11,.43-1.55,.65-3.17,.65-4.82v-4.71c.88-.07,1.78-.05,2.65,.03v4.68c0,1.65,.22,3.27,.66,4.81,1.36,4.87,4.8,8.92,9.43,11.12,2.41,1.14,4.94,1.71,7.49,1.71,2.39,0,4.78-.5,7.07-1.51l17.48-7.63,4.6-2.01,12.27-5.36c2.33-1.02,3.83-3.31,3.83-5.85V8.38c0-.07,0-.14-.01-.2ZM4.61,37.49c-1.63-.71-2.67-2.31-2.67-4.08v-11.13c.11,.29,.22,.58,.34,.87,.59,1.49,1.24,2.97,1.94,4.41,.12,.25,.24,.5,.36,.74,.25,.5,.5,.99,.76,1.47,.3,.56,.61,1.12,.93,1.68,.33,.59,.68,1.17,1.03,1.75,.03,.05,.06,.1,.09,.15,.33,.53,.66,1.05,1,1.57,.37,.57,.75,1.13,1.14,1.69,.38,.55,.78,1.1,1.19,1.65,.4,.54,.82,1.08,1.24,1.61,.34,.44,.68,.87,1.04,1.29l-8.39-3.67Zm56.29,.64c0,1.47-.2,2.91-.59,4.29-1.21,4.33-4.27,7.94-8.4,9.89-4.13,1.96-8.74,2.03-12.95,.18l-21.72-9.48c-.87-.91-1.71-1.85-2.52-2.81-.39-.47-.77-.94-1.15-1.41-.45-.55-.88-1.12-1.3-1.69-.29-.39-.57-.78-.86-1.17-.56-.79-1.1-1.58-1.62-2.39-.26-.41-.52-.82-.77-1.23-.83-1.35-1.6-2.72-2.32-4.12-.42-.79-.81-1.6-1.19-2.42-.14-.29-.27-.58-.4-.87-.48-1.07-.93-2.15-1.34-3.24-.35-.91-.68-1.83-.98-2.75-.31-.93-.59-1.86-.85-2.8v-6.43l58.96,23.38v5.07Zm0-7.15L3.31,8.15l-1.33-.53c.17-1.46,.82-2.8,1.88-3.83,1.64-1.61,4.01-2.23,6.2-1.63,.31,.08,.61,.19,.9,.32L55.8,22.06c.6,.27,1.17,.59,1.68,.98,1.26,.94,2.23,2.2,2.81,3.66,.41,1.01,.61,2.07,.61,3.16v1.12Zm6.33-6.91c-.21,.31-.4,.63-.58,.95-.09,.17-.17,.34-.25,.5-.09,.17-.16,.34-.23,.52-.48,1.22-.72,2.5-.72,3.82v1.64c-.49-.04-.99-.06-1.48-.06-.38,0-.76,.01-1.14,.04v-1.62c0-1.34-.25-2.64-.74-3.88-.36-.9-.84-1.74-1.43-2.5,2.33,.15,4.7,.12,7.03-.09-.14,.18-.25,.38-.38,.57-.03,.03-.05,.07-.08,.11Zm.15,5.79c0-1.07,.2-2.12,.59-3.11,.52-1.31,1.35-2.47,2.41-3.35,.15-.14,.3-.27,.46-.37,.51-.38,1.07-.7,1.67-.97L117.36,2.48c.29-.13,.58-.24,.9-.32,.54-.15,1.11-.23,1.66-.23,1.67,0,3.31,.66,4.54,1.86,1.05,1.03,1.7,2.37,1.87,3.83l-58.92,23.36-.03,.02v-1.14Zm59,3.55c0,1.77-1.05,3.37-2.67,4.08l-8.4,3.67c.29-.35,.59-.71,.87-1.07,.24-.29,.47-.59,.7-.89,.75-.96,1.47-1.95,2.16-2.96,.29-.41,.57-.83,.84-1.25,.03-.03,.05-.07,.08-.11,.31-.47,.62-.95,.91-1.44,1.14-1.84,2.18-3.74,3.14-5.69,.27-.55,.53-1.11,.79-1.67,.56-1.25,1.09-2.51,1.58-3.79v11.12Zm0-17.32c-1.4,5.02-3.42,9.87-6.01,14.41-.51,.89-1.04,1.77-1.6,2.64-.5,.81-1.03,1.6-1.58,2.38-.37,.53-.75,1.06-1.14,1.58-.44,.6-.9,1.19-1.37,1.77-.35,.45-.71,.89-1.09,1.33-.42,.5-.86,1-1.3,1.49-.39,.45-.8,.89-1.21,1.32h-.02s-21.7,9.48-21.7,9.48c-4.22,1.85-8.82,1.78-12.96-.18-4.12-1.95-7.19-5.56-8.4-9.89-.39-1.38-.59-2.82-.59-4.29v-5.07L125.72,9.94l.66-.26v6.41Z"/>
        </g>
      </g>
      <g>
        <path class="cls-3" d="M126.38,22.29v11.12c0,1.77-1.05,3.37-2.67,4.08l-8.4,3.67c.29-.35,.59-.71,.87-1.07,.24-.29,.47-.59,.7-.89,.75-.96,1.47-1.95,2.16-2.96,.29-.41,.57-.83,.84-1.25,.03-.03,.05-.07,.08-.11,.31-.47,.62-.95,.91-1.44,1.14-1.84,2.18-3.74,3.14-5.69,.27-.55,.53-1.11,.79-1.67,.56-1.25,1.09-2.51,1.58-3.79Z"/>
        <path class="cls-3" d="M111.06,43.02h.02c.41-.44,.82-.88,1.21-1.33-.4,.45-.81,.89-1.23,1.33Z"/>
      </g>
      <g>
        <path class="cls-3" d="M126.33,7.62l-58.92,23.36-.03,.02v-1.14c0-1.07,.2-2.12,.59-3.11,.52-1.31,1.35-2.47,2.41-3.35,.15-.13,.3-.25,.46-.37,.51-.38,1.07-.7,1.67-.97L117.36,2.48c.29-.13,.58-.24,.9-.32,.54-.15,1.11-.23,1.66-.23,1.67,0,3.31,.66,4.54,1.86,1.05,1.03,1.7,2.37,1.87,3.83Z"/>
        <path class="cls-3" d="M67.97,26.75c-.39,.99-.59,2.04-.59,3.11v1.14l.03-.02v-1.12c0-1.09,.21-2.15,.61-3.16,.51-1.28,1.32-2.4,2.36-3.3-1.06,.88-1.89,2.04-2.41,3.35ZM128.23,7.23l.07,.95c.01,.06,.01,.13,.01,.2v-.14c-.01-.34-.03-.68-.08-1.01Zm.08,1.15v.53h.01v-.53Zm-60.35,18.37c-.39,.99-.59,2.04-.59,3.11v1.14l.03-.02v-1.12c0-1.09,.21-2.15,.61-3.16,.51-1.28,1.32-2.4,2.36-3.3-1.06,.88-1.89,2.04-2.41,3.35Z"/>
      </g>
      <path class="cls-3" d="M67.69,23.39c-.4,.51-.75,1.05-1.04,1.63-.1,.16-.18,.33-.25,.5-.09,.17-.16,.34-.23,.52-.48,1.22-.72,2.5-.72,3.82v1.64c-.49-.04-.99-.06-1.48-.06-.38,0-.76,.01-1.14,.04v-1.62c0-1.34-.25-2.64-.74-3.88-.36-.9-.84-1.74-1.43-2.5,2.33,.15,4.7,.12,7.03-.09Z"/>
      <g>
        <path class="cls-2" d="M59.14,34.48c-.53,1.75-1.32,3.42-2.38,4.98-6.68,9.81-21.59,11.29-33.31,3.32-7.91-5.38-12.35-13.7-12.34-21.55l28.3,7.81c-.04,.13-.08,.26-.12,.39-1.03,3.77,.68,7.52,3.83,8.39,3.15,.87,6.54-1.49,7.58-5.25,.04-.13,.07-.25,.1-.38l8.35,2.3Z"/>
        <path d="M39.52,48.86c-5.53,0-11.39-1.73-16.62-5.29-7.88-5.36-12.77-13.93-12.76-22.35v-1.27s30.5,8.42,30.5,8.42l-.32,.97c-.04,.11-.07,.23-.11,.35-.44,1.6-.33,3.24,.3,4.62,.6,1.32,1.62,2.23,2.86,2.58,2.63,.72,5.5-1.33,6.39-4.58,.03-.12,.06-.22,.08-.33l.22-1,10.29,2.84-.29,.95c-.57,1.87-1.41,3.64-2.51,5.25-3.97,5.83-10.72,8.86-18.04,8.86ZM12.12,22.5c.46,7.38,4.92,14.74,11.88,19.48,11.26,7.67,25.6,6.29,31.97-3.06,.8-1.18,1.45-2.44,1.94-3.78l-6.44-1.78c-1.34,3.95-5.09,6.34-8.6,5.38-1.81-.5-3.26-1.79-4.11-3.64-.75-1.63-.93-3.53-.53-5.4l-26.11-7.21Z"/>
      </g>
      <g>
        <path class="cls-1" d="M69.5,34.9c.53,1.75,1.32,3.42,2.38,4.98,6.68,9.81,21.59,11.29,33.31,3.32,7.91-5.38,12.35-13.7,12.34-21.55l-28.3,7.81c.04,.13,.08,.26,.12,.39,1.03,3.77-.68,7.52-3.83,8.39-3.15,.87-6.54-1.49-7.58-5.25-.04-.13-.07-.25-.1-.38l-8.35,2.3Z"/>
        <path d="M89.12,49.28c-7.32,0-14.07-3.03-18.04-8.86-1.1-1.61-1.94-3.37-2.51-5.25l-.29-.95,10.29-2.84,.22,1c.02,.11,.05,.21,.08,.32,.89,3.26,3.76,5.31,6.39,4.59,1.24-.34,2.26-1.26,2.86-2.58,.63-1.38,.73-3.02,.29-4.62-.03-.11-.07-.23-.1-.34l-.32-.97,30.5-8.42v1.27c0,8.43-4.88,16.99-12.76,22.35-5.23,3.56-11.08,5.29-16.62,5.29Zm-18.38-13.72c.49,1.34,1.14,2.6,1.94,3.78,6.37,9.35,20.71,10.73,31.97,3.06,6.95-4.73,11.42-12.1,11.88-19.48l-26.11,7.21c.4,1.87,.21,3.77-.53,5.4-.85,1.85-2.3,3.14-4.11,3.64-3.5,.96-7.25-1.43-8.6-5.38l-6.44,1.78Z"/>
      </g>
    </g>
  </g>
</svg>