<?xml version="1.0" encoding="UTF-8"?>
<svg id="Capa_2" data-name="Capa 2" xmlns="http://www.w3.org/2000/svg" viewBox="0 0 116.66 124.57">
  <defs>
    <style>
      .cls-1 {
        fill: #fff;
      }

      .cls-2 {
        fill: #333;
      }
    </style>
  </defs>
  <g id="ASSETS">
    <g>
      <g>
        <path d="M50.72,57.92c-.16,.23-.32,.45-.47,.69-.53,.8-1.09,1.61-1.64,2.38-.84,1.2-1.71,2.44-2.48,3.72-.39,.66-.86,1.29-1.31,1.9-.29,.4-.59,.81-.87,1.22-.59,.88-1.21,1.76-1.82,2.61l-.37,.52s-.03,.04-.04,.06c-.09,.13-.35,.54-.81,.33-.31-.13-.46-.46-.39-.86,.02-.11,.03-.22,.05-.32,.04-.29,.08-.58,.18-.87,1.25-3.44,2.97-6.6,4.49-9.25,.7-1.22,1.49-2.42,2.26-3.59l.2-.3c.2-.3,.41-.61,.62-.91,.53-.75,1.07-1.53,1.45-2.38,.11-.23,.08-.31,.08-.32-.01-.03-.08-.09-.34-.19-.97-.38-2-.66-2.99-.92-.26-.07-.51-.14-.76-.21-2.47-.67-4.71-1.13-6.85-1.41-1.69-.22-3.51-.5-5.28-1.09l-.06-.02c-.3-.1-.93-.3-.84-.97,.06-.49,.52-.61,.79-.69,.06-.02,.12-.03,.17-.05,.13-.05,.25-.05,.35-.06h.09c2.13-.22,4.17-.19,6.25,.08,3.11,.41,6.43,.95,9.6,2.15,.03,.01,.06,.02,.09,.04-.01-.03-.02-.06-.05-.08-.2-.2-.4-.39-.61-.58-.16-.15-.33-.3-.49-.45-3.49-3.32-7.44-6.15-12.07-8.65-.32-.17-.64-.33-.96-.5-1.51-.77-3.08-1.58-4.18-3.06-.01-.01-.03-.02-.05-.04-.31-.2-.4-.45-.27-.74,.2-.45,.69-.46,.85-.46,.79-.01,1.53,.21,2.16,.42,4.15,1.44,8.03,3.61,11.87,6.65,.4,.31,.81,.59,1.25,.89,.04,.03,.08,.05,.12,.08-.13-.37-.25-.75-.34-1.14-.42-1.71-.66-3.13-.76-4.47-.02-.28-.05-.57-.07-.85-.07-.89-.14-1.81-.15-2.73-.01-.59,.02-1.18,.05-1.76,.02-.38,.04-.78,.05-1.17,.07-2.83,.4-5.68,.71-8.43v-.05c.11-.86,.23-1.74,.36-2.58,.05-.41,.11-.81,.17-1.21,.01-.11,.02-.19,.02-.25-.23-.03-.42-.11-.6-.18-.16-.07-.31-.13-.45-.14-.54-.05-1.09-.1-1.64-.15-1.1-.09-2.25-.19-3.37-.35-.2-.03-.42-.02-.64,0-.4,.02-.84,.04-1.29-.16v.03c.13,.68,.05,1.19-.25,1.55-.29,.34-.78,.52-1.43,.51-.25,0-.48,.01-.74,.02-.59,.03-1.2,.05-1.85-.1-1.04-.23-1.97-.47-2.8-.99-.25-.15-.34-.15-.37-.14-.06,.01-.15,.12-.26,.33-.8,1.36-1.61,2.5-2.5,3.46-1.02,1.11-2.28,2.38-3.86,3.35-.81,.5-1.71,.94-2.73,1.36-.36,.15-.71,.32-1.09,.5-.46,.22-.94,.45-1.43,.64-.12,.04-.21,.14-.3,.49-.1,.39-.18,.8-.26,1.19-.1,.49-.2,1-.33,1.5-.6,2.25-1.14,4.56-1.66,6.79l-.32,1.36c-.18,.78-.34,1.58-.49,2.35-.11,.61-.23,1.23-.37,1.84-.13,.62-.05,.72,.43,.95,2.95,1.42,6.15,2.01,8.9,2.4,1.66,.24,2.3,.95,2.22,2.46-.11,2.19-.43,4.5-.98,7.28-.16,.76-.28,1.54-.4,2.29-.11,.69-.22,1.4-.35,2.1-.19,.96-.34,1.94-.48,2.89-.18,1.2-.37,2.44-.63,3.65-.33,1.53-.62,3.09-.89,4.6-.16,.87-.31,1.73-.48,2.6-.25,1.29-.55,2.79-1.01,4.23-.54,1.71-2.7,2.95-3.82,2.86-.68-.05-1.23-.13-1.74-.24-2.91-.66-5.24-1.29-7.32-2.01-.65-.23-1.16-.4-1.41-.4-.06,0-.1,0-.13,.02-.16,.1-.29,.68-.45,1.43l-.02,.1c-.39,1.82-.84,3.66-1.26,5.43-.13,.55-.27,1.11-.4,1.66-.61,2.55-1.15,5.2-1.63,7.87-.06,.33,.02,.53,.28,.75,1.87,1.58,3.68,2.82,5.54,3.79l.48,.25c1.35,.7,2.75,1.43,4.19,1.99,4.11,1.59,8.04,2.59,12.01,3.08,1.83,.22,3.32,.35,4.67,.41,.31,.01,.61,.08,.89,.15,.33,.08,.64,.16,.92,.12,.72-.09,1.44-.09,2.14-.09,.57,0,1.17,0,1.74-.05,.36-.03,.73-.07,1.09-.1,.67-.08,1.36-.15,2.03-.19,.83-.04,1.66-.14,2.47-.23,.49-.06,.99-.12,1.48-.16,.24-.03,.25-.07,.26-.16,.05-.34,.09-.69,.14-1.04,.16-1.21,.33-2.45,.53-3.68,.15-.88,.28-1.83,.43-2.91,.11-.86,.28-1.72,.5-2.56,.21-.77,.29-1.56,.38-2.39,.06-.54,.12-1.1,.22-1.65,.69-3.99,1.35-7.9,1.75-11.8,.1-.95,.25-1.9,.39-2.82,.15-.96,.3-1.95,.39-2.92,.07-.66,.13-1.32,.26-1.96,0-.08-.05-.21-.1-.33-.1-.22-.25-.55,0-.84,.38-.45,.38-.95,.37-1.54-.01-.32-.01-.65,.06-.99,.17-.88,.22-1.82,.28-2.72,.03-.64,.07-1.3,.15-1.94,.11-.93,.17-1.89,.22-2.82,.05-.87,.11-1.78,.21-2.67-.15,.22-.3,.44-.45,.66ZM27.22,29.5c-1.57,.9-3.15,1.5-4.83,1.84-.08,.02-.16,.04-.23,.06-.2,.04-.4,.09-.62,.09-.25,0-.51-.06-.79-.26-.49-.35-.6-.7-.6-.93,.01-.22,.1-.55,.54-.86,.37-.26,.76-.44,1.19-.56,1.04-.29,1.85-.6,2.55-.98,2.04-1.12,4.35-2.58,6.02-4.85,.2-.28,.42-.54,.64-.79,.45-.54,.88-1.04,1.13-1.67,.21-.51,.6-.84,.98-1.16,.15-.12,.29-.23,.41-.35,.3-.3,.59-.29,.73-.25,.27,.07,.47,.3,.58,.65,.05,.18,.06,.35,.07,.51,.01,.06,.01,.13,.02,.19v.03c.01,.42-.08,.8-.26,1.14-1.04,1.97-2.02,3.72-3.49,5.15-1.13,1.11-2.49,2.12-4.04,3Z"/>
        <path class="cls-2" d="M35.01,20.18v.03c.01,.42-.08,.8-.26,1.14-1.04,1.97-2.02,3.72-3.49,5.15-1.13,1.11-2.49,2.12-4.04,3-1.57,.9-3.15,1.5-4.83,1.84-.08,.02-.16,.04-.23,.06-.2,.04-.4,.09-.62,.09-.25,0-.51-.06-.79-.26-.49-.35-.6-.7-.6-.93,.01-.22,.1-.55,.54-.86,.37-.26,.76-.44,1.19-.56,1.04-.29,1.85-.6,2.55-.98,2.04-1.12,4.35-2.58,6.02-4.85,.2-.28,.42-.54,.64-.79,.45-.54,.88-1.04,1.13-1.67,.21-.51,.6-.84,.98-1.16,.15-.12,.29-.23,.41-.35,.3-.3,.59-.29,.73-.25,.27,.07,.47,.3,.58,.65,.05,.18,.06,.35,.07,.51,.01,.06,.01,.13,.02,.19Z"/>
      </g>
      <path d="M112.28,102.91c-.14-.7-.27-1.4-.41-2.1-.57-2.96-1.17-6.01-1.85-9-.17-.71-.35-1.44-.53-2.14-.21-.86-.44-1.75-.63-2.64-.41-1.83-.91-3.68-1.4-5.46-.11-.4-.22-.81-.33-1.21-.07-.27-.12-.31-.13-.31,0,0-.08-.03-.32,.07-.5,.2-1.01,.39-1.51,.57-.37,.14-.74,.28-1.11,.43-.11,.03-.21,.08-.31,.12-.41,.16-.83,.33-1.29,.42,2.9,1.34,4.82,3.59,5.7,6.66,.94,3.27,1.18,6.25,.75,9.11-.6,3.94-2.68,6.56-6.19,7.79-1.74,.61-3.47,.91-5.55,1.25-1.51,.24-3.06,.39-4.55,.52-1.78,.17-3.62,.33-5.4,.68l-.1,.02-.09-.04c-.45-.17-.92-.1-1.42-.03-.57,.09-1.15,.18-1.77-.05-.13-.05-.26-.09-.39-.12-.46-.14-.97-.29-1.35-.83-.04-.07-.14-.18-.26-.2-.09-.02-.19,.02-.31,.11-1.39,1.08-3.13,1.49-5.3,1.26-1.55-.16-3.29-.53-4.5-2.05-.04-.05-.06-.06-.07-.06,0,0-.05,.02-.17,.1-2.87,1.79-6.04,2.02-9.99,.72-1.24-.41-2.01-1.39-2.13-2.7-.08-.91-.15-1.79-.13-2.65,.05-1.64,.01-3.31-.03-4.92-.01-.54-.02-1.07-.03-1.61-.06-3.05-.15-6.15-.23-9.15l-.07-2.15c-.06-2.14,1.69-4.14,3.74-4.28,2.29-.16,4.94-.11,7.27,1.51,.24,.17,.35,.15,.49,.07,1.34-.78,2.77-.49,4.03-.24h.05c1.07,.23,2.08,.44,3.1,.16,.16-.05,.3-.06,.5-.01,1.66,.4,3.49,.55,5.75,.47,.47-.02,.61-.06,.65-.09,.02-.06-.03-.29-.14-.67-.93-3.22-1.66-6.63-2.22-10.44-.1-.66-.22-1.34-.33-1.99-.26-1.59-.53-3.23-.64-4.88-.05-.87-.15-1.76-.24-2.61-.09-.84-.18-1.71-.24-2.57-.1-1.55-.19-3.06-.13-4.58,.08-2.01,.98-3.19,2.67-3.5,1.12-.2,2.26-.33,3.37-.46h.12c3.09-.35,6.27-.95,9.75-1.82,.3-.08,.33-.12,.28-.42-.27-1.53-.5-3.1-.72-4.61-.35-2.32-.69-4.63-1.03-6.93l-.02-.16c-.3,.5-.78,.73-1.34,.63-2.04-.37-4.08-1.09-6.43-2.25-2.87-1.42-5.37-3.53-7.86-6.64-.99-1.24-1.55-2.68-1.93-3.78-.06-.21-.11-.42-.15-.62-.01-.08-.03-.17-.05-.25v-.04s0-.04,0-.04c0-.63,.29-1.07,.8-1.25,.64-.23,.98,.3,1.14,.56,.02,.04,.04,.07,.07,.11,.34,.52,.69,1.05,1.02,1.56,.54,.84,1.1,1.71,1.69,2.53,1.44,2.01,3.47,3.7,6.39,5.3,1.25,.68,2.71,1.44,4.29,1.88,.6,.16,1.16,.45,1.7,.73l.12,.07c.14,.07,.26,.15,.36,.24l-.34-2.3c-.95-.04-1.92-.29-3.12-.82-1.97-.87-4.03-1.85-5.67-3.53-.26-.27-.55-.5-.86-.75-.46-.36-.93-.74-1.28-1.22-1.03-1.4-2.2-2.99-3-4.81v-.03s-.03-.04-.04-.06h-.03c-1.98,.53-4.03,.72-6.09,.56-1.61-.13-2.03-.57-2-2.17,0-.27-.05-.35-.07-.37-.03-.02-.11-.07-.38-.05-.46,.03-.94,.05-1.4,.07-.4,.02-.79,.04-1.19,.06-.27,.02-.54,.02-.8,.02-.65,.01-1.26,.01-1.85,.22-.47,.17-.92,.07-1.32-.02-.24-.06-.48-.11-.7-.1-.32,.01-.65,.04-.97,.07-.63,.05-1.28,.11-1.91,.04-.69-.08-1.39-.12-2.07-.15-.49-.03-.99-.06-1.49-.1-.14-.01-.18,0-.19,0,0,.01-.02,.05-.04,.19-.04,.38-.07,.78-.09,1.16-.04,.48-.07,.97-.14,1.45-.19,1.43-.34,2.76-.47,4.06-.04,.44-.05,.9-.06,1.34,0,.49-.03,1-.08,1.51-.22,1.98-.26,4.01-.3,5.98v.42c-.03,.73,0,1.46,.01,2.18,.03,1.16,.06,2.36-.05,3.56-.26,2.61-1.14,4.54-2.7,5.89-.69,.6-.85,1.1-.67,2.06,.26,1.32,.71,2.17,1.5,2.84,.49,.42,.94,.88,1.38,1.32s.89,.89,1.37,1.3c.62,.53,1.14,1.18,1.64,1.8,.23,.28,.46,.57,.7,.84,1.41,1.63,2.66,3.13,3.51,4.95l.04,.08c.12,.26,.36,.74-.09,1.16-.46,.44-.91,.11-1.1-.02-.03-.02-.06-.04-.09-.06-1.55-1.03-2.82-2.4-4.04-3.73l-.18-.19c-.35-.38-.75-.72-1.14-1.06-.44-.37-.89-.76-1.29-1.21,0,.18,.02,.37,.04,.55,.07,.95,.14,1.92,.24,2.88,.06,.59,.14,1.2,.23,1.79,.09,.6,.18,1.23,.24,1.85,.21,2.05,.4,4.13,.58,6.14l.21,2.19c.26,2.83,.53,5.75,.69,8.64,.08,1.48,.2,2.99,.31,4.46l.03,.34c.04,.55,.1,1.11,.15,1.66,.1,1.04,.2,2.11,.23,3.17,.08,2.71,.16,5.16,.43,7.62,0,.1,.04,.21,.07,.32,.08,.28,.17,.62,.03,1-.14,.39-.11,.81-.09,1.26,.01,.11,.02,.21,.02,.32,.02,.6,.08,1.22,.12,1.81,.08,.92,.16,1.87,.15,2.82-.04,2.66,.11,2.87,2.61,3.86,2.73,1.07,5.59,1.81,8.5,2.21,1.97,.26,4.11,.46,6.55,.61,3.78,.22,7.78-.05,12.97-.86,3.94-.62,7.69-1.54,11.16-2.73,4.68-1.61,8.11-3.21,11.1-5.17q.14-.09,.11-.22ZM63.41,50.27c-1.74,.19-3.54,.38-5.34,.38-.31,0-.63,0-.94-.02-.16,0-.3-.03-.45-.06-.05-.02-.1-.03-.16-.04h-.03c-.38-.07-1.1-.2-1.12-.9-.03-.67,.62-.88,1.01-1.01h.04c2.65-.9,5.36-1.32,7.91-1.67h.03c1.94-.27,3.95-.54,5.97-.46,.7,.03,1.28,.13,1.85,.32,.21,.08,.61,.21,.63,.66,.02,.42-.32,.61-.5,.71h-.03c-.48,.29-1.01,.56-1.6,.71-.33,.08-.67,.18-1.01,.27-.99,.28-2.01,.57-3.08,.63-.05,0-.12,.03-.21,.07-.18,.08-.42,.19-.76,.15-.29,.17-.63,.17-.96,.17-.15,0-.3,0-.44,.01l-.81,.08Z"/>
      <path d="M106.93,76.75c-2.44,1.26-5.01,2.15-7.67,2.81-.82,.21-1.63,.53-2.47,.66-2.35,.37-4.64,1.11-7.04,1.13-1.73,.01-2.02-.2-2.58-1.81-.63-1.83-1.13-3.69-1.43-5.63-.12-.85-.4-1.69-.54-2.56-.63-3.8-1.18-7.61-1.6-11.44-.24-2.2-.39-4.4-.45-6.61-.01-.45,.28-.79,.58-.76,1.45,.16,2.79-.6,4.27-.39,.7,.1,1.45-.4,2.23-.43,.96-.03,1.92-.2,2.88-.3,.97-.09,1.91-.53,2.89-.71,2.24-.42,4.41-1.08,6.54-1.87,.6-.23,.93-.03,1.16,.46,.2,.44,.41,.88,.51,1.35,.37,1.64,1.08,3.19,1.42,4.85,.18,.87,.12,1.14-.7,1.45-1.14,.43-2.3,.81-3.43,1.22-2.72,.97-5.51,1.59-8.31,2.18-1.1,.23-2.22,.41-3.33,.61-.72,.13-1.21-.08-1.56-.8-.4-.81-.56-1.68-.78-2.54-.23-.86-.53-1.69-.87-2.51-.24-.59-.81-.87-1.37-1.06-.29-.1-.71,0-.56,.5,.52,1.71,.71,3.48,1.05,5.21,.12,.57,.23,1.13,.39,1.68,.45,1.54,1.78,2.12,3.81,1.94,1.31-.13,2.61-.42,3.9-.66,3.51-.67,6.99-1.48,10.35-2.71,1.12-.41,1.11-.43,1.32,.75,.56,3.19,1.14,6.37,1.69,9.56,.12,.66,.2,1.21-.56,1.79-2.13,1.63-4.62,2.32-7.09,3.13-2.72,.9-5.53,1.46-8.35,2.01-.62,.12-.76-.16-.84-.65-.52-3.29-1.32-6.52-1.95-9.79-.2-1.01-.71-1.88-1.48-2.58-.14-.12-.35-.31-.48-.09-.15,.28-.75,.39-.51,.76,.68,1.01,.62,2.19,.86,3.29,.64,2.88,1.19,5.78,1.78,8.67,.1,.52,.1,1.06,.04,1.58-.13,.98,.71,1.77,1.57,1.3,1.54-.84,3.24-.76,4.86-1.13,3.79-.86,7.52-1.91,11.04-3.6,.72-.35,1.3-.88,1.98-1.31,.34,1.14-.16,2.53-1.17,3.05Z"/>
      <path d="M113.87,111.87c-.93,1.05-2.17,1.66-3.36,2.31-3.58,1.98-7.36,3.47-11.26,4.69-3.08,.97-6.2,1.69-9.38,2.12-3.17,.43-6.33,.86-9.53,.81-4.72-.03-9.37-.72-13.91-1.93-2.06-.55-4.17-1.13-5.96-2.43-.49-.35-.79-.77-.87-1.4-.21-1.52-.41-3.03-.4-4.56,0-.27-.08-.57,.28-.74,.34-.17,.41,.15,.59,.25,1.27,.73,2.65,1.15,4.02,1.63,1.87,.65,3.82,.92,5.76,1.26,1.95,.33,3.92,.46,5.89,.55,1.58,.08,3.16,.06,4.73,.03,9.33-.18,18.26-2.19,26.82-5.86,1.63-.69,3.14-1.65,4.81-2.27,.34-.12,.46-.85,.96-.46,.32,.24,.12,.73,.18,1.1,.24,1.41,.48,2.82,.82,4.21,.07,.27,.01,.47-.19,.69Z"/>
      <path d="M25.43,50.8c-.25,1.47-.48,2.94-.73,4.4-.43,2.52-.85,5.03-1.31,7.54-.59,3.25-1.13,6.52-1.81,9.75-.34,1.62-.68,3.23-1.07,4.83-.14,.61-.84,1.15-1.45,1.15-.55,0-.89-.39-.74-.93,.83-3.1,1.39-6.25,2.03-9.39,.37-1.85,.79-3.7,1.01-5.58,.06-.56,.46-1.05,.33-1.65-.03-.18,.06-.4-.18-.5-.25-.1-.46,0-.65,.18-.44,.42-.77,.9-.99,1.48-.6,1.56-.75,3.21-1.09,4.83-.43,2.06-.84,4.13-1.34,6.18-.28,1.14-.48,2.3-.87,3.41-.31,.87-.7,1.05-1.59,.81-.27-.07-.57-.02-.84-.08-2.03-.45-3.96-1.19-5.86-2.01-.71-.3-1-.96-.87-1.77,.79-4.73,1.9-9.38,3.32-13.96,.03-.07,.05-.14,.08-.21,.38-1.09,.44-1.11,1.53-.72,2.19,.78,4.39,1.53,6.74,1.69,1.35,.09,2.26-.23,2.81-2.02,.69-2.22,1.25-4.48,1.87-6.73,.06-.2,.15-.42-.05-.6-.21-.21-.39-.03-.58,.04-.62,.24-.96,.7-1.25,1.29-.69,1.4-1.08,2.9-1.53,4.38-.26,.83-.76,1.21-1.59,1.03-2.79-.63-5.58-1.27-8.22-2.42-.43-.18-.69-.4-.54-.92,.65-2.19,1.27-4.38,2.27-6.44,.33-.66,.66-1.32,1.54-1.46,.3-.05,.5-.03,.77,.07,3.15,1.2,6.34,2.24,9.67,2.79,.04,.01,.09,0,.14,.02,.43,.1,1.05-.21,1.25,.24,.15,.33-.14,.85-.21,1.28Z"/>
      <path d="M44.62,108.45c-.22,1.74-.51,3.46-.87,5.18-.07,.31-.31,.38-.58,.45-1.27,.34-2.59,.46-3.89,.62-1.79,.21-3.59,.18-5.39,.14-1.23,0-2.46,.06-3.68-.01-4.87-.28-9.68-1-14.27-2.73-1.34-.5-2.64-1.13-3.95-1.69-1.53-.64-2.96-1.44-4.43-2.18-1.66-.83-3.03-2.07-4.45-3.24-.71-.59-.64-1.52-.44-2.2,.39-1.31,.58-2.65,.91-3.97,.12-.49,.21-.49,.62-.18,2.63,2.01,5.41,3.8,8.47,5.08,1.49,.63,2.99,1.23,4.49,1.82,2.98,1.18,6.13,1.58,9.22,2.23,.68,.14,1.36,.25,2.03,.39,.69,.14,1.45-.06,2.19,.04,2.39,.33,4.81,.05,7.19,.23,1.13,.09,2.19-.19,3.3-.15,.93,.03,1.96-.2,2.93-.39,.46-.1,.66,.06,.6,.56Z"/>
      <path class="cls-1" d="M69.09,93.2c-.19-.2-.55-.34-.16-.73,1.21-1.21,1.64-2.72,1.57-4.47,.03-.94-.14-1.92-.49-2.87-.6-1.64-1.64-2.75-3.43-3.08-.98-.18-1.95-.29-2.94-.25-2.13,.1-2.34,.78-2.26,2.31,.31,6.34,.4,12.69,.56,19.04,.01,.52,.21,.77,.71,.91,1.35,.35,2.73,.57,4.12,.51,2.38-.11,3.9-1.28,4.38-3.51,.63-2.94,.06-5.62-2.06-7.86Zm-4.11-4.36v-.86c0-.65,0-1.29-.01-1.94-.02-.39,.1-.47,.49-.41,1,.13,1.55,.55,1.84,1.52,.23,.75,.25,1.51,0,2.26-.17,.47-.42,.87-.94,1.09-.93,.38-1.34,.16-1.35-.79-.01-.29-.01-.58-.02-.87Zm2.75,10.16c-.32,1.17-1.05,1.63-2.25,1.44-.36-.06-.33-.27-.33-.51v-2.23h-.03c0-.74,.02-1.49-.01-2.23,0-.36,.11-.43,.45-.42,1.04,.02,1.85,.61,2.13,1.68,.21,.75,.25,1.51,.04,2.27Z"/>
      <path d="M93.1,4.59c-.98,.66-2.09,.96-3.23,1.16-1.36,.25-2.73,.52-4.12,.61-2.14,.46-4.33,.26-6.48,.55-1.05,.14-2.11,.16-3.16,.19-3.22,.1-6.44,.23-9.66,.19-3.82-.06-7.64-.04-11.45-.18-3.5-.12-7-.39-10.49-.82-1.76-.21-3.54-.32-5.28-.72-.89-.21-1.68,.32-2.53,.45-.24,.03-.19,.22-.08,.38,.27,.37,.6,.64,1.03,.77,.54,.17,.72,.54,.6,1.05-.17,.7-.35,1.4-.47,2.09-.18,1-.46,2.02-.43,3.05,.03,1.04-.27,2.04-.24,3.07,0,.29-.18,.35-.45,.3-.69-.12-1.39-.19-2.08-.34-.72-.16-1.12-.77-.97-1.51,.14-.68-.2-1.44,.34-2.06-.39-1,.04-1.97,.13-2.94,.12-1.19,.2-2.39,.99-3.41,.3-.38,.08-.7-.37-.88-1.37-.55-2.85-.67-4.26-1.03-1.4-.36-2.79-.73-4.18-1.11-.35-.1-.8-.19-.78-.69,.02-.39,.75-.79,1.22-.66,.92,.25,1.86,.44,2.81,.61,3.02,.56,6.06,.96,9.11,1.27,3.49,.36,7,.54,10.49,.88,1.74,.17,3.49,.13,5.22,.29,3.43,.33,6.86,.14,10.29,.22,4.33,.1,8.65-.23,12.97-.28,1.32-.02,2.64-.22,3.95-.23,2.07,0,4.1-.41,6.15-.6,1.68-.15,3.37-.37,5.05-.56,.33-.04,.68-.01,.8,.32,.11,.31-.24,.43-.44,.57Z"/>
      <path class="cls-1" d="M81.6,101.63c-.67,2.3-2.33,3.53-4.74,3.4-2.33-.12-3.88-1.56-4.22-3.93-.3-2.12-.27-4.27-.39-6.4-.2-3.45-.32-6.9-.47-10.35-.04-1.05,.19-1.27,1.24-1.25,2.3,.04,2.29,.07,2.36,2.33,.1,3.17,.25,6.34,.38,9.51,.09,1.47-.02,2.94,.15,4.4,.07,.56,.3,1.01,.83,1.25,.77,.35,1.42-.05,1.39-.9-.1-2.54-.21-5.09-.34-7.63-.11-2.07-.26-4.13-.37-6.19-.02-.48-.18-.93-.17-1.41,.01-.68,.34-.97,.96-.92,.72,.05,1.43,.18,2.14,.27,.48,.05,.63,.36,.66,.79,.24,4.36,.48,8.73,.73,13.1,.08,1.32,.25,2.61-.14,3.93Z"/>
      <path class="cls-1" d="M106.45,94.55c.04-1.6-.14-3.25-.61-4.85-.78-2.63-2.16-4.78-4.93-5.71-1.42-.47-2.9-.63-4.39-.61-.82,.01-.96,.16-.95,.99,.02,1.66,.32,3.3,.51,4.94,.5,4.28,1.04,8.55,1.54,12.82,.12,1.02,.45,1.31,1.45,1.15,.21-.03,.43-.07,.64-.12,1.69-.36,3.33-.85,4.6-2.13,1.76-1.79,2.23-4.01,2.14-6.48Zm-3.62,1.25c-.18,.97-.49,1.86-1.43,2.36-.64,.33-1,.14-1.06-.56-.3-3.27-.61-6.54-.91-9.85,2.59,.25,2.98,2.22,3.35,4.11,.26,1.29,.29,2.63,.05,3.94Z"/>
      <path d="M55.08,18.45s0,.09-.01,.19c-.48,3.43-.73,6.84-.93,10.04-.23,3.56-.34,6.48-.35,9.16,0,1.23-.16,2.53-.48,3.86-.21,.9-.76,1.77-1.68,2.64-.03-.05-.06-.11-.08-.14-.53-.96-.94-1.97-1.23-2.99l-.13-.44c-.3-1.02-.6-2.07-.67-3.13-.05-.81-.11-1.68-.21-2.5-.18-1.43-.16-2.85-.12-4.3,.04-1.67,.17-3.39,.37-5.12,.09-.76,.17-1.52,.24-2.27,.1-1.08,.2-2.2,.36-3.28,.06-.36,.12-.71,.18-1.06,.04-.28,.09-.56,.13-.83,.02-.1,.04-.12,.04-.12,.04-.03,.26-.02,.39-.01h.17c.39,.19,.83,.19,1.25,.19,.4,.01,.81,.01,1.19,.16,.31,.14,.67,.07,.98,.01,.15-.03,.29-.05,.42-.06h.17Z"/>
      <path d="M72.34,15.45c-.01,.51-.49,.47-.8,.48-.77,.04-1.54,.02-2.31,.02-2.2-.03-4.4-.03-6.6,0-1.41,.01-2.83-.13-4.24-.01-.59,.05-.85-.18-.81-.78,.09-1.31-.12-2.62,.15-3.93,.08-.39-.14-.84-.11-1.27,.02-.35,.17-.54,.53-.52,1.17,.05,2.34,0,3.52,.1,1.21,.11,2.43-.09,3.65-.07,2.05,.02,4.09-.01,6.13-.05,.64-.02,.75,.23,.74,.8-.01,.88-.04,1.76,.08,2.64,.12,.85,.08,1.72,.07,2.59Z"/>
      <path d="M54.19,73.83c-.08,1.5-.16,3-.29,4.5-.27,2.93-.53,5.86-1.01,8.77-.41,2.47-.68,4.96-1.06,7.43-.45,2.88-.96,5.75-1.4,8.63-.12,.8-.48,1.23-1.28,1.31-.31,.03-.61,.15-.91,.23-.91,.25-1.01,.17-.85-.73,.53-3.04,1.11-6.07,1.63-9.11,.44-2.63,.75-5.29,1.26-7.9,.37-1.89,.5-3.81,.85-5.7,.45-2.41,.66-4.85,1-7.27,.22-1.51,.42-3.03,.57-4.54,.12-1.3,.34-2.62,.3-3.94-.01-.29-.09-.62,.25-.93,.26,2.6,.79,5.08,.76,7.63-.01,.54,.22,1.04,.18,1.62Z"/>
      <path class="cls-1" d="M96.32,102.79c.02,.46-.16,.69-.61,.81-1.79,.51-3.63,.61-5.48,.72-.55,.03-.77-.32-.81-.8-.21-2.57-.4-5.13-.6-7.69-.21-2.54-.43-5.08-.65-7.62-.08-.93-.16-1.86-.21-2.42-.04-1.68,.12-1.83,1.44-1.8,2,.05,1.98,.06,2.15,2.06,.23,2.75,.58,5.49,.73,8.25,.09,1.43,.31,2.85,.43,4.28,.05,.57,.24,.81,.85,.71,.56-.09,1.14-.11,1.71-.16,.44-.05,.7,.14,.76,.57,.13,1.03,.26,2.05,.29,3.09Z"/>
      <path d="M94.57,6.43v2.44h-.11c0,.67-.01,1.34,0,2.01,.04,1.56-.51,1.96-1.95,2.54-1.55,.62-3.2,.88-4.83,1.18-2.05,.37-4.13,.22-6.19,.41-.43,.04-.4-.34-.43-.54-.13-.93-.26-1.86-.26-2.8,0-.54-.22-1-.31-1.5-.17-1.04,.03-1.37,1.06-1.42,3.4-.19,6.77-.58,10.08-1.37,.89-.21,1.76-.5,2.44-1.17,.1-.1,.17-.28,.33-.21,.18,.07,.17,.26,.17,.43Z"/>
      <path d="M93.69,28.78c-.69-.04-1.26-.28-1.77-.57-.94-.53-2-.83-2.71-1.79-.26-.35-.83-.64-1.26-.84-1.09-.5-1.71-1.42-2.41-2.28-1.25-1.52-2.34-3.15-2.91-5.07-.25-.85-.21-.86,.67-.92,2.17-.15,4.33-.37,6.48-.76,.83-.15,1.07-.03,1.33,.82,.81,2.65,1.56,5.31,2.18,8.01,.22,.98,.44,1.96,.67,2.94,.07,.31,.08,.54-.27,.46Z"/>
      <path class="cls-1" d="M86.68,104.58c-.33,.03-.67,.03-1.01,.05-1.67,.15-1.72,.11-1.82-1.5-.27-4.37-.52-8.74-.8-13.11-.11-1.75-.28-3.49-.42-5.24-.04-.48,.14-.78,.63-.88,.87-.16,1.73,.09,2.59,.1,.31,0,.35,.39,.37,.68,.14,1.77,.28,3.54,.42,5.32,.19,2.34,.38,4.68,.56,7.02,.11,1.53,.2,3.06,.31,4.59,.04,.62,.11,1.24,.13,1.86,.03,.82-.16,1.02-.96,1.11Z"/>
      <path d="M100.68,46.7c-.32,.08-.65,.16-.96,.28-.52,.2-.71,.02-.79-.5-.5-3.4-1.03-6.79-1.55-10.18-.01-.07-.02-.14-.03-.21-.33-1.64-.49-3.31-.79-4.95-.53-2.82-1.2-5.62-1.8-8.43-.46-2.12-.96-4.26-1.8-6.28-.31-.76,.38-.62,.62-.86,.31-.29,.53-.13,.71,.21,.81,1.55,1.29,3.21,1.71,4.88,.69,2.75,1.38,5.49,1.96,8.26,.79,3.8,1.47,7.62,2.18,11.44,.35,1.84,.64,3.69,1.02,5.52,.1,.51-.03,.71-.48,.82Z"/>
      <path d="M30.51,15.66c-1.66,2.75-3.56,5.29-6.29,7.11-.94,.62-2.02,.92-2.99,1.47-.31,.18-.57,.12-.53-.22,.9-3.4,1.65-6.73,3.08-9.83,.27-.58,.7-.86,1.39-.59,1.64,.62,3.33,1.05,5.03,1.49,.31,.08,.56,.15,.31,.57Z"/>
      <path d="M48.05,9.37c-.29,1.61-.24,3.24-.33,4.87-.04,.77-.3,.94-.97,.84-.09-.01-.19,0-.28,0-2.12-.35-4.28-.36-6.4-.71-.34-.06-.51-.18-.48-.56,.15-1.82,.5-3.61,.86-5.39,.06-.34,.28-.46,.63-.42,1.39,.19,2.78,.38,4.17,.53,.82,.08,1.65,.02,2.45,.33,.29,.12,.4,.22,.35,.51Z"/>
      <path d="M32.58,7.85c-.34,1.44-.51,2.9-.65,4.37-.04,.46-.21,.64-.67,.56-2.19-.34-4.31-.9-6.25-2.03-.33-.19-.65-.42-.59-.89,.17-1.46,.2-2.92,.5-4.36,.02-.11,.06-.23,.09-.34,2.33,.78,4.67,1.37,7.04,1.85,.53,.11,.65,.31,.53,.84Z"/>
      <path d="M78.88,17.4c.1,.77-.24,1.09-.96,1.13-.81,.05-1.62,.11-2.44,.18-.44,.05-.65-.11-.68-.58-.14-2.17-.31-4.34-.44-6.52-.03-.55-.3-1.07-.13-1.66,.14-.48,.42-.64,.85-.66,.89-.05,1.77-.06,2.66-.14,.51-.04,.67,.19,.71,.65,.21,2.03,.41,4.05,.42,6.09,0,.5-.06,1.01,.01,1.51Z"/>
      <path d="M55.62,10.21v1.87c.01,1.06-.09,2.12-.13,3.17-.02,.46-.18,.57-.62,.53-1.56-.15-3.12-.28-4.69-.39-.38-.02-.5-.18-.49-.53,.02-1.66-.04-3.32,.35-4.95,.07-.27-.2-.65,.19-.82,.43-.19,.92-.14,1.33,.01,.41,.15,.75,.19,1.17,.09,.34-.09,.73-.04,1.06,.12,.28,.13,.53,.14,.83,.06,.75-.18,.99,.04,1,.84Z"/>
      <path d="M49.87,106.58c-.3,1.86-.43,3.68-.91,5.43-.22,.81-1.06,.8-1.65,1.1-.1,.05-.24,0-.35,.04q-1.08,.34-.91-.75c.25-1.54,.51-3.07,.75-4.6,.06-.36,.23-.54,.59-.62,.79-.17,1.58-.38,2.48-.6Z"/>
      <path class="cls-2" d="M116.63,111.34c-.33-2.5-.7-4.99-1.16-7.46-.77-4.06-1.57-8.12-2.43-12.16-.89-4.19-1.76-8.38-2.97-12.49-.24-.83-.39-1.63,.18-2.4,.15-.2,.18-.49,.23-.75,.28-1.39-.03-2.74-.25-4.1-.62-3.9-1.33-7.78-2.18-11.64-.11-.52-.52-1.17,.08-1.68,.47-.38,.58-.85,.49-1.41-.49-2.91-1.26-5.75-2.36-8.48-.46-1.18-1.13-2.23-2.34-2.8-.24-.12-.22-.35-.26-.56-.46-2.69-.94-5.38-1.41-8.07-.93-5.25-1.83-10.51-3.22-15.67-.64-2.42-1.03-4.92-2.33-7.12-.13-.22-.04-.4,.02-.61,.22-.73,.45-1.47,.47-2.24,.05-2.26,.01-4.52-.3-6.77-.31-2.31-1.36-3.58-3.96-3.45-2.61,.13-5.22,.4-7.83,.57-3.65,.23-7.29,.45-10.94,.54-7.64,.2-15.28,.15-22.91-.25-1.63-.09-3.27-.2-4.89-.36-2.39-.23-4.77-.55-7.16-.76-3.69-.3-7.37-.66-11.04-1.14-3.25-.42-5.09,.84-5.61,3.95-.17,.97-.3,1.94-.42,2.92-.18,1.55-.49,3.09-.07,4.65,.05,.19,.1,.4-.07,.61-.89,1.04-1.34,2.32-1.79,3.57-2.39,6.72-3.67,13.74-5.33,20.65-.54,2.26-.85,4.57-1.57,6.78-.1,.3-.22,.47-.5,.62-1.28,.7-2.3,1.73-2.94,2.98-1.43,2.74-2.35,5.68-2.95,8.71-.16,.84,.03,1.28,.79,1.53,.71,.24,.76,.62,.58,1.26-1,3.54-1.96,7.1-2.73,10.7-.38,1.83-.77,3.66-.92,5.53-.08,1.01,.06,1.98,1.06,2.56,.26,.15,.22,.28,.14,.52-.63,1.78-1.07,3.61-1.45,5.45-.71,3.41-1.33,6.84-2.19,10.23-.79,3.1-1.3,6.27-2.02,9.4-.43,1.82-.04,3.31,1.28,4.64,1.48,1.49,3.29,2.5,5.07,3.54,4.43,2.58,9.22,4.24,14.14,5.56,3.15,.83,6.4,1.13,9.64,1.29,4.25,.21,8.5,.1,12.71-.7,2.3-.44,4.57-.99,6.7-2.02,1.06-.51,1.67-1.3,1.87-2.52,.57-3.45,1.17-6.89,1.75-10.34,.57-3.36,1.02-6.74,1.56-10.1,.21-1.24,.27-2.51,.62-3.74,.26,.18,.21,.41,.21,.62,.01,1.27,.09,2.55,.12,3.82,.21,7.96,.62,15.91,1.05,23.86,.07,1.36,.67,2.44,1.82,3.19,1.04,.68,2.21,1.13,3.37,1.55,4.91,1.78,9.97,2.81,15.18,3.11,4.9,.27,9.78,.09,14.59-.83,5.78-1.11,11.38-2.85,16.75-5.3,2.37-1.08,4.74-2.18,6.71-3.95,.9-.81,1.49-1.82,1.32-3.04Zm-14.09-62.5c.6-.23,.93-.03,1.16,.46,.2,.44,.41,.88,.51,1.35,.37,1.64,1.08,3.19,1.42,4.85,.18,.87,.12,1.14-.7,1.45-1.14,.43-2.3,.81-3.43,1.22-2.72,.97-5.51,1.59-8.31,2.18-1.1,.23-2.22,.41-3.33,.61-.72,.13-1.21-.08-1.56-.8-.4-.81-.56-1.68-.78-2.54-.23-.86-.53-1.69-.87-2.51-.24-.59-.81-.87-1.37-1.06-.29-.1-.71,0-.56,.5,.52,1.71,.71,3.48,1.05,5.21,.12,.57,.23,1.13,.39,1.68,.45,1.54,1.78,2.12,3.81,1.94,1.31-.13,2.61-.42,3.9-.66,3.51-.67,6.99-1.48,10.35-2.71,1.12-.41,1.11-.43,1.32,.75,.56,3.19,1.14,6.37,1.69,9.56,.12,.66,.2,1.21-.56,1.79-2.13,1.63-4.62,2.32-7.09,3.13-2.72,.9-5.53,1.46-8.35,2.01-.62,.12-.76-.16-.84-.65-.52-3.29-1.32-6.52-1.95-9.79-.2-1.01-.71-1.88-1.48-2.58-.14-.12-.35-.31-.48-.09-.15,.28-.75,.39-.51,.76,.68,1.01,.62,2.19,.86,3.29,.64,2.88,1.19,5.78,1.78,8.67,.1,.52,.1,1.06,.04,1.58-.13,.98,.71,1.77,1.57,1.3,1.54-.84,3.24-.76,4.86-1.13,3.79-.86,7.52-1.91,11.04-3.6,.72-.35,1.3-.88,1.98-1.31,.34,1.14-.16,2.53-1.17,3.05-2.44,1.26-5.01,2.15-7.67,2.81-.82,.21-1.63,.53-2.47,.66-2.35,.37-4.64,1.11-7.04,1.13-1.73,.01-2.02-.2-2.58-1.81-.63-1.83-1.13-3.69-1.43-5.63-.12-.85-.4-1.69-.54-2.56-.63-3.8-1.18-7.61-1.6-11.44-.24-2.2-.39-4.4-.45-6.61-.01-.45,.28-.79,.58-.76,1.45,.16,2.79-.6,4.27-.39,.7,.1,1.45-.4,2.23-.43,.96-.03,1.92-.2,2.88-.3,.97-.09,1.91-.53,2.89-.71,2.24-.42,4.41-1.08,6.54-1.87Zm-6.46,40.47c-.19-1.64-.49-3.28-.51-4.94-.01-.83,.13-.98,.95-.99,1.49-.02,2.97,.14,4.39,.61,2.77,.93,4.15,3.08,4.93,5.71,.47,1.6,.65,3.25,.61,4.85,.09,2.47-.38,4.69-2.14,6.48-1.27,1.28-2.91,1.77-4.6,2.13-.21,.05-.43,.09-.64,.12-1,.16-1.33-.13-1.45-1.15-.5-4.27-1.04-8.54-1.54-12.82Zm.24,13.48c.02,.46-.16,.69-.61,.81-1.79,.51-3.63,.61-5.48,.72-.55,.03-.77-.32-.81-.8-.21-2.57-.4-5.13-.6-7.69-.21-2.54-.43-5.08-.65-7.62-.08-.93-.16-1.86-.21-2.42-.04-1.68,.12-1.83,1.44-1.8,2,.05,1.98,.06,2.15,2.06,.23,2.75,.58,5.49,.73,8.25,.09,1.43,.31,2.85,.43,4.28,.05,.57,.24,.81,.85,.71,.56-.09,1.14-.11,1.71-.16,.44-.05,.7,.14,.76,.57,.13,1.03,.26,2.05,.29,3.09Zm-9.64,1.79c-.33,.03-.67,.03-1.01,.05-1.67,.15-1.72,.11-1.82-1.5-.27-4.37-.52-8.74-.8-13.11-.11-1.75-.28-3.49-.42-5.24-.04-.48,.14-.78,.63-.88,.87-.16,1.73,.09,2.59,.1,.31,0,.35,.39,.37,.68,.14,1.77,.28,3.54,.42,5.32,.19,2.34,.38,4.68,.56,7.02,.11,1.53,.2,3.06,.31,4.59,.04,.62,.11,1.24,.13,1.86,.03,.82-.16,1.02-.96,1.11Zm9.32-83.92c.69,2.75,1.38,5.49,1.96,8.26,.79,3.8,1.47,7.62,2.18,11.44,.35,1.84,.64,3.69,1.02,5.52,.1,.51-.03,.71-.48,.82-.32,.08-.65,.16-.96,.28-.52,.2-.71,.02-.79-.5-.5-3.4-1.03-6.79-1.55-10.18-.01-.07-.02-.14-.03-.21-.33-1.64-.49-3.31-.79-4.95-.53-2.82-1.2-5.62-1.8-8.43-.46-2.12-.96-4.26-1.8-6.28-.31-.76,.38-.62,.62-.86,.31-.29,.53-.13,.71,.21,.81,1.55,1.29,3.21,1.71,4.88Zm-2.31,8.12c-.69-.04-1.26-.28-1.77-.57-.94-.53-2-.83-2.71-1.79-.26-.35-.83-.64-1.26-.84-1.09-.5-1.71-1.42-2.41-2.28-1.25-1.52-2.34-3.15-2.91-5.07-.25-.85-.21-.86,.67-.92,2.17-.15,4.33-.37,6.48-.76,.83-.15,1.07-.03,1.33,.82,.81,2.65,1.56,5.31,2.18,8.01,.22,.98,.44,1.96,.67,2.94,.07,.31,.08,.54-.27,.46Zm.71-22.78c.18,.07,.17,.26,.17,.43v2.44h-.11c0,.67-.01,1.34,0,2.01,.04,1.56-.51,1.96-1.95,2.54-1.55,.62-3.2,.88-4.83,1.18-2.05,.37-4.13,.22-6.19,.41-.43,.04-.4-.34-.43-.54-.13-.93-.26-1.86-.26-2.8,0-.54-.22-1-.31-1.5-.17-1.04,.03-1.37,1.06-1.42,3.4-.19,6.77-.58,10.08-1.37,.89-.21,1.76-.5,2.44-1.17,.1-.1,.17-.28,.33-.21ZM26.7,2.1c.92,.25,1.86,.44,2.81,.61,3.02,.56,6.06,.96,9.11,1.27,3.49,.36,7,.54,10.49,.88,1.74,.17,3.49,.13,5.22,.29,3.43,.33,6.86,.14,10.29,.22,4.33,.1,8.65-.23,12.97-.28,1.32-.02,2.64-.22,3.95-.23,2.07,0,4.1-.41,6.15-.6,1.68-.15,3.37-.37,5.05-.56,.33-.04,.68-.01,.8,.32,.11,.31-.24,.43-.44,.57-.98,.66-2.09,.96-3.23,1.16-1.36,.25-2.73,.52-4.12,.61-2.14,.46-4.33,.26-6.48,.55-1.05,.14-2.11,.16-3.16,.19-3.22,.1-6.44,.23-9.66,.19-3.82-.06-7.64-.04-11.45-.18-3.5-.12-7-.39-10.49-.82-1.76-.21-3.54-.32-5.28-.72-.89-.21-1.68,.32-2.53,.45-.24,.03-.19,.22-.08,.38,.27,.37,.6,.64,1.03,.77,.54,.17,.72,.54,.6,1.05-.17,.7-.35,1.4-.47,2.09-.18,1-.46,2.02-.43,3.05,.03,1.04-.27,2.04-.24,3.07,0,.29-.18,.35-.45,.3-.69-.12-1.39-.19-2.08-.34-.72-.16-1.12-.77-.97-1.51,.14-.68-.2-1.44,.34-2.06-.39-1,.04-1.97,.13-2.94,.12-1.19,.2-2.39,.99-3.41,.3-.38,.08-.7-.37-.88-1.37-.55-2.85-.67-4.26-1.03-1.4-.36-2.79-.73-4.18-1.11-.35-.1-.8-.19-.78-.69,.02-.39,.75-.79,1.22-.66Zm52.18,15.3c.1,.77-.24,1.09-.96,1.13-.81,.05-1.62,.11-2.44,.18-.44,.05-.65-.11-.68-.58-.14-2.17-.31-4.34-.44-6.52-.03-.55-.3-1.07-.13-1.66,.14-.48,.42-.64,.85-.66,.89-.05,1.77-.06,2.66-.14,.51-.04,.67,.19,.71,.65,.21,2.03,.41,4.05,.42,6.09,0,.5-.06,1.01,.01,1.51Zm-21.15-6.17c.08-.39-.14-.84-.11-1.27,.02-.35,.17-.54,.53-.52,1.17,.05,2.34,0,3.52,.1,1.21,.11,2.43-.09,3.65-.07,2.05,.02,4.09-.01,6.13-.05,.64-.02,.75,.23,.74,.8-.01,.88-.04,1.76,.08,2.64,.12,.85,.08,1.72,.07,2.59-.01,.51-.49,.47-.8,.48-.77,.04-1.54,.02-2.31,.02-2.2-.03-4.4-.03-6.6,0-1.41,.01-2.83-.13-4.24-.01-.59,.05-.85-.18-.81-.78,.09-1.31-.12-2.62,.15-3.93Zm-2.86,4.55c-1.56-.15-3.12-.28-4.69-.39-.38-.02-.5-.18-.49-.53,.02-1.66-.04-3.32,.35-4.95,.07-.27-.2-.65,.19-.82,.43-.19,.92-.14,1.33,.01,.41,.15,.75,.19,1.17,.09,.34-.09,.73-.04,1.06,.12,.28,.13,.53,.14,.83,.06,.75-.18,.99,.04,1,.84v1.87c.01,1.06-.09,2.12-.13,3.17-.02,.46-.18,.57-.62,.53Zm.21,2.67s0,.09-.01,.19c-.48,3.43-.73,6.84-.93,10.04-.23,3.56-.34,6.48-.35,9.16,0,1.23-.16,2.53-.48,3.86-.21,.9-.76,1.77-1.68,2.64-.03-.05-.06-.11-.08-.14-.53-.96-.94-1.97-1.23-2.99l-.13-.44c-.3-1.02-.6-2.07-.67-3.13-.05-.81-.11-1.68-.21-2.5-.18-1.43-.16-2.85-.12-4.3,.04-1.67,.17-3.39,.37-5.12,.09-.76,.17-1.52,.24-2.27,.1-1.08,.2-2.2,.36-3.28,.06-.36,.12-.71,.18-1.06,.04-.28,.09-.56,.13-.83,.02-.1,.04-.12,.04-.12,.04-.03,.26-.02,.39-.01h.17c.39,.19,.83,.19,1.25,.19,.4,.01,.81,.01,1.19,.16,.31,.14,.67,.07,.98,.01,.15-.03,.29-.05,.42-.06h.17Zm-7.03-9.08c-.29,1.61-.24,3.24-.33,4.87-.04,.77-.3,.94-.97,.84-.09-.01-.19,0-.28,0-2.12-.35-4.28-.36-6.4-.71-.34-.06-.51-.18-.48-.56,.15-1.82,.5-3.61,.86-5.39,.06-.34,.28-.46,.63-.42,1.39,.19,2.78,.38,4.17,.53,.82,.08,1.65,.02,2.45,.33,.29,.12,.4,.22,.35,.51Zm-23.13-3.87c.02-.11,.06-.23,.09-.34,2.33,.78,4.67,1.37,7.04,1.85,.53,.11,.65,.31,.53,.84-.34,1.44-.51,2.9-.65,4.37-.04,.46-.21,.64-.67,.56-2.19-.34-4.31-.9-6.25-2.03-.33-.19-.65-.42-.59-.89,.17-1.46,.2-2.92,.5-4.36Zm-1.14,8.69c.27-.58,.7-.86,1.39-.59,1.64,.62,3.33,1.05,5.03,1.49,.31,.08,.56,.15,.31,.57-1.66,2.75-3.56,5.29-6.29,7.11-.94,.62-2.02,.92-2.99,1.47-.31,.18-.57,.12-.53-.22,.9-3.4,1.65-6.73,3.08-9.83ZM7.41,73.45c.79-4.73,1.9-9.38,3.32-13.96,.03-.07,.05-.14,.08-.21,.38-1.09,.44-1.11,1.53-.72,2.19,.78,4.39,1.53,6.74,1.69,1.35,.09,2.26-.23,2.81-2.02,.69-2.22,1.25-4.48,1.87-6.73,.06-.2,.15-.42-.05-.6-.21-.21-.39-.03-.58,.04-.62,.24-.96,.7-1.25,1.29-.69,1.4-1.08,2.9-1.53,4.38-.26,.83-.76,1.21-1.59,1.03-2.79-.63-5.58-1.27-8.22-2.42-.43-.18-.69-.4-.54-.92,.65-2.19,1.27-4.38,2.27-6.44,.33-.66,.66-1.32,1.54-1.46,.3-.05,.5-.03,.77,.07,3.15,1.2,6.34,2.24,9.67,2.79,.04,.01,.09,0,.14,.02,.43,.1,1.05-.21,1.25,.24,.15,.33-.14,.85-.21,1.28-.25,1.47-.48,2.94-.73,4.4-.43,2.52-.85,5.03-1.31,7.54-.59,3.25-1.13,6.52-1.81,9.75-.34,1.62-.68,3.23-1.07,4.83-.14,.61-.84,1.15-1.45,1.15-.55,0-.89-.39-.74-.93,.83-3.1,1.39-6.25,2.03-9.39,.37-1.85,.79-3.7,1.01-5.58,.06-.56,.46-1.05,.33-1.65-.03-.18,.06-.4-.18-.5-.25-.1-.46,0-.65,.18-.44,.42-.77,.9-.99,1.48-.6,1.56-.75,3.21-1.09,4.83-.43,2.06-.84,4.13-1.34,6.18-.28,1.14-.48,2.3-.87,3.41-.31,.87-.7,1.05-1.59,.81-.27-.07-.57-.02-.84-.08-2.03-.45-3.96-1.19-5.86-2.01-.71-.3-1-.96-.87-1.77Zm36.34,40.18c-.07,.31-.31,.38-.58,.45-1.27,.34-2.59,.46-3.89,.62-1.79,.21-3.59,.18-5.39,.14-1.23,0-2.46,.06-3.68-.01-4.87-.28-9.68-1-14.27-2.73-1.34-.5-2.64-1.13-3.95-1.69-1.53-.64-2.96-1.44-4.43-2.18-1.66-.83-3.03-2.07-4.45-3.24-.71-.59-.64-1.52-.44-2.2,.39-1.31,.58-2.65,.91-3.97,.12-.49,.21-.49,.62-.18,2.63,2.01,5.41,3.8,8.47,5.08,1.49,.63,2.99,1.23,4.49,1.82,2.98,1.18,6.13,1.58,9.22,2.23,.68,.14,1.36,.25,2.03,.39,.69,.14,1.45-.06,2.19,.04,2.39,.33,4.81,.05,7.19,.23,1.13,.09,2.19-.19,3.3-.15,.93,.03,1.96-.2,2.93-.39,.46-.1,.66,.06,.6,.56-.22,1.74-.51,3.46-.87,5.18Zm1.38-9.83c-.05,.35-.09,.7-.14,1.04,0,.09-.02,.13-.26,.16-.49,.04-.99,.1-1.48,.16-.81,.09-1.64,.19-2.47,.23-.67,.04-1.36,.11-2.03,.19-.36,.03-.73,.07-1.09,.1-.57,.06-1.17,.06-1.74,.05-.7,0-1.42,0-2.14,.09-.28,.04-.59-.04-.92-.12-.28-.07-.58-.14-.89-.15-1.35-.06-2.84-.19-4.67-.41-3.97-.49-7.9-1.49-12.01-3.08-1.44-.56-2.84-1.29-4.19-1.99l-.48-.25c-1.86-.97-3.67-2.21-5.54-3.79-.26-.22-.34-.42-.28-.75,.48-2.67,1.02-5.32,1.63-7.87,.13-.55,.27-1.11,.4-1.66,.42-1.77,.87-3.61,1.26-5.43l.02-.1c.16-.75,.29-1.33,.45-1.43,.03-.01,.07-.02,.13-.02,.25,0,.76,.17,1.41,.4,2.08,.72,4.41,1.35,7.32,2.01,.51,.11,1.06,.19,1.74,.24,1.12,.09,3.28-1.15,3.82-2.86,.46-1.44,.76-2.94,1.01-4.23,.17-.87,.32-1.73,.48-2.6,.27-1.51,.56-3.07,.89-4.6,.26-1.21,.45-2.45,.63-3.65,.14-.95,.29-1.93,.48-2.89,.13-.7,.24-1.41,.35-2.1,.12-.75,.24-1.53,.4-2.29,.55-2.78,.87-5.09,.98-7.28,.08-1.51-.56-2.22-2.22-2.46-2.75-.39-5.95-.98-8.9-2.4-.48-.23-.56-.33-.43-.95,.14-.61,.26-1.23,.37-1.84,.15-.77,.31-1.57,.49-2.35l.32-1.36c.52-2.23,1.06-4.54,1.66-6.79,.13-.5,.23-1.01,.33-1.5,.08-.39,.16-.8,.26-1.19,.09-.35,.18-.45,.3-.49,.49-.19,.97-.42,1.43-.64,.38-.18,.73-.35,1.09-.5,1.02-.42,1.92-.86,2.73-1.36,1.58-.97,2.84-2.24,3.86-3.35,.89-.96,1.7-2.1,2.5-3.46,.11-.21,.2-.32,.26-.33,.03-.01,.12-.01,.37,.14,.83,.52,1.76,.76,2.8,.99,.65,.15,1.26,.13,1.85,.1,.26-.01,.49-.02,.74-.02,.65,.01,1.14-.17,1.43-.51,.3-.36,.38-.87,.25-1.55v-.03c.45,.2,.89,.18,1.29,.16,.22-.02,.44-.03,.64,0,1.12,.16,2.27,.26,3.37,.35,.55,.05,1.1,.1,1.64,.15,.14,.01,.29,.07,.45,.14,.18,.07,.37,.15,.6,.18,0,.06,0,.14-.02,.25-.06,.4-.12,.8-.17,1.21-.13,.84-.25,1.72-.35,2.58v.05c-.32,2.75-.65,5.6-.72,8.43-.01,.39-.03,.79-.05,1.17-.03,.58-.06,1.17-.05,1.76,.01,.92,.08,1.84,.15,2.73,.02,.28,.05,.57,.07,.85,.1,1.34,.34,2.76,.76,4.47,.09,.39,.21,.77,.34,1.14-.04-.03-.08-.05-.12-.08-.44-.3-.85-.58-1.25-.89-3.84-3.04-7.72-5.21-11.87-6.65-.63-.21-1.37-.43-2.16-.42-.16,0-.65,.01-.85,.46-.13,.29-.04,.54,.27,.74,.02,.02,.04,.03,.05,.04,1.1,1.48,2.67,2.29,4.18,3.06,.32,.17,.64,.33,.96,.5,4.63,2.5,8.58,5.33,12.07,8.65,.16,.15,.33,.3,.49,.45,.21,.19,.41,.38,.61,.58,.03,.02,.04,.05,.05,.08-.03-.02-.06-.03-.09-.04-3.17-1.2-6.49-1.74-9.6-2.15-2.08-.27-4.12-.3-6.25-.08h-.09c-.1,.01-.22,.01-.35,.06-.05,.02-.11,.03-.17,.05-.27,.08-.73,.2-.79,.69-.09,.67,.54,.87,.84,.97l.06,.02c1.77,.59,3.59,.87,5.28,1.09,2.14,.28,4.38,.74,6.85,1.41,.25,.07,.5,.14,.76,.21,.99,.26,2.02,.54,2.99,.92,.26,.1,.33,.16,.34,.19,0,.01,.03,.09-.08,.32-.38,.85-.92,1.63-1.45,2.38-.21,.3-.42,.61-.62,.91l-.2,.3c-.77,1.17-1.56,2.37-2.26,3.59-1.52,2.65-3.24,5.81-4.49,9.25-.1,.29-.14,.58-.18,.87-.02,.1-.03,.21-.05,.32-.07,.4,.08,.73,.39,.86,.46,.21,.72-.2,.81-.33,.01-.02,.02-.04,.04-.06l.37-.52c.61-.85,1.23-1.73,1.82-2.61,.28-.41,.58-.82,.87-1.22,.45-.61,.92-1.24,1.31-1.9,.77-1.28,1.64-2.52,2.48-3.72,.55-.77,1.11-1.58,1.64-2.38,.15-.24,.31-.46,.47-.69,.15-.22,.3-.44,.45-.66-.1,.89-.16,1.8-.21,2.67-.05,.93-.11,1.89-.22,2.82-.08,.64-.12,1.3-.15,1.94-.06,.9-.11,1.84-.28,2.72-.07,.34-.07,.67-.06,.99,.01,.59,.01,1.09-.37,1.54-.25,.29-.1,.62,0,.84,.05,.12,.11,.25,.1,.33-.13,.64-.19,1.3-.26,1.96-.09,.97-.24,1.96-.39,2.92-.14,.92-.29,1.87-.39,2.82-.4,3.9-1.06,7.81-1.75,11.8-.1,.55-.16,1.11-.22,1.65-.09,.83-.17,1.62-.38,2.39-.22,.84-.39,1.7-.5,2.56-.15,1.08-.28,2.03-.43,2.91-.2,1.23-.37,2.47-.53,3.68Zm3.83,8.21c-.22,.81-1.06,.8-1.65,1.1-.1,.05-.24,0-.35,.04q-1.08,.34-.91-.75c.25-1.54,.51-3.07,.75-4.6,.06-.36,.23-.54,.59-.62,.79-.17,1.58-.38,2.48-.6-.3,1.86-.43,3.68-.91,5.43Zm4.94-33.68c-.27,2.93-.53,5.86-1.01,8.77-.41,2.47-.68,4.96-1.06,7.43-.45,2.88-.96,5.75-1.4,8.63-.12,.8-.48,1.23-1.28,1.31-.31,.03-.61,.15-.91,.23-.91,.25-1.01,.17-.85-.73,.53-3.04,1.11-6.07,1.63-9.11,.44-2.63,.75-5.29,1.26-7.9,.37-1.89,.5-3.81,.85-5.7,.45-2.41,.66-4.85,1-7.27,.22-1.51,.42-3.03,.57-4.54,.12-1.3,.34-2.62,.3-3.94-.01-.29-.09-.62,.25-.93,.26,2.6,.79,5.08,.76,7.63-.01,.54,.22,1.04,.18,1.62-.08,1.5-.16,3-.29,4.5Zm5.11,22.25c0-.11-.01-.21-.02-.32-.02-.45-.05-.87,.09-1.26,.14-.38,.05-.72-.03-1-.03-.11-.06-.22-.07-.32-.27-2.46-.35-4.91-.43-7.62-.03-1.06-.13-2.13-.23-3.17-.05-.55-.11-1.11-.15-1.66l-.03-.34c-.11-1.47-.23-2.98-.31-4.46-.16-2.89-.43-5.81-.69-8.64l-.21-2.19c-.18-2.01-.37-4.09-.58-6.14-.06-.62-.15-1.25-.24-1.85-.09-.59-.17-1.2-.23-1.79-.1-.96-.17-1.93-.24-2.88-.02-.18-.03-.37-.04-.55,.4,.45,.85,.84,1.29,1.21,.39,.34,.79,.68,1.14,1.06l.18,.19c1.22,1.33,2.49,2.7,4.04,3.73,.03,.02,.06,.04,.09,.06,.19,.13,.64,.46,1.1,.02,.45-.42,.21-.9,.09-1.16l-.04-.08c-.85-1.82-2.1-3.32-3.51-4.95-.24-.27-.47-.56-.7-.84-.5-.62-1.02-1.27-1.64-1.8-.48-.41-.93-.86-1.37-1.3s-.89-.9-1.38-1.32c-.79-.67-1.24-1.52-1.5-2.84-.18-.96-.02-1.46,.67-2.06,1.56-1.35,2.44-3.28,2.7-5.89,.11-1.2,.08-2.4,.05-3.56-.02-.72-.04-1.45-.02-2.18v-.42c.05-1.97,.09-4,.31-5.98,.05-.51,.07-1.02,.08-1.51,.01-.44,.02-.9,.06-1.34,.13-1.3,.28-2.63,.47-4.06,.07-.48,.1-.97,.14-1.45,.02-.38,.05-.78,.09-1.16,.02-.14,.05-.18,.04-.19,0,0,.05-.01,.19,0,.5,.04,1,.07,1.49,.1,.68,.03,1.38,.07,2.07,.15,.63,.07,1.28,.01,1.91-.04,.32-.03,.65-.06,.97-.07,.22-.01,.46,.04,.7,.1,.4,.09,.85,.19,1.32,.02,.59-.21,1.2-.21,1.85-.22,.26,0,.53,0,.8-.02,.4-.02,.79-.04,1.19-.06,.46-.02,.94-.04,1.4-.07,.27-.02,.35,.03,.38,.05,.02,.02,.07,.1,.07,.37-.03,1.6,.39,2.04,2,2.17,2.06,.16,4.11-.03,6.09-.56h.03s.02,.04,.03,.06v.03c.81,1.82,1.98,3.41,3.01,4.81,.35,.48,.82,.86,1.28,1.22,.31,.25,.6,.48,.86,.75,1.64,1.68,3.7,2.66,5.67,3.53,1.2,.53,2.17,.78,3.12,.82l.34,2.3c-.1-.09-.22-.17-.36-.24l-.12-.07c-.54-.28-1.1-.57-1.7-.73-1.58-.44-3.04-1.2-4.29-1.88-2.92-1.6-4.95-3.29-6.39-5.3-.59-.82-1.15-1.69-1.69-2.53-.33-.51-.68-1.04-1.02-1.56-.03-.04-.05-.07-.07-.11-.16-.26-.5-.79-1.14-.56-.51,.18-.79,.62-.8,1.25v.08c.03,.08,.05,.17,.06,.25,.04,.2,.09,.41,.15,.62,.38,1.1,.94,2.54,1.93,3.78,2.49,3.11,4.99,5.22,7.86,6.64,2.35,1.16,4.39,1.88,6.43,2.25,.56,.1,1.04-.13,1.34-.63l.02,.16c.34,2.3,.68,4.61,1.03,6.93,.22,1.51,.45,3.08,.72,4.61,.05,.3,.02,.34-.28,.42-3.48,.87-6.66,1.47-9.75,1.81h-.12c-1.11,.14-2.25,.27-3.37,.47-1.69,.31-2.59,1.49-2.67,3.5-.06,1.52,.03,3.03,.13,4.58,.06,.86,.15,1.73,.24,2.57,.09,.85,.19,1.74,.24,2.61,.11,1.65,.38,3.29,.64,4.88,.11,.65,.23,1.33,.33,1.99,.56,3.81,1.29,7.22,2.22,10.44,.11,.38,.16,.61,.14,.67-.04,.03-.18,.07-.65,.09-2.26,.08-4.09-.07-5.75-.47-.2-.05-.34-.04-.5,.01-1.02,.28-2.03,.07-3.1-.15h-.05c-1.26-.26-2.69-.55-4.03,.23-.14,.08-.25,.1-.49-.07-2.33-1.62-4.98-1.67-7.27-1.51-2.05,.14-3.8,2.14-3.74,4.28l.07,2.15c.08,3,.17,6.1,.23,9.15,.01,.54,.02,1.07,.03,1.61,.04,1.61,.08,3.28,.03,4.92-.02,.86,.05,1.74,.13,2.65,.12,1.31,.89,2.29,2.13,2.7,3.95,1.3,7.12,1.07,9.99-.72,.12-.08,.17-.1,.17-.1,.01,0,.03,.01,.07,.06,1.21,1.52,2.95,1.89,4.5,2.05,2.17,.23,3.91-.18,5.3-1.26,.12-.09,.22-.13,.31-.11,.12,.02,.22,.13,.26,.2,.38,.54,.89,.69,1.35,.83,.13,.03,.26,.07,.39,.12,.62,.23,1.2,.14,1.77,.05,.5-.07,.97-.14,1.42,.03l.09,.04,.1-.02c1.78-.35,3.62-.51,5.4-.68,1.49-.13,3.04-.28,4.55-.52,2.08-.34,3.81-.64,5.55-1.25,3.51-1.23,5.59-3.85,6.19-7.79,.43-2.86,.19-5.84-.75-9.11-.88-3.07-2.8-5.32-5.7-6.66,.46-.09,.88-.26,1.29-.42,.1-.04,.2-.09,.31-.12,.37-.15,.74-.29,1.11-.43,.5-.18,1.01-.37,1.51-.57,.24-.1,.32-.07,.32-.07,.01,0,.06,.04,.13,.31,.11,.4,.22,.81,.33,1.21,.49,1.78,.99,3.63,1.4,5.46,.19,.89,.42,1.78,.63,2.64,.18,.7,.36,1.43,.53,2.14,.68,2.99,1.28,6.04,1.85,9,.14,.7,.27,1.4,.41,2.1q.03,.13-.11,.22c-2.99,1.96-6.42,3.56-11.1,5.17-3.47,1.19-7.22,2.11-11.16,2.73-5.19,.81-9.19,1.08-12.97,.86-2.44-.15-4.58-.35-6.55-.61-2.91-.4-5.77-1.14-8.5-2.21-2.5-.99-2.65-1.2-2.61-3.86,.01-.95-.07-1.9-.15-2.82-.04-.59-.1-1.21-.12-1.81Zm18.78-8.52c-.11-2.07-.26-4.13-.37-6.19-.02-.48-.18-.93-.17-1.41,.01-.68,.34-.97,.96-.92,.72,.05,1.43,.18,2.14,.27,.48,.05,.63,.36,.66,.79,.24,4.36,.48,8.73,.73,13.1,.08,1.32,.25,2.61-.14,3.93-.67,2.3-2.33,3.53-4.74,3.4-2.33-.12-3.88-1.56-4.22-3.93-.3-2.12-.27-4.27-.39-6.4-.2-3.45-.32-6.9-.47-10.35-.04-1.05,.19-1.27,1.24-1.25,2.3,.04,2.29,.07,2.36,2.33,.1,3.17,.25,6.34,.38,9.51,.09,1.47-.02,2.94,.15,4.4,.07,.56,.3,1.01,.83,1.25,.77,.35,1.42-.05,1.39-.9-.1-2.54-.21-5.09-.34-7.63Zm-8.7,1.14c2.12,2.24,2.69,4.92,2.06,7.86-.48,2.23-2,3.4-4.38,3.51-1.39,.06-2.77-.16-4.12-.51-.5-.14-.7-.39-.71-.91-.16-6.35-.25-12.7-.56-19.04-.08-1.53,.13-2.21,2.26-2.31,.99-.04,1.96,.07,2.94,.25,1.79,.33,2.83,1.44,3.43,3.08,.35,.95,.52,1.93,.49,2.87,.07,1.75-.36,3.26-1.57,4.47-.39,.39-.03,.53,.16,.73Zm44.78,18.67c-.93,1.05-2.17,1.66-3.36,2.31-3.58,1.98-7.36,3.47-11.26,4.69-3.08,.97-6.2,1.69-9.38,2.12-3.17,.43-6.33,.86-9.53,.81-4.72-.03-9.37-.72-13.91-1.93-2.06-.55-4.17-1.13-5.96-2.43-.49-.35-.79-.77-.87-1.4-.21-1.52-.41-3.03-.4-4.56,0-.27-.08-.57,.28-.74,.34-.17,.41,.15,.59,.25,1.27,.73,2.65,1.15,4.02,1.63,1.87,.65,3.82,.92,5.76,1.26,1.95,.33,3.92,.46,5.89,.55,1.58,.08,3.16,.06,4.73,.03,9.33-.18,18.26-2.19,26.82-5.86,1.63-.69,3.14-1.65,4.81-2.27,.34-.12,.46-.85,.96-.46,.32,.24,.12,.73,.18,1.1,.24,1.41,.48,2.82,.82,4.21,.07,.27,.01,.47-.19,.69Z"/>
      <path class="cls-2" d="M72.81,47.47c.02,.42-.32,.61-.5,.71h-.03c-.48,.29-1.01,.56-1.6,.71-.33,.08-.67,.18-1.01,.27-.99,.28-2.01,.57-3.08,.63-.05,0-.12,.03-.21,.07-.18,.08-.42,.19-.76,.15-.29,.17-.63,.17-.96,.17-.15,0-.3,0-.44,.01l-.81,.08c-1.74,.19-3.54,.38-5.34,.38-.31,0-.63,0-.94-.02-.16,0-.3-.03-.45-.06-.05-.02-.1-.03-.16-.04h-.03c-.38-.07-1.1-.2-1.12-.9-.03-.67,.62-.88,1.01-1.01h.04c2.65-.9,5.36-1.32,7.91-1.67h.03c1.94-.27,3.95-.54,5.97-.46,.7,.03,1.28,.13,1.85,.32,.21,.08,.61,.21,.63,.66Z"/>
      <path class="cls-2" d="M65.12,97.7c0-.74,.02-1.49,0-2.23-.01-.36,.1-.43,.45-.42,1.04,.03,1.84,.62,2.13,1.69,.2,.75,.24,1.51,.04,2.27-.32,1.17-1.06,1.63-2.25,1.44-.36-.06-.33-.27-.33-.51,0-.74,0-1.49,0-2.23-.01,0-.02,0-.03,0Z"/>
      <path class="cls-2" d="M64.97,87.98c0-.65,.02-1.3,0-1.94-.02-.39,.1-.47,.49-.41,.99,.13,1.55,.55,1.84,1.53,.23,.75,.24,1.51-.02,2.25-.17,.47-.42,.88-.94,1.09-.92,.38-1.33,.16-1.35-.79,0-.29,0-.58-.01-.86,0-.29,0-.58,0-.86,0,0,0,0,0,0Z"/>
      <path class="cls-2" d="M99.42,87.75c2.59,.25,2.99,2.22,3.36,4.11,.25,1.29,.28,2.63,.04,3.94-.18,.96-.48,1.85-1.43,2.35-.64,.34-.99,.14-1.06-.56-.3-3.27-.61-6.53-.91-9.84Z"/>
    </g>
  </g>
</svg>