<?xml version="1.0" encoding="UTF-8"?>
<svg id="Capa_2" data-name="Capa 2" xmlns="http://www.w3.org/2000/svg" viewBox="0 0 161.88 124.56">
  <defs>
    <style>
      .cls-1 {
        fill: #fff;
      }

      .cls-2 {
        fill: #3ab4fd;
      }
    </style>
  </defs>
  <g id="LOGOTIPOS">
    <g>
      <path d="M30.44,95.73c-.3-.18-.56-.34-.83-.5-4.21-2.56-7.96-5.66-10.97-9.59-3.58-4.68-5.78-9.97-6.69-15.79-.68-4.33-.34-8.54,1.48-12.57,1.68-3.7,3.39-7.39,5.08-11.08,.69-1.51,1.47-2.99,1.94-4.6,.46-1.6,1.45-2.89,2.79-3.88,1.56-1.16,3.37-1.81,5.23-2.26,2.89-.69,5.86-.94,8.82-1.21,3.1-.29,6.21-.54,9.32-.76,3.61-.25,7.21-.41,10.83-.15,3.89,.28,7.52,1.33,10.77,3.55,1.96,1.33,3.9,2.68,5.85,4.04,.26,.18,.45,.2,.74,.02,2.24-1.36,4.47-2.74,6.75-4.03,5.97-3.37,12.15-6.3,18.66-8.51,4.57-1.55,9.26-2.47,14.1-2.34,1.98,.05,3.95,.23,5.92,.47,2.94,.36,5.84,.97,8.59,2.11,4.99,2.07,9.45,5.01,13.45,8.63,3.14,2.84,5.65,6.18,7.46,10.01,2.87,6.08,3.31,12.43,1.96,18.94-1.69,8.16-5.61,15.15-11.44,21.08-.24,.25-.32,.44-.22,.79,.88,3.16,1.63,6.35,1.94,9.62,.05,.58,.1,1.15,.16,1.8,.09-.12,.13-.17,.16-.22,2.69-4.36,5.39-8.72,8.06-13.09,1.96-3.2,3.77-6.47,5.16-9.96,1.72-4.32,2.57-8.84,2.86-13.45,.27-4.32,.38-8.66,.49-12.99,.05-2.04-.04-4.09-.12-6.14-.15-3.84-.59-7.65-1.45-11.41-1.07-4.67-3.16-8.78-6.69-12.07-1.97-1.83-4.07-3.51-6.11-5.26-1.21-1.04-2.51-1.94-3.97-2.63-1.05-.5-2.04-1.11-3.08-1.63-.29-.15-.67-.24-.98-.2-4.7,.7-9.4,1.39-14.08,2.14-5.71,.92-11.32,2.27-16.83,4.06-4.72,1.54-9.31,3.42-13.79,5.54-2.62,1.24-5.26,2.46-7.64,4.15-2.24,1.58-4.52,3.11-6.78,4.67-.66,.45-1.46,.4-1.98-.15-1.43-1.51-3.07-2.75-4.83-3.83-4.23-2.6-8.75-4.6-13.37-6.39-5.72-2.22-11.6-3.82-17.68-4.69-2.59-.37-5.18-.79-7.76-1.28-1.82-.35-3.45-.22-4.86,1.11-1.88,1.77-3.86,3.44-5.67,5.28-5.79,5.93-10.1,12.82-13.05,20.56-2.2,5.76-3.36,11.76-4.17,17.85-.5,3.72-.83,7.45-.88,11.2-.04,2.6,.07,5.19,.42,7.77,.47,3.45,1.26,6.84,2.28,10.17,1.53,4.97,3.1,9.92,4.66,14.88,.23,.73,.46,1.45,.72,2.27,.06-.18,.09-.25,.11-.32,.64-2.05,1.19-4.14,1.95-6.15,1.03-2.72,2.22-5.38,3.37-8.06,.26-.6,.84-.89,1.47-.82,.74,.08,1.21,.48,1.35,1.16,.09,.42,.17,.84,.25,1.26,.87,4.49,1.75,8.98,2.62,13.47,.22,1.14,.45,2.27,.67,3.41,2.13-4.86,4.58-9.52,7.5-13.98Zm3.63-58.08s0,.05,0,.08c.12,.06,.23,.11,.35,.17,12.59,5.5,25.19,11,37.78,16.51,1.53,.67,3.12,1.21,4.51,2.17,.09,.06,.23,.07,.34,.08,2.9,.33,5.8,.33,8.7,.06,1.06-.1,2.14-.14,3.05-.83,.16-.12,.36-.18,.54-.26,13.97-6.1,27.93-12.2,41.9-18.29,.99-.43,2.01-.79,3.04-1.12,.46-.15,.97-.15,1.56-.23-.65-.43-1.22-.82-1.8-1.2-3.74-2.46-7.74-4.27-12.2-4.95-2.45-.38-4.91-.67-7.38-.7-2.17-.03-4.34,.02-6.48,.41-4,.73-7.85,1.99-11.61,3.52-7.17,2.93-13.92,6.63-20.45,10.77-.08,.05-.16,.1-.23,.16-.75,.66-1.34,.72-2.17,.17-1.55-1.03-3.06-2.11-4.62-3.13-1.61-1.05-3.2-2.17-4.9-3.05-2.53-1.31-5.33-1.63-8.14-1.73-3.74-.14-7.46,.17-11.19,.43-2.9,.2-5.79,.5-8.68,.76-.63,.06-1.27,.13-1.9,.2Zm-11.69,8.31c-.03,.06-.05,.08-.05,.1,0,.11,0,.21,0,.32-.11,1.46,.17,2.87,.55,4.27,2.76,10.43,7.91,19.51,15.37,27.29,.14,.15,.34,.27,.53,.35,6.39,2.8,12.79,5.59,19.18,8.38,1.65,.72,3.37,1.15,5.16,1.22,4.26,.17,7.95-1.22,11.04-4.14,2.73-2.58,4.26-5.77,4.53-9.52,.12-1.63,.05-3.27,.08-4.9,0-.33-.1-.49-.4-.62-6.81-2.76-13.63-5.53-20.44-8.3-11.28-4.59-22.56-9.18-33.84-13.77-.57-.23-1.13-.46-1.7-.69Zm119.51,.04c-.17,.06-.3,.11-.43,.16-9.42,3.83-18.85,7.67-28.27,11.5-9.1,3.7-18.2,7.41-27.31,11.1-.32,.13-.41,.3-.4,.62,.02,.88-.02,1.77,.01,2.65,.04,1.19,0,2.39,.21,3.56,1.58,9.38,11.66,15.02,20.57,11.13,6.26-2.73,12.52-5.47,18.79-8.19,.49-.21,.9-.49,1.26-.88,7.53-7.96,12.61-17.24,15.28-27.87,.31-1.24,.35-2.47,.29-3.78ZM123.45,9.35c-.21-.09-.32-.14-.44-.18-3.11-1.14-6.23-2.27-9.34-3.41-.3-.11-.54-.11-.83,.02-5.11,2.2-10.2,4.43-15.34,6.56-5.83,2.42-11.69,4.74-17.54,7.11-.47,.19-.9,.17-1.35-.06-.8-.41-1.61-.78-2.41-1.18-4.42-2.2-8.82-4.43-13.25-6.59-3.96-1.93-8.02-3.6-12.25-4.85-.47-.14-.82-.08-1.22,.21-2.72,1.98-5.45,3.93-8.17,5.9-.1,.07-.2,.16-.36,.28,.13,.03,.19,.04,.25,.05,1.89,.36,3.8,.66,5.67,1.1,7.01,1.64,13.66,4.3,20.14,7.38,3.45,1.64,6.71,3.62,9.63,6.15,.11-.08,.24-.15,.36-.24,2.26-1.53,4.49-3.11,6.79-4.57,3.02-1.92,6.3-3.35,9.54-4.84,8.4-3.87,17.17-6.57,26.28-8.13,1.25-.21,2.49-.44,3.84-.68Zm-37.92,57.03c.18-.07,.35-.14,.52-.2,7.39-3.01,14.78-6.02,22.17-9.03,11.09-4.51,22.18-9.03,33.28-13.53,.25-.1,.34-.2,.28-.5-.73-3.67-4.77-5.76-8.26-4.24-4.43,1.92-8.85,3.86-13.27,5.79-10.04,4.39-20.09,8.76-30.13,13.18-3.1,1.37-5.04,4.57-4.59,8.53ZM23.07,43.71c18.57,7.56,37.09,15.09,55.62,22.63,.04-.09,.06-.11,.06-.13,0-.32,.01-.64,0-.96-.07-3.59-1.76-6.17-5.02-7.6-13.28-5.84-26.58-11.62-39.87-17.42-1.32-.58-2.66-1.13-3.99-1.67-.25-.1-.57-.18-.82-.12-1.27,.29-2.44,.8-3.42,1.68-1.1,.99-1.84,2.25-2.56,3.59ZM85.21,14.13c-1.96-.83-3.85-1.62-5.72-2.43-6.34-2.74-12.68-5.48-19.02-8.23-.28-.12-.47-.11-.7,.11-.73,.67-1.48,1.31-2.23,1.96-.09,.08-.21,.11-.32,.16,.19,.16,.28,.19,.36,.23,3.43,1.56,6.89,3.05,10.28,4.68,3.75,1.8,7.44,3.71,11.15,5.58,.28,.14,.52,.17,.82,.04,.9-.38,1.82-.71,2.73-1.06,.87-.34,1.73-.69,2.65-1.05Zm-6.28-6.07s.02,.08,.03,.11c.06,.03,.12,.06,.18,.09,3.28,1.34,6.56,2.68,9.82,4.04,.32,.13,.57,.1,.87-.03,2.83-1.19,5.67-2.38,8.5-3.57,1.04-.44,2.08-.89,3.24-1.38-.23-.05-.34-.08-.45-.09-2.71-.28-5.42-.65-8.14-.82-3.75-.24-7.49-.06-11.17,.83-.97,.23-1.92,.54-2.88,.82Zm62.98,49.01c-2.61,6.84-6.19,13.09-10.81,18.76,.12-.01,.22-.05,.32-.09,2.61-1.14,5.22-2.28,7.83-3.42,1.8-.78,2.66-2.16,2.66-4.09,0-3.59,0-7.18,0-10.77v-.39Zm-108.85,18.72c-4.57-5.69-8.14-11.92-10.74-18.72v.44c0,3.59,0,7.18,0,10.77,0,1.89,.87,3.21,2.59,3.97,2.55,1.12,5.1,2.23,7.64,3.34,.17,.07,.34,.13,.51,.2Zm4.81,23.5c-1.54-.67-3.02-1.32-4.52-1.97-.32,1.84,1.14,9.33,2.09,10.71,.51-3.01,1.32-5.91,2.43-8.74Zm41.4-40.1c1.51,2.22,1.96,4.62,1.79,7.17h2.11c-.19-2.6,.31-5.02,1.81-7.17h-5.7Zm53.83,39.64c.79-2.46,1.56-4.86,2.34-7.3-1.47,.96-2.89,1.88-4.33,2.82,.65,1.46,1.3,2.93,1.99,4.48Zm-7.35,4.54c.53-2.31,.99-4.66,1.4-7.08-1.06,.44-2.02,.83-2.93,1.21,.51,1.98,1.02,3.92,1.53,5.87Zm35.83-62.1c-.24-3.93-.75-7.83-1.85-11.63-1.4-4.8-3.94-8.89-7.67-12.2-2.38-2.11-4.85-4.14-7.32-6.14-.75-.61-1.65-1.02-2.5-1.5-1-.56-2.06-1.03-3.03-1.65-1.03-.66-2.11-.81-3.27-.65-1.92,.26-3.84,.56-5.76,.82-.29,.04-.62,.01-.89-.09-5.04-1.84-10.06-3.68-15.09-5.54-.69-.25-1.34-.26-2.02,.05-1.68,.76-3.38,1.48-5.08,2.2-.18,.08-.42,.1-.61,.07-4.39-.7-8.78-1.39-13.22-1.62-3.51-.18-7-.06-10.48,.55-2.55,.45-4.97,1.26-7.31,2.34-.29,.13-.52,.14-.82,0-4.75-2.04-9.51-4.06-14.27-6.09-.14-.06-.29-.12-.43-.19h-.32c-.94,.28-1.52,1.05-2.23,1.65-1.08,.9-2.13,1.83-3.18,2.76-.17,.15-.32,.18-.54,.1-.73-.24-1.48-.46-2.22-.69-1.38-.44-2.61-.2-3.77,.68-1.62,1.23-3.28,2.4-4.94,3.59-1.94,1.4-3.89,2.8-5.84,4.19-.15,.11-.4,.16-.58,.13-1.85-.27-3.7-.57-5.55-.85-1.91-.29-3.6,.2-5.12,1.37-2.31,1.77-4.47,3.71-6.49,5.81-4.24,4.4-7.81,9.29-10.66,14.7-2.83,5.37-4.82,11.03-6.1,16.96C1.14,56.31,.4,62.29,.12,68.33c-.03,.59-.03,1.18-.06,1.76,0,.13-.04,.25-.06,.38v1.77c.02,.11,.06,.23,.06,.34,.07,4.43,.6,8.82,1.76,13.09,1.25,4.62,2.69,9.18,4.09,13.75,1.26,4.08,2.61,8.15,3.89,12.22,.24,.75,.61,1.3,1.43,1.43,.83,.14,1.46-.25,1.63-1.08,.59-3.02,1.29-6.01,2.26-8.94,.64-1.94,1.37-3.85,2.07-5.78,.03-.09,.07-.17,.16-.37,.15,.77,.28,1.43,.41,2.08,1.08,5.55,2.16,11.1,3.24,16.65,.15,.78,.54,1.16,1.23,1.22,.77,.07,1.46-.37,1.74-1.09,.74-1.92,1.45-3.85,2.24-5.75,1.19-2.86,2.59-5.61,4.13-8.29,.06-.1,.12-.2,.24-.39,.08,.44,.14,.79,.2,1.15,.69,4.12,2.07,7.99,4.12,11.62,.07,.12,.13,.23,.2,.34,.39,.63,.97,.88,1.63,.72,.72-.18,1.15-.72,1.22-1.46,.17-1.87,.3-3.74,.58-5.58,.39-2.66,1.16-5.22,2.15-7.71,.02-.05,.05-.09,.08-.14,1.15,.33,2.29,.67,3.44,.98,3.82,1.02,7.7,1.7,11.63,2.16,4.34,.51,8.69,.76,13.05,.91,1.14,.04,2.27,.07,3.41,.11,.08,0,.16,.02,.35,.04,0,.84,.02,1.68,0,2.51-.05,2.14-.53,4.2-1.36,6.15-.8,1.9-1.93,3.6-3.35,5.11-1.29,1.35-2.74,2.48-4.38,3.36-.63,.34-.97,.83-.94,1.54,.04,.69,.46,1.11,1.09,1.33,.02,.01,.04,.03,.06,.05h.72c5.01-2.6,8.42-6.58,10.2-11.94,.04-.11,.07-.23,.1-.31,4.7,2.75,9.43,2.93,14.28,.39,.3,.73,.61,1.57,.99,2.37,1.93,3.94,4.84,6.95,8.7,9.06,.65,.36,1.44,.26,1.9-.2,.44-.44,.57-1.27,.22-1.82-.17-.26-.45-.5-.72-.66-3.48-1.93-6.05-4.69-7.66-8.33-.89-2.01-1.35-4.14-1.42-6.34-.03-.93,0-1.87,0-2.83,10.29-.87,20.4-2.29,30.29-5.38,.3,1.03,.62,2.03,.89,3.05,.87,3.36,1.1,6.78,.84,10.23-.09,1.24,.79,2.09,1.9,1.8,.55-.14,.87-.55,1.07-1.06,1.11-2.81,2.07-5.68,2.72-8.64,.35-1.59,.65-3.19,.97-4.79,.01-.06,.03-.12,.08-.29,.1,.2,.16,.31,.21,.44,.89,2.13,1.62,4.3,1.89,6.61,.1,.85,.75,1.46,1.46,1.45,.85-.02,1.53-.63,1.55-1.48,.08-2.67,.78-5.2,1.58-7.72,.52-1.64,1.07-3.27,1.7-4.92,.12,.59,.25,1.18,.35,1.77,.46,2.52,.59,5.07,.66,7.63,.02,.72,.05,1.44,.06,2.17,.02,.75,.46,1.33,1.15,1.52,.72,.19,1.33-.06,1.73-.74,2.21-3.7,4.39-7.41,6.62-11.1,1.8-2.98,3.69-5.9,5.45-8.89,2.19-3.7,4.06-7.56,5.32-11.69,.85-2.78,1.34-5.62,1.58-8.51,.25-3.04,.49-6.08,.63-9.13,.22-4.99,.15-9.98-.16-14.97Zm-13.54,27.01c-1.82,6.31-5.05,11.8-9.57,16.54-3.92,4.13-8.63,7.07-13.85,9.25-.93,.39-1.91,.69-2.85,1.06-3.78,1.47-7.7,2.42-11.67,3.15-3.81,.7-7.65,1.29-11.49,1.82-2.58,.36-5.19,.53-7.79,.78-.15,.02-.35,.02-.56,.03-.48,.04-.48,.04-1.17,.09-.3,.02-.55,.03-.82,.05-.04,0-.08,0-.12,0-2.77,.11-5.53,.22-8.3,.29-1.81,.05-3.62,.05-5.42,.03-2.46-.03-4.92-.07-7.38-.16-6.91-.26-13.78-.84-20.53-2.47-6.59-1.59-12.78-4.08-18.31-8.07-5.53-3.99-9.61-9.1-11.86-15.59-1.05-3.03-1.64-6.14-1.7-9.35-.05-2.26,.4-4.42,1.29-6.48,1.27-2.93,2.57-5.85,3.86-8.77,.03-.06,.06-.11,.17-.16v.42c0,5.8,0,11.6,0,17.4,0,3.01,1.39,5.11,4.15,6.31,10.92,4.77,21.84,9.53,32.75,14.31,9.67,4.24,20.77-1.01,23.6-11.16,.41-1.46,.61-2.96,.61-4.48,0-1.45,0-2.89,0-4.38h2.04c.01,.19,.02,.35,.02,.5,0,1.57-.06,3.14,.04,4.7,.41,6.37,3.42,11.17,8.98,14.24,4.89,2.7,10.02,2.86,15.15,.63,10.95-4.75,21.89-9.55,32.83-14.32,2.73-1.2,4.1-3.29,4.1-6.26,.01-7.88,0-15.75,0-23.63v-.47c.07,.04,.11,.05,.13,.07,2.55,3.56,4.25,7.47,4.77,11.85,.5,4.15,.06,8.23-1.1,12.23Z"/>
      <path class="cls-2" d="M30.44,95.73c-2.92,4.46-5.38,9.12-7.5,13.98-.22-1.14-.45-2.27-.67-3.41-.87-4.49-1.75-8.98-2.62-13.47-.08-.42-.16-.84-.25-1.26-.15-.68-.61-1.08-1.35-1.16-.63-.07-1.21,.22-1.47,.82-1.14,2.68-2.33,5.34-3.37,8.06-.76,2.01-1.31,4.1-1.95,6.15-.02,.07-.05,.15-.11,.32-.26-.82-.49-1.55-.72-2.27-1.56-4.96-3.14-9.91-4.66-14.88-1.02-3.33-1.81-6.71-2.28-10.17-.35-2.58-.46-5.17-.42-7.77,.06-3.75,.38-7.48,.88-11.2,.81-6.08,1.97-12.09,4.17-17.85,2.96-7.74,7.27-14.63,13.05-20.56,1.8-1.85,3.78-3.52,5.67-5.28,1.41-1.32,3.05-1.45,4.86-1.11,2.57,.49,5.16,.91,7.76,1.28,6.08,.87,11.96,2.48,17.68,4.69,4.62,1.79,9.14,3.79,13.37,6.39,1.76,1.08,3.4,2.32,4.83,3.83,.52,.55,1.32,.6,1.98,.15,2.26-1.55,4.54-3.08,6.78-4.67,2.39-1.69,5.02-2.9,7.64-4.15,4.48-2.13,9.07-4.01,13.79-5.54,5.5-1.79,11.11-3.14,16.83-4.06,4.69-.75,9.39-1.45,14.08-2.14,.31-.05,.69,.05,.98,.2,1.04,.52,2.03,1.14,3.08,1.63,1.45,.69,2.76,1.59,3.97,2.63,2.04,1.75,4.15,3.43,6.11,5.26,3.52,3.28,5.62,7.4,6.69,12.07,.86,3.76,1.3,7.57,1.45,11.41,.08,2.05,.17,4.1,.12,6.14-.11,4.33-.21,8.67-.49,12.99-.29,4.61-1.13,9.13-2.86,13.45-1.39,3.49-3.21,6.76-5.16,9.96-2.67,4.37-5.37,8.73-8.06,13.09-.03,.05-.07,.1-.16,.22-.06-.65-.11-1.23-.16-1.8-.31-3.27-1.06-6.46-1.94-9.62-.1-.35-.02-.55,.22-.79,5.83-5.93,9.74-12.92,11.44-21.08,1.35-6.5,.91-12.86-1.96-18.94-1.81-3.84-4.32-7.17-7.46-10.01-4-3.62-8.45-6.56-13.45-8.63-2.75-1.14-5.65-1.75-8.59-2.11-1.96-.24-3.94-.42-5.92-.47-4.84-.13-9.53,.79-14.1,2.34-6.5,2.21-12.68,5.14-18.66,8.51-2.28,1.29-4.51,2.67-6.75,4.03-.29,.17-.47,.16-.74-.02-1.94-1.36-3.89-2.71-5.85-4.04-3.25-2.21-6.88-3.27-10.77-3.55-3.62-.26-7.22-.1-10.83,.15-3.11,.22-6.22,.47-9.32,.76-2.96,.27-5.93,.52-8.82,1.21-1.86,.44-3.67,1.1-5.23,2.26-1.34,.99-2.33,2.28-2.79,3.88-.47,1.62-1.25,3.09-1.94,4.6-1.68,3.7-3.4,7.38-5.08,11.08-1.83,4.03-2.16,8.24-1.48,12.57,.91,5.82,3.11,11.11,6.69,15.79,3.01,3.93,6.76,7.03,10.97,9.59,.26,.16,.52,.32,.83,.5Z"/>
      <path class="cls-1" d="M83.96,96.13c.5-.09,1.43-.2,2.34-.42,.86-.2,1.34-1.07,1.12-1.85-.24-.83-1.06-1.27-1.92-1.07-.44,.1-.89,.22-1.34,.25-2.39,.15-4.44-.6-6.12-2.34-.43-.44-.97-.55-1.55-.38-.54,.16-.85,.55-.98,1.07-.16,.63,.06,1.15,.52,1.6,2.08,2.06,4.61,3.04,7.95,3.13Z"/>
      <path class="cls-1" d="M148.05,68.29c-1.82,6.31-5.05,11.8-9.57,16.54-3.92,4.13-8.63,7.07-13.85,9.25-.93,.39-1.91,.69-2.85,1.06-3.78,1.47-7.7,2.42-11.67,3.15-3.81,.7-7.65,1.29-11.49,1.82-2.58,.36-5.19,.53-7.79,.78-.15,.02-.35,.02-.56,.03-.48,.04-.48,.04-1.17,.09-.3,.02-.55,.03-.82,.05-.04,0-.08,0-.12,0-2.77,.11-5.53,.22-8.3,.29-1.81,.05-3.62,.05-5.42,.03-2.46-.03-4.92-.07-7.38-.16-6.91-.26-13.78-.84-20.53-2.47-6.59-1.59-12.78-4.08-18.31-8.07-5.53-3.99-9.61-9.1-11.86-15.59-1.05-3.03-1.64-6.14-1.7-9.35-.05-2.26,.4-4.42,1.29-6.48,1.27-2.93,2.57-5.85,3.86-8.77,.03-.06,.06-.11,.17-.16v.42c0,5.8,0,11.6,0,17.4,0,3.01,1.39,5.11,4.15,6.31,10.92,4.77,21.84,9.53,32.75,14.31,9.67,4.24,20.77-1.01,23.6-11.16,.41-1.46,.61-2.96,.61-4.48,0-1.45,0-2.89,0-4.38h2.04c.01,.19,.02,.35,.02,.5,0,1.57-.06,3.14,.04,4.7,.41,6.37,3.42,11.17,8.98,14.24,4.89,2.7,10.02,2.86,15.15,.63,10.95-4.75,21.89-9.55,32.83-14.32,2.73-1.2,4.1-3.29,4.1-6.26,.01-7.88,0-15.75,0-23.63v-.47c.07,.04,.11,.05,.13,.07,2.55,3.56,4.25,7.47,4.77,11.85,.5,4.15,.06,8.23-1.1,12.23Z"/>
      <path class="cls-1" d="M34.07,37.65c.63-.07,1.26-.14,1.9-.2,2.89-.26,5.78-.56,8.68-.76,3.72-.26,7.45-.58,11.19-.43,2.81,.11,5.61,.43,8.14,1.73,1.7,.88,3.29,2,4.9,3.05,1.56,1.02,3.07,2.1,4.62,3.13,.83,.55,1.42,.48,2.17-.17,.07-.06,.15-.11,.23-.16,6.53-4.14,13.29-7.85,20.45-10.77,3.76-1.53,7.6-2.8,11.61-3.52,2.14-.39,4.31-.44,6.48-.41,2.48,.04,4.93,.33,7.38,.7,4.47,.69,8.47,2.49,12.2,4.95,.58,.38,1.15,.76,1.8,1.2-.59,.08-1.1,.08-1.56,.23-1.03,.33-2.05,.69-3.04,1.12-13.97,6.09-27.94,12.19-41.9,18.29-.18,.08-.38,.15-.54,.26-.91,.69-1.99,.73-3.05,.83-2.9,.27-5.8,.28-8.7-.06-.12-.01-.25-.02-.34-.08-1.39-.96-2.98-1.51-4.51-2.17-12.59-5.51-25.19-11.01-37.78-16.51-.12-.05-.23-.11-.35-.17,0-.03,0-.05,0-.08Z"/>
      <path class="cls-1" d="M22.38,45.96c.56,.23,1.13,.46,1.7,.69,11.28,4.59,22.56,9.18,33.84,13.77,6.81,2.77,13.62,5.54,20.44,8.3,.31,.12,.41,.29,.4,.62-.04,1.63,.03,3.27-.08,4.9-.27,3.75-1.8,6.95-4.53,9.52-3.08,2.91-6.78,4.31-11.04,4.14-1.8-.07-3.52-.5-5.16-1.22-6.4-2.79-12.79-5.59-19.18-8.38-.19-.08-.38-.2-.53-.35-7.46-7.78-12.61-16.86-15.37-27.29-.37-1.41-.65-2.81-.55-4.27,0-.11,0-.21,0-.32,0-.02,.02-.05,.05-.1Zm45.62,20.45c-.09,.41-.16,.77-.25,1.11-.39,1.63-1.2,2.97-2.64,3.87-1.88,1.18-4.09,.66-5.24-1.21-.64-1.04-.91-2.18-.75-3.38,.12-.89,.38-1.77,.59-2.69-9.43-2.6-18.92-5.22-28.42-7.84-.02,.1-.03,.13-.03,.17-.14,3.48,.43,6.83,1.82,10.02,2.88,6.6,7.71,11.31,14.18,14.34,5.27,2.47,10.78,3.26,16.5,1.94,4.93-1.14,8.92-3.73,11.72-8.01,1.12-1.72,1.88-3.59,2.4-5.6-3.29-.91-6.56-1.81-9.88-2.73Z"/>
      <path class="cls-1" d="M141.89,46.01c.06,1.31,.02,2.54-.29,3.78-2.67,10.62-7.75,19.91-15.28,27.87-.37,.39-.78,.67-1.26,.88-6.26,2.72-12.52,5.46-18.79,8.19-8.91,3.89-18.99-1.75-20.57-11.13-.2-1.17-.17-2.37-.21-3.56-.03-.88,0-1.77-.01-2.65,0-.32,.08-.49,.4-.62,9.11-3.69,18.21-7.4,27.31-11.1,9.42-3.83,18.85-7.67,28.27-11.5,.13-.05,.27-.1,.43-.16Zm-45.67,20.41c-3.32,.91-6.59,1.82-9.85,2.72,0,.08,0,.12,.02,.16,.06,.21,.12,.41,.18,.62,1.57,5.26,4.85,9.08,9.8,11.43,4.25,2.02,8.73,2.42,13.33,1.71,4.4-.68,8.42-2.35,12.01-4.98,6.59-4.83,10.7-11.14,11.27-19.47,.05-.75,0-1.51,0-2.33-9.54,2.63-19.02,5.25-28.53,7.88,.15,.45,.28,.82,.4,1.21,.5,1.66,.44,3.29-.46,4.81-1.07,1.8-3.12,2.38-4.98,1.4-1.45-.77-2.33-2.02-2.8-3.56-.15-.5-.24-1.01-.38-1.58Z"/>
      <path class="cls-2" d="M123.45,9.35c-1.35,.24-2.59,.47-3.84,.68-9.12,1.56-17.88,4.26-26.28,8.13-3.24,1.49-6.52,2.92-9.54,4.84-2.3,1.46-4.53,3.04-6.79,4.57-.12,.08-.24,.16-.36,.24-2.92-2.53-6.18-4.51-9.63-6.15-6.48-3.08-13.13-5.74-20.14-7.38-1.87-.44-3.78-.73-5.67-1.1-.06-.01-.12-.02-.25-.05,.16-.12,.25-.21,.36-.28,2.73-1.96,5.46-3.92,8.17-5.9,.4-.29,.75-.35,1.22-.21,4.23,1.25,8.29,2.93,12.25,4.85,4.44,2.16,8.84,4.39,13.25,6.59,.8,.4,1.62,.77,2.41,1.18,.45,.23,.88,.25,1.35,.06,5.85-2.37,11.71-4.69,17.54-7.11,5.14-2.13,10.23-4.36,15.34-6.56,.29-.13,.54-.13,.83-.02,3.11,1.15,6.23,2.28,9.34,3.41,.12,.04,.23,.1,.44,.18Z"/>
      <path class="cls-2" d="M85.53,66.38c-.44-3.96,1.49-7.16,4.59-8.53,10.03-4.42,20.08-8.79,30.13-13.18,4.42-1.93,8.84-3.87,13.27-5.79,3.49-1.52,7.53,.56,8.26,4.24,.06,.3-.03,.39-.28,.5-11.09,4.51-22.19,9.02-33.28,13.53-7.39,3.01-14.78,6.02-22.17,9.03-.17,.07-.34,.13-.52,.2Z"/>
      <path class="cls-2" d="M23.07,43.71c.72-1.35,1.46-2.6,2.56-3.59,.98-.88,2.15-1.4,3.42-1.68,.25-.06,.57,.02,.82,.12,1.34,.54,2.67,1.09,3.99,1.67,13.29,5.8,26.59,11.59,39.87,17.42,3.26,1.43,4.94,4.01,5.02,7.6,0,.32,0,.64,0,.96,0,.02-.02,.05-.06,.13-18.53-7.54-37.05-15.08-55.62-22.63Z"/>
      <path class="cls-2" d="M85.21,14.13c-.92,.36-1.78,.71-2.65,1.05-.91,.36-1.83,.69-2.73,1.06-.3,.13-.54,.1-.82-.04-3.71-1.87-7.4-3.78-11.15-5.58-3.4-1.63-6.85-3.13-10.28-4.68-.08-.04-.17-.08-.36-.23,.11-.05,.23-.09,.32-.16,.75-.65,1.51-1.29,2.23-1.96,.24-.22,.42-.24,.7-.11,6.34,2.75,12.68,5.49,19.02,8.23,1.88,.81,3.76,1.6,5.72,2.43Z"/>
      <path class="cls-2" d="M78.93,8.06c.96-.28,1.91-.59,2.88-.82,3.67-.89,7.41-1.07,11.17-.83,2.72,.17,5.43,.54,8.14,.82,.11,.01,.22,.04,.45,.09-1.15,.49-2.19,.94-3.24,1.38-2.83,1.19-5.67,2.38-8.5,3.57-.29,.12-.54,.16-.87,.03-3.27-1.36-6.55-2.7-9.82-4.04-.06-.03-.12-.06-.18-.09,0-.04-.02-.08-.03-.11Z"/>
      <path class="cls-2" d="M141.91,57.07v.39c0,3.59,0,7.18,0,10.77,0,1.94-.87,3.32-2.66,4.09-2.61,1.13-5.22,2.28-7.83,3.42-.09,.04-.19,.08-.32,.09,4.61-5.67,8.2-11.92,10.81-18.76Z"/>
      <path class="cls-2" d="M33.06,75.79c-.17-.07-.34-.13-.51-.2-2.55-1.11-5.1-2.22-7.64-3.34-1.72-.76-2.59-2.08-2.59-3.97,0-3.59,0-7.18,0-10.77v-.44c2.6,6.8,6.17,13.03,10.74,18.72Z"/>
      <path class="cls-2" d="M37.87,99.29c-1.11,2.83-1.92,5.74-2.43,8.74-.95-1.37-2.41-8.87-2.09-10.71,1.49,.65,2.98,1.3,4.52,1.97Z"/>
      <path class="cls-2" d="M79.28,59.2h5.7c-1.5,2.15-2,4.56-1.81,7.17h-2.11c.17-2.55-.28-4.95-1.79-7.17Z"/>
      <path class="cls-2" d="M133.11,98.84c-.69-1.55-1.34-3.02-1.99-4.48,1.44-.94,2.86-1.86,4.33-2.82-.78,2.44-1.55,4.84-2.34,7.3Z"/>
      <path class="cls-2" d="M125.75,103.38c-.51-1.95-1.01-3.89-1.53-5.87,.9-.37,1.86-.77,2.93-1.21-.41,2.42-.87,4.77-1.4,7.08Z"/>
      <path d="M83.96,96.13c-3.34-.09-5.86-1.07-7.95-3.13-.45-.45-.67-.97-.52-1.6,.13-.53,.44-.91,.98-1.07,.59-.17,1.13-.07,1.55,.38,1.68,1.74,3.73,2.49,6.12,2.34,.45-.03,.9-.14,1.34-.25,.87-.21,1.68,.24,1.92,1.07,.23,.78-.25,1.64-1.12,1.85-.91,.21-1.83,.33-2.34,.42Z"/>
      <path d="M68,66.41c3.32,.92,6.59,1.82,9.88,2.73-.52,2.01-1.27,3.89-2.4,5.6-2.81,4.28-6.79,6.88-11.72,8.01-5.72,1.32-11.24,.52-16.5-1.94-6.47-3.03-11.3-7.74-14.18-14.34-1.39-3.19-1.96-6.54-1.82-10.02,0-.04,.01-.08,.03-.17,9.5,2.62,18.98,5.24,28.42,7.84-.21,.92-.47,1.79-.59,2.69-.16,1.2,.12,2.34,.75,3.38,1.14,1.87,3.35,2.38,5.24,1.21,1.44-.9,2.25-2.25,2.64-3.87,.08-.35,.16-.7,.25-1.11Zm1.6,2.75c-.07,.16-.12,.29-.18,.42-.65,1.5-1.62,2.73-3,3.63-2.79,1.8-6.18,1.23-8.12-1.38-1.07-1.44-1.49-3.09-1.42-4.87,.02-.42,.07-.85,.1-1.28-7.83-2.16-15.62-4.31-23.45-6.47,0,.13,0,.18,0,.23,.27,2.81,1.09,5.45,2.42,7.93,2.71,5.07,6.73,8.79,11.88,11.27,4.65,2.25,9.55,3.11,14.67,2.12,4.49-.87,8.19-3.04,10.85-6.84,.7-1,1.27-2.07,1.7-3.25-1.83-.51-3.63-1-5.46-1.51Z"/>
      <path d="M96.22,66.42c.13,.57,.23,1.08,.38,1.58,.47,1.54,1.34,2.8,2.8,3.56,1.85,.98,3.91,.41,4.98-1.4,.9-1.52,.96-3.14,.46-4.81-.11-.38-.25-.76-.4-1.21,9.51-2.62,18.99-5.24,28.53-7.88,0,.81,.04,1.57,0,2.33-.57,8.33-4.68,14.63-11.27,19.47-3.58,2.63-7.6,4.3-12.01,4.98-4.6,.71-9.08,.3-13.33-1.71-4.95-2.35-8.22-6.17-9.8-11.43-.06-.2-.12-.41-.18-.62-.01-.04,0-.08-.02-.16,3.27-.9,6.54-1.8,9.85-2.72Zm-7.06,4.25c.07,.17,.12,.31,.17,.44,1.59,3.73,4.24,6.46,7.9,8.19,4.4,2.07,9,2.32,13.68,1.25,5.19-1.18,9.61-3.75,13.29-7.59,3.24-3.37,5.4-7.32,6.26-11.94,.11-.58,.16-1.18,.25-1.82-7.9,2.18-15.7,4.33-23.51,6.49,.3,1.74,.14,3.38-.57,4.95-1.24,2.72-4,4.13-6.83,3.43-2.02-.5-3.48-1.77-4.52-3.54-.26-.43-.46-.9-.7-1.37-1.8,.5-3.6,.99-5.44,1.5Z"/>
      <path class="cls-1" d="M69.6,69.16c1.83,.51,3.63,1,5.46,1.51-.43,1.18-1,2.25-1.7,3.25-2.66,3.8-6.35,5.98-10.85,6.84-5.13,.99-10.02,.13-14.67-2.12-5.15-2.48-9.17-6.2-11.88-11.27-1.33-2.48-2.15-5.12-2.42-7.93,0-.05,0-.1,0-.23,7.83,2.16,15.62,4.31,23.45,6.47-.04,.44-.09,.86-.1,1.28-.07,1.78,.35,3.43,1.42,4.87,1.94,2.61,5.33,3.18,8.12,1.38,1.38-.89,2.35-2.13,3-3.63,.06-.13,.11-.26,.18-.42Z"/>
      <path class="cls-1" d="M89.16,70.67c1.83-.51,3.63-1,5.44-1.5,.24,.47,.44,.94,.7,1.37,1.04,1.77,2.5,3.04,4.52,3.54,2.83,.69,5.58-.72,6.83-3.43,.72-1.57,.87-3.21,.57-4.95,7.81-2.16,15.61-4.31,23.51-6.49-.09,.65-.14,1.24-.25,1.82-.86,4.62-3.02,8.57-6.26,11.94-3.68,3.83-8.1,6.41-13.29,7.59-4.69,1.07-9.29,.82-13.68-1.25-3.65-1.72-6.31-4.45-7.9-8.19-.06-.13-.11-.27-.17-.44Z"/>
    </g>
  </g>
</svg>